<svg id="svg3856" xmlns="http://www.w3.org/2000/svg" viewBox="0 0 87.87 87.87"><defs><style>.cls-1{fill:#ffec00;}.cls-2{fill:#1b1918;}</style></defs><title>logo3</title><path id="path3680" class="cls-1" d="M439.85,497.61a43.94,43.94,0,1,1-43.94,43.94A43.94,43.94,0,0,1,439.85,497.61Z" transform="translate(-395.92 -497.61)"/><g id="Layer1003"><path id="path3845" class="cls-2" d="M439.85,499.74A41.81,41.81,0,1,1,398,541.55,41.81,41.81,0,0,1,439.85,499.74Z" transform="translate(-395.92 -497.61)"/><path id="path3847" class="cls-1" d="M439.85,507.66a33.89,33.89,0,1,1-24,9.93A33.78,33.78,0,0,1,439.85,507.66ZM463,518.44a32.68,32.68,0,1,0,9.57,23.11A32.58,32.58,0,0,0,463,518.44Z" transform="translate(-395.92 -497.61)"/><path id="path3849" class="cls-1" d="M442.34,565.28a12.07,12.07,0,0,1-2.58,7.49,12.07,12.07,0,0,1-2.57-7.49v-0.79a15.33,15.33,0,0,0,2.48.24l0.11,2.73,0.12-2.73a15.23,15.23,0,0,0,2.44-.21v0.76Zm13.94-27.16s2.42-3.14,2.38-5.39c-0.85-.07-3.13,2.08-3.13,2.08s2.93-4.21,2.93-6.28c0-.11,0-0.22,0-0.33-0.67.13-3.38,2.75-3.38,2.75s2.81-4.18,2.81-6a2.77,2.77,0,0,0-.19-1c-0.71,0-2.79,2.3-2.79,2.3s2.41-3.78,2.33-5.72a3.56,3.56,0,0,0,0-.49c-0.26-1.37-.46-3-0.55-3.95-1.58.78-5.41,2.81-6.91,4.86a17.55,17.55,0,0,0-3,9.86v5.43c0,0.06,0,.12,0,0.18a3.87,3.87,0,0,1-1.45,3.31,4.2,4.2,0,0,1-.4.27v1.38a3.32,3.32,0,0,1,1.39,2.55c0,1.55-1.36,2.91-3.36,3.61v1.29c4.16-.47,5.46-1.93,6.63-3.25h0l0.24-.27h0c0.63-.7,1.13-2.26,1.48-4.53a61,61,0,0,0,.53-8.77,26.38,26.38,0,0,1,2.3-10.45h0l0.44-.93-0.32,1h0a31,31,0,0,0-1.9,10.43,64.17,64.17,0,0,1-.56,8.93c-0.31,2-.79,3.76-1.54,4.58h0l-0.24.27a8.67,8.67,0,0,1-3,2.42,12.85,12.85,0,0,1-4,1v1.88a24.15,24.15,0,0,0,7.53-2,14,14,0,0,0,7.4-7.43l-2,.48s2.75-2.43,2.74-4.93A8.42,8.42,0,0,0,456.28,538.12Zm-18.7-7.79a2.64,2.64,0,0,1,4.53,0,1.82,1.82,0,0,1,.15.79v0h-4.84v0A1.81,1.81,0,0,1,437.59,530.33Zm2.94,1.26h1.56c0,0.23.08,0.77,0.13,1.68Zm-1.8,8.65h-1.11c0-.19-0.06-0.58-0.1-1.21Zm-1.24-1.73c0-.43,0-0.94,0-1.54l3.28,3.27h-1.49Zm-0.05-2c0-.19,0-0.39,0-0.6s0-.6,0-0.87l4.7,4.66c0,0.27,0,.47-0.06.58h-0.86Zm-1.62,6.18h0.59v-2h-0.59v2Zm6.42-4.87c0,0.57,0,1-.07,1.42l-4.72-4.68c0-.58,0-1.07.05-1.47Zm1,4.87h0.59v-2h-0.59v2Zm-0.4,0h-6v-2h6v2ZM438,531.58l4.26,4.21v0.07c0,0.52,0,1,0,1.42l-4.72-4.71c0-.5.07-0.83,0.09-1H438Zm2,0,2.2,2.19c0,0.44,0,.95,0,1.53l-3.76-3.72H440Zm-3.44,15.88c-2-.71-3.28-2-3.28-3.58a3.33,3.33,0,0,1,1.42-2.57v-1.39l-0.34-.23a3.87,3.87,0,0,1-1.45-3.31c0-.06,0-0.12,0-0.18v-5.43a17.55,17.55,0,0,0-3-9.86c-1.49-2.05-5.33-4.08-6.91-4.86-0.09.93-.3,2.57-0.55,3.95a2.71,2.71,0,0,0,0,.49c0,1.57,2.18,5.46,2.18,5.46s-1.92-2.07-2.64-2a2.76,2.76,0,0,0-.19,1c0,1.85,2.88,5.73,2.88,5.73L422.6,529h0a8,8,0,0,0-1.35-.85c0,0.11,0,.22,0,0.33,0,2.07,3.29,6.49,3.29,6.49s-2.56-2.35-3.49-2.29c0,2,2.38,5.39,2.38,5.39a6.89,6.89,0,0,0-2.31-.94c0,2.7,2.74,4.93,2.74,4.93l-2-.48a14,14,0,0,0,7.4,7.43,24.06,24.06,0,0,0,7.35,2v-1.88a12.62,12.62,0,0,1-3.87-1,8.68,8.68,0,0,1-3-2.42l-0.24-.26h0c-0.74-.82-1.23-2.57-1.54-4.58a64.17,64.17,0,0,1-.56-8.93,31,31,0,0,0-1.9-10.43l0.12,0h0A26.39,26.39,0,0,1,427.9,532a61,61,0,0,0,.53,8.77c0.34,2.26.84,3.82,1.48,4.53h0l0.24,0.27h0a8.23,8.23,0,0,0,2.88,2.3,11.94,11.94,0,0,0,3.57.93v-1.3Zm-11.84,2.48a2.4,2.4,0,0,1-1.09-1.08,0.35,0.35,0,0,1,.15-0.37,2.16,2.16,0,0,1,2.1.16ZM440,563.89a15.92,15.92,0,0,0,8-2.26,10.22,10.22,0,0,1,2.92-1.39l0.14,0a50.36,50.36,0,0,0,5.08-1.38,3,3,0,0,0,1.9-1.46,0.43,0.43,0,0,1,.32.27c-0.45,1.46-3.29,2.15-4.94,2.44a14.53,14.53,0,0,0-5.51,2.14,15.22,15.22,0,0,1-16,0,14.53,14.53,0,0,0-5.51-2.14c-1.65-.28-4.49-1-4.94-2.44a0.43,0.43,0,0,1,.32-0.27,3,3,0,0,0,1.9,1.46,50.34,50.34,0,0,0,5.08,1.38l0.14,0a10.22,10.22,0,0,1,2.92,1.39,15.92,15.92,0,0,0,8,2.26H440Zm19.2-13.18a1.91,1.91,0,0,1-.86,1.83,6.29,6.29,0,0,1-2,1.22,1,1,0,0,0-.21-0.28c-0.56-.54-1.64-0.47-3-0.38a1.15,1.15,0,0,1-.87-0.11,0.3,0.3,0,0,1,.22-0.26l0.27-.12a22.72,22.72,0,0,0,3.36-1.76,3.14,3.14,0,0,0,1.38-1.51Zm-36.37,3.75c-2.05-.83-3.54-2.16-3.38-3a0.76,0.76,0,0,1,.38-0.58,0.82,0.82,0,0,1,.42-0.08,2.18,2.18,0,0,0,.95,1.9,6.4,6.4,0,0,0,2.19,1.29,0.89,0.89,0,0,0,0,.33,1.06,1.06,0,0,0,.17.4Zm4.86,0.48c-0.74-.17-1.67-0.41-2.11-0.57,0.18,0,.45,0,0.88.08a5,5,0,0,0,1.58,0Zm-7.13-4.23,1.74-1.37a3.14,3.14,0,0,0,1.38,1.51,22.7,22.7,0,0,0,3.36,1.76l0.27,0.12a0.3,0.3,0,0,1,.22.26,1.15,1.15,0,0,1-.87.11c-1.37-.09-2.45-0.16-3,0.38a1,1,0,0,0-.21.28,6.29,6.29,0,0,1-2-1.22A1.91,1.91,0,0,1,420.54,550.71Zm19.2,13a15.62,15.62,0,0,1-7.77-2.2,10.51,10.51,0,0,0-3-1.43l-0.14,0a49.92,49.92,0,0,1-5-1.37,2.58,2.58,0,0,1-1.78-1.4,28.87,28.87,0,0,0,1.79-2.3L423.9,555a17,17,0,0,0,1.95.54,54.86,54.86,0,0,1,5.38,1.56c1.4,0.54,2.55,1.08,3.47,1.52,0.63,0.3,1.12.53,1.51,0.67l0.47,0.19a7.46,7.46,0,0,0,3.06.68H440a7.46,7.46,0,0,0,3.06-.68l0.47-.19c0.39-.14.88-0.38,1.51-0.67,0.92-.43,2.07-1,3.47-1.52a54.84,54.84,0,0,1,5.38-1.56,17,17,0,0,0,1.95-.54l0.14-.09a28.91,28.91,0,0,0,1.79,2.3,2.58,2.58,0,0,1-1.78,1.4,49.94,49.94,0,0,1-5,1.37l-0.14,0a10.51,10.51,0,0,0-3,1.43,15.62,15.62,0,0,1-7.77,2.2h-0.25Zm12-9.26a5,5,0,0,0,1.58,0c0.43,0,.71-0.07.88-0.08-0.44.16-1.37,0.4-2.11,0.57Zm4.47,0.29a1.06,1.06,0,0,0,.17-0.4,0.9,0.9,0,0,0,0-.33,6.4,6.4,0,0,0,2.19-1.29,2.18,2.18,0,0,0,.95-1.9,0.82,0.82,0,0,1,.42.08,0.76,0.76,0,0,1,.38.58c0.16,0.86-1.33,2.18-3.38,3ZM439.73,560a7,7,0,0,1-2.92-.65l-0.48-.19c-0.37-.14-0.86-0.37-1.48-0.66-0.93-.44-2.08-1-3.49-1.53a55.14,55.14,0,0,0-5.42-1.57c-0.93-.24-1.73-0.44-1.87-0.51a0.84,0.84,0,0,1-.4-0.56,0.71,0.71,0,0,1,.21-0.67c0.43-.42,1.32-0.39,2.74-0.29a1.22,1.22,0,0,0,1.17-.26,0.47,0.47,0,0,0-.34-0.52l-0.29-.13a22.45,22.45,0,0,1-3.31-1.74,2.69,2.69,0,0,1-1.33-1.53h0v-0.06a1.39,1.39,0,0,1,.35-1.37,2.27,2.27,0,0,1,1.47-.49,4.52,4.52,0,0,1,2.68.85,0.67,0.67,0,0,1-.48.63c-0.46-.28-2-1.1-2.94-0.37a0.53,0.53,0,0,0-.23.56c0.18,0.82,2.31,1.94,4.08,2.64,1.1,0.44,1.68,1,1.63,1.63v0a1,1,0,0,1-.5.74,3.27,3.27,0,0,1-2.1.28c-1.31-.15-1.43-0.08-1.46,0-0.1.36,3.05,1,3.09,1a43.74,43.74,0,0,1,7.28,2.64,7.78,7.78,0,0,0,8.94,0,43.75,43.75,0,0,1,7.28-2.64s3.19-.63,3.09-1c0-.13-0.15-0.19-1.46,0a3.27,3.27,0,0,1-2.1-.28,1,1,0,0,1-.5-0.74v0c-0.05-.61.53-1.19,1.63-1.63,1.77-.71,3.9-1.82,4.08-2.64a0.53,0.53,0,0,0-.23-0.56c-0.93-.73-2.48.09-2.94,0.37a0.74,0.74,0,0,1-.48-0.63,4.52,4.52,0,0,1,2.68-.85,2.27,2.27,0,0,1,1.47.49,1.39,1.39,0,0,1,.35,1.37v0.06h0a2.69,2.69,0,0,1-1.33,1.53,22.45,22.45,0,0,1-3.31,1.74l-0.29.13a0.47,0.47,0,0,0-.34.52,1.22,1.22,0,0,0,1.17.26c1.42-.09,2.31-0.13,2.74.29a0.71,0.71,0,0,1,.21.67,0.84,0.84,0,0,1-.4.56c-0.14.08-.94,0.28-1.87,0.51a55.17,55.17,0,0,0-5.42,1.57c-1.41.54-2.57,1.09-3.49,1.53-0.62.29-1.11,0.52-1.48,0.66l-0.48.19A7.05,7.05,0,0,1,440,560h-0.25Zm14.07-11.3a2.16,2.16,0,0,1,2.1-.16,0.35,0.35,0,0,1,.15.37,2.4,2.4,0,0,1-1.09,1.08Zm-16.6,9.85V543.45l2.4-.45v16.08A6.42,6.42,0,0,1,437.19,558.51Zm2.8,0.58V543l2.35,0.45v15.14A6.23,6.23,0,0,1,440,559.09Z" transform="translate(-395.92 -497.61)"/><path id="path3851" class="cls-1" d="M409.33,522.6a1.42,1.42,0,0,1,.73,1,1.86,1.86,0,0,1-.24,1.27,2.61,2.61,0,0,1-.7.75,0.8,0.8,0,0,0-.21.22,0.43,0.43,0,0,0,.08.49l-0.07.12-1.68-1,0.07-.12a2.4,2.4,0,0,0,1.26.09,1.43,1.43,0,0,0,1-.71,1,1,0,0,0,.14-0.64,0.67,0.67,0,0,0-.35-0.54,0.86,0.86,0,0,0-.78,0,4.62,4.62,0,0,0-.69.41,6.9,6.9,0,0,1-.8.49,2,2,0,0,1-.9.23,1.33,1.33,0,0,1-.65-0.18,1.37,1.37,0,0,1-.69-0.94,1.62,1.62,0,0,1,.2-1.16,1.93,1.93,0,0,1,.29-0.39,3.9,3.9,0,0,1,.35-0.28,1.3,1.3,0,0,0,.29-0.26,0.34,0.34,0,0,0-.17-0.4l0.06-.1,1.5,0.81-0.07.14a1.86,1.86,0,0,0-1.09-.07,1.32,1.32,0,0,0-.87.63,0.94,0.94,0,0,0-.13.57,0.6,0.6,0,0,0,.31.48,0.83,0.83,0,0,0,.78,0,7.2,7.2,0,0,0,.79-0.49,4.45,4.45,0,0,1,1.08-.58A1.43,1.43,0,0,1,409.33,522.6Zm2.81-4.43,1.21,1.11-2.52,3.63-0.12-.08,0.1-.14a0.49,0.49,0,0,0,.08-0.57,1.64,1.64,0,0,0-.37-0.3l-2.76-1.91a2.55,2.55,0,0,0-.36-0.23,0.35,0.35,0,0,0-.25,0,0.65,0.65,0,0,0-.31.26l-0.1.14-0.12-.08,2.44-3.52,1.24,0.86-0.08.12a2,2,0,0,0-.74-0.2,1.11,1.11,0,0,0-.7.26,3.08,3.08,0,0,0-.51.61l-0.3.43,1.71,1.18,0.06-.08a0.82,0.82,0,0,0,.12-0.82,1.9,1.9,0,0,0-.56-0.67l0.08-.12,2.2,1.52-0.08.12a1,1,0,0,0-1.59.22l1.19,0.82,0.3,0.21a0.39,0.39,0,0,0,.35,0,0.63,0.63,0,0,0,.23-0.23l0.17-.25a1.67,1.67,0,0,0-.1-2.22Zm3-5.4-0.11.1a2,2,0,0,0-1.11-.35,1.58,1.58,0,0,0-1.52,1.24,1.58,1.58,0,0,0,.07.93,3.25,3.25,0,0,0,.7,1.08,2.54,2.54,0,0,0,2,1,1.51,1.51,0,0,0,.9-0.45,2.3,2.3,0,0,0,.62-1.87l0.3,0.32a2.65,2.65,0,0,1-.86,2,3.14,3.14,0,0,1-1.22.74,2.31,2.31,0,0,1-1.42,0,2.61,2.61,0,0,1-1.15-.71,2.69,2.69,0,0,1-.67-1.28,2.72,2.72,0,0,1,.06-1.45,2.79,2.79,0,0,1,.76-1.21,3.14,3.14,0,0,1,1-.61,1.75,1.75,0,0,0,.41-0.2,0.34,0.34,0,0,0,0-.49l0.11-.1Zm4.12-5-0.09.06a0.54,0.54,0,0,0-.25.61,1.35,1.35,0,0,0,.22.38l1.15,1.56a5.57,5.57,0,0,1,.61,1,1.56,1.56,0,0,1,0,1.1,2.1,2.1,0,0,1-.81,1,2.37,2.37,0,0,1-.93.46,1.51,1.51,0,0,1-1-.11,2.18,2.18,0,0,1-.72-0.68l-1.48-2a3.72,3.72,0,0,0-.25-0.32,0.41,0.41,0,0,0-.35-0.13,1,1,0,0,0-.39.21l-0.09-.12L417,509.2l0.09,0.12-0.11.08a0.55,0.55,0,0,0-.32.52,1.8,1.8,0,0,0,.28.47l1.48,2a3.72,3.72,0,0,0,.46.55,0.87,0.87,0,0,0,.65.22,1.12,1.12,0,0,0,.57-0.24,1.15,1.15,0,0,0,.51-1.24,3.17,3.17,0,0,0-.56-1L418.85,509a0.72,0.72,0,0,0-.61-0.41,1.08,1.08,0,0,0-.44.21l-0.09-.12,1.43-1Zm8.11,1.38-1.42.76-2.55-1.28-0.3.16,0.67,1.26a2.79,2.79,0,0,0,.2.34,0.4,0.4,0,0,0,.33.16,1.22,1.22,0,0,0,.45-0.17l0.07,0.13-2.31,1.23-0.07-.13a0.69,0.69,0,0,0,.47-0.52,1.63,1.63,0,0,0-.2-0.48l-1.56-2.92a2.72,2.72,0,0,0-.2-0.34,0.4,0.4,0,0,0-.33-0.16,1.21,1.21,0,0,0-.45.17l-0.07-.12,2.09-1.12a6.46,6.46,0,0,1,1-.47,1.55,1.55,0,0,1,1.08,0,1.31,1.31,0,0,1,.23,2.25l1.9,0.95a2.38,2.38,0,0,0,.5.2,0.64,0.64,0,0,0,.38-0.06Zm-3.54-2.3a1,1,0,0,0-1.55-.46l-0.35.19,1.05,2,0.19-.1a2.79,2.79,0,0,0,.56-0.37,0.83,0.83,0,0,0,.28-0.58A1.27,1.27,0,0,0,423.8,506.86Zm6.27,1.62-2.55.8,0-.14,0.16-.05a0.49,0.49,0,0,0,.41-0.4,1.63,1.63,0,0,0-.1-0.47l-1-3.2a3.21,3.21,0,0,0-.12-0.35,0.4,0.4,0,0,0-.27-0.22,0.7,0.7,0,0,0-.35,0l-0.16.05,0-.14,2.55-.8,0,0.14-0.16.05a0.5,0.5,0,0,0-.41.4,1.59,1.59,0,0,0,.1.46l1,3.2a3.31,3.31,0,0,0,.12.35,0.4,0.4,0,0,0,.28.21,0.66,0.66,0,0,0,.35,0l0.16-.05Zm4.06-4.82-0.13,0a2.44,2.44,0,0,0-.34-0.53,1,1,0,0,0-.54-0.31,1.29,1.29,0,0,0-.51,0l-0.37.09,0.89,3.84a3.19,3.19,0,0,0,.1.36,0.39,0.39,0,0,0,.26.23,0.65,0.65,0,0,0,.35,0l0.17,0,0,0.14-2.6.6,0-.14,0.17,0a0.5,0.5,0,0,0,.44-0.37,1.58,1.58,0,0,0-.07-0.47L431,503.25l-0.36.08a1.08,1.08,0,0,0-.68.38,1.44,1.44,0,0,0-.21.94l-0.14,0-0.31-1.35,4.47-1Zm6.24-1.7a0.74,0.74,0,0,0-.37.18,4.48,4.48,0,0,0-.53.9l-1,1.93,0.09,1.23a3.16,3.16,0,0,0,0,.37,0.39,0.39,0,0,0,.22.27,0.6,0.6,0,0,0,.33,0l0.28,0V507l-2.86.22v-0.15l0.27,0a0.71,0.71,0,0,0,.35-0.11,0.38,0.38,0,0,0,.14-0.19,1.59,1.59,0,0,0,0-.48l-0.08-1-1.37-2.09q-0.32-.48-0.38-0.55a0.7,0.7,0,0,0-.58-0.25v-0.15l2.44-.19v0.15h-0.11c-0.26,0-.39.1-0.38,0.23a2.37,2.37,0,0,0,.35.66l1.05,1.61,0.8-1.6a2.14,2.14,0,0,0,.28-0.77c0-.17-0.21-0.25-0.59-0.24v-0.15l1.56-.12V502Zm8.54,4.81a1.42,1.42,0,0,1-.79,1,1.86,1.86,0,0,1-1.28.14,2.6,2.6,0,0,1-.92-0.45,0.8,0.8,0,0,0-.27-0.14,0.43,0.43,0,0,0-.44.22l-0.14,0,0.43-1.88,0.14,0a2.4,2.4,0,0,0,.28,1.23,1.43,1.43,0,0,0,1,.76,1,1,0,0,0,.66-0.05,0.67,0.67,0,0,0,.41-0.49,0.86,0.86,0,0,0-.23-0.74,4.6,4.6,0,0,0-.59-0.54,6.92,6.92,0,0,1-.7-0.63,2,2,0,0,1-.48-0.79,1.32,1.32,0,0,1,0-.68,1.37,1.37,0,0,1,.7-0.94,1.62,1.62,0,0,1,1.17-.15,2,2,0,0,1,.46.17l0.37,0.25a1.32,1.32,0,0,0,.33.2,0.34,0.34,0,0,0,.33-0.28l0.11,0-0.34,1.67-0.15,0a1.86,1.86,0,0,0-.25-1.07,1.32,1.32,0,0,0-.86-0.65,0.94,0.94,0,0,0-.59,0,0.6,0.6,0,0,0-.37.44,0.84,0.84,0,0,0,.27.73,7.25,7.25,0,0,0,.7.61,4.45,4.45,0,0,1,.86.87A1.43,1.43,0,0,1,448.9,506.76Zm5.07,1.48-0.75,1.46-4.18-1.44,0-.14,0.16,0.06a0.49,0.49,0,0,0,.57-0.08,1.64,1.64,0,0,0,.19-0.44l1.1-3.17a2.56,2.56,0,0,0,.12-0.41,0.35,0.35,0,0,0-.07-0.24,0.65,0.65,0,0,0-.34-0.23l-0.16-.05,0-.14,4,1.4-0.49,1.43-0.14,0a2,2,0,0,0,0-.77,1.11,1.11,0,0,0-.44-0.61,3.08,3.08,0,0,0-.73-0.32l-0.5-.17-0.68,2,0.1,0a0.82,0.82,0,0,0,.82-0.1,1.9,1.9,0,0,0,.5-0.72l0.13,0-0.87,2.53-0.13,0a1.28,1.28,0,0,0-.14-1.21,1.3,1.3,0,0,0-.5-0.27l-0.47,1.36-0.12.35a0.39,0.39,0,0,0,.06.34,0.63,0.63,0,0,0,.28.16l0.29,0.1a1.67,1.67,0,0,0,2.11-.69Zm4.77,4.31-1.43-.75L456.94,509l-0.29-.16L456,510.08a2.84,2.84,0,0,0-.17.35,0.4,0.4,0,0,0,.05.37,1.22,1.22,0,0,0,.4.28l-0.07.13L453.88,510l0.07-.13a0.69,0.69,0,0,0,.7.1,1.64,1.64,0,0,0,.29-0.44l1.54-2.93a2.72,2.72,0,0,0,.17-0.35,0.4,0.4,0,0,0-.05-0.37,1.22,1.22,0,0,0-.4-0.28l0.06-.12,2.1,1.1a6.47,6.47,0,0,1,1,.58,1.55,1.55,0,0,1,.59.91,1.31,1.31,0,0,1-1.74,1.46l0.29,2.1a2.4,2.4,0,0,0,.11.53,0.64,0.64,0,0,0,.26.28Zm-0.09-4.22a1,1,0,0,0-.49-1.54l-0.36-.19-1,2,0.19,0.1a2.79,2.79,0,0,0,.62.26,0.83,0.83,0,0,0,.64-0.1A1.27,1.27,0,0,0,458.66,508.33Zm7.26,3.59a0.81,0.81,0,0,0-.57-0.08,4.72,4.72,0,0,0-.92.39l-3.82,1.93-0.1-.08,1.18-4.26,0.19-.69a0.7,0.7,0,0,0-.2-0.63l0.09-.11,1.91,1.54-0.09.11-0.06-.06c-0.28-.22-0.47-0.27-0.57-0.14a2.9,2.9,0,0,0-.23.66L462,513.17l2.21-1.13a2.58,2.58,0,0,0,.7-0.44,0.34,0.34,0,0,0,0-.41,1.19,1.19,0,0,0-.29-0.32l0.09-.11,1.31,1.05Zm-1,5.89L463,516l0.1-.11,0.12,0.12a0.49,0.49,0,0,0,.55.16,1.63,1.63,0,0,0,.36-0.32l2.3-2.44,0.25-.28a0.4,0.4,0,0,0,.06-0.34,0.7,0.7,0,0,0-.2-0.29l-0.12-.12,0.1-.11,1.94,1.84-0.1.11-0.12-.12a0.5,0.5,0,0,0-.55-0.17,1.6,1.6,0,0,0-.36.32l-2.3,2.44-0.25.28a0.4,0.4,0,0,0,0,.35,0.66,0.66,0,0,0,.2.29l0.12,0.12Zm6.09,2-0.09-.12a2,2,0,0,0,.45-1.08,1.58,1.58,0,0,0-1.09-1.63,1.59,1.59,0,0,0-.93,0,3.25,3.25,0,0,0-1.14.59,2.54,2.54,0,0,0-1.21,1.86,1.51,1.51,0,0,0,.36.93,2.3,2.3,0,0,0,1.8.78l-0.35.27a2.65,2.65,0,0,1-1.89-1,3.15,3.15,0,0,1-.62-1.29,2.31,2.31,0,0,1,.13-1.41,2.61,2.61,0,0,1,.82-1.08,2.69,2.69,0,0,1,1.33-.55,2.72,2.72,0,0,1,1.44.19,2.79,2.79,0,0,1,1.13.86,3.14,3.14,0,0,1,.52,1,1.75,1.75,0,0,0,.17.43,0.34,0.34,0,0,0,.49,0l0.09,0.12Zm1.32,5.86-1.53.6-2.16-3.85,0.13-.07,0.08,0.15a0.49,0.49,0,0,0,.47.32,1.65,1.65,0,0,0,.43-0.2l2.92-1.64a2.52,2.52,0,0,0,.36-0.23,0.34,0.34,0,0,0,.11-0.22,0.65,0.65,0,0,0-.1-0.39l-0.08-.15,0.13-.07,2.1,3.73-1.32.74-0.07-.12a2,2,0,0,0,.5-0.58,1.11,1.11,0,0,0,.08-0.74,3.08,3.08,0,0,0-.33-0.72l-0.26-.46-1.81,1,0,0.09a0.82,0.82,0,0,0,.68.47,1.91,1.91,0,0,0,.85-0.2l0.07,0.12-2.34,1.31-0.07-.12a1.28,1.28,0,0,0,.7-1,1.3,1.3,0,0,0-.19-0.53l-1.26.71-0.32.18a0.39,0.39,0,0,0-.19.29,0.63,0.63,0,0,0,.1.31l0.15,0.27a1.67,1.67,0,0,0,2,.88Z" transform="translate(-395.92 -497.61)"/><path id="path3853" class="cls-1" d="M436.92,579.59a1.42,1.42,0,0,1-.69,1.07,1.86,1.86,0,0,1-1.27.26,2.61,2.61,0,0,1-1-.36,0.8,0.8,0,0,0-.28-0.11,0.43,0.43,0,0,0-.42.26l-0.14,0,0.25-1.91,0.14,0a2.4,2.4,0,0,0,.39,1.2,1.43,1.43,0,0,0,1,.67,1,1,0,0,0,.65-0.11A0.67,0.67,0,0,0,436,580a0.86,0.86,0,0,0-.3-0.72,4.58,4.58,0,0,0-.64-0.48,6.92,6.92,0,0,1-.76-0.56,2,2,0,0,1-.55-0.75,1.32,1.32,0,0,1-.08-0.67,1.37,1.37,0,0,1,.6-1,1.62,1.62,0,0,1,1.15-.26,1.94,1.94,0,0,1,.47.12l0.4,0.22a1.31,1.31,0,0,0,.35.17,0.34,0.34,0,0,0,.3-0.31h0.11l-0.18,1.69-0.15,0a1.86,1.86,0,0,0-.35-1,1.32,1.32,0,0,0-.92-0.56,0.94,0.94,0,0,0-.58.1,0.6,0.6,0,0,0-.33.47,0.83,0.83,0,0,0,.34.7,7.24,7.24,0,0,0,.75.54,4.45,4.45,0,0,1,.94.78A1.43,1.43,0,0,1,436.92,579.59Zm5.62,1.57-2.47-.06V581h0.1c0.33,0,.5-0.07.51-0.24a0.52,0.52,0,0,0,0-.14s0-.13-0.1-0.28l-0.26-.64-1.81,0-0.22.49a1.07,1.07,0,0,0-.11.4,0.34,0.34,0,0,0,.17.32,1.49,1.49,0,0,0,.5.1v0.15l-1.7,0v-0.15a0.84,0.84,0,0,0,.57-0.36,4,4,0,0,0,.34-0.62l1.92-4H440l1.75,4.24a2.47,2.47,0,0,0,.42.75,0.6,0.6,0,0,0,.36.14v0.15Zm-2.36-1.78-0.72-1.77-0.83,1.74Zm6.21-.26a1.42,1.42,0,0,1-.39,1.21,1.86,1.86,0,0,1-1.16.57,2.6,2.6,0,0,1-1-.11,0.8,0.8,0,0,0-.3,0,0.43,0.43,0,0,0-.34.36l-0.14,0-0.25-1.91,0.14,0a2.4,2.4,0,0,0,.69,1.06,1.43,1.43,0,0,0,1.17.38,1,1,0,0,0,.6-0.28,0.68,0.68,0,0,0,.22-0.6,0.86,0.86,0,0,0-.47-0.62,4.62,4.62,0,0,0-.74-0.3,6.9,6.9,0,0,1-.88-0.35,2,2,0,0,1-.72-0.58,1.33,1.33,0,0,1-.25-0.63,1.37,1.37,0,0,1,.33-1.12,1.62,1.62,0,0,1,1-.54,1.94,1.94,0,0,1,.49,0l0.44,0.11a1.31,1.31,0,0,0,.38.07,0.34,0.34,0,0,0,.21-0.38h0.11l0.26,1.68-0.15,0a1.86,1.86,0,0,0-.61-0.91,1.32,1.32,0,0,0-1-.31,0.94,0.94,0,0,0-.54.24,0.6,0.6,0,0,0-.2.54,0.84,0.84,0,0,0,.51.59,7.31,7.31,0,0,0,.87.33,4.45,4.45,0,0,1,1.11.51A1.43,1.43,0,0,1,446.4,579.12Z" transform="translate(-395.92 -497.61)"/></g></svg>