<svg id="svg3856" xmlns="http://www.w3.org/2000/svg" viewBox="0 0 87.87 87.87"><defs><style>.cls-1{fill:#ffec00;}.cls-2{fill:#1b1918;}.cls-3{fill:#868789;}</style></defs><title>logo2</title><path id="path3682" class="cls-1" d="M346.18,497.61a43.94,43.94,0,1,1-43.94,43.94A43.94,43.94,0,0,1,346.18,497.61Z" transform="translate(-302.24 -497.61)"/><path id="path3684" class="cls-2" d="M346.18,499.74a41.81,41.81,0,1,1-41.81,41.81A41.81,41.81,0,0,1,346.18,499.74Z" transform="translate(-302.24 -497.61)"/><path id="path3686" class="cls-1" d="M346.18,507.53a34,34,0,1,1-34,34A34,34,0,0,1,346.18,507.53Z" transform="translate(-302.24 -497.61)"/><path id="path3688" class="cls-2" d="M346.18,508.95a32.6,32.6,0,1,1-32.6,32.6A32.6,32.6,0,0,1,346.18,508.95Z" transform="translate(-302.24 -497.61)"/><g id="Layer1000"><path id="path3690" class="cls-2" d="M345.64,509a32.23,32.23,0,1,1-32.23,32.23A32.23,32.23,0,0,1,345.64,509Z" transform="translate(-302.24 -497.61)"/><path id="path3692" class="cls-1" d="M353.86,567.48A7.38,7.38,0,0,1,352,565.7a5,5,0,0,0,.41.34c1.67,1.25,2.65,1.19,3.07,1.08s0.76-.56.18-0.86a6.47,6.47,0,0,1-2.17-2.07l-0.62-1A5.88,5.88,0,0,0,355.1,565c1.83,0.77,2.62.38,2.93,0.13a0.52,0.52,0,0,0-.15-1,6,6,0,0,1-2.53-1.47c-1.22-1.17-1.85-1.83-1.85-1.83l-1.19,1.4-0.11-.19-0.42.19a18.47,18.47,0,0,1-3.74,4.15l0.06,0.2c0.65,2,1.5,2.49,1.9,2.64s0.94,0,.64-0.61a6.43,6.43,0,0,1-.59-2.2,5.84,5.84,0,0,0,.58.57c1.66,1.41,2.63,1.44,3,1.37S354.44,567.85,353.86,567.48ZM363,519.55a40.56,40.56,0,0,1-2.15,9.86c-0.92,2.45-1.63,4.27-2.1,5.47a5,5,0,0,0-.57-2.29c-0.37-.63-1.15-0.92-1.24.25a13.26,13.26,0,0,1-1.56,5l-0.44.76c-0.82,1.08-2.22,3-2.91,4a7.41,7.41,0,0,0-.92,2.25q0.59,0.11,1.2.18a19.72,19.72,0,0,0,2,.06,0.78,0.78,0,0,1,.47.13l0.9-1,0.28-.4a7.34,7.34,0,0,0,1.07-2.67c0.1-.64.52-0.45,0.69-0.09a2.74,2.74,0,0,1,.22,1.29l0.47-1a14.21,14.21,0,0,1-1,3.27c-0.39.83-.69,1.46-0.88,1.86a1.74,1.74,0,0,0-.14-0.82c-0.11-.23-0.38-0.35-0.44.05a4.66,4.66,0,0,1-.68,1.7l-0.18.26-0.16.18q-0.06,1.87-.1,3.73a23,23,0,0,1-.44,4.1,1.76,1.76,0,0,0,.59.44,1,1,0,0,0,1,.06c0.12-.09.18-0.29,0-0.34a1.92,1.92,0,0,1-.71-0.39,2.43,2.43,0,0,0,.47.1,1.52,1.52,0,0,0,1.36-.28,4.56,4.56,0,0,0,1.48.22,0.36,0.36,0,0,1,.3.62c-0.18.23-.69,0.65-2.18,0.49a3.81,3.81,0,0,1-.74-0.15,3,3,0,0,0,1.12.61c0.32,0.08.23,0.4,0,.53a1.57,1.57,0,0,1-1.63-.09,3.08,3.08,0,0,1-1.26-1.13,18.49,18.49,0,0,1-1.31,3.72l0.31,0,0.32,0a5.93,5.93,0,0,0,2.83,2.44c1.84,0.65,2.64.21,2.94-.06s0.44-.86-0.15-1a5.45,5.45,0,0,1-2.11-.94,6.9,6.9,0,0,0,1.35.18c2.71,0.07,3.57-.75,3.85-1.18a0.65,0.65,0,0,0-.63-1.07,8.29,8.29,0,0,1-2.82-.22,13,13,0,0,0,2.62-.18c3.32-.6,3.95-1.53,4.08-2s-0.36-1.08-1.3-.78a14.39,14.39,0,0,1-4.29.5,13.32,13.32,0,0,0,2.57-.55c3.66-1.19,4.36-2.41,4.5-3s-0.38-1.27-1.42-.78a14.27,14.27,0,0,1-3,.94,13.75,13.75,0,0,0,1.45-.55c4-1.8,4.82-3.35,5-4.05s-0.41-1.51-1.56-.81a15.19,15.19,0,0,1-2.47,1.14,14.47,14.47,0,0,0,1.32-1c3.46-2.95,4.15-4.9,4.31-5.74s-0.32-1.64-1.31-.59a17.68,17.68,0,0,1-2.21,1.92c2.89-3.4,3.52-5.48,3.67-6.41s-0.31-1.86-1.33-.48a24.83,24.83,0,0,1-3.78,3.91c0.42-.5.84-1,1.26-1.62,3.68-5.09,4.31-7.61,4.42-8.62s-0.49-1.64-1.53.06a38.12,38.12,0,0,1-4.29,5.55c3.3-7.58,4-11.43,4.11-13s-0.32-2.6-1.28,0a67.37,67.37,0,0,1-3.88,8.32h0c1.1-7.12.43-10.26,0-11.48S363.2,517.25,363,519.55Zm-5.84,35.68h0a0.23,0.23,0,0,0-.19-0.39,2.92,2.92,0,0,1-1-.15,4.57,4.57,0,0,0,.92,0c1.18-.12,1.43-0.43,1.48-0.58a0.2,0.2,0,0,0,0-.13,7.44,7.44,0,0,0,1.77-.13c0.53-.13.77,0.24,0.68,0.49s-0.48.73-2.33,0.92A7.09,7.09,0,0,1,357.19,555.23Zm1.2-1.35a0.37,0.37,0,0,0-.39-0.1,5.06,5.06,0,0,1-1.52.06,4.68,4.68,0,0,0,.91-0.12c1.31-.32,1.59-0.73,1.66-0.92s-0.1-.46-0.48-0.31a5,5,0,0,1-1.08.25,4.84,4.84,0,0,0,.52-0.15c1.46-.52,1.78-1,1.86-1.29s-0.1-.54-0.53-0.33a5.33,5.33,0,0,1-.9.33,5.1,5.1,0,0,0,.49-0.32,3.86,3.86,0,0,0,1.66-1.9c0.08-.29-0.07-0.58-0.44-0.24a6.21,6.21,0,0,1-.83.61,5,5,0,0,0,1.46-2.15c0.09-.35-0.06-0.66-0.45-0.2a8.74,8.74,0,0,1-1.43,1.27c0.16-.17.32-0.34,0.48-0.53a7.08,7.08,0,0,0,1.78-2.91c0.07-.35-0.13-0.59-0.54,0a13.42,13.42,0,0,1-1.65,1.83,15.85,15.85,0,0,0,1.79-4.45c0.09-.55,0-0.92-0.45,0a23.71,23.71,0,0,1-1.58,2.81h0a8.85,8.85,0,0,0,.31-4,0.51,0.51,0,0,0-.25-0.39l0.6-1.29A22.45,22.45,0,0,0,361,534c0.19-1.26.69-.93,0.86-0.24s0.42,2.45-.49,6.33h0a37.29,37.29,0,0,0,2.49-4.43c0.64-1.38.86-.8,0.71,0.07s-0.67,3-2.81,7a21.1,21.1,0,0,0,2.6-2.88c0.64-.89.95-0.52,0.84,0s-0.55,1.92-2.8,4.57c-0.25.3-.51,0.58-0.76,0.84a13.75,13.75,0,0,0,2.25-2c0.62-.72.85-0.22,0.71,0.32a7.86,7.86,0,0,1-2.3,3.38,9.78,9.78,0,0,0,1.3-1c0.59-.54.82-0.08,0.7,0.38s-0.59,1.51-2.62,3a8,8,0,0,1-.77.5,8.39,8.39,0,0,0,1.41-.52c0.66-.34.95,0.13,0.83,0.51s-0.62,1.21-2.92,2a7.6,7.6,0,0,1-.82.24,7.89,7.89,0,0,0,1.7-.39c0.59-.23.86,0.18,0.75,0.49s-0.54,1-2.61,1.45A6.94,6.94,0,0,1,358.39,553.88Z" transform="translate(-302.24 -497.61)"/><path id="path3694" class="cls-1" d="M337.21,567.48A7.38,7.38,0,0,0,339,565.7a5,5,0,0,1-.41.34c-1.67,1.25-2.65,1.19-3.07,1.08s-0.76-.56-0.18-0.86a6.47,6.47,0,0,0,2.17-2.07l0.62-1A5.88,5.88,0,0,1,336,565c-1.83.77-2.62,0.38-2.93,0.13a0.52,0.52,0,0,1,.15-1,6,6,0,0,0,2.53-1.47c1.22-1.17,1.85-1.83,1.85-1.83l1.19,1.4,0.11-.19,0.42,0.19a18.48,18.48,0,0,0,3.74,4.15l-0.06.2c-0.65,2-1.5,2.49-1.9,2.64s-0.94,0-.64-0.61a6.43,6.43,0,0,0,.59-2.2,5.85,5.85,0,0,1-.58.57c-1.66,1.41-2.63,1.44-3,1.37S336.63,567.85,337.21,567.48ZM328,519.55a40.56,40.56,0,0,0,2.15,9.86c0.92,2.45,1.63,4.27,2.1,5.47a5,5,0,0,1,.57-2.29c0.37-.63,1.15-0.92,1.24.25a13.26,13.26,0,0,0,1.56,5l0.44,0.76c0.82,1.08,2.22,3,2.91,4a7.41,7.41,0,0,1,.92,2.25q-0.6.11-1.2,0.18a19.72,19.72,0,0,1-2,.06,0.78,0.78,0,0,0-.47.13l-0.9-1-0.28-.4a7.34,7.34,0,0,1-1.07-2.67c-0.1-.64-0.52-0.45-0.69-0.09a2.74,2.74,0,0,0-.22,1.29l-0.47-1a14.21,14.21,0,0,0,1,3.27c0.39,0.83.69,1.46,0.88,1.86a1.74,1.74,0,0,1,.14-0.82c0.11-.23.38-0.35,0.44,0.05a4.66,4.66,0,0,0,.68,1.7l0.18,0.26,0.16,0.18q0.06,1.87.1,3.73a23,23,0,0,0,.44,4.1,1.76,1.76,0,0,1-.59.44,1,1,0,0,1-1,.06c-0.12-.09-0.18-0.29,0-0.34a1.92,1.92,0,0,0,.71-0.39,2.43,2.43,0,0,1-.47.1,1.52,1.52,0,0,1-1.36-.28,4.56,4.56,0,0,1-1.48.22,0.36,0.36,0,0,0-.3.62c0.18,0.23.69,0.65,2.18,0.49a3.81,3.81,0,0,0,.74-0.15,3,3,0,0,1-1.12.61c-0.32.08-.23,0.4,0,0.53a1.57,1.57,0,0,0,1.63-.09,3.08,3.08,0,0,0,1.26-1.13,18.49,18.49,0,0,0,1.31,3.72l-0.31,0-0.32,0a5.93,5.93,0,0,1-2.83,2.44c-1.84.65-2.64,0.21-2.94-.06s-0.44-.86.15-1a5.45,5.45,0,0,0,2.11-.94,6.9,6.9,0,0,1-1.35.18c-2.71.07-3.57-.75-3.85-1.18a0.65,0.65,0,0,1,.63-1.07,8.29,8.29,0,0,0,2.82-.22,13,13,0,0,1-2.62-.18c-3.32-.6-3.95-1.53-4.08-2s0.36-1.08,1.3-.78a14.39,14.39,0,0,0,4.29.5,13.32,13.32,0,0,1-2.57-.55c-3.66-1.19-4.36-2.41-4.5-3s0.38-1.27,1.42-.78a14.26,14.26,0,0,0,3,.94,13.74,13.74,0,0,1-1.45-.55c-4-1.8-4.82-3.35-5-4.05s0.41-1.51,1.56-.81a15.18,15.18,0,0,0,2.47,1.14,14.48,14.48,0,0,1-1.32-1c-3.46-2.95-4.15-4.9-4.31-5.74s0.32-1.64,1.31-.59a17.68,17.68,0,0,0,2.21,1.92c-2.89-3.4-3.52-5.48-3.67-6.41s0.31-1.86,1.33-.48a24.83,24.83,0,0,0,3.78,3.91c-0.42-.5-0.84-1-1.26-1.62-3.68-5.09-4.31-7.61-4.42-8.62s0.49-1.64,1.53.06a38.13,38.13,0,0,0,4.29,5.55c-3.3-7.58-4-11.43-4.11-13s0.32-2.6,1.28,0a67.36,67.36,0,0,0,3.88,8.32h0c-1.1-7.12-.43-10.26,0-11.48S327.87,517.25,328,519.55Zm5.84,35.68h0a0.23,0.23,0,0,1,.19-0.39,2.92,2.92,0,0,0,1-.15,4.57,4.57,0,0,1-.92,0c-1.18-.12-1.43-0.43-1.48-0.58a0.2,0.2,0,0,1,0-.13,7.44,7.44,0,0,1-1.77-.13c-0.53-.13-0.77.24-0.68,0.49s0.48,0.73,2.33.92A7.09,7.09,0,0,0,333.88,555.23Zm-1.2-1.35a0.37,0.37,0,0,1,.39-0.1,5.06,5.06,0,0,0,1.52.06,4.68,4.68,0,0,1-.91-0.12c-1.31-.32-1.59-0.73-1.66-0.92s0.1-.46.48-0.31a5,5,0,0,0,1.08.25,4.85,4.85,0,0,1-.52-0.15c-1.46-.52-1.78-1-1.86-1.29s0.1-.54.53-0.33a5.34,5.34,0,0,0,.9.33,5.1,5.1,0,0,1-.49-0.32,3.86,3.86,0,0,1-1.66-1.9c-0.08-.29.07-0.58,0.44-0.24a6.22,6.22,0,0,0,.83.61,5,5,0,0,1-1.46-2.15c-0.09-.35.06-0.66,0.45-0.2a8.74,8.74,0,0,0,1.43,1.27c-0.16-.17-0.32-0.34-0.48-0.53a7.08,7.08,0,0,1-1.78-2.91c-0.07-.35.13-0.59,0.54,0a13.42,13.42,0,0,0,1.65,1.83,15.85,15.85,0,0,1-1.79-4.45c-0.09-.55,0-0.92.45,0a23.71,23.71,0,0,0,1.58,2.81h0a8.85,8.85,0,0,1-.31-4,0.51,0.51,0,0,1,.25-0.39l-0.6-1.29a22.45,22.45,0,0,1-1.6-5.35c-0.19-1.26-.69-0.93-0.86-0.24s-0.42,2.45.49,6.33h0a37.29,37.29,0,0,1-2.49-4.43c-0.64-1.38-.86-0.8-0.71.07s0.67,3,2.81,7a21.09,21.09,0,0,1-2.6-2.88c-0.64-.89-0.95-0.52-0.84,0s0.55,1.92,2.8,4.57c0.25,0.3.51,0.58,0.76,0.84a13.75,13.75,0,0,1-2.25-2c-0.62-.72-0.85-0.22-0.71.32a7.86,7.86,0,0,0,2.3,3.38,9.78,9.78,0,0,1-1.3-1c-0.59-.54-0.82-0.08-0.7.38s0.59,1.51,2.62,3a8,8,0,0,0,.77.5,8.39,8.39,0,0,1-1.41-.52c-0.66-.34-0.95.13-0.83,0.51s0.62,1.21,2.92,2a7.59,7.59,0,0,0,.82.24,7.89,7.89,0,0,1-1.7-.39c-0.59-.23-0.86.18-0.75,0.49s0.54,1,2.61,1.45A6.94,6.94,0,0,0,332.68,553.88Z" transform="translate(-302.24 -497.61)"/><path id="path3696" class="cls-1" d="M341.74,575.67l-0.2,2-0.18,0a2,2,0,0,0-.47-1.27,1.57,1.57,0,0,0-1-.58,1,1,0,0,0-.73.15,0.73,0.73,0,0,0-.33.51,0.67,0.67,0,0,0,0,.36,1.48,1.48,0,0,0,.35.45,9.22,9.22,0,0,0,.88.63,4.22,4.22,0,0,1,1.28,1.14,1.63,1.63,0,0,1,.23,1.08,1.69,1.69,0,0,1-.74,1.2,2.09,2.09,0,0,1-1.53.35,2.37,2.37,0,0,1-.52-0.12,4.06,4.06,0,0,1-.6-0.29,1,1,0,0,0-.33-0.13,0.43,0.43,0,0,0-.25.06,0.61,0.61,0,0,0-.24.24l-0.16,0,0.28-2.23,0.16,0a2.57,2.57,0,0,0,.56,1.53,1.74,1.74,0,0,0,1.11.64,1.11,1.11,0,0,0,.81-0.17,0.81,0.81,0,0,0,.31-1,1.3,1.3,0,0,0-.29-0.41,5.11,5.11,0,0,0-.74-0.56,7,7,0,0,1-1.07-.82,2.09,2.09,0,0,1-.46-0.69,1.56,1.56,0,0,1-.09-0.78,1.61,1.61,0,0,1,.67-1.14,1.82,1.82,0,0,1,1.37-.33,2.23,2.23,0,0,1,.55.14,2.82,2.82,0,0,1,.47.26,1.18,1.18,0,0,0,.39.19,0.24,0.24,0,0,0,.19,0,0.8,0.8,0,0,0,.16-0.32Z" transform="translate(-302.24 -497.61)"/><path id="path3698" class="cls-1" d="M346,580.16h-2.1l-0.25.58a1.29,1.29,0,0,0-.12.48,0.4,0.4,0,0,0,.2.37,1.7,1.7,0,0,0,.58.1v0.16h-2v-0.16a0.88,0.88,0,0,0,.52-0.27,3.51,3.51,0,0,0,.5-0.9l2.1-4.76h0.08l2.17,4.86a3,3,0,0,0,.51.87,0.69,0.69,0,0,0,.42.16v0.16l-2.88,0V581.7h0.12a0.9,0.9,0,0,0,.49-0.1,0.23,0.23,0,0,0,.1-0.2,0.55,0.55,0,0,0,0-.16s-0.05-.14-0.13-0.33Zm-0.15-.32h0l-0.9-2-0.9,2.05h1.8Z" transform="translate(-302.24 -497.61)"/><path id="path3700" class="cls-1" d="M352.56,575.17l0.31,2-0.18,0a2,2,0,0,0-.78-1.1,1.57,1.57,0,0,0-1.13-.31,1,1,0,0,0-.67.33,0.73,0.73,0,0,0-.18.58,0.66,0.66,0,0,0,.14.33,1.48,1.48,0,0,0,.46.35,9.06,9.06,0,0,0,1,.38,4.23,4.23,0,0,1,1.52.77,1.64,1.64,0,0,1,.5,1,1.69,1.69,0,0,1-.4,1.35,2.09,2.09,0,0,1-1.39.73,2.41,2.41,0,0,1-.53,0,4,4,0,0,1-.65-0.13,1,1,0,0,0-.36,0,0.43,0.43,0,0,0-.23.12,0.61,0.61,0,0,0-.17.29l-0.16,0-0.3-2.22,0.16,0a2.57,2.57,0,0,0,.93,1.33,1.74,1.74,0,0,0,1.24.33,1.11,1.11,0,0,0,.74-0.37,0.81,0.81,0,0,0,0-1,1.29,1.29,0,0,0-.39-0.33,5.14,5.14,0,0,0-.86-0.35,7,7,0,0,1-1.25-.52,2.07,2.07,0,0,1-.62-0.55,1.55,1.55,0,0,1-.29-0.73,1.61,1.61,0,0,1,.35-1.27,1.83,1.83,0,0,1,1.24-.67,2.24,2.24,0,0,1,.57,0,2.77,2.77,0,0,1,.52.13,1.17,1.17,0,0,0,.43.09,0.23,0.23,0,0,0,.17-0.09,0.81,0.81,0,0,0,.08-0.35Z" transform="translate(-302.24 -497.61)"/><path id="path3702" class="cls-1" d="M343.92,534.19a1.91,1.91,0,0,1,0-1.93h0l0,0h0c0.24,0,.51.07,0.81,0.1l0.46,0h0.47c0.32,0,.63,0,0.93,0s0.55-.06.78-0.1l0-.05h0a1.87,1.87,0,0,1,0,2h-3.36Zm0-2h0Zm0,0h0Zm-0.12-.12a1.14,1.14,0,0,1,0-1.09l0.1,0c0.24,0,.51.07,0.81,0.1l0.46,0h0.47c0.32,0,.63,0,0.93,0s0.57-.06.81-0.1h0l0,0a1.11,1.11,0,0,1,0,1.12h-3.54Zm0-1.14h0Zm0,0h0Zm0,0h0Zm0,0h0Zm0,0h0Zm0-.12a1.36,1.36,0,0,1,.06-1.07h0.07c0.24,0,.51.07,0.81,0.1l0.46,0h0.47c0.32,0,.63,0,0.93,0s0.57-.06.81-0.1h0a1.36,1.36,0,0,1,.06,1.07h-3.69Zm0.07-1.09h0Zm0,0h0Zm0,0h0Zm0,0h0Zm0,0h0Zm0,0h0Zm0,0h0Zm-0.05-.1a1.47,1.47,0,0,1,0-1.14v0l0.21,0c0.24,0,.51.07,0.81,0.1l0.46,0h0.47c0.32,0,.63,0,0.93,0s0.57-.06.81-0.1l0.17,0v0a1.45,1.45,0,0,1,0,1.13h-3.79v0Zm0-1.16h0Zm0,0h0Zm0,0h0Zm0,0h0Zm0,0h0Zm0,0,0-.09,0,0.06h0Zm0-.13a1.08,1.08,0,0,1,.17-1.08h0.07c0.24,0,.51.07,0.81,0.1l0.46,0h0.47c0.32,0,.63,0,0.93,0s0.57-.06.81-0.1h0a1.1,1.1,0,0,1,.17,1.12v0h-3.92Zm0.18-1.1,0,0h0Zm0,0h0Zm0,0h0Zm0,0v0h0Zm0,0a1.35,1.35,0,0,1,.1-1.26h0c0.23,0,.5.07,0.79,0.09l0.46,0h0.47c0.32,0,.63,0,0.93,0s0.52-.06.74-0.09h0a1.38,1.38,0,0,1,.15,1.15h-3.69l0,0.11h0Zm0.14-1.32h0Zm0,0h0Zm0,0h0Zm0,0h0Zm0,0v0Zm0-.08h0a1.19,1.19,0,0,1,.22-1.1l0,0.05,0.63,0.07,0.46,0h0.47c0.32,0,.63,0,0.93,0l0.58-.07h0a1.19,1.19,0,0,1,.18,1.05h-3.42Zm0.2-1.3h0a1.17,1.17,0,0,1,.2-1l0.4,0,0.46,0h0.47c0.32,0,.63,0,0.93,0l0.35,0a1.2,1.2,0,0,1,.17,1.11h0l0-.13h-3Zm0.19-1.26a1.07,1.07,0,0,1,.12-1l0.29,0,0.46,0h0.47c0.32,0,.63,0,0.93,0l0.25,0,0,0a1.09,1.09,0,0,1,.15,1h-2.65Zm2.6,0.14h0Zm0,0h0Zm0,0h0Zm0,0h0Zm0,0h0Zm0,0h0Zm0,0,0,0Zm0.21,1.16h0Zm0,0h0Zm0,0h0Zm0,0h0Zm0,0h0Zm0,0h0Zm0,0h0Zm0,0h0Zm0.21,1.25h0Zm0,0h0Zm0,0h0Zm0,0h0Zm0,0h0Zm0,0h0Zm0,0h0Zm0.15,1.3h0Zm0,0h0Zm0,0h0Zm0,0.06h0Zm0.17,1.22h0Zm0,0h0Zm0,0h0Zm0,0h0Zm0,0h0Zm0,0h0Zm-0.07,1.24h0Zm0,0h0Zm0,0h0Zm0,0h0Zm0,0h0Zm0,0h0Zm0,0h0Zm0,0h0Zm0,1.21h0Zm0,0h0Zm0,0h0Zm-0.13,1.26h0Zm0,0h0Zm-2.84-10.38h0Zm0,0h0Zm0,0h0Zm0,0h0Zm0,0a1.17,1.17,0,0,1,.08-0.87l0.23,0,0.46,0h0.47c0.32,0,.63,0,0.93,0l0.18,0h0a1.15,1.15,0,0,1,.05,1h0a1,1,0,0,0,0-.14h-2.48Zm0.13-1h0Zm0,0h0Zm0,0h0Zm-0.06-.21h0a4.73,4.73,0,0,1,.06-1.61c0-.21.15-0.15-0.31-0.69a0.86,0.86,0,0,1-.18-1,1.95,1.95,0,0,1,3.14,0,0.86,0.86,0,0,1-.18,1c-0.46.54-.33,0.49-0.31,0.69a4.38,4.38,0,0,1,0,1.74l0-.13h-2.27Zm2.24,0.13v0h0Zm0,0h0Zm0,0h0Zm0,0h0Zm0,0h0Zm0,0h0Zm0,0h0Zm0,0h0Zm0,0h0Z" transform="translate(-302.24 -497.61)"/><path id="path3704" class="cls-1" d="M345.94,572.6a3.09,3.09,0,0,0,.26-1.08l0.52-4.24-0.13.09-0.53,4.7v-4.36a1.15,1.15,0,0,1-.52.12,1.23,1.23,0,0,1-.65-0.19l0,3.87-0.39-4.15-0.18-.13,0.5,4.28a2.67,2.67,0,0,0,.27,1.08l0.16,0.1a0.57,0.57,0,0,0,.59,0ZM346,543v-4.58l2-1.22v6.71l0.39,0.15v-8.64h-5.76v8.64L343,544l0.07-6.74,2,1.22V543A1.15,1.15,0,0,1,346,543Z" transform="translate(-302.24 -497.61)"/><path id="path3706" class="cls-2" d="M345.53,543.28a1.76,1.76,0,0,0-.48.16,13,13,0,0,1-2.4,1.11,16.62,16.62,0,0,1-5.67.85c-0.32,0-.66,0-0.59.61,0,0.19,0,.54.07,0.88,0.16,1.85,0,3.7.2,5.55a21.53,21.53,0,0,0,1.77,7.12,18.73,18.73,0,0,0,6.5,7.87,1,1,0,0,0,1.2,0,18.72,18.72,0,0,0,6.5-7.87,21.53,21.53,0,0,0,1.77-7.12c0.16-1.85,0-3.71.2-5.55,0-.34.05-0.69,0.07-0.88,0.07-.64-0.27-0.62-0.59-0.61a16.62,16.62,0,0,1-5.67-.85,13,13,0,0,1-2.4-1.11A2,2,0,0,0,345.53,543.28Z" transform="translate(-302.24 -497.61)"/><path id="path3708" class="cls-1" d="M336.13,546a0.78,0.78,0,0,1,.29-0.8,1,1,0,0,1,.56-0.1,16.44,16.44,0,0,0,5.59-.84,12.74,12.74,0,0,0,2.35-1.09,1.06,1.06,0,0,1,1.22,0,12.73,12.73,0,0,0,2.35,1.09,16.44,16.44,0,0,0,5.59.84,1,1,0,0,1,.56.1,0.78,0.78,0,0,1,.29.8c0,0.29,0,.59-0.07.88-0.16,1.85,0,3.71-.2,5.55a21.83,21.83,0,0,1-1.8,7.21,19,19,0,0,1-6.59,8,1.39,1.39,0,0,1-.75.28h0a1.39,1.39,0,0,1-.75-0.28,19,19,0,0,1-6.59-8,21.83,21.83,0,0,1-1.8-7.21c-0.16-1.85,0-3.71-.2-5.55C336.17,546.63,336.15,546.34,336.13,546Zm9.37-1.15,0,0a18,18,0,0,1-6.18,1.9,13,13,0,0,1-1.46.07c0.06,1.6.1,3.24,0.14,4.91a17.64,17.64,0,0,0,2.25,8.65,16.58,16.58,0,0,0,5.25,5.59l0,0,0,0a16.58,16.58,0,0,0,5.25-5.6A17.65,17.65,0,0,0,353,551.8c0-1.67.08-3.32,0.14-4.91a13,13,0,0,1-1.46-.06,18,18,0,0,1-6.18-1.9Z" transform="translate(-302.24 -497.61)"/><path id="path3710" class="cls-1" d="M350.28,534.82a0.5,0.5,0,0,1-.5.5h-8.35a0.5,0.5,0,0,1,0-1h8.35A0.5,0.5,0,0,1,350.28,534.82Z" transform="translate(-302.24 -497.61)"/><path id="path3712" class="cls-1" d="M311.93,528.1a1.43,1.43,0,0,1,.9.91,1.88,1.88,0,0,1,0,1.3,2.63,2.63,0,0,1-.57.86,0.81,0.81,0,0,0-.18.26,0.43,0.43,0,0,0,.16.47l0,0.13-1.83-.67,0-.13a2.42,2.42,0,0,0,1.27-.12,1.45,1.45,0,0,0,.89-0.87,1,1,0,0,0,0-.66,0.68,0.68,0,0,0-.44-0.48,0.87,0.87,0,0,0-.78.13,4.66,4.66,0,0,0-.61.52,7,7,0,0,1-.72.62,2,2,0,0,1-.86.38,1.34,1.34,0,0,1-.68-0.07,1.38,1.38,0,0,1-.85-0.82,1.63,1.63,0,0,1,0-1.19,2,2,0,0,1,.22-0.44,3.92,3.92,0,0,1,.3-0.34,1.34,1.34,0,0,0,.24-0.31,0.35,0.35,0,0,0-.24-0.37l0-.11,1.63,0.55,0,0.15a1.88,1.88,0,0,0-1.1.12,1.33,1.33,0,0,0-.76.78,1,1,0,0,0,0,.59,0.6,0.6,0,0,0,.39.43,0.84,0.84,0,0,0,.77-0.18,7.31,7.31,0,0,0,.7-0.62,4.51,4.51,0,0,1,1-.76A1.44,1.44,0,0,1,311.93,528.1Zm2.12-4.91,1.34,1-2.1,3.94-0.13-.07,0.08-.15a0.5,0.5,0,0,0,0-.58,1.65,1.65,0,0,0-.4-0.26l-3-1.59a2.56,2.56,0,0,0-.39-0.18,0.35,0.35,0,0,0-.25,0,0.66,0.66,0,0,0-.28.3l-0.08.15-0.13-.07,2-3.82,1.35,0.72-0.07.13a2,2,0,0,0-.77-0.11,1.12,1.12,0,0,0-.67.34,3.11,3.11,0,0,0-.44.67l-0.25.47,1.86,1,0-.09a0.83,0.83,0,0,0,0-.84,1.92,1.92,0,0,0-.64-0.61l0.07-.13,2.39,1.27-0.07.13a1.29,1.29,0,0,0-1.23,0,1.31,1.31,0,0,0-.35.45l1.29,0.68,0.33,0.17a0.4,0.4,0,0,0,.35,0,0.64,0.64,0,0,0,.2-0.25l0.15-.27a1.69,1.69,0,0,0-.36-2.22Zm1.8-5.8-0.09.12a2,2,0,0,0-1.17-.14,1.59,1.59,0,0,0-1.28,1.51,1.6,1.6,0,0,0,.24.9,3.28,3.28,0,0,0,.89.95,2.57,2.57,0,0,0,2.14.66,1.52,1.52,0,0,0,.8-0.61,2.32,2.32,0,0,0,.26-2l0.36,0.26a2.67,2.67,0,0,1-.48,2.13,3.17,3.17,0,0,1-1.08,1,2.33,2.33,0,0,1-1.4.27,2.64,2.64,0,0,1-1.27-.49,2.72,2.72,0,0,1-.91-1.14,2.75,2.75,0,0,1-.21-1.45,2.82,2.82,0,0,1,.52-1.34,3.18,3.18,0,0,1,.87-0.79,1.77,1.77,0,0,0,.37-0.28,0.34,0.34,0,0,0-.11-0.48l0.09-.12Zm3.26-5.77-0.07.08a0.54,0.54,0,0,0-.14.65,1.38,1.38,0,0,0,.28.34l1.41,1.36a5.58,5.58,0,0,1,.77.85,1.58,1.58,0,0,1,.22,1.09,2.12,2.12,0,0,1-.64,1.15,2.4,2.4,0,0,1-.85.62,1.52,1.52,0,0,1-1,.06,2.21,2.21,0,0,1-.83-0.55l-1.82-1.75-0.3-.27a0.41,0.41,0,0,0-.38-0.07,1,1,0,0,0-.36.28l-0.11-.1,1.85-1.92,0.11,0.1-0.09.1a0.56,0.56,0,0,0-.23.57,1.82,1.82,0,0,0,.36.42l1.82,1.75a3.75,3.75,0,0,0,.55.47,0.87,0.87,0,0,0,.69.1,1.14,1.14,0,0,0,.53-0.33,1.16,1.16,0,0,0,.29-1.32,3.2,3.2,0,0,0-.73-0.9L319,512.91a0.73,0.73,0,0,0-.68-0.3,1.09,1.09,0,0,0-.4.29l-0.11-.1,1.24-1.28Zm8.35,0.11-1.35.91-2.69-1-0.28.19L324,513a2.8,2.8,0,0,0,.23.32,0.4,0.4,0,0,0,.35.13,1.23,1.23,0,0,0,.44-0.22l0.08,0.12-2.19,1.48-0.08-.12a0.69,0.69,0,0,0,.42-0.57,1.65,1.65,0,0,0-.25-0.46l-1.87-2.77a2.79,2.79,0,0,0-.23-0.32,0.4,0.4,0,0,0-.35-0.13,1.23,1.23,0,0,0-.44.22l-0.08-.12,2-1.34a6.52,6.52,0,0,1,1-.57,1.56,1.56,0,0,1,1.09-.09,1.32,1.32,0,0,1,.46,2.24l2,0.76a2.43,2.43,0,0,0,.52.15,0.64,0.64,0,0,0,.37-0.1Zm-3.8-1.94a1,1,0,0,0-1.61-.3l-0.34.23,1.26,1.87,0.18-.12a2.82,2.82,0,0,0,.53-0.43,0.84,0.84,0,0,0,.22-0.62A1.28,1.28,0,0,0,323.67,509.78Zm6.27,0.54-2.36,1.31-0.07-.13,0.15-.08a0.5,0.5,0,0,0,.32-0.48,1.64,1.64,0,0,0-.2-0.44l-1.64-3a3.16,3.16,0,0,0-.19-0.32,0.41,0.41,0,0,0-.31-0.16,0.7,0.7,0,0,0-.34.11l-0.15.08-0.07-.13,2.36-1.31,0.07,0.13-0.15.08a0.51,0.51,0,0,0-.33.48,1.62,1.62,0,0,0,.2.44l1.64,3a3.23,3.23,0,0,0,.19.32,0.4,0.4,0,0,0,.32.15,0.67,0.67,0,0,0,.34-0.1l0.15-.08Zm3.21-5.51-0.13.05a2.45,2.45,0,0,0-.43-0.48,1,1,0,0,0-.59-0.22,1.3,1.3,0,0,0-.5.13l-0.36.14,1.49,3.69a3.24,3.24,0,0,0,.15.34,0.4,0.4,0,0,0,.3.19,0.66,0.66,0,0,0,.35-0.06l0.16-.06,0.06,0.14-2.5,1-0.06-.14,0.16-.06a0.51,0.51,0,0,0,.38-0.44,1.62,1.62,0,0,0-.14-0.46L330,504.9l-0.35.14a1.08,1.08,0,0,0-.62.49,1.45,1.45,0,0,0-.06,1l-0.13.05-0.52-1.29,4.3-1.74Zm6.05-2.83a0.74,0.74,0,0,0-.35.23,4.53,4.53,0,0,0-.41,1l-0.71,2.06,0.26,1.22a3.17,3.17,0,0,0,.09.36,0.39,0.39,0,0,0,.25.24,0.61,0.61,0,0,0,.34,0L339,507l0,0.14-2.83.6,0-.14,0.26-.06a0.72,0.72,0,0,0,.34-0.15,0.38,0.38,0,0,0,.11-0.21,1.61,1.61,0,0,0-.06-0.48l-0.21-1-1.65-1.91q-0.38-.44-0.46-0.5a0.71,0.71,0,0,0-.61-0.17l0-.14,2.42-.51,0,0.14-0.11,0c-0.26.06-.38,0.15-0.35,0.28a2.4,2.4,0,0,0,.44.61l1.27,1.47,0.59-1.71a2.16,2.16,0,0,0,.18-0.81q-0.05-.25-0.62-0.16l0-.14,1.54-.33Zm8.59,4.5h-2.5v-0.15h0.1c0.34,0,.51-0.09.51-0.26a0.51,0.51,0,0,0,0-.14s0-.13-0.11-0.28L345.5,505h-1.83l-0.22.5a1.08,1.08,0,0,0-.11.41,0.34,0.34,0,0,0,.17.32,1.5,1.5,0,0,0,.51.09v0.15h-1.72v-0.15a0.85,0.85,0,0,0,.57-0.37,4.08,4.08,0,0,0,.33-0.64l1.85-4.12h0.07l1.86,4.24a2.48,2.48,0,0,0,.44.75,0.6,0.6,0,0,0,.37.14v0.15Zm-2.43-1.75L344.6,503l-0.79,1.77h1.57Zm8.54-2.57a1.82,1.82,0,0,0-.37,0,0.44,0.44,0,0,0-.28.22,1.47,1.47,0,0,0-.13.51l-0.52,4.27-0.13,0-2.94-4.68-0.4,3.24a0.63,0.63,0,0,0,.58.83l0.12,0,0,0.15L348,506.5l0-.14a0.85,0.85,0,0,0,.61-0.1,0.81,0.81,0,0,0,.24-0.56l0.44-3.61-0.09-.15a1,1,0,0,0-.24-0.29,0.85,0.85,0,0,0-.36-0.13l0-.14,1.82,0.22,2.14,3.49,0.27-2.2a1,1,0,0,0-.06-0.64,0.74,0.74,0,0,0-.58-0.29l0-.14,1.7,0.21Zm5.4,4a2.48,2.48,0,0,1-1.06,1.54,2.71,2.71,0,0,1-1.68.34,4.35,4.35,0,0,1-.72-0.15l-2.23-.6,0-.14,0.16,0a0.51,0.51,0,0,0,.57-0.12,1.85,1.85,0,0,0,.16-0.45l0.88-3.27a3.17,3.17,0,0,0,.09-0.37,0.41,0.41,0,0,0-.12-0.33,0.71,0.71,0,0,0-.32-0.16l-0.16,0,0-.14,2.23,0.6a3.7,3.7,0,0,1,1.37.63,2.22,2.22,0,0,1,.78,1.19A2.77,2.77,0,0,1,359.31,506.16Zm-1.33-.33q0.47-1.75-.34-2.39a2.46,2.46,0,0,0-.85-0.35l-1,3.89-0.07.27a0.28,0.28,0,0,0,.07.25,0.64,0.64,0,0,0,.27.13,1.16,1.16,0,0,0,1.05-.17A3,3,0,0,0,358,505.84Zm6.9,4.38a1.43,1.43,0,0,1-1,.78,1.88,1.88,0,0,1-1.29-.18,2.63,2.63,0,0,1-.79-0.67,0.81,0.81,0,0,0-.23-0.21,0.43,0.43,0,0,0-.49.11l-0.13-.06,0.89-1.74,0.13,0.06a2.42,2.42,0,0,0,0,1.28,1.44,1.44,0,0,0,.76,1,1,1,0,0,0,.66.11,0.68,0.68,0,0,0,.53-0.38,0.87,0.87,0,0,0,0-.79,4.65,4.65,0,0,0-.44-0.67,7,7,0,0,1-.53-0.79,2,2,0,0,1-.27-0.9,1.33,1.33,0,0,1,.15-0.67,1.38,1.38,0,0,1,.91-0.74,1.63,1.63,0,0,1,1.18.14,2,2,0,0,1,.41.28,4,4,0,0,1,.3.34,1.32,1.32,0,0,0,.28.28,0.34,0.34,0,0,0,.39-0.19l0.1,0.05-0.74,1.55-0.14-.07a1.88,1.88,0,0,0,0-1.11,1.33,1.33,0,0,0-.68-0.85,1,1,0,0,0-.59-0.11,0.6,0.6,0,0,0-.47.34,0.84,0.84,0,0,0,.09.78,7.29,7.29,0,0,0,.53.77,4.51,4.51,0,0,1,.63,1.06A1.45,1.45,0,0,1,364.87,510.21ZM369,514.9l-2-1.43,0.08-.12,0.08,0.06c0.28,0.19.46,0.22,0.56,0.08a0.51,0.51,0,0,0,.06-0.13s0-.13.07-0.3l0.14-.68-1.5-1-0.46.29a1.08,1.08,0,0,0-.32.28,0.34,0.34,0,0,0,0,.36,1.5,1.5,0,0,0,.36.36l-0.09.12-1.41-1,0.08-.12a0.84,0.84,0,0,0,.68,0,4.08,4.08,0,0,0,.63-0.33l3.87-2.31,0.06,0-0.9,4.54a2.49,2.49,0,0,0-.07.87,0.6,0.6,0,0,0,.22.32Zm-1-2.82,0.39-1.89-1.67,1Zm6.73,3.47-0.12-.11a1.48,1.48,0,0,0,.33-0.71,1.15,1.15,0,0,0-.22-0.74,4.14,4.14,0,0,0-.58-0.62l-0.35-.33-1.45,1.55,0.11,0.1a1,1,0,0,0,1,.31,1.62,1.62,0,0,0,.59-0.35l0.1,0.09-1.77,1.9-0.1-.09a1.1,1.1,0,0,0,0-1.65l-0.11-.1L371.13,516l-0.25.28a0.41,0.41,0,0,0,0,.35,0.67,0.67,0,0,0,.2.29l0.13,0.12-0.1.11-2-1.84,0.1-.11,0.12,0.12a0.5,0.5,0,0,0,.55.16,1.65,1.65,0,0,0,.36-0.32l2.31-2.48a3.21,3.21,0,0,0,.25-0.28,0.41,0.41,0,0,0,.05-0.35,0.7,0.7,0,0,0-.2-0.29l-0.12-.12,0.1-.11,3.19,3Zm1.94,5.69-1.42.85-2.81-3.47,0.12-.09,0.11,0.13a0.5,0.5,0,0,0,.53.23,1.64,1.64,0,0,0,.4-0.27l2.63-2.13a2.55,2.55,0,0,0,.32-0.29,0.35,0.35,0,0,0,.07-0.24,0.66,0.66,0,0,0-.17-0.37l-0.11-.13,0.12-.09,2.72,3.36-1.19,1-0.09-.11a2,2,0,0,0,.4-0.66,1.12,1.12,0,0,0-.05-0.75,3.1,3.1,0,0,0-.45-0.67l-0.34-.42-1.63,1.32,0.06,0.08a0.83,0.83,0,0,0,.76.35,1.93,1.93,0,0,0,.81-0.35l0.09,0.11-2.1,1.7-0.09-.11a1.29,1.29,0,0,0,.52-1.11,1.31,1.31,0,0,0-.28-0.5l-1.13.92-0.29.24a0.4,0.4,0,0,0-.13.33,0.64,0.64,0,0,0,.15.29l0.19,0.24a1.69,1.69,0,0,0,2.18.53Zm4.48,3.77-0.07-.12a2.45,2.45,0,0,0,.41-0.49,1,1,0,0,0,.14-0.61,1.31,1.31,0,0,0-.2-0.48l-0.19-.33-3.44,2-0.32.2a0.4,0.4,0,0,0-.15.32,0.66,0.66,0,0,0,.11.34l0.09,0.15-0.13.07-1.35-2.34,0.13-.07,0.09,0.15a0.51,0.51,0,0,0,.49.32,1.61,1.61,0,0,0,.43-0.2l3.44-2-0.19-.32a1.08,1.08,0,0,0-.57-0.54,1.46,1.46,0,0,0-1,.08l-0.07-.12,1.21-.7,2.32,4Zm3.47,5.88a0.74,0.74,0,0,0-.26-0.33,4.55,4.55,0,0,0-1-.3l-2.12-.49-1.18.38-0.35.13a0.39,0.39,0,0,0-.21.28,0.61,0.61,0,0,0,0,.33l0.09,0.27-0.14,0-0.89-2.75,0.14,0,0.08,0.26a0.72,0.72,0,0,0,.19.32,0.38,0.38,0,0,0,.22.09,1.62,1.62,0,0,0,.47-0.11l1-.32,1.73-1.84q0.4-.42.45-0.51a0.71,0.71,0,0,0,.11-0.63l0.14,0L383.9,528l-0.14,0,0-.11c-0.08-.25-0.19-0.36-0.32-0.32a2.4,2.4,0,0,0-.56.5l-1.33,1.42,1.76,0.4a2.16,2.16,0,0,0,.82.09q0.24-.08.09-0.63l0.14,0,0.49,1.5Z" transform="translate(-302.24 -497.61)"/><path id="path3714" class="cls-3" d="M337.06,545.74a0.41,0.41,0,1,1-.41.41A0.41,0.41,0,0,1,337.06,545.74Z" transform="translate(-302.24 -497.61)"/><path id="path3716" class="cls-3" d="M353.89,545.74a0.41,0.41,0,1,1-.41.41A0.41,0.41,0,0,1,353.89,545.74Z" transform="translate(-302.24 -497.61)"/><path id="path3718" class="cls-3" d="M345.53,543.63a0.41,0.41,0,1,1-.41.41A0.41,0.41,0,0,1,345.53,543.63Z" transform="translate(-302.24 -497.61)"/><path id="path3720" class="cls-3" d="M345.53,566.47a0.41,0.41,0,1,1-.41.41A0.41,0.41,0,0,1,345.53,566.47Z" transform="translate(-302.24 -497.61)"/><path id="path3722" class="cls-3" d="M337.85,556.21a0.41,0.41,0,1,1-.41.41A0.41,0.41,0,0,1,337.85,556.21Z" transform="translate(-302.24 -497.61)"/><path id="path3724" class="cls-3" d="M353.16,556.21a0.41,0.41,0,1,1-.41.41A0.41,0.41,0,0,1,353.16,556.21Z" transform="translate(-302.24 -497.61)"/></g></svg>