<svg xmlns="http://www.w3.org/2000/svg" width="65" height="96" viewBox="0 0 17.197916 25.400001"><g fill-rule="evenodd"><path d="M1.763 2.515L3.47 20.858l9.845 1.341 3.186-19.955z"/><path d="M.436 2.212v5.44l.754-.42c2.063-1.097 4.76-1.693 7.121-1.693 2.744 0 5.55.534 7.96 1.894.122.068.278.167.399.215v-5.44c-.12-.048-.277-.147-.398-.215C13.944.68 11.16.1 8.495.1 5.994.1 3.404.616 1.19 1.793z" fill="#ffec00"/><path d="M.436 7.498v8.106a.133.133 0 0 1 .007.02l.057.48c.116 1.035.397 2.105.805 3.05a10.065 10.065 0 0 0 1.732 2.71c.162.18.371.433.543.582.216.188.374.366.587.538 1.115.901 2.127 1.583 3.524 2.152.163.066.722.247.817.308H8.6c.1-.066.641-.245.808-.313.27-.112.533-.242.78-.36 1.01-.485 1.876-1.117 2.7-1.786a12.8 12.8 0 0 0 1.134-1.117c1.083-1.234 1.894-2.655 2.314-4.319.077-.304.134-.592.193-.907.037-.19.084-.856.14-.962V7.495c-.12-.045-.276-.137-.397-.2-1.673-.88-3.884-1.464-5.797-1.665-.1-.01-1.008-.07-1.07-.1h-1.65l-.28.035c-2.139.114-4.405.612-6.285 1.542zm.649.395v7.627l.06.506c.116.972.368 1.972.756 2.87.393.91.952 1.797 1.617 2.533.153.169.317.379.487.526.195.169.372.364.57.524 1.074.868 2.074 1.531 3.361 2.055.176.072.408.138.614.217.205-.08.435-.148.61-.22.254-.105.5-.228.747-.346.938-.45 1.768-1.05 2.571-1.704.35-.284.757-.7 1.056-1.041 1.037-1.181 1.786-2.519 2.173-4.05.072-.287.13-.578.184-.869.05-.265.052-.65.13-.942V7.896a6.492 6.492 0 0 0-.051-.026c-1.627-.855-3.738-1.403-5.562-1.594-.241-.024-.742-.037-1.063-.096h-1.55l-.263.032-.022.001c-2.026.108-4.203.572-6.027 1.473z" fill="#ffec00"/><path d="M1.085 7.893v7.627l.06.506c.116.972.368 1.972.756 2.87.393.91.952 1.797 1.617 2.533.153.169.317.379.487.526.195.169.372.364.57.524 1.074.868 2.074 1.531 3.361 2.055.176.072.408.138.614.217.205-.08.435-.148.61-.22.254-.105.5-.228.747-.346.938-.45 1.768-1.05 2.571-1.704.35-.284.757-.7 1.056-1.041 1.037-1.181 1.786-2.519 2.173-4.05.072-.287.13-.578.184-.869.05-.265.052-.65.13-.942V7.896a6.492 6.492 0 0 0-.051-.026c-1.627-.855-3.738-1.403-5.562-1.594-.241-.024-.742-.037-1.063-.096h-1.55l-.263.032-.022.001c-2.026.108-4.203.572-6.027 1.473z"/><path d="M12.49 7.3h.252l.23.283.231-.284h.253l-.364.449v.343h-.239v-.343zm-1.104 0h.686v.148h-.226v.643h-.24v-.643h-.22zm-.726 0h.235v.79h-.235zm-1.049.309h.075a.44.44 0 0 0 .157-.019c.029-.013.043-.034.043-.063a.06.06 0 0 0-.021-.045.124.124 0 0 0-.057-.028.664.664 0 0 0-.131-.008H9.61zm-.235-.31h.251c.137 0 .235.008.294.023a.3.3 0 0 1 .14.078.178.178 0 0 1 .053.129c0 .052-.02.096-.058.13a.393.393 0 0 1-.177.08l.293.352h-.258l-.279-.336h-.024v.336h-.235zM7.93 7.3h.238v.511c0 .044.006.076.018.094a.122.122 0 0 0 .06.044.28.28 0 0 0 .1.016.285.285 0 0 0 .109-.018.124.124 0 0 0 .062-.047c.012-.019.017-.055.017-.108V7.3h.237v.472c0 .08-.007.135-.02.166a.238.238 0 0 1-.081.089.412.412 0 0 1-.138.064.704.704 0 0 1-.18.02.639.639 0 0 1-.235-.039.313.313 0 0 1-.143-.1c-.029-.039-.043-.106-.043-.2zm-.512.138l-.165.1a.666.666 0 0 0-.38-.113.55.55 0 0 0-.3.077c-.082.052-.123.116-.123.191 0 .053.018.1.054.14a.359.359 0 0 0 .153.097.664.664 0 0 0 .22.035.68.68 0 0 0 .188-.024.742.742 0 0 0 .188-.09l.16.107a.984.984 0 0 1-.26.12 1.067 1.067 0 0 1-.28.032.872.872 0 0 1-.474-.117c-.123-.077-.184-.178-.184-.3 0-.078.028-.148.084-.21a.583.583 0 0 1 .24-.148 1.057 1.057 0 0 1 .633-.015.77.77 0 0 1 .246.118zM5.003 7.3h.678v.147h-.443v.142h.443v.146h-.443v.208h.443v.148h-.678zm-.595.107l-.175.098a.283.283 0 0 0-.188-.081.16.16 0 0 0-.076.016c-.02.01-.03.022-.03.035 0 .014.007.026.022.038.019.016.077.05.173.102l.165.09a.36.36 0 0 1 .102.089c.02.028.03.059.03.092 0 .065-.035.119-.106.161a.53.53 0 0 1-.276.063.594.594 0 0 1-.231-.04.422.422 0 0 1-.169-.131l.2-.077c.06.07.128.105.206.105a.21.21 0 0 0 .102-.022c.028-.016.042-.033.042-.053 0-.017-.01-.035-.031-.053a.857.857 0 0 0-.138-.083 1.282 1.282 0 0 1-.263-.162c-.04-.039-.06-.077-.06-.115 0-.055.034-.102.1-.14a.466.466 0 0 1 .242-.06.57.57 0 0 1 .177.028.655.655 0 0 1 .182.1zm4.145 1.151a6.334 6.334 0 1 1 0 12.667 6.334 6.334 0 0 1 0-12.667z" fill="#ffec00"/><path d="M8.553 8.865a6.027 6.027 0 1 1 0 12.054 6.027 6.027 0 0 1 0-12.054z"/><path d="M8.553 9.988a4.904 4.904 0 1 1 0 9.807 4.904 4.904 0 0 1 0-9.807zm0 .205a4.7 4.7 0 1 1 0 9.398 4.7 4.7 0 0 1 0-9.398z" fill="#ffec00"/><path d="M13.99 15.132l.052.268.271.032-.238.132.052.268-.199-.186-.238.133.115-.247-.2-.186.271.034zm-7.413 2.154a1.199 1.199 0 0 0-.14.354c-.034.168.065.26.176.096.154-.23.306-.696.566-.81l-.096-.073c-.239.01-.219-.1-.431-.193l-1.093-.482a.6.6 0 0 0-.312-.05c-.028.056-.15.517-.163.524a.236.236 0 0 0 .312-.033c.018-.017 1.03.593 1.181.667zm3.89-5.734c1.877.679 1.496 1.2 1.371 2.513l-2.511.159-.03.122 2.616-.159-.134.39-2.17.135-1.352-.074-.149-.024.401-.195c.9-.392 1.685-.928 2.497-1.428-1.52.59-3.147 1.537-4.61 2.01-1.483.477-1.905-.15-1.618-.953.198-.558.663-1.118 1.175-1.57 1.13-.999 2.752-1.562 4.514-.926zm-1.63 4.77c.443-.253.098-.88-.221-.821-.235.044-.41.297-.455.523-.038.195.018.372.236.345.208-.027.162-.205.217-.446.245.125.199.159.222.4zm-2.995-1.08c.648-.07 1.063.84 2.348.068.17.077.046.215.208.048-.058-.296.131-.3.394-.291.255.009.154.165.23.374.025-.078.117-.14.141-.217.456.25 1.088.564 1.56.3.384-.215.4-.25.878-.318-.061.501-.812.907-1.39.927-.03-.148-.041-.124.03-.262-.102-.038-.075-.033-.178.006l-.124.622c-.063.321-.183.296-.56.324l.015-.202-.245-.006-.075.19-.267.024-.03-.159-.253-.012-.015.165-.356-.007.03-.2-.283-.031v.183c-.655-.156-.473-.472-.69-.903l-.105.268c-.521-.166-1.208-.348-1.263-.89zm4.939-.14c.243.648-2.354.202 0 0zm-4.144 0c-.243.648 2.354.202 0 0zm3.745 1.757c.413-.226 1.15-.591 1.605-.744l.238.464c-.047.18-.08.193-.26.073l-1.226.64c.068.177.162.303.223.488-.051.087-.178.109-.207.023-.12-.352-.568-.824-.583-.878-.034-.122.095-.078.21-.066zm.022.64l-1.003.538c.33.167.724.313 1.085.494-.404.346-1.375-.01-1.843-.168-.83.286-.787.424-1.82.235l1.13-.53-1.012-.562c-.061-.26.149-.412.327-.482l1.338.647 1.152-.543.275-.135c.202.139.376.28.371.507zm-.281-.198l-.056-.086-1.903.894c.408-.022 1.306-.539 1.959-.808zm-2.93.021l.056-.085 1.162.588a6.24 6.24 0 0 1-1.218-.503zm-4.103-2.19l-.051.268-.271.032.238.132-.052.268.199-.186.238.133-.115-.247.2-.186-.27.034z" fill="#ffec00"/><path d="M1.085 2.593v4.58c2.144-1.088 4.844-1.665 7.226-1.665 2.645 0 5.335.482 7.71 1.674V2.597a7.603 7.603 0 0 0-.068-.038c-2.234-1.26-4.908-1.81-7.458-1.81-2.39 0-4.874.487-6.995 1.613z"/><path d="M13.568 3.067a27.697 27.697 0 0 0-1.19-.264V2.57c0-.108-.015-.18-.046-.215a.247.247 0 0 0-.15-.072c-.077-.013-.135-.005-.174.029-.04.033-.06.09-.06.172 0 .104.023.186.068.246.044.06.164.146.362.258.568.332.926.593 1.074.768.148.175.222.416.222.723 0 .224-.042.378-.124.465-.081.086-.24.136-.475.15a3.045 3.045 0 0 1-.82-.06 3.39 3.39 0 0 1-.877-.27c-.242-.113-.4-.237-.476-.373-.074-.136-.113-.322-.113-.555v-.204c.397.047.793.1 1.19.162v.381c0 .117.017.196.05.236.033.04.093.067.178.082.085.016.149.007.19-.029.041-.034.062-.094.062-.177 0-.185-.04-.313-.118-.384-.082-.072-.281-.204-.6-.388a9.932 9.932 0 0 1-.63-.378.907.907 0 0 1-.256-.28.805.805 0 0 1-.103-.418c0-.239.048-.41.144-.51.096-.1.251-.17.467-.207.214-.036.474-.03.778.022.332.057.614.151.848.27.234.122.39.247.465.37.075.122.114.309.114.558v.125zm-4.812.478c-.03-.176-.063-.373-.095-.59a45.385 45.385 0 0 1-.098-.715c-.063.298-.116.556-.156.773-.04.217-.068.394-.085.531.144-.001.29-.002.434 0zm.68-1.974c.123.524.245 1.047.366 1.573l.368 1.589c-.437-.04-.873-.066-1.31-.083l-.07-.557a14.212 14.212 0 0 0-.46-.002l-.07.555c-.443.009-.885.029-1.327.064l.325-1.564.326-1.561c.617-.026 1.235-.03 1.853-.014zM6.245 2.588c-.397.044-.794.1-1.19.162v-.23c0-.106-.015-.172-.046-.196-.03-.024-.079-.03-.15-.018a.282.282 0 0 0-.175.09.283.283 0 0 0-.058.19c0 .103.022.175.067.22.044.043.164.086.362.125.568.125.927.254 1.074.373.149.118.222.33.222.63 0 .219-.042.384-.124.499-.082.112-.24.218-.475.315a3.58 3.58 0 0 1-.82.241c-.343.065-.635.094-.878.067-.242-.018-.399-.081-.475-.189-.075-.108-.112-.28-.112-.515v-.205a31.97 31.97 0 0 1 1.19-.279v.377c0 .116.016.187.05.214.032.027.092.032.177.016a.315.315 0 0 0 .19-.098.303.303 0 0 0 .063-.198c0-.182-.04-.294-.12-.334-.081-.041-.28-.098-.598-.166a6.518 6.518 0 0 1-.632-.147.531.531 0 0 1-.256-.188c-.067-.091-.101-.22-.101-.387 0-.24.048-.427.144-.56a1.26 1.26 0 0 1 .466-.366c.213-.107.473-.19.778-.242.331-.058.614-.063.85-.029.233.037.387.104.463.199.076.093.114.262.114.507v.121z" fill="#ffec00"/><path d="M3.393 14.347a.563.563 0 0 0 .045-.018.117.117 0 0 0 .037-.026l.006-.07.188.014-.003.044a.423.423 0 0 0-.086.01.133.133 0 0 0-.056.023.062.062 0 0 0-.018.041l-.004.046-.02-.002a2.95 2.95 0 0 1-.079.024l-.088.025a.312.312 0 0 0-.066.025.084.084 0 0 0-.03.029.108.108 0 0 0-.013.047l-.004.052.177.014c.034.002.056.001.065-.005.01-.005.017-.018.024-.038l.021.001-.014.18h-.02a.094.094 0 0 0-.016-.042c-.007-.008-.03-.013-.066-.016l-.37-.028c-.038-.003-.06 0-.07.006a.082.082 0 0 0-.02.038l-.021-.001.013-.181.021.001c.004.02.01.033.016.041.008.008.03.013.067.016l.157.012.003-.052a.072.072 0 0 0-.016-.056.36.36 0 0 0-.103-.059.354.354 0 0 1-.108-.064c-.02-.02-.027-.052-.024-.094a.207.207 0 0 1 .013-.052l.099.007-.004.042c-.028.002-.043.013-.045.034a.042.042 0 0 0 .016.036c.012.01.038.025.078.045a.526.526 0 0 1 .073.04.12.12 0 0 1 .037.043h.004c.017-.046.056-.08.114-.1zm.21-.646l-.021-.005c0-.014 0-.025-.002-.033a.034.034 0 0 0-.01-.018.05.05 0 0 0-.023-.011.424.424 0 0 0-.07-.003l-.058.003-.045.195.037.024.044.025.028.01c.017.004.03.002.04-.005a.073.073 0 0 0 .024-.035l.02.005-.04.178-.021-.005a.065.065 0 0 0-.018-.047.284.284 0 0 0-.06-.049l-.421-.28.015-.067.499-.034a.46.46 0 0 0 .053-.007.08.08 0 0 0 .031-.012.068.068 0 0 0 .021-.027l.021.005zm-.263.108l.04-.174-.288.017zm.02-1.197a.082.082 0 0 0 .01.044c.007.015.029.04.064.078l.2.21c.06.063.097.112.112.146.015.035.015.07.002.106a.206.206 0 0 1-.033.056l-.102-.04.017-.043c.032.01.052.003.062-.02.012-.033-.002-.072-.043-.12l-.336.018a.675.675 0 0 0-.1.01.072.072 0 0 0-.038.026l-.02-.008.068-.171.02.008c-.008.026-.002.043.016.05.017.007.046.01.088.008l.237-.01-.153-.153a.272.272 0 0 0-.078-.06c-.024-.01-.041-.004-.053.018l-.02-.008.06-.153zm.584-.187a.32.32 0 0 0 .039.018.061.061 0 0 0 .021.004.037.037 0 0 0 .018-.006.113.113 0 0 0 .022-.021l.019.01-.083.16-.019-.009a.085.085 0 0 0 .003-.039.04.04 0 0 0-.016-.02.285.285 0 0 0-.04-.025l-.33-.17a.329.329 0 0 0-.04-.017.054.054 0 0 0-.022-.003.037.037 0 0 0-.017.006.145.145 0 0 0-.021.02l-.02-.01.084-.16.018.01a.119.119 0 0 0-.004.028c0 .006.002.012.005.017.002.005.007.01.015.016s.02.013.038.022zm.052-.99l.018.013a.091.091 0 0 0-.009.035c0 .008.004.016.011.024a.25.25 0 0 0 .039.031l.302.215a.45.45 0 0 0 .031.021.075.075 0 0 0 .02.008.035.035 0 0 0 .028-.004.135.135 0 0 0 .02-.015l.018.012-.105.147-.017-.012a.098.098 0 0 0 .008-.035.04.04 0 0 0-.01-.024.234.234 0 0 0-.04-.032l-.357-.254-.132.185.358.255a.352.352 0 0 0 .035.022.062.062 0 0 0 .021.007c.006 0 .012 0 .018-.003a.115.115 0 0 0 .025-.018l.017.013-.104.147-.017-.012a.085.085 0 0 0 .008-.038.04.04 0 0 0-.013-.023.28.28 0 0 0-.037-.03l-.302-.215a.326.326 0 0 0-.036-.023.054.054 0 0 0-.022-.007.038.038 0 0 0-.017.004.144.144 0 0 0-.024.017l-.017-.012zm.509-.58l.086.082-.03.03a.188.188 0 0 0-.06-.021.09.09 0 0 0-.049.004.122.122 0 0 0-.042.03.117.117 0 0 0-.033.078.193.193 0 0 0 .027.1.55.55 0 0 0 .205.2.19.19 0 0 0 .098.027.109.109 0 0 0 .075-.035.141.141 0 0 0 .033-.05.09.09 0 0 0 .003-.048.254.254 0 0 0-.027-.066l.03-.03.088.084a.616.616 0 0 1-.106.142c-.05.053-.105.075-.167.068a.362.362 0 0 1-.197-.111.416.416 0 0 1-.097-.132.234.234 0 0 1-.018-.135.235.235 0 0 1 .065-.124.58.58 0 0 1 .116-.093zm.65.026a.332.332 0 0 0 .028.03c.007.007.013.01.019.012a.036.036 0 0 0 .018.001.113.113 0 0 0 .029-.01l.013.015-.136.119-.014-.016a.084.084 0 0 0 .017-.035.04.04 0 0 0-.007-.026.286.286 0 0 0-.029-.037l-.243-.28a.324.324 0 0 0-.03-.032.053.053 0 0 0-.019-.011.037.037 0 0 0-.017 0 .145.145 0 0 0-.028.01l-.014-.016.137-.118.014.016a.116.116 0 0 0-.014.025.037.037 0 0 0-.003.017c0 .006.004.013.009.021.004.008.014.02.026.035zm.314-.149l-.07-.098.035-.024a.184.184 0 0 0 .089.04.121.121 0 0 0 .077-.027.118.118 0 0 0 .053-.078c.005-.03-.005-.062-.028-.095a.132.132 0 0 0-.06-.052.088.088 0 0 0-.06-.001.271.271 0 0 0-.065.036l-.056.04-.03-.042.057-.04c.037-.026.057-.053.062-.081.005-.029-.004-.06-.028-.093a.098.098 0 0 0-.068-.045.107.107 0 0 0-.078.022.125.125 0 0 0-.05.062.173.173 0 0 0 .005.093l-.034.025-.066-.092a.755.755 0 0 1 .135-.127c.096-.068.17-.066.222.007.04.055.037.116-.008.185l.004.005c.082-.03.144-.014.187.046a.15.15 0 0 1 .027.132c-.012.044-.047.087-.105.128a.589.589 0 0 1-.147.074zm1.038-.416a.393.393 0 0 0-.054-.07c-.02-.02-.038-.032-.051-.034a.071.071 0 0 0-.046.009l-.229.117a.066.066 0 0 0-.038.063c0 .03.01.068.029.114l-.039.02-.088-.172.037-.02a.672.672 0 0 0-.001-.249.83.83 0 0 0-.074-.238.071.071 0 0 0-.026-.033c-.01-.005-.022-.004-.038.002l-.01-.019.313-.16.01.02a.077.077 0 0 0-.027.034c-.003.01.004.032.021.065l.2.39.062-.031.088.172zm-.414-.576l-.107.055c.085.203.118.376.1.52l.239-.123zm.72.18a.32.32 0 0 0 .015.04.06.06 0 0 0 .013.017c.005.004.01.007.017.008a.116.116 0 0 0 .03 0l.007.02-.172.059-.007-.02a.085.085 0 0 0 .03-.026.04.04 0 0 0 .003-.026.285.285 0 0 0-.013-.046l-.119-.351a.323.323 0 0 0-.015-.04.054.054 0 0 0-.014-.018.037.037 0 0 0-.016-.007.142.142 0 0 0-.03 0l-.006-.02.171-.059.007.02a.116.116 0 0 0-.023.018.037.037 0 0 0-.009.015.05.05 0 0 0 0 .023l.012.042zm.707-.089l-.004-.02a2.748 2.748 0 0 1-.046-.068l-.051-.077a.309.309 0 0 0-.043-.055.084.084 0 0 0-.037-.02.108.108 0 0 0-.049.002l-.05.011.039.173c.008.033.015.054.024.061.008.007.022.011.044.011l.005.02-.177.042-.005-.02c.018-.01.03-.019.035-.028.005-.009.004-.032-.005-.068l-.083-.361c-.009-.037-.017-.059-.026-.064a.082.082 0 0 0-.043-.01l-.005-.02.177-.04.005.02c-.018.009-.03.018-.034.027-.005.01-.004.032.005.068l.035.154.05-.012a.072.072 0 0 0 .049-.033.359.359 0 0 0 .025-.115.352.352 0 0 1 .03-.122c.013-.025.04-.042.082-.052a.203.203 0 0 1 .054-.002l.022.096-.041.01c-.01-.028-.025-.039-.046-.034a.042.042 0 0 0-.029.026.404.404 0 0 0-.02.088.523.523 0 0 1-.016.082.119.119 0 0 1-.03.048v.003c.05.003.093.03.13.08l.058.076c.02.028.039.047.053.058a.08.08 0 0 0 .057.011l.005.02zm1.134-.086v-.021a2.926 2.926 0 0 1-.032-.075l-.035-.086a.31.31 0 0 0-.03-.062.084.084 0 0 0-.033-.028.109.109 0 0 0-.048-.008l-.052.002.004.177c.001.034.005.056.011.064.006.01.02.016.041.02v.021l-.18.005v-.021c.018-.005.032-.011.039-.02.007-.007.01-.03.009-.067l-.01-.371c0-.038-.005-.06-.013-.068a.082.082 0 0 0-.04-.017v-.021l.18-.005.001.021c-.019.006-.032.012-.038.02-.007.008-.01.03-.01.068l.005.157.051-.001a.073.073 0 0 0 .054-.022.358.358 0 0 0 .048-.108.353.353 0 0 1 .054-.114c.018-.022.048-.033.09-.034.014 0 .032.002.054.008l.003.098-.043.002c-.004-.029-.017-.043-.038-.042-.013 0-.025.007-.034.02a.4.4 0 0 0-.037.082.528.528 0 0 1-.032.076.119.119 0 0 1-.039.042v.003c.048.013.085.048.112.104l.04.086a.289.289 0 0 0 .041.067.08.08 0 0 0 .053.023v.021zm.608.044a.25.25 0 0 1-.09-.029.18.18 0 0 1-.066-.061.252.252 0 0 1-.035-.097.473.473 0 0 1 .001-.135.419.419 0 0 1 .05-.159.228.228 0 0 1 .096-.093.223.223 0 0 1 .129-.02c.05.007.092.023.123.05a.205.205 0 0 1 .066.108c.011.046.013.1.006.161a.424.424 0 0 1-.052.165.22.22 0 0 1-.096.092.234.234 0 0 1-.132.018zm-.1-.322a.42.42 0 0 0 .012.203c.02.049.054.076.103.082a.113.113 0 0 0 .082-.02.18.18 0 0 0 .06-.08.487.487 0 0 0 .033-.13.532.532 0 0 0 0-.157.186.186 0 0 0-.04-.095.115.115 0 0 0-.073-.038.12.12 0 0 0-.12.055.261.261 0 0 0-.036.076.607.607 0 0 0-.022.104zm1.083.419a.377.377 0 0 0-.01.036.076.076 0 0 0 0 .02c0 .006.001.01.003.014a.04.04 0 0 0 .01.012.138.138 0 0 0 .021.014l-.006.02-.173-.049.006-.02c.016 0 .028 0 .035-.004a.038.038 0 0 0 .02-.018.232.232 0 0 0 .016-.047l.05-.173-.23-.065-.049.173a.36.36 0 0 0-.01.04.06.06 0 0 0 0 .023.036.036 0 0 0 .01.016.13.13 0 0 0 .025.017l-.006.02-.174-.049.006-.02a.084.084 0 0 0 .039-.005.04.04 0 0 0 .017-.02.288.288 0 0 0 .016-.044l.101-.357a.331.331 0 0 0 .01-.042.054.054 0 0 0-.001-.023.037.037 0 0 0-.01-.015.147.147 0 0 0-.024-.017l.006-.02.174.05-.006.02a.125.125 0 0 0-.029.001.038.038 0 0 0-.016.008.053.053 0 0 0-.012.018.284.284 0 0 0-.015.042l-.041.146.23.065.04-.146a.224.224 0 0 0 .011-.05.04.04 0 0 0-.006-.024.096.096 0 0 0-.029-.023l.006-.02.173.05-.006.02a.09.09 0 0 0-.036.003.038.038 0 0 0-.018.018.263.263 0 0 0-.017.048zm.883-.144l-.05.108-.038-.017a.187.187 0 0 0 0-.065.09.09 0 0 0-.02-.044.123.123 0 0 0-.042-.03.118.118 0 0 0-.084-.005.193.193 0 0 0-.086.058.55.55 0 0 0-.12.26.19.19 0 0 0 .006.101.11.11 0 0 0 .059.06c.021.01.04.014.056.014a.09.09 0 0 0 .048-.013.255.255 0 0 0 .053-.047l.038.017-.05.112a.617.617 0 0 1-.169-.053c-.066-.03-.106-.074-.12-.135a.362.362 0 0 1 .04-.223.417.417 0 0 1 .093-.135.234.234 0 0 1 .121-.062c.045-.008.09 0 .138.02a.57.57 0 0 1 .127.08zm.2.777a.25.25 0 0 1-.07-.065.18.18 0 0 1-.033-.084.25.25 0 0 1 .01-.102.475.475 0 0 1 .058-.121.42.42 0 0 1 .114-.123.228.228 0 0 1 .126-.043c.044 0 .085.012.126.038.042.028.072.06.09.098.017.037.02.08.012.126a.428.428 0 0 1-.064.148.423.423 0 0 1-.116.126.22.22 0 0 1-.127.042.234.234 0 0 1-.126-.04zm.046-.335a.42.42 0 0 0-.076.19.122.122 0 0 0 .058.118.113.113 0 0 0 .083.018.18.18 0 0 0 .088-.047.49.49 0 0 0 .086-.105.532.532 0 0 0 .068-.14.186.186 0 0 0 .004-.104.115.115 0 0 0-.05-.065.119.119 0 0 0-.065-.02.139.139 0 0 0-.066.018.26.26 0 0 0-.066.053.613.613 0 0 0-.064.084zm.564.645a.223.223 0 0 0-.024.033.065.065 0 0 0-.01.023.04.04 0 0 0 .003.021.15.15 0 0 0 .018.027l-.014.016-.143-.123.014-.016a.085.085 0 0 0 .037.012.04.04 0 0 0 .024-.01.28.28 0 0 0 .034-.034l.243-.28a.318.318 0 0 0 .026-.035.053.053 0 0 0 .009-.02c0-.006 0-.012-.002-.018a.144.144 0 0 0-.015-.026l.014-.016.16.14c.051.044.08.086.089.127.007.04-.006.08-.04.12a.2.2 0 0 1-.064.05.152.152 0 0 1-.071.016.173.173 0 0 1-.072-.02.326.326 0 0 1-.068-.045 1.18 1.18 0 0 1-.055-.05zm.117-.134l.037.032a.217.217 0 0 0 .069.043.094.094 0 0 0 .064 0 .157.157 0 0 0 .064-.048.169.169 0 0 0 .033-.053.103.103 0 0 0 .005-.048.103.103 0 0 0-.018-.043.21.21 0 0 0-.035-.039.872.872 0 0 0-.05-.04zm.408 1.032a.379.379 0 0 0 .054-.07c.015-.025.023-.044.022-.058a.07.07 0 0 0-.02-.041l-.24-.278.016-.014c.018.013.033.018.043.016a.142.142 0 0 0 .054-.035l.28-.243a.151.151 0 0 0 .044-.05c.003-.01 0-.025-.01-.044l.015-.013.118.136-.016.014a.084.084 0 0 0-.04-.018c-.01 0-.03.012-.058.037l-.331.287.146.168.331-.287c.027-.023.042-.04.044-.051.002-.01-.002-.025-.011-.044l.016-.013.118.136-.016.014a.077.077 0 0 0-.04-.018c-.01 0-.03.012-.058.037l-.331.287.044.052-.146.126zm.476.435l.018-.011c.017.015.03.023.041.023.011 0 .03-.01.058-.027l.155-.1c.051-.032.084-.053.1-.061l-.002-.002-.385-.043a.154.154 0 0 0-.05.043c-.003.01-.002.025.005.045l-.018.012-.097-.151.018-.012c.017.016.03.024.042.024.01 0 .03-.01.058-.027l.312-.2c.032-.02.049-.036.051-.047a.082.082 0 0 0-.005-.043l.017-.011.097.15-.018.012a.081.081 0 0 0-.037-.023c-.01-.001-.031.008-.062.028l-.16.102a1.98 1.98 0 0 1-.09.055v.003l.386.043a.143.143 0 0 0 .045-.04c.004-.01.003-.025-.004-.046l.018-.012.096.15-.017.012a.08.08 0 0 0-.038-.023c-.01-.001-.03.008-.062.028l-.312.2c-.03.019-.046.033-.05.043-.004.01-.003.025.004.045l-.017.012zm.94.612a.083.083 0 0 0-.039-.024.452.452 0 0 0-.1-.008l-.289-.003a.607.607 0 0 1-.184-.021.132.132 0 0 1-.077-.072.207.207 0 0 1-.017-.063l.1-.045.018.042c-.029.016-.038.035-.028.059.014.03.053.048.115.051l.221-.253a.67.67 0 0 0 .063-.079.072.072 0 0 0 .008-.045l.02-.008.075.167-.019.009c-.014-.024-.03-.032-.048-.023a.235.235 0 0 0-.066.057l-.158.178.216-.003a.27.27 0 0 0 .098-.015c.023-.01.03-.027.023-.05l.02-.01.067.15zm.266.901a.116.116 0 0 0-.016-.023.039.039 0 0 0-.015-.01.054.054 0 0 0-.023-.001.303.303 0 0 0-.042.01l-.357.1a.343.343 0 0 0-.04.014.06.06 0 0 0-.019.012.037.037 0 0 0-.008.016.116.116 0 0 0-.003.03l-.02.006-.049-.172.02-.005a.089.089 0 0 0 .023.029.04.04 0 0 0 .025.006.25.25 0 0 0 .05-.01l.157-.045a5.199 5.199 0 0 1 .215-.055l-.002-.007-.455-.047-.013-.048.372-.27-.002-.007a5.036 5.036 0 0 1-.225.07l-.151.044a.322.322 0 0 0-.04.013.055.055 0 0 0-.019.012.035.035 0 0 0-.008.016.113.113 0 0 0-.003.03l-.02.006-.043-.15.02-.006c.01.016.018.026.025.03a.042.042 0 0 0 .026.005.305.305 0 0 0 .046-.01l.357-.102a.29.29 0 0 0 .041-.014.055.055 0 0 0 .018-.012.039.039 0 0 0 .008-.016.145.145 0 0 0 .002-.03l.02-.005.042.147-.36.259.447.045.04.14zm-.462.912l.02-.001c.006.018.013.03.021.037.008.007.031.01.069.006l.37-.028c.035-.002.057-.007.065-.015.008-.007.014-.021.017-.041l.021-.002.014.18-.021.002c-.008-.022-.016-.035-.026-.04a.153.153 0 0 0-.064-.004l-.37.028c-.036.003-.058.008-.066.016-.007.007-.012.021-.016.041l-.02.002zm-.035-.458l.02-.001c.007.019.014.032.022.038.008.007.031.009.068.006l.37-.028c.038-.003.06-.009.067-.017a.082.082 0 0 0 .016-.04l.02-.002.014.18-.02.002c-.008-.022-.017-.036-.027-.04a.153.153 0 0 0-.064-.004l-.146.011c.006.04.01.075.013.105.01.124-.04.19-.148.198-.115.009-.179-.055-.189-.193zm.301.108l-.251.02c0 .02 0 .042.002.068.004.052.018.087.041.107.023.02.057.028.101.025.084-.006.124-.052.117-.138a.728.728 0 0 0-.01-.082zm-10.875 2.26l.02-.005a2.71 2.71 0 0 1 .064-.049l.073-.054a.306.306 0 0 0 .052-.045.084.084 0 0 0 .019-.037.105.105 0 0 0-.005-.049l-.014-.05-.168.049a.165.165 0 0 0-.06.026c-.006.008-.009.023-.008.044l-.02.006-.05-.172.02-.006c.01.018.02.029.03.033.008.005.03.002.066-.008l.352-.1c.036-.01.056-.02.062-.03a.082.082 0 0 0 .006-.042l.02-.006.05.172-.02.006c-.01-.017-.02-.028-.03-.032-.009-.005-.03-.002-.066.008l-.15.043.015.049a.071.071 0 0 0 .034.046.352.352 0 0 0 .115.02.349.349 0 0 1 .123.022c.025.012.043.038.054.078a.2.2 0 0 1 .006.054l-.094.026-.011-.04c.026-.01.036-.027.03-.047a.043.043 0 0 0-.027-.027.403.403 0 0 0-.088-.015.513.513 0 0 1-.08-.012.118.118 0 0 1-.05-.027h-.003c-.001.05-.025.093-.072.133l-.072.06a.284.284 0 0 0-.055.056.079.079 0 0 0-.008.056l-.02.006zm.183.547a.246.246 0 0 1-.018-.092c0-.03.007-.058.022-.085a.248.248 0 0 1 .068-.077.472.472 0 0 1 .116-.063.413.413 0 0 1 .162-.032.225.225 0 0 1 .126.04.22.22 0 0 1 .078.102.23.23 0 0 1 .015.13.202.202 0 0 1-.063.108.421.421 0 0 1-.137.082.418.418 0 0 1-.166.033.217.217 0 0 1-.126-.04.231.231 0 0 1-.077-.106zm.231-.24a.413.413 0 0 0-.17.108.12.12 0 0 0-.023.127c.011.03.03.05.056.063a.179.179 0 0 0 .098.013.483.483 0 0 0 .13-.033.525.525 0 0 0 .135-.073.184.184 0 0 0 .063-.08.114.114 0 0 0-.002-.081.117.117 0 0 0-.04-.055.138.138 0 0 0-.064-.023.257.257 0 0 0-.083.004.602.602 0 0 0-.1.03zm.289 1.022a.372.372 0 0 0-.031.02.075.075 0 0 0-.016.013.04.04 0 0 0-.006.012.038.038 0 0 0-.002.015l.005.025-.018.01-.088-.154.018-.01c.011.011.02.019.028.022a.038.038 0 0 0 .025 0 .229.229 0 0 0 .045-.022l.154-.088-.116-.204-.154.088a.358.358 0 0 0-.036.022.061.061 0 0 0-.014.016.036.036 0 0 0-.005.018l.005.03-.018.01-.088-.155.018-.01c.013.012.023.02.03.022a.04.04 0 0 0 .026-.001.28.28 0 0 0 .042-.02l.318-.183a.329.329 0 0 0 .036-.023.053.053 0 0 0 .015-.016.037.037 0 0 0 .004-.017.141.141 0 0 0-.006-.029l.019-.01.088.155-.018.01a.117.117 0 0 0-.021-.019.039.039 0 0 0-.017-.005.038.038 0 0 0-.022.004.287.287 0 0 0-.038.02l-.13.074.116.204.13-.075a.226.226 0 0 0 .042-.028.04.04 0 0 0 .012-.02.094.094 0 0 0-.004-.036l.018-.01.088.153-.018.01a.09.09 0 0 0-.028-.021.038.038 0 0 0-.026 0 .255.255 0 0 0-.044.021zm.764.299l-.096.067-.024-.034a.186.186 0 0 0 .033-.055.09.09 0 0 0 .004-.047.122.122 0 0 0-.021-.047.116.116 0 0 0-.069-.046.191.191 0 0 0-.102.006.54.54 0 0 0-.232.16.188.188 0 0 0-.045.09.107.107 0 0 0 .02.08.139.139 0 0 0 .041.041.09.09 0 0 0 .047.012c.018 0 .04-.004.069-.013l.024.034-.099.07a.61.61 0 0 1-.117-.129.191.191 0 0 1-.035-.175.357.357 0 0 1 .146-.17.411.411 0 0 1 .146-.069.231.231 0 0 1 .134.008.231.231 0 0 1 .107.087.569.569 0 0 1 .069.13zm-.15.682a.246.246 0 0 1-.051-.079.179.179 0 0 1-.012-.087.249.249 0 0 1 .034-.096.471.471 0 0 1 .085-.102.413.413 0 0 1 .138-.09.225.225 0 0 1 .131-.012.22.22 0 0 1 .111.066.229.229 0 0 1 .063.115.202.202 0 0 1-.018.124.42.42 0 0 1-.096.127.417.417 0 0 1-.142.093.217.217 0 0 1-.132.01.231.231 0 0 1-.11-.069zm.124-.309a.414.414 0 0 0-.117.163.12.12 0 0 0 .027.127.112.112 0 0 0 .075.037.178.178 0 0 0 .095-.024.481.481 0 0 0 .108-.08.523.523 0 0 0 .098-.118.202.202 0 0 0 .03-.098.114.114 0 0 0-.033-.074.117.117 0 0 0-.058-.035.139.139 0 0 0-.068.001.258.258 0 0 0-.075.036.602.602 0 0 0-.082.065zm.402.653a.224.224 0 0 0-.024.032.063.063 0 0 0-.009.023.04.04 0 0 0 .003.02.145.145 0 0 0 .017.028l-.014.015-.14-.12.013-.017a.084.084 0 0 0 .036.012.04.04 0 0 0 .024-.01.287.287 0 0 0 .033-.034l.239-.278a.33.33 0 0 0 .026-.033.053.053 0 0 0 .008-.02c0-.006 0-.012-.002-.018a.146.146 0 0 0-.015-.025l.014-.016.16.137c.05.043.079.084.087.125.008.04-.005.08-.039.119a.198.198 0 0 1-.063.05.15.15 0 0 1-.07.015.17.17 0 0 1-.071-.018.321.321 0 0 1-.067-.045 1.157 1.157 0 0 1-.055-.049zm.114-.133l.038.032c.024.02.046.034.068.042a.094.094 0 0 0 .063-.001.155.155 0 0 0 .062-.047.166.166 0 0 0 .033-.053.1.1 0 0 0 .005-.047.101.101 0 0 0-.018-.043.206.206 0 0 0-.035-.038.882.882 0 0 0-.049-.04zm.52.91a.376.376 0 0 0 .032-.082c.007-.027.009-.047.004-.06a.07.07 0 0 0-.03-.034l-.306-.195.011-.018c.021.007.037.008.046.003.01-.005.024-.02.041-.048l.197-.309c.018-.029.027-.048.027-.06 0-.01-.007-.023-.022-.038l.011-.018.15.096-.011.018c-.019-.007-.033-.008-.043-.005-.01.003-.025.02-.044.05l-.233.365.185.118.233-.365c.019-.03.028-.05.027-.06-.001-.01-.009-.024-.023-.038l.011-.018.15.096-.011.017a.077.077 0 0 0-.042-.005c-.01.003-.025.02-.045.051l-.233.365.057.036-.102.162zm.616.15l.009-.018c.021.004.037.003.046-.003.009-.006.02-.024.033-.054l.075-.166c.025-.054.041-.088.05-.103l-.002-.001-.342.17c-.014.031-.02.052-.018.062.002.01.011.023.028.036l-.009.019-.161-.073.008-.02c.023.005.038.004.047-.002.01-.006.02-.024.034-.054l.151-.333c.016-.034.022-.056.018-.066a.082.082 0 0 0-.028-.033l.009-.019.16.074-.008.019c-.019-.004-.033-.004-.043 0-.01.005-.022.024-.037.057l-.077.17a1.92 1.92 0 0 1-.046.095h.003l.342-.17c.012-.027.018-.046.016-.057-.002-.01-.01-.023-.028-.037l.009-.018.16.072-.008.02c-.02-.004-.034-.004-.043 0-.01.005-.022.023-.037.057l-.152.333c-.014.031-.02.052-.018.062.002.01.011.023.028.036l-.009.019zm1.017-.213a.081.081 0 0 0-.044.012.448.448 0 0 0-.073.068l-.196.207a.597.597 0 0 1-.139.118.13.13 0 0 1-.103.008.204.204 0 0 1-.058-.03l.034-.102.044.014c-.008.032 0 .052.023.06.032.01.07-.006.115-.048l-.035-.33a.663.663 0 0 0-.015-.099.071.071 0 0 0-.027-.036l.006-.02.172.058-.006.02c-.027-.006-.043 0-.05.019a.233.233 0 0 0-.002.086l.023.234.142-.158a.267.267 0 0 0 .056-.081c.008-.024 0-.04-.022-.051l.007-.02.154.052zm.718.142a.119.119 0 0 0-.028.005.038.038 0 0 0-.015.01.053.053 0 0 0-.01.019.303.303 0 0 0-.01.042l-.064.36a.337.337 0 0 0-.005.042c0 .008 0 .016.002.021.003.006.006.01.011.015.005.004.014.01.026.015l-.003.02-.174-.03.003-.02a.09.09 0 0 0 .036-.008.04.04 0 0 0 .016-.02.252.252 0 0 0 .012-.048l.028-.16a5.017 5.017 0 0 1 .044-.214l-.007-.001-.238.384-.048-.009-.08-.446-.007-.002a4.658 4.658 0 0 1-.034.23l-.027.153a.312.312 0 0 0-.005.042c0 .008 0 .016.003.021.002.006.005.01.01.015.005.004.014.01.026.015l-.003.02-.153-.027.004-.02a.084.084 0 0 0 .037-.009.041.041 0 0 0 .016-.02.3.3 0 0 0 .01-.046l.064-.361a.294.294 0 0 0 .005-.042.055.055 0 0 0-.003-.022.038.038 0 0 0-.011-.014.147.147 0 0 0-.025-.014l.003-.02.15.025.074.432.233-.378.14.025zm.54.585v-.021c.022-.005.036-.012.042-.021.006-.01.01-.03.01-.063l.008-.366c0-.035-.002-.057-.008-.066a.078.078 0 0 0-.04-.02v-.021l.392.008-.003.128H8.8a.227.227 0 0 0-.031-.072c-.011-.013-.03-.02-.059-.021l-.128-.003-.005.214c.04-.003.076-.004.107-.003.128.003.191.058.189.165-.003.114-.075.17-.216.166zm.135-.286l-.005.249.07.004c.05 0 .088-.009.11-.03.023-.02.035-.053.036-.097.002-.083-.04-.126-.128-.128a.92.92 0 0 0-.083.002zm.89-.326l.009.128-.041.003a.367.367 0 0 0-.032-.06.066.066 0 0 0-.017-.016.051.051 0 0 0-.022-.007.148.148 0 0 0-.028 0l-.133.01.016.22.09-.006a.065.065 0 0 0 .03-.008.041.041 0 0 0 .016-.019.167.167 0 0 0 .01-.04l.04-.004.012.163-.04.003a.154.154 0 0 0-.016-.038.045.045 0 0 0-.018-.017.062.062 0 0 0-.03-.003l-.09.007.018.244.131-.01a.125.125 0 0 0 .033-.007.051.051 0 0 0 .022-.013.082.082 0 0 0 .014-.024.219.219 0 0 0 .01-.03l.01-.045.042-.003.003.149-.39.03-.002-.021a.084.084 0 0 0 .034-.018.04.04 0 0 0 .01-.024.295.295 0 0 0-.001-.047l-.028-.365a.324.324 0 0 0-.005-.042.054.054 0 0 0-.009-.02.037.037 0 0 0-.014-.011.14.14 0 0 0-.028-.008l-.002-.02zm.292.522l-.026-.115.04-.01a.18.18 0 0 0 .066.07.12.12 0 0 0 .08.005.117.117 0 0 0 .078-.052c.016-.025.02-.058.01-.097a.13.13 0 0 0-.035-.07.087.087 0 0 0-.054-.023.265.265 0 0 0-.073.008l-.066.015-.012-.049.067-.015c.044-.01.073-.027.088-.051.015-.024.018-.056.009-.095a.096.096 0 0 0-.046-.067.106.106 0 0 0-.079-.009.123.123 0 0 0-.068.038.171.171 0 0 0-.031.087l-.04.009-.026-.108a.743.743 0 0 1 .17-.065c.114-.027.18.004.2.09.016.065-.01.12-.076.165l.002.006c.085.004.136.042.153.113a.147.147 0 0 1-.025.13c-.028.036-.076.062-.144.077a.579.579 0 0 1-.162.013zm.809-.193a.247.247 0 0 1-.093.014.179.179 0 0 1-.085-.027.249.249 0 0 1-.072-.07.47.47 0 0 1-.058-.12.413.413 0 0 1-.024-.163.225.225 0 0 1 .045-.124.22.22 0 0 1 .106-.073.229.229 0 0 1 .131-.01c.04.01.075.033.105.069a.42.42 0 0 1 .075.14c.02.063.03.119.025.168a.217.217 0 0 1-.047.124.232.232 0 0 1-.108.072zm-.229-.242c.028.082.06.14.1.175a.12.12 0 0 0 .126.029.113.113 0 0 0 .064-.053.179.179 0 0 0 .019-.097.48.48 0 0 0-.027-.131.523.523 0 0 0-.067-.139.184.184 0 0 0-.077-.067.114.114 0 0 0-.08-.002.117.117 0 0 0-.057.038.139.139 0 0 0-.027.062.256.256 0 0 0 0 .084.604.604 0 0 0 .026.1zm.857-.669l.01.019a.091.091 0 0 0-.023.027.038.038 0 0 0-.001.026c.002.01.009.024.02.045l.168.325a.44.44 0 0 0 .018.032.076.076 0 0 0 .013.016.035.035 0 0 0 .026.01.14.14 0 0 0 .026-.005l.01.019-.159.081-.01-.018a.09.09 0 0 0 .024-.027.039.039 0 0 0 0-.025.234.234 0 0 0-.019-.046l-.199-.385-.2.103.2.385a.358.358 0 0 0 .02.036.06.06 0 0 0 .016.015c.005.004.01.005.017.006a.115.115 0 0 0 .03-.004l.01.018-.159.082-.01-.018a.085.085 0 0 0 .025-.03.04.04 0 0 0 0-.026.284.284 0 0 0-.02-.042l-.168-.326a.332.332 0 0 0-.021-.037.053.053 0 0 0-.016-.015.036.036 0 0 0-.017-.004.145.145 0 0 0-.029.004l-.01-.019zm.728.238l-.011-.017a.141.141 0 0 0 .021-.025.034.034 0 0 0 .006-.02.048.048 0 0 0-.01-.024.413.413 0 0 0-.048-.05l-.042-.038-.166.107.01.043c.005.021.01.037.014.047a.14.14 0 0 0 .013.027c.009.014.02.022.03.024.012.002.026 0 .043-.008l.01.017-.151.098-.011-.017a.064.064 0 0 0 .02-.046.284.284 0 0 0-.009-.075l-.105-.49.057-.036.376.32a.454.454 0 0 0 .042.032c.011.007.021.01.031.012.01.002.02 0 .033-.004l.011.018zm-.26-.104l.149-.096-.216-.186zm.503-.802l.077.088-.031.027a.185.185 0 0 0-.058-.027.09.09 0 0 0-.048 0 .122.122 0 0 0-.044.027.116.116 0 0 0-.04.073.191.191 0 0 0 .018.1.54.54 0 0 0 .184.215.187.187 0 0 0 .093.036.108.108 0 0 0 .078-.029.14.14 0 0 0 .036-.045.09.09 0 0 0 .007-.048.251.251 0 0 0-.02-.066l.031-.028.08.091a.605.605 0 0 1-.116.13c-.054.047-.11.065-.17.053a.357.357 0 0 1-.185-.128.411.411 0 0 1-.083-.138.231.231 0 0 1-.006-.134.231.231 0 0 1 .075-.116.57.57 0 0 1 .122-.082zm.79-.14l.028.024a.075.075 0 0 0 .017.01c.005.002.01.004.014.004a.04.04 0 0 0 .014-.003.142.142 0 0 0 .023-.012l.015.014-.122.128-.015-.014a.095.095 0 0 0 .013-.033.038.038 0 0 0-.007-.024.232.232 0 0 0-.034-.037l-.129-.122-.162.17.129.123a.357.357 0 0 0 .031.027.06.06 0 0 0 .02.01.036.036 0 0 0 .018-.001.115.115 0 0 0 .026-.014l.015.015-.122.129-.015-.015a.084.084 0 0 0 .013-.035.04.04 0 0 0-.01-.025.286.286 0 0 0-.031-.034l-.265-.253a.322.322 0 0 0-.033-.027.053.053 0 0 0-.02-.01.036.036 0 0 0-.017.002.147.147 0 0 0-.026.013l-.015-.014.123-.13.015.015a.116.116 0 0 0-.012.025.039.039 0 0 0 0 .018.052.052 0 0 0 .01.02.288.288 0 0 0 .03.031l.108.103.162-.17-.109-.104a.229.229 0 0 0-.039-.032.039.039 0 0 0-.023-.005.093.093 0 0 0-.033.015l-.015-.015.122-.128.015.014a.09.09 0 0 0-.013.033.05.05 0 0 0 .007.025c.006.008.017.02.034.036zm.408-.346a.246.246 0 0 1-.067.066.179.179 0 0 1-.084.028.248.248 0 0 1-.1-.015.47.47 0 0 1-.117-.063.413.413 0 0 1-.115-.117.225.225 0 0 1-.037-.127.22.22 0 0 1 .043-.122.23.23 0 0 1 .1-.084.202.202 0 0 1 .125-.006.42.42 0 0 1 .144.07.419.419 0 0 1 .119.12.217.217 0 0 1 .035.128.23.23 0 0 1-.046.122zm-.327-.062a.42.42 0 0 0 .183.084.12.12 0 0 0 .12-.051.111.111 0 0 0 .02-.081.178.178 0 0 0-.042-.09.481.481 0 0 0-.098-.09.524.524 0 0 0-.136-.072.184.184 0 0 0-.102-.01.114.114 0 0 0-.066.046.117.117 0 0 0-.023.064.138.138 0 0 0 .015.066c.01.023.027.045.05.067a.604.604 0 0 0 .079.067zm.299-.97l.101.058-.02.037a.185.185 0 0 0-.064-.007.09.09 0 0 0-.045.016.122.122 0 0 0-.033.039.116.116 0 0 0-.014.082.19.19 0 0 0 .05.09c.026.03.064.059.112.086a.54.54 0 0 0 .13.057c.04.01.073.011.1.003a.108.108 0 0 0 .065-.052.14.14 0 0 0 .02-.054.09.09 0 0 0-.01-.048.25.25 0 0 0-.04-.057l.02-.036.106.06a.6.6 0 0 1-.068.161c-.036.062-.084.097-.144.105a.357.357 0 0 1-.216-.06.41.41 0 0 1-.123-.104.23.23 0 0 1-.05-.126.232.232 0 0 1 .034-.133.578.578 0 0 1 .089-.117zm.063-.136l.167-.427.138.054-.016.039a.422.422 0 0 0-.06-.004.115.115 0 0 0-.037.006.061.061 0 0 0-.022.015.102.102 0 0 0-.018.03l-.02.05.405.158a.16.16 0 0 0 .038.012c.01.002.018.003.025.001a.04.04 0 0 0 .018-.01.151.151 0 0 0 .02-.024l.02.007-.071.18-.02-.007a.192.192 0 0 0 .003-.023c0-.007 0-.013-.002-.018a.04.04 0 0 0-.008-.014.077.077 0 0 0-.017-.014.238.238 0 0 0-.035-.016l-.404-.158-.02.05a.121.121 0 0 0-.008.032.06.06 0 0 0 .006.028.11.11 0 0 0 .025.031.396.396 0 0 0 .046.037l-.015.039zm.865-.736l-.02-.005c0-.023-.003-.038-.01-.046a.162.162 0 0 0-.058-.025l-.175-.05a2.3 2.3 0 0 1-.11-.033v.001l.219.314c.032.01.054.012.064.009.01-.004.02-.015.03-.033l.02.006-.048.17-.02-.006c0-.023-.003-.038-.01-.046s-.027-.016-.058-.025l-.352-.102c-.036-.01-.058-.013-.068-.008a.082.082 0 0 0-.028.033l-.02-.006.05-.17.02.006c-.001.02 0 .033.006.042.006.009.026.018.062.029l.179.051c.04.012.074.022.1.032l.001-.003-.219-.313c-.028-.009-.048-.011-.058-.008-.01.003-.021.014-.032.033l-.02-.006.048-.17.02.006c0 .02.002.034.007.043.006.009.026.018.062.028l.352.101c.032.01.054.013.064.01.01-.004.02-.015.03-.034l.02.006z" fill="#ffec00" stroke="#ffec00" stroke-width=".023"/></g></svg>