<svg xmlns="http://www.w3.org/2000/svg" width="100" height="150" viewBox="0 0 26.458333 39.687501"><g fill-rule="evenodd"><path d="M2.682 3.786l2.662 28.611L20.7 34.49l4.97-31.125z"/><path d="M.611 3.313v8.485l1.177-.655c3.217-1.71 7.423-2.64 11.107-2.64 4.28 0 8.657.833 12.417 2.955.188.106.433.26.62.335V3.308c-.187-.075-.432-.229-.62-.335C21.68.923 17.339.018 13.182.018 9.28.018 5.24.823 1.787 2.658z" fill="#ffec00"/><path d="M.611 11.559v12.644c.005.01.01.023.012.031l.09.747a17.01 17.01 0 0 0 1.254 4.759 15.7 15.7 0 0 0 2.701 4.227c.253.28.58.675.847.907.338.293.584.571.917.84 1.739 1.405 3.317 2.468 5.496 3.355.254.104 1.126.386 1.274.482h.143c.156-.104 1-.382 1.26-.49.422-.173.832-.377 1.217-.56 1.577-.757 2.927-1.742 4.211-2.786.46-.373 1.347-1.261 1.77-1.742 1.689-1.925 2.953-4.14 3.61-6.736.119-.475.208-.925.3-1.415.057-.298.13-1.336.22-1.501V11.554c-.188-.07-.433-.213-.621-.312-2.61-1.371-6.058-2.284-9.042-2.597-.156-.016-1.572-.11-1.67-.155h-2.571l-.438.053c-3.336.178-6.872.955-9.803 2.406zm1.013.616V24.07l.094.79c.18 1.515.574 3.076 1.179 4.477a14.62 14.62 0 0 0 2.523 3.95c.237.263.494.591.758.82.304.264.58.567.89.818 1.675 1.354 3.234 2.388 5.242 3.205.275.112.636.215.958.338.32-.125.678-.23.952-.344.395-.163.779-.354 1.164-.538 1.462-.7 2.757-1.64 4.01-2.658.548-.444 1.181-1.093 1.647-1.624 1.618-1.843 2.786-3.929 3.39-6.317.112-.448.201-.9.288-1.355.078-.414.08-1.013.2-1.47V12.18a10.387 10.387 0 0 0-.078-.042c-2.537-1.333-5.83-2.187-8.676-2.485-.375-.038-1.157-.058-1.658-.15H12.09l-.41.05-.035.002c-3.16.168-6.555.891-9.4 2.297z" fill="#ffec00"/><path d="M1.624 12.175V24.07l.094.79c.18 1.515.574 3.076 1.179 4.477a14.62 14.62 0 0 0 2.523 3.95c.237.263.494.591.758.82.304.264.58.567.89.818 1.675 1.354 3.234 2.388 5.242 3.205.275.112.636.215.958.338.32-.125.678-.23.952-.344.395-.163.779-.354 1.164-.538 1.462-.7 2.757-1.64 4.01-2.658.548-.444 1.181-1.093 1.647-1.624 1.618-1.843 2.786-3.929 3.39-6.317.112-.448.201-.9.288-1.355.078-.414.08-1.013.2-1.47V12.18a10.387 10.387 0 0 0-.078-.042c-2.537-1.333-5.83-2.187-8.676-2.485-.375-.038-1.157-.058-1.658-.15H12.09l-.41.05-.035.002c-3.16.168-6.555.891-9.4 2.297z"/><path d="M19.412 11.249h.394l.36.443.36-.443h.394l-.568.7v.534h-.372v-.535zm-1.722 0h1.071v.232h-.353v1.002h-.375v-1.002h-.342zm-1.131 0h.367v1.234h-.367zm-1.636.483h.117c.118 0 .2-.01.245-.03.044-.02.067-.052.067-.098a.093.093 0 0 0-.034-.07.194.194 0 0 0-.089-.044 1.036 1.036 0 0 0-.204-.013h-.102zm-.367-.483h.392c.214 0 .366.012.457.036a.468.468 0 0 1 .22.121.277.277 0 0 1 .083.201.26.26 0 0 1-.092.204.613.613 0 0 1-.275.123l.457.55h-.403l-.435-.524h-.037v.523h-.367zm-2.254 0h.37v.798c0 .069.009.118.028.146.019.029.05.051.093.069a.437.437 0 0 0 .157.025c.066 0 .121-.01.169-.029a.193.193 0 0 0 .097-.072.356.356 0 0 0 .027-.168v-.77h.37v.736c0 .125-.011.21-.033.259a.37.37 0 0 1-.126.14.642.642 0 0 1-.214.099c-.08.021-.174.032-.281.032a.997.997 0 0 1-.367-.062.489.489 0 0 1-.223-.154c-.045-.062-.067-.166-.067-.314zm-.8.216l-.258.157a1.039 1.039 0 0 0-.593-.177.857.857 0 0 0-.469.12c-.127.081-.19.18-.19.298 0 .082.028.156.084.22a.56.56 0 0 0 .239.15c.103.036.217.054.343.054.107 0 .205-.013.293-.038a1.16 1.16 0 0 0 .293-.139l.25.167c-.143.089-.278.15-.405.185a1.665 1.665 0 0 1-.436.052c-.302 0-.548-.06-.74-.182-.192-.122-.288-.278-.288-.468 0-.123.044-.233.131-.328a.91.91 0 0 1 .376-.231 1.65 1.65 0 0 1 .988-.023 1.2 1.2 0 0 1 .382.183zm-3.768-.216h1.058v.23h-.69v.222h.69v.227h-.69v.325h.69v.23H7.734zm-.927.168l-.273.153a.441.441 0 0 0-.293-.127.25.25 0 0 0-.118.025c-.031.016-.047.035-.047.055 0 .021.011.04.033.06.03.024.12.077.271.158.141.075.226.122.256.141a.586.586 0 0 1 .16.138.245.245 0 0 1 .046.144c0 .102-.054.185-.165.251a.827.827 0 0 1-.43.1.927.927 0 0 1-.36-.065.658.658 0 0 1-.264-.204l.31-.119a.416.416 0 0 0 .323.164.332.332 0 0 0 .16-.036c.043-.023.065-.05.065-.081 0-.028-.016-.056-.049-.084a1.337 1.337 0 0 0-.215-.128c-.212-.11-.348-.194-.41-.254-.061-.06-.092-.119-.092-.178 0-.086.051-.16.153-.22a.726.726 0 0 1 .38-.092c.096 0 .188.014.275.042.088.029.182.08.284.157zm6.465 1.795c5.456 0 9.879 4.423 9.879 9.88 0 5.455-4.423 9.878-9.88 9.878-5.456 0-9.879-4.423-9.879-9.879 0-5.456 4.423-9.879 9.88-9.879z" fill="#ffec00"/><path d="M13.272 13.69a9.401 9.401 0 1 1 0 18.802 9.401 9.401 0 0 1 0-18.802z"/><path d="M13.272 15.443a7.648 7.648 0 1 1 0 15.297 7.648 7.648 0 0 1 0-15.297zm0 .319a7.33 7.33 0 1 1 0 14.659 7.33 7.33 0 0 1 0-14.66z" fill="#ffec00"/><path d="M21.753 23.466l.081.418.423.05-.372.206.082.418-.311-.29-.372.207.18-.386-.312-.289.423.052zm-11.563 3.36a1.87 1.87 0 0 0-.22.552c-.05.263.104.404.276.15.241-.358.477-1.087.883-1.263l-.15-.114c-.372.015-.34-.156-.672-.302l-1.705-.752a.936.936 0 0 0-.486-.079c-.044.09-.235.808-.255.819a.368.368 0 0 0 .487-.052c.028-.026 1.607.925 1.843 1.041zm6.067-8.943c2.928 1.058 2.334 1.87 2.14 3.919l-3.918.247-.046.19 4.08-.247-.209.61-3.384.208-2.11-.114-.232-.038.626-.304c1.404-.612 2.628-1.447 3.895-2.227-2.373.919-4.91 2.397-7.192 3.133-2.312.746-2.97-.232-2.524-1.486.31-.869 1.036-1.743 1.834-2.449 1.762-1.556 4.293-2.435 7.04-1.442zm-2.543 7.44c.692-.395.154-1.374-.344-1.282-.367.069-.64.464-.71.817-.059.303.029.58.37.537.323-.041.252-.319.337-.696.382.196.31.248.347.624zm-4.67-1.685c1.011-.11 1.658 1.31 3.662.105.264.12.072.336.325.076-.091-.462.204-.47.613-.455.398.014.241.258.36.584.039-.121.182-.218.22-.338.71.388 1.696.879 2.433.467.598-.334.625-.39 1.369-.496-.095.782-1.266 1.416-2.167 1.447-.047-.232-.065-.194.046-.41-.16-.06-.117-.051-.278.01l-.193.97c-.099.501-.286.462-.874.505l.024-.314-.383-.01-.116.295-.417.038-.046-.247-.394-.019-.024.257-.556-.01.046-.314-.44-.047v.285c-1.022-.242-.739-.736-1.078-1.408l-.162.419c-.813-.259-1.885-.544-1.97-1.39zm7.703-.219c.379 1.011-3.672.315 0 0zm-6.463 0c-.38 1.011 3.671.315 0 0zm5.841 2.741c.645-.353 1.793-.922 2.504-1.16l.37.722c-.073.283-.124.302-.405.115l-1.913.999c.106.275.253.471.348.76-.08.136-.276.17-.322.036-.186-.549-.886-1.285-.91-1.37-.052-.19.148-.122.328-.102zm.035 1l-1.565.837c.516.26 1.129.488 1.692.77-.63.54-2.144-.014-2.874-.261-1.296.446-1.228.66-2.84.366l1.762-.828-1.576-.875c-.097-.404.23-.642.51-.752l2.086 1.009 1.796-.847.43-.21c.315.216.586.437.579.79zm-.44-.311l-.087-.133-2.967 1.394c.636-.035 2.036-.84 3.054-1.261zm-4.57.033l.088-.133 1.813.918c-.65-.2-1.307-.452-1.9-.785zm-6.398-3.416l-.08.418-.423.05.372.206-.083.418.312-.29.371.207-.18-.386.312-.289-.422.052z" fill="#ffec00"/><path d="M1.624 3.909v7.143c3.343-1.698 7.555-2.597 11.271-2.597 4.125 0 8.321.75 12.024 2.611v-7.15l-.105-.061C21.331 1.889 17.158 1.03 13.181 1.03c-3.726 0-7.601.761-10.91 2.517z"/><path d="M21.095 4.647a43.201 43.201 0 0 0-1.857-.412v-.362c0-.17-.023-.281-.07-.337-.048-.054-.126-.091-.236-.111-.12-.021-.21-.008-.272.045-.06.051-.092.14-.092.267 0 .163.036.291.106.386.068.093.255.227.564.4.886.52 1.444.927 1.675 1.2.231.272.347.648.347 1.127 0 .348-.065.59-.193.725-.128.134-.374.212-.742.235-.365.034-.792-.004-1.278-.095-.536-.1-.99-.233-1.37-.42-.377-.177-.623-.37-.74-.583-.117-.212-.177-.501-.177-.865v-.319c.619.073 1.237.157 1.857.253v.595c0 .183.026.305.077.367.052.063.145.105.277.13.134.024.232.009.296-.046.066-.054.097-.147.097-.277 0-.289-.06-.488-.184-.599-.128-.111-.438-.317-.935-.606a15.49 15.49 0 0 1-.984-.589 1.415 1.415 0 0 1-.399-.437 1.255 1.255 0 0 1-.16-.652c0-.371.075-.639.225-.795.15-.156.392-.266.728-.322.334-.056.74-.047 1.213.034.519.088.958.236 1.324.42.364.191.607.386.724.578.118.19.179.482.179.87v.195zm-7.505.745a32.824 32.824 0 0 1-.149-.92 71.64 71.64 0 0 1-.153-1.114c-.1.464-.18.866-.243 1.205-.062.338-.107.615-.133.829.225-.003.451-.004.677 0zm1.06-3.078c.19.817.381 1.634.57 2.454.192.824.383 1.651.574 2.477a39.426 39.426 0 0 0-2.042-.128l-.109-.87c-.24-.005-.48-.005-.72-.003l-.109.866c-.69.014-1.379.045-2.068.1l.507-2.44c.168-.812.338-1.625.508-2.434.962-.04 1.926-.047 2.89-.022zM9.672 3.901c-.62.069-1.238.155-1.856.252v-.357c0-.166-.024-.268-.071-.306-.047-.038-.124-.047-.234-.028a.44.44 0 0 0-.273.14.44.44 0 0 0-.091.295c0 .162.035.275.104.344.068.069.256.134.565.196.887.195 1.446.396 1.675.581.232.185.347.514.347.983 0 .342-.066.6-.193.778-.128.176-.375.34-.742.492-.366.167-.791.285-1.279.376-.534.101-.99.146-1.369.105-.377-.03-.622-.127-.741-.295-.116-.169-.174-.437-.174-.803v-.321a50.36 50.36 0 0 1 1.855-.434v.587c0 .181.026.292.078.334.05.042.144.05.276.025a.491.491 0 0 0 .297-.153.472.472 0 0 0 .098-.309c0-.283-.063-.457-.186-.52-.128-.064-.439-.154-.934-.26-.496-.1-.823-.174-.985-.229a.829.829 0 0 1-.4-.293c-.105-.142-.157-.343-.157-.603 0-.375.074-.666.224-.874.15-.208.39-.402.726-.57a4.364 4.364 0 0 1 1.214-.379c.517-.09.958-.098 1.325-.044.364.057.605.162.723.31.119.145.178.409.178.79v.19z" fill="#ffec00"/><path d="M5.224 22.241a.88.88 0 0 0 .07-.028.183.183 0 0 0 .058-.04l.008-.11.295.022-.006.069a.661.661 0 0 0-.133.016.207.207 0 0 0-.089.036.096.096 0 0 0-.027.064l-.006.07-.032-.002a4.6 4.6 0 0 1-.122.037l-.138.04a.487.487 0 0 0-.102.039.131.131 0 0 0-.048.045.169.169 0 0 0-.02.074l-.006.081.276.02c.053.005.087.003.102-.006.014-.008.027-.028.037-.06l.033.002-.022.282-.032-.003a.13.13 0 0 0-.024-.064c-.011-.012-.046-.02-.104-.025l-.577-.044c-.059-.004-.094 0-.107.01a.128.128 0 0 0-.033.06l-.033-.003.021-.282.033.002c.005.03.014.052.025.064.012.012.046.02.104.024l.244.019.006-.08a.113.113 0 0 0-.026-.088.56.56 0 0 0-.16-.092.552.552 0 0 1-.168-.1c-.03-.032-.043-.081-.038-.147a.325.325 0 0 1 .02-.081l.154.011-.005.066c-.044.002-.068.02-.07.053a.065.065 0 0 0 .024.055.63.63 0 0 0 .122.07.82.82 0 0 1 .114.063c.024.017.043.04.058.067h.005c.028-.071.088-.123.18-.156zm.327-1.007l-.032-.007c0-.023 0-.04-.003-.052a.053.053 0 0 0-.017-.03.077.077 0 0 0-.036-.016.24.24 0 0 0-.049-.005c-.018-.001-.038 0-.06.001l-.09.005-.07.304.058.037.068.039a.22.22 0 0 0 .044.015c.026.006.047.004.062-.007a.114.114 0 0 0 .038-.055l.032.007-.064.279-.032-.008a.1.1 0 0 0-.028-.073.443.443 0 0 0-.092-.076l-.659-.439.024-.103.778-.054a.722.722 0 0 0 .084-.01.123.123 0 0 0 .048-.019.106.106 0 0 0 .033-.041l.032.007zm-.41.169l.063-.273-.45.027zm.032-1.868a.128.128 0 0 0 .015.07.711.711 0 0 0 .1.12l.31.327a.946.946 0 0 1 .176.23.206.206 0 0 1 .003.164.322.322 0 0 1-.051.088l-.16-.063.027-.067c.05.015.082.005.097-.032.02-.05-.003-.111-.067-.185l-.523.028a1.05 1.05 0 0 0-.157.015.112.112 0 0 0-.06.04l-.03-.012.105-.267.03.012c-.01.041-.002.068.027.079.026.01.072.014.136.011l.371-.016-.238-.238a.424.424 0 0 0-.123-.094c-.037-.015-.064-.005-.082.03l-.03-.013.093-.239zm.91-.29a.497.497 0 0 0 .06.026.096.096 0 0 0 .034.006c.01 0 .019-.003.027-.009a.176.176 0 0 0 .035-.032l.03.015-.13.251-.029-.015a.132.132 0 0 0 .004-.06.063.063 0 0 0-.024-.033.444.444 0 0 0-.064-.038l-.515-.264a.514.514 0 0 0-.061-.028.084.084 0 0 0-.035-.005.057.057 0 0 0-.025.01.224.224 0 0 0-.034.032l-.03-.015.13-.252.029.015a.186.186 0 0 0-.007.045c0 .01.003.019.007.027a.08.08 0 0 0 .025.025.44.44 0 0 0 .058.034zm.082-1.544l.027.019a.142.142 0 0 0-.013.055.06.06 0 0 0 .017.036.39.39 0 0 0 .06.05l.472.335a.702.702 0 0 0 .048.032c.012.007.022.01.03.013a.055.055 0 0 0 .044-.006.213.213 0 0 0 .033-.024l.026.019-.162.229-.027-.02a.152.152 0 0 0 .013-.053.061.061 0 0 0-.017-.037.365.365 0 0 0-.06-.05l-.559-.397-.205.29.558.396a.548.548 0 0 0 .055.035c.012.007.023.01.032.011.01.001.02 0 .029-.005a.18.18 0 0 0 .039-.027l.026.019-.163.23-.027-.02a.132.132 0 0 0 .013-.059.063.063 0 0 0-.02-.036.436.436 0 0 0-.057-.046l-.472-.336a.508.508 0 0 0-.056-.036.084.084 0 0 0-.034-.01.059.059 0 0 0-.026.006.224.224 0 0 0-.038.027l-.027-.02zm.793-.906l.134.127-.046.048a.293.293 0 0 0-.095-.034.141.141 0 0 0-.075.008.191.191 0 0 0-.065.047.183.183 0 0 0-.052.12c-.002.047.011.1.042.157.03.057.076.115.14.175.063.06.123.106.179.136.056.03.107.045.153.043a.17.17 0 0 0 .118-.056.22.22 0 0 0 .05-.076.14.14 0 0 0 .005-.076.396.396 0 0 0-.042-.102l.046-.048.138.132a.96.96 0 0 1-.164.221c-.078.082-.165.118-.26.106-.096-.01-.199-.069-.31-.173a.65.65 0 0 1-.15-.206.366.366 0 0 1-.028-.211.367.367 0 0 1 .101-.193.906.906 0 0 1 .181-.145zm1.013.04c.02.023.035.04.045.048.01.01.02.015.03.019a.056.056 0 0 0 .028.001.176.176 0 0 0 .044-.017l.022.025-.214.185-.021-.025a.13.13 0 0 0 .026-.055.063.063 0 0 0-.01-.04.446.446 0 0 0-.045-.058l-.379-.437a.506.506 0 0 0-.046-.05.082.082 0 0 0-.03-.017.058.058 0 0 0-.028 0 .228.228 0 0 0-.043.016l-.022-.024.214-.185.021.024a.182.182 0 0 0-.022.04.058.058 0 0 0-.004.027c.001.009.005.02.013.032a.456.456 0 0 0 .042.054zm.492-.232l-.109-.153.053-.037c.054.039.1.06.139.062a.189.189 0 0 0 .12-.042.184.184 0 0 0 .083-.122c.007-.047-.008-.096-.044-.148a.205.205 0 0 0-.094-.08.137.137 0 0 0-.092-.003.422.422 0 0 0-.103.057l-.087.062-.046-.065.088-.063c.057-.04.09-.083.097-.127.008-.044-.007-.092-.044-.144a.152.152 0 0 0-.106-.07.168.168 0 0 0-.121.034.194.194 0 0 0-.078.097.27.27 0 0 0 .007.145l-.053.038-.102-.143c.07-.082.14-.148.21-.198.15-.106.266-.103.347.011.06.086.057.182-.012.288l.005.008c.128-.045.225-.021.291.073a.232.232 0 0 1 .043.204c-.02.07-.074.136-.163.2a.918.918 0 0 1-.23.116zm1.618-.649a.613.613 0 0 0-.084-.108.192.192 0 0 0-.08-.055.111.111 0 0 0-.072.014l-.356.183a.103.103 0 0 0-.06.1c0 .045.015.104.045.177l-.06.031-.138-.268.058-.03a1.048 1.048 0 0 0-.002-.39 1.293 1.293 0 0 0-.114-.37c-.014-.028-.028-.045-.042-.052-.014-.008-.033-.007-.058.003l-.016-.03.488-.25.015.03a.121.121 0 0 0-.042.054c-.004.016.007.05.033.102l.312.608.096-.049.138.269zm-.646-.899l-.167.086c.132.317.184.587.155.811l.374-.192zm1.123.282c.01.028.017.049.024.061a.093.093 0 0 0 .02.028c.007.006.016.01.026.012a.17.17 0 0 0 .047.001l.01.031-.267.09-.01-.03a.132.132 0 0 0 .045-.04.063.063 0 0 0 .005-.042.443.443 0 0 0-.02-.07l-.185-.549a.501.501 0 0 0-.024-.063.084.084 0 0 0-.021-.027.057.057 0 0 0-.026-.011.219.219 0 0 0-.046-.001l-.01-.031.267-.09.01.03a.18.18 0 0 0-.035.028.058.058 0 0 0-.014.024.079.079 0 0 0 0 .035.441.441 0 0 0 .018.066zm1.103-.14l-.007-.031a4.287 4.287 0 0 1-.072-.105l-.079-.12a.481.481 0 0 0-.067-.086.13.13 0 0 0-.057-.032.168.168 0 0 0-.077.003l-.08.018.063.27c.012.052.024.083.037.095.012.01.035.017.069.017l.007.032-.275.064-.008-.032c.028-.014.047-.028.055-.042.008-.014.005-.05-.007-.106l-.13-.564c-.014-.058-.027-.09-.041-.1a.128.128 0 0 0-.067-.014l-.007-.032.275-.063.007.032a.128.128 0 0 0-.053.042c-.008.015-.005.05.008.107l.055.238.078-.018a.113.113 0 0 0 .076-.05.56.56 0 0 0 .04-.18.55.55 0 0 1 .046-.191c.021-.039.064-.066.128-.08a.317.317 0 0 1 .084-.005l.035.15-.065.015c-.014-.042-.038-.059-.071-.051a.065.065 0 0 0-.045.04.63.63 0 0 0-.031.137.817.817 0 0 1-.025.127.185.185 0 0 1-.047.075l.001.005c.077.006.144.047.203.125l.089.119a.447.447 0 0 0 .083.09.124.124 0 0 0 .089.018l.007.032zm1.768-.133v-.033a4.572 4.572 0 0 1-.05-.117l-.053-.134a.484.484 0 0 0-.049-.097.132.132 0 0 0-.05-.043.17.17 0 0 0-.075-.013l-.082.003.007.276c.002.054.007.087.017.1.01.014.032.024.065.032v.033l-.282.007v-.033c.03-.008.05-.018.06-.03.012-.013.016-.048.015-.106l-.015-.579c-.001-.058-.008-.094-.02-.105a.128.128 0 0 0-.062-.027l-.001-.033.282-.007.001.032c-.03.009-.05.019-.06.032-.011.012-.016.047-.014.105l.006.245.08-.002a.113.113 0 0 0 .085-.034.559.559 0 0 0 .075-.169.55.55 0 0 1 .083-.178c.029-.033.076-.05.142-.052.02 0 .049.003.083.012l.004.154-.066.002c-.007-.044-.027-.066-.06-.065-.02 0-.038.01-.052.03a.623.623 0 0 0-.058.129.824.824 0 0 1-.05.12.186.186 0 0 1-.061.063v.006c.074.02.132.074.174.162l.063.134a.45.45 0 0 0 .064.105c.019.02.046.033.083.036v.033zm.95.068a.39.39 0 0 1-.142-.045.282.282 0 0 1-.102-.096.393.393 0 0 1-.054-.15.737.737 0 0 1 0-.21.653.653 0 0 1 .078-.249.356.356 0 0 1 .15-.145c.06-.03.128-.04.202-.03.078.01.142.035.192.077a.32.32 0 0 1 .102.168.668.668 0 0 1 .01.252.662.662 0 0 1-.08.256.344.344 0 0 1-.152.144.366.366 0 0 1-.204.028zm-.158-.503a.655.655 0 0 0 .02.318.19.19 0 0 0 .16.128.176.176 0 0 0 .128-.03.282.282 0 0 0 .093-.126.76.76 0 0 0 .052-.204.831.831 0 0 0 0-.244.29.29 0 0 0-.062-.149.18.18 0 0 0-.113-.058.186.186 0 0 0-.188.085.407.407 0 0 0-.057.12.947.947 0 0 0-.033.16zm1.69.654a.583.583 0 0 0-.014.056.12.12 0 0 0-.002.032.062.062 0 0 0 .006.022.06.06 0 0 0 .014.018.215.215 0 0 0 .034.022l-.01.032-.269-.077.009-.031a.148.148 0 0 0 .055-.006.059.059 0 0 0 .03-.028.36.36 0 0 0 .026-.074l.077-.27-.358-.102-.077.27a.56.56 0 0 0-.015.064.093.093 0 0 0 .001.034.057.057 0 0 0 .015.025c.007.008.02.017.038.028l-.009.031-.27-.077.008-.031a.132.132 0 0 0 .06-.008.064.064 0 0 0 .028-.03.451.451 0 0 0 .024-.07l.158-.557a.514.514 0 0 0 .016-.065.083.083 0 0 0-.002-.035.058.058 0 0 0-.015-.024.23.23 0 0 0-.037-.026l.009-.032.27.077-.008.032a.192.192 0 0 0-.045.002.059.059 0 0 0-.025.012.083.083 0 0 0-.02.029.443.443 0 0 0-.022.064l-.065.228.358.102.065-.228a.349.349 0 0 0 .016-.078.061.061 0 0 0-.01-.037.15.15 0 0 0-.044-.035l.009-.032.27.077-.01.031a.14.14 0 0 0-.056.006.06.06 0 0 0-.029.028.41.41 0 0 0-.026.074zm1.377-.224l-.076.169-.06-.027a.292.292 0 0 0 0-.101.142.142 0 0 0-.032-.069.191.191 0 0 0-.066-.046.184.184 0 0 0-.13-.008.3.3 0 0 0-.134.09.707.707 0 0 0-.12.19.856.856 0 0 0-.069.214.297.297 0 0 0 .01.159.17.17 0 0 0 .092.093.22.22 0 0 0 .089.023c.025 0 .05-.007.073-.022a.398.398 0 0 0 .083-.073l.06.028-.078.174a.962.962 0 0 1-.264-.082c-.103-.047-.165-.117-.186-.21-.022-.095 0-.21.062-.35a.65.65 0 0 1 .144-.21.364.364 0 0 1 .19-.097.365.365 0 0 1 .215.033.892.892 0 0 1 .197.122zm.312 1.211a.39.39 0 0 1-.109-.1.282.282 0 0 1-.05-.131.39.39 0 0 1 .015-.16.742.742 0 0 1 .09-.189.654.654 0 0 1 .177-.19.356.356 0 0 1 .198-.068.348.348 0 0 1 .195.06.363.363 0 0 1 .14.152.32.32 0 0 1 .02.196.667.667 0 0 1-.1.231.66.66 0 0 1-.181.197.344.344 0 0 1-.198.065.365.365 0 0 1-.197-.063zm.073-.521a.654.654 0 0 0-.118.295.19.19 0 0 0 .089.185c.04.026.084.035.13.027a.282.282 0 0 0 .137-.073.764.764 0 0 0 .135-.163.83.83 0 0 0 .105-.22.29.29 0 0 0 .007-.16.18.18 0 0 0-.077-.102.186.186 0 0 0-.103-.032.217.217 0 0 0-.103.029.407.407 0 0 0-.103.083.957.957 0 0 0-.1.13zm.88 1.006a.348.348 0 0 0-.039.05.1.1 0 0 0-.014.037.06.06 0 0 0 .004.032c.005.01.014.025.027.043l-.021.025-.223-.192.022-.025a.126.126 0 0 0 .058.018.063.063 0 0 0 .038-.016.436.436 0 0 0 .051-.052l.38-.438a.496.496 0 0 0 .04-.053.083.083 0 0 0 .014-.032.057.057 0 0 0-.003-.028.223.223 0 0 0-.023-.04l.021-.025.251.218c.08.068.125.134.137.198.013.063-.008.126-.061.187a.313.313 0 0 1-.1.08.237.237 0 0 1-.111.024.27.27 0 0 1-.112-.03.509.509 0 0 1-.106-.072 1.842 1.842 0 0 1-.085-.077zm.18-.21l.06.05a.338.338 0 0 0 .107.068.147.147 0 0 0 .1 0 .245.245 0 0 0 .099-.075.263.263 0 0 0 .051-.083.16.16 0 0 0 .009-.075.162.162 0 0 0-.028-.067.328.328 0 0 0-.055-.06 1.36 1.36 0 0 0-.077-.064zm.637 1.61a.59.59 0 0 0 .086-.109c.023-.038.034-.068.033-.09a.11.11 0 0 0-.03-.065l-.375-.433.024-.022c.029.02.052.028.069.025.016-.002.044-.02.083-.054l.437-.38c.041-.034.064-.06.068-.077.005-.017 0-.04-.016-.069l.025-.021.184.212-.025.022c-.025-.018-.046-.027-.062-.027-.017 0-.047.019-.09.056l-.518.448.228.263.517-.448c.042-.036.064-.063.068-.08.003-.016-.003-.04-.018-.068l.025-.021.184.212-.025.022a.12.12 0 0 0-.06-.027c-.017 0-.048.018-.092.057l-.517.448.07.08-.228.198zm.744.68l.027-.019c.026.024.048.036.065.036s.047-.015.09-.042l.242-.156c.08-.05.13-.082.154-.095l-.001-.003-.6-.067c-.046.03-.071.051-.078.067-.006.015-.004.04.007.07l-.028.018-.151-.235.028-.018c.026.024.047.036.064.036.018 0 .048-.014.09-.041l.488-.313c.05-.032.076-.056.08-.072a.127.127 0 0 0-.009-.067l.028-.018.15.236-.027.017c-.022-.02-.042-.033-.058-.035-.016-.003-.049.011-.097.043l-.248.159a3.087 3.087 0 0 1-.143.086l.002.004.6.067c.04-.026.064-.046.071-.061.007-.016.005-.04-.005-.073l.028-.018.15.235-.028.017c-.022-.02-.042-.033-.058-.035-.016-.003-.049.011-.097.043l-.488.312c-.045.03-.07.051-.077.067-.006.015-.004.04.007.07l-.028.019zm1.465.954a.129.129 0 0 0-.06-.038.707.707 0 0 0-.157-.012l-.45-.005a.949.949 0 0 1-.287-.034.207.207 0 0 1-.12-.112.322.322 0 0 1-.027-.098l.155-.07.03.065c-.045.025-.06.056-.044.092.022.048.082.075.18.08l.344-.394c.054-.062.087-.103.098-.123a.112.112 0 0 0 .013-.07l.03-.014.118.261-.03.014c-.022-.037-.047-.05-.075-.036a.367.367 0 0 0-.103.09l-.247.277.337-.005a.421.421 0 0 0 .154-.023c.035-.016.047-.043.036-.08l.03-.013.105.234zm.416 1.405a.181.181 0 0 0-.026-.037.061.061 0 0 0-.023-.015.085.085 0 0 0-.035-.002.475.475 0 0 0-.067.015l-.557.158a.537.537 0 0 0-.062.021.093.093 0 0 0-.029.019.057.057 0 0 0-.013.025.18.18 0 0 0-.004.047l-.031.01-.076-.27.031-.008a.139.139 0 0 0 .035.045.07.07 0 0 0 .04.01.404.404 0 0 0 .076-.016l.246-.07a8.103 8.103 0 0 1 .336-.085l-.003-.011-.71-.074-.021-.074.58-.42-.003-.012c-.025.01-.072.025-.14.047a7.852 7.852 0 0 1-.211.063l-.236.067a.504.504 0 0 0-.062.02.085.085 0 0 0-.029.02.054.054 0 0 0-.013.024.176.176 0 0 0-.004.048l-.031.009-.067-.235.032-.01a.138.138 0 0 0 .038.048c.01.006.024.009.04.007a.477.477 0 0 0 .072-.016l.557-.158a.452.452 0 0 0 .064-.021.086.086 0 0 0 .029-.02.06.06 0 0 0 .012-.025.227.227 0 0 0 .003-.046l.032-.009.065.23-.562.404.697.07.061.218zm-.722 1.423l.033-.003a.13.13 0 0 0 .033.059c.012.01.048.014.106.01l.577-.045c.056-.004.09-.012.102-.023.013-.012.022-.033.027-.065l.033-.003.021.281-.033.003c-.012-.033-.025-.054-.04-.062s-.049-.01-.1-.006l-.577.044c-.057.004-.09.012-.103.024a.125.125 0 0 0-.025.064l-.033.003zm-.054-.715l.033-.003c.009.03.02.05.033.06.013.01.048.014.106.01l.577-.045c.059-.004.094-.013.105-.025a.129.129 0 0 0 .024-.064l.032-.002.022.282-.033.002c-.011-.034-.025-.056-.042-.063a.238.238 0 0 0-.099-.006l-.228.018c.01.062.017.116.02.163.015.193-.062.296-.23.309-.18.014-.278-.087-.295-.301zm.47.168l-.392.03c0 .032.001.067.004.108.006.08.027.135.063.166.036.032.09.045.158.04.132-.01.193-.083.182-.217a1.128 1.128 0 0 0-.015-.127zM4.726 25.596l.031-.01a4.23 4.23 0 0 1 .1-.075l.115-.084a.477.477 0 0 0 .08-.07.13.13 0 0 0 .03-.059.163.163 0 0 0-.008-.075l-.022-.078-.262.075c-.051.015-.082.029-.092.041-.01.013-.015.036-.014.07l-.031.008-.077-.268.031-.009c.015.027.03.044.045.052.014.007.049.003.104-.013l.549-.157c.056-.016.088-.031.096-.045a.128.128 0 0 0 .01-.067l.032-.009.077.269-.032.008a.132.132 0 0 0-.044-.05c-.015-.007-.05-.002-.105.013l-.232.067.021.076c.01.034.028.058.054.072a.549.549 0 0 0 .18.03.544.544 0 0 1 .19.036c.04.019.068.06.086.122a.31.31 0 0 1 .008.083l-.146.042-.018-.063c.04-.017.056-.041.047-.073-.005-.02-.02-.034-.041-.043a.628.628 0 0 0-.138-.023.8.8 0 0 1-.126-.019.184.184 0 0 1-.076-.042l-.005.002c-.002.075-.04.144-.113.206l-.112.093a.443.443 0 0 0-.085.087.123.123 0 0 0-.013.089l-.032.008zm.286.853a.383.383 0 0 1-.029-.144.28.28 0 0 1 .035-.133.387.387 0 0 1 .105-.12.736.736 0 0 1 .182-.097.645.645 0 0 1 .252-.05.351.351 0 0 1 .197.06.344.344 0 0 1 .122.16.372.372 0 0 1 .024.204.315.315 0 0 1-.099.168.657.657 0 0 1-.213.127.652.652 0 0 1-.26.052.339.339 0 0 1-.195-.063.36.36 0 0 1-.121-.164zm.36-.375a.644.644 0 0 0-.266.168.188.188 0 0 0-.035.2.174.174 0 0 0 .087.096c.04.02.092.027.153.021a.754.754 0 0 0 .202-.052.82.82 0 0 0 .211-.114.287.287 0 0 0 .1-.125.178.178 0 0 0-.004-.126.183.183 0 0 0-.063-.084.216.216 0 0 0-.1-.038.401.401 0 0 0-.13.007.938.938 0 0 0-.155.047zm.45 1.594a.584.584 0 0 0-.048.03.116.116 0 0 0-.024.021.061.061 0 0 0-.01.02.059.059 0 0 0-.003.022c0 .01.003.022.008.04l-.028.016-.137-.24.028-.017c.017.018.032.03.043.034a.06.06 0 0 0 .04 0 .357.357 0 0 0 .07-.033l.24-.137-.182-.32-.24.138a.562.562 0 0 0-.055.035.095.095 0 0 0-.023.024.056.056 0 0 0-.007.028c0 .01.002.026.008.046l-.028.016-.138-.241.028-.016c.02.02.035.032.048.036a.062.062 0 0 0 .04-.003.434.434 0 0 0 .065-.032l.496-.284a.513.513 0 0 0 .057-.035.083.083 0 0 0 .022-.026.058.058 0 0 0 .006-.027.22.22 0 0 0-.008-.045l.028-.016.138.242-.028.016a.184.184 0 0 0-.033-.03.06.06 0 0 0-.026-.008.08.08 0 0 0-.034.006.447.447 0 0 0-.06.03l-.203.117.182.318.203-.116a.353.353 0 0 0 .065-.044.061.061 0 0 0 .02-.032.147.147 0 0 0-.008-.056l.028-.016.138.24-.028.016a.14.14 0 0 0-.044-.034.06.06 0 0 0-.04 0 .398.398 0 0 0-.07.034zm1.192.466l-.149.106-.038-.054a.29.29 0 0 0 .052-.085.141.141 0 0 0 .006-.075.19.19 0 0 0-.033-.072.181.181 0 0 0-.107-.072.298.298 0 0 0-.16.01.697.697 0 0 0-.196.102c-.07.05-.125.1-.166.148a.293.293 0 0 0-.07.14.167.167 0 0 0 .032.125c.02.03.042.05.064.064a.14.14 0 0 0 .073.018.392.392 0 0 0 .107-.02l.038.053-.154.109a.951.951 0 0 1-.184-.202c-.064-.09-.082-.182-.053-.272.028-.09.104-.18.227-.266a.642.642 0 0 1 .227-.107.36.36 0 0 1 .21.012.37.37 0 0 1 .167.135.887.887 0 0 1 .107.203zm-.233 1.064a.384.384 0 0 1-.08-.122.28.28 0 0 1-.018-.137.388.388 0 0 1 .053-.15.735.735 0 0 1 .132-.159.645.645 0 0 1 .214-.141.352.352 0 0 1 .206-.017c.065.015.122.05.173.103a.357.357 0 0 1 .098.18.315.315 0 0 1-.028.192.656.656 0 0 1-.15.198.65.65 0 0 1-.222.145.339.339 0 0 1-.205.015.36.36 0 0 1-.173-.107zm.194-.482a.646.646 0 0 0-.184.255.188.188 0 0 0 .042.198.174.174 0 0 0 .117.057.278.278 0 0 0 .15-.037.75.75 0 0 0 .167-.124.816.816 0 0 0 .153-.185.286.286 0 0 0 .045-.153.177.177 0 0 0-.05-.116.182.182 0 0 0-.09-.055.216.216 0 0 0-.106.003.403.403 0 0 0-.118.055.939.939 0 0 0-.126.102zm.626 1.019a.351.351 0 0 0-.038.05.098.098 0 0 0-.013.036.06.06 0 0 0 .004.032c.004.01.013.024.027.042l-.022.024-.22-.189.022-.024a.131.131 0 0 0 .057.018.063.063 0 0 0 .037-.016.447.447 0 0 0 .05-.052l.373-.434a.515.515 0 0 0 .04-.052.083.083 0 0 0 .013-.032.058.058 0 0 0-.003-.027.227.227 0 0 0-.022-.04l.02-.024.25.213c.078.067.123.132.136.195.012.063-.008.124-.06.186a.308.308 0 0 1-.099.078.234.234 0 0 1-.11.024.266.266 0 0 1-.11-.03.501.501 0 0 1-.105-.069 1.807 1.807 0 0 1-.084-.076zm.178-.208l.058.05a.337.337 0 0 0 .106.065.146.146 0 0 0 .1 0 .241.241 0 0 0 .097-.075.258.258 0 0 0 .05-.082.158.158 0 0 0 .008-.073.158.158 0 0 0-.027-.067.32.32 0 0 0-.055-.06 1.376 1.376 0 0 0-.076-.061zm.811 1.42a.587.587 0 0 0 .05-.128c.011-.043.014-.074.007-.094a.109.109 0 0 0-.047-.053l-.478-.305.018-.027c.032.01.056.012.071.005.016-.008.037-.033.064-.075l.307-.482c.029-.045.043-.076.043-.093s-.012-.037-.035-.06l.017-.028.234.15-.017.027a.123.123 0 0 0-.067-.008c-.016.005-.039.031-.07.08l-.362.568.289.185.363-.57c.03-.046.043-.077.041-.094-.001-.017-.013-.036-.035-.06L9 29.859l.234.15-.017.027a.12.12 0 0 0-.065-.008c-.016.004-.04.03-.071.08l-.363.568.09.057-.161.251zm.96.235l.014-.03c.034.006.058.005.072-.005a.229.229 0 0 0 .052-.083l.118-.259c.038-.084.064-.138.076-.162H9.88l-.534.266c-.022.048-.031.08-.028.096.003.016.017.035.043.055l-.013.03-.252-.114.014-.03c.035.006.059.005.073-.005.014-.009.032-.037.052-.083l.237-.52c.024-.053.033-.087.027-.103a.128.128 0 0 0-.043-.05l.013-.03.252.114-.014.03a.122.122 0 0 0-.067.001c-.015.007-.034.036-.058.088l-.12.265c-.027.06-.05.109-.071.148l.003.002.534-.267a.202.202 0 0 0 .025-.088c-.002-.017-.017-.036-.043-.057l.013-.03.25.114-.013.03a.124.124 0 0 0-.067 0c-.015.008-.034.037-.058.089l-.236.52c-.022.048-.031.08-.028.097.003.016.017.035.043.055l-.013.03zm1.586-.333a.126.126 0 0 0-.068.018.7.7 0 0 0-.114.106l-.305.322a.932.932 0 0 1-.217.186.204.204 0 0 1-.161.011.317.317 0 0 1-.09-.046l.053-.16.068.023c-.013.05 0 .08.037.093.05.017.11-.009.178-.075l-.054-.515a1.033 1.033 0 0 0-.024-.154.111.111 0 0 0-.042-.056l.01-.03.269.089-.01.03c-.042-.008-.067.002-.077.03a.364.364 0 0 0-.004.136l.036.365.221-.248a.417.417 0 0 0 .087-.126c.012-.037.001-.063-.033-.08l.01-.03.24.08zm1.12.222a.187.187 0 0 0-.043.007.06.06 0 0 0-.024.014.082.082 0 0 0-.016.03.476.476 0 0 0-.015.066l-.1.563a.523.523 0 0 0-.008.064c0 .014.002.025.005.033a.057.057 0 0 0 .016.024.178.178 0 0 0 .04.023l-.005.032-.271-.048.006-.032a.14.14 0 0 0 .055-.012.062.062 0 0 0 .025-.03.394.394 0 0 0 .019-.075l.043-.25a7.847 7.847 0 0 1 .07-.334l-.012-.002-.37.6-.075-.014-.125-.697-.01-.002a7.287 7.287 0 0 1-.054.36l-.042.238a.486.486 0 0 0-.008.064.07.07 0 0 0 .004.034.053.053 0 0 0 .016.023.177.177 0 0 0 .04.023l-.005.032-.237-.042.006-.032a.132.132 0 0 0 .058-.013.065.065 0 0 0 .024-.033.468.468 0 0 0 .017-.071l.098-.563a.465.465 0 0 0 .009-.066.087.087 0 0 0-.006-.034.059.059 0 0 0-.016-.021.228.228 0 0 0-.04-.023l.006-.032.232.041.117.673.362-.589.22.039zm.843.91v-.032c.035-.008.057-.019.066-.033.009-.014.014-.046.015-.097l.013-.571c0-.055-.004-.09-.014-.103-.01-.013-.03-.024-.06-.032v-.033l.61.014-.005.2-.065-.002a.355.355 0 0 0-.049-.11c-.017-.022-.047-.034-.09-.035l-.201-.004-.008.333a2.06 2.06 0 0 1 .167-.004c.2.005.298.09.294.257-.004.178-.116.265-.336.26zm.21-.445l-.008.388c.032.003.069.006.11.006.08.002.137-.013.172-.046.035-.032.054-.082.055-.15.003-.13-.063-.198-.199-.2a1.017 1.017 0 0 0-.13.002zm1.388-.508l.015.199-.065.005a.574.574 0 0 0-.05-.094.103.103 0 0 0-.026-.025.08.08 0 0 0-.033-.01.228.228 0 0 0-.044-.001l-.209.016.027.345.14-.01a.102.102 0 0 0 .045-.013.064.064 0 0 0 .026-.03.26.26 0 0 0 .016-.063l.062-.005.019.253-.062.005a.24.24 0 0 0-.025-.058.07.07 0 0 0-.029-.027.097.097 0 0 0-.047-.005l-.14.01.028.38.205-.015a.198.198 0 0 0 .052-.01.08.08 0 0 0 .033-.021.128.128 0 0 0 .023-.037.346.346 0 0 0 .015-.047l.016-.07.065-.004.005.232-.61.046-.002-.032a.131.131 0 0 0 .053-.028.062.062 0 0 0 .015-.038.451.451 0 0 0-.001-.073l-.044-.57a.504.504 0 0 0-.008-.065.084.084 0 0 0-.013-.032.057.057 0 0 0-.022-.017.219.219 0 0 0-.044-.012l-.002-.032zm.457.814l-.042-.18.063-.014c.035.056.07.092.103.108a.186.186 0 0 0 .125.007.182.182 0 0 0 .122-.08c.024-.04.03-.09.015-.152a.203.203 0 0 0-.055-.109.136.136 0 0 0-.083-.036.414.414 0 0 0-.115.013l-.103.024-.018-.077.105-.024c.067-.015.113-.042.136-.08.024-.036.028-.086.014-.148a.15.15 0 0 0-.07-.103.165.165 0 0 0-.124-.015.191.191 0 0 0-.107.06.267.267 0 0 0-.048.135l-.063.014-.04-.169a1.16 1.16 0 0 1 .266-.101c.178-.041.282.006.313.14.023.101-.017.187-.12.259l.003.009c.133.006.212.065.238.176a.23.23 0 0 1-.038.203c-.044.056-.119.096-.224.12a.903.903 0 0 1-.253.02zm1.26-.301a.385.385 0 0 1-.144.021.28.28 0 0 1-.132-.041.388.388 0 0 1-.113-.11.733.733 0 0 1-.09-.187.645.645 0 0 1-.038-.254.352.352 0 0 1 .07-.194.344.344 0 0 1 .167-.114.357.357 0 0 1 .203-.014.315.315 0 0 1 .164.106.656.656 0 0 1 .116.22.651.651 0 0 1 .04.262.339.339 0 0 1-.073.192.361.361 0 0 1-.17.113zm-.356-.378c.043.128.095.22.155.273.06.054.125.07.197.045a.174.174 0 0 0 .101-.082.279.279 0 0 0 .028-.152.75.75 0 0 0-.042-.204.816.816 0 0 0-.104-.216.287.287 0 0 0-.12-.105.177.177 0 0 0-.125-.003.183.183 0 0 0-.088.059.216.216 0 0 0-.042.097.399.399 0 0 0 0 .13c.008.049.021.101.04.158zm1.337-1.042l.015.028a.142.142 0 0 0-.036.043.06.06 0 0 0-.002.04.38.38 0 0 0 .031.07l.263.508c.012.022.02.04.028.05.007.01.014.019.02.024a.055.055 0 0 0 .041.015.217.217 0 0 0 .04-.007l.015.03-.247.127-.015-.03a.148.148 0 0 0 .036-.04.06.06 0 0 0 .002-.04.366.366 0 0 0-.03-.072l-.311-.6-.311.161.31.6a.559.559 0 0 0 .033.056c.008.011.016.02.024.024a.055.055 0 0 0 .027.008.18.18 0 0 0 .046-.006l.015.029-.247.128-.015-.029a.132.132 0 0 0 .038-.046.062.062 0 0 0 0-.04.444.444 0 0 0-.03-.067l-.263-.508a.517.517 0 0 0-.033-.057.083.083 0 0 0-.025-.024.057.057 0 0 0-.026-.007.225.225 0 0 0-.045.006l-.015-.029zm1.135.37l-.017-.027a.22.22 0 0 0 .033-.038.053.053 0 0 0 .009-.032.075.075 0 0 0-.014-.036.24.24 0 0 0-.031-.038.643.643 0 0 0-.044-.041l-.067-.059-.259.167.016.067a.638.638 0 0 0 .021.074.22.22 0 0 0 .02.041c.015.022.031.035.049.038a.112.112 0 0 0 .065-.013l.018.027-.237.153-.018-.027a.1.1 0 0 0 .03-.071.442.442 0 0 0-.012-.118l-.163-.764.087-.056.588.498a.71.71 0 0 0 .066.05.111.111 0 0 0 .047.02c.015.003.033 0 .052-.006l.017.027zm-.406-.162l.232-.15-.336-.29zm.785-1.252l.12.138-.049.043a.288.288 0 0 0-.09-.042.14.14 0 0 0-.075 0 .19.19 0 0 0-.068.041.181.181 0 0 0-.061.114.298.298 0 0 0 .026.157c.025.06.066.121.122.186a.842.842 0 0 0 .165.149.292.292 0 0 0 .146.055.168.168 0 0 0 .121-.044.218.218 0 0 0 .057-.07.14.14 0 0 0 .01-.075.392.392 0 0 0-.03-.104l.048-.043.125.142a.944.944 0 0 1-.182.203c-.084.074-.172.1-.265.081-.093-.019-.19-.085-.288-.198a.641.641 0 0 1-.13-.215.361.361 0 0 1-.01-.21.36.36 0 0 1 .118-.18.888.888 0 0 1 .19-.128zm1.233-.218a.57.57 0 0 0 .043.038c.01.008.02.013.027.017a.06.06 0 0 0 .021.004.062.062 0 0 0 .023-.004.223.223 0 0 0 .035-.02l.024.023-.191.2-.024-.022a.148.148 0 0 0 .02-.05.059.059 0 0 0-.01-.039.362.362 0 0 0-.053-.058l-.2-.19-.254.266.201.19c.021.02.038.035.049.043a.094.094 0 0 0 .03.015.056.056 0 0 0 .029-.001.179.179 0 0 0 .041-.021l.024.022-.192.202-.023-.023a.13.13 0 0 0 .02-.055.062.062 0 0 0-.013-.039.445.445 0 0 0-.05-.053l-.414-.394a.503.503 0 0 0-.05-.043.082.082 0 0 0-.032-.014.056.056 0 0 0-.027.001.228.228 0 0 0-.04.021l-.024-.022.192-.202.023.023a.181.181 0 0 0-.018.04.061.061 0 0 0-.001.027.082.082 0 0 0 .016.03.45.45 0 0 0 .046.05l.17.161.252-.266-.17-.161a.357.357 0 0 0-.06-.05.06.06 0 0 0-.036-.01.145.145 0 0 0-.052.024l-.023-.022.19-.201.024.022a.141.141 0 0 0-.02.052.059.059 0 0 0 .01.038.399.399 0 0 0 .053.057zm.637-.539a.383.383 0 0 1-.105.103.279.279 0 0 1-.131.044.387.387 0 0 1-.157-.023.733.733 0 0 1-.182-.099.644.644 0 0 1-.18-.183.35.35 0 0 1-.057-.198.344.344 0 0 1 .067-.19.358.358 0 0 1 .157-.13.315.315 0 0 1 .195-.01.64.64 0 0 1 .223.108c.084.06.146.123.186.189.04.066.058.132.054.198a.36.36 0 0 1-.07.191zm-.511-.096c.11.078.205.121.285.13a.188.188 0 0 0 .186-.08.173.173 0 0 0 .034-.126.278.278 0 0 0-.066-.139.751.751 0 0 0-.154-.14.817.817 0 0 0-.212-.114.286.286 0 0 0-.159-.015.178.178 0 0 0-.103.072.183.183 0 0 0-.036.1.215.215 0 0 0 .023.102c.017.035.043.07.077.106.035.035.076.07.125.104zm.466-1.514l.158.091-.032.057a.289.289 0 0 0-.1-.01.141.141 0 0 0-.07.025.19.19 0 0 0-.051.06.181.181 0 0 0-.021.128.297.297 0 0 0 .076.14c.042.048.1.093.175.136a.843.843 0 0 0 .204.087.292.292 0 0 0 .157.005.168.168 0 0 0 .1-.08.217.217 0 0 0 .03-.085.14.14 0 0 0-.013-.075.39.39 0 0 0-.064-.088l.033-.057.163.094a.936.936 0 0 1-.105.251c-.056.097-.13.152-.225.163-.094.012-.206-.019-.337-.094a.64.64 0 0 1-.192-.162.36.36 0 0 1-.078-.195.362.362 0 0 1 .053-.208.902.902 0 0 1 .139-.183zm.099-.212l.26-.665.214.084-.023.06a.66.66 0 0 0-.094-.006.18.18 0 0 0-.058.01.096.096 0 0 0-.035.022.16.16 0 0 0-.027.048l-.03.078.63.247a.35.35 0 0 0 .059.018.104.104 0 0 0 .039.002.062.062 0 0 0 .028-.015.235.235 0 0 0 .031-.04l.03.013-.11.28-.03-.011a.303.303 0 0 0 .004-.036c0-.011 0-.02-.003-.028a.062.062 0 0 0-.012-.022.12.12 0 0 0-.027-.021.37.37 0 0 0-.054-.025l-.63-.247-.03.078a.19.19 0 0 0-.014.05.082.082 0 0 0 .01.044c.007.015.02.031.038.048a.617.617 0 0 0 .072.057l-.024.061zm1.349-1.147l-.031-.009c0-.035-.005-.058-.016-.07-.012-.013-.042-.026-.09-.04l-.273-.078a3.585 3.585 0 0 1-.171-.052l-.001.002.341.49c.05.014.084.018.1.013.015-.005.032-.023.048-.051l.031.009-.076.265-.031-.009c0-.035-.004-.059-.016-.071-.01-.013-.04-.026-.09-.04l-.549-.158c-.056-.016-.09-.02-.105-.012a.128.128 0 0 0-.044.05l-.031-.009.076-.265.031.009a.129.129 0 0 0 .011.066c.01.014.04.029.096.044l.28.08c.062.019.114.035.156.05l.001-.004-.341-.489c-.045-.013-.075-.017-.091-.012-.016.005-.033.022-.05.051l-.032-.009.076-.264.031.009c0 .03.003.052.012.066.008.014.04.029.095.044l.55.158c.05.015.083.02.099.014.016-.005.032-.023.048-.051l.031.009z" fill="#ffec00" stroke="#ffec00" stroke-width=".036"/></g></svg>