<svg id="svg3856" xmlns="http://www.w3.org/2000/svg" viewBox="0 0 87.87 87.87"><defs><style>.cls-1{fill:#ffec00}.cls-2{fill:#1b1918}.cls-3{fill:none}</style></defs><title>logo1</title><g id="Layer1001"><g id="Layer1002"><path id="path3727" class="cls-1" d="M252.72 497.61a43.94 43.94 0 1 1-43.94 43.94 43.94 43.94 0 0 1 43.94-43.94z" transform="translate(-208.79 -497.61)"/><path id="path3729" class="cls-2" d="M252.72 499.74a41.81 41.81 0 1 1-41.81 41.81 41.81 41.81 0 0 1 41.81-41.81z" transform="translate(-208.79 -497.61)"/><path id="path3731" class="cls-1" d="M252.72 507.53a34 34 0 1 1-34 34 34 34 0 0 1 34-34z" transform="translate(-208.79 -497.61)"/><path id="path3733" class="cls-2" d="M252.72 508.95a32.6 32.6 0 1 1-32.6 32.6 32.6 32.6 0 0 1 32.6-32.6z" transform="translate(-208.79 -497.61)"/></g><path id="path3736" class="cls-3" d="M252.72 500.09a41.46 41.46 0 1 1-41.46 41.46 41.46 41.46 0 0 1 41.46-41.46z" transform="translate(-208.79 -497.61)"/><path id="path3738" class="cls-1" d="M262.07 553.55a22.81 22.81 0 0 1-3-1 2.71 2.71 0 0 0-1.68.28c1.53.95 4.61.71 4.68.72z" transform="translate(-208.79 -497.61)"/><path id="path3740" class="cls-1" d="M264.74 552.09a19 19 0 0 1-4-.67 2.52 2.52 0 0 0-1.24.5 6.17 6.17 0 0 0 3.13.69 10.11 10.11 0 0 0 2.11-.52z" transform="translate(-208.79 -497.61)"/><path id="path3742" class="cls-1" d="M262.85 551.12c2.36.09 2.94-.27 3.7-.78a26.36 26.36 0 0 1-3.75-.44 2.92 2.92 0 0 0-1.73 1 16.64 16.64 0 0 0 1.78.22z" transform="translate(-208.79 -497.61)"/><path id="path3744" class="cls-1" d="M257.91 552.23c-.76-.17-2.39-.44-2.87-.63s-2.08 0-1.5.37a4 4 0 0 0 2.69.51z" transform="translate(-208.79 -497.61)"/><path id="path3746" class="cls-1" d="M259.52 551.36c-.76-.1-2.55-.43-2.84-.43a4 4 0 0 0-1.59.43 4.88 4.88 0 0 0 1.92.42 7.47 7.47 0 0 0 2.51-.42z" transform="translate(-208.79 -497.61)"/><path id="path3748" class="cls-1" d="M268.34 549a33.24 33.24 0 0 1-4.09-.66 2.14 2.14 0 0 0-1.45 1 9.42 9.42 0 0 0 5.54-.34z" transform="translate(-208.79 -497.61)"/><path id="path3750" class="cls-1" d="M260.82 550.32a7.46 7.46 0 0 1-2.06-.21 2.79 2.79 0 0 0-1.82.69 8.24 8.24 0 0 0 2.55.07 6.34 6.34 0 0 0 1.33-.55z" transform="translate(-208.79 -497.61)"/><path id="path3752" class="cls-1" d="M261.3 549.76a2.78 2.78 0 0 0 1-.7 10.72 10.72 0 0 1-2.77 0 .91.91 0 0 0-.88.74 5 5 0 0 0 2.65-.04z" transform="translate(-208.79 -497.61)"/><path id="path3754" class="cls-1" d="M267.21 548.09a4.19 4.19 0 0 0 3.16-1.21 18.87 18.87 0 0 1-4.25-.2 2.26 2.26 0 0 0-1.44 1.18 9.29 9.29 0 0 0 2.53.23z" transform="translate(-208.79 -497.61)"/><path id="path3756" class="cls-1" d="M253.83 551.37a18 18 0 0 0 4.19-2.18c1.15-.93 2.49-2.3 2.57-3.61a4.07 4.07 0 0 0-2 1.62 5.7 5.7 0 0 1-1.32 1.63 18.35 18.35 0 0 1-2.07 1.59s-1.38.92-1.37.95z" transform="translate(-208.79 -497.61)"/><path id="path3758" class="cls-1" d="M262.12 548.51a3.56 3.56 0 0 0 1.71-.92 8 8 0 0 1-3.24.16 1.23 1.23 0 0 0-.88.79 5 5 0 0 0 2.41-.03z" transform="translate(-208.79 -497.61)"/><path id="path3760" class="cls-1" d="M273.07 544.32a11.45 11.45 0 0 1-5.45.26c-.5-.1-1.36 1.06-1.52 1.54a9.32 9.32 0 0 0 3.75 0c1.15-.26 2.89-1.01 3.22-1.8z" transform="translate(-208.79 -497.61)"/><path id="path3762" class="cls-1" d="M265 546.35a13.68 13.68 0 0 1-3.8.05.89.89 0 0 0-.62.85 7.86 7.86 0 0 0 2.61.06 3.41 3.41 0 0 0 1.81-.96z" transform="translate(-208.79 -497.61)"/><path id="path3764" class="cls-1" d="M266.34 544.62a20.32 20.32 0 0 1-4.74.36c-.3 0-.36.86-.3 1a12.3 12.3 0 0 0 2.6-.11 4.28 4.28 0 0 0 2.44-1.25z" transform="translate(-208.79 -497.61)"/><path id="path3766" class="cls-1" d="M275.13 541.69a14.55 14.55 0 0 1-5.89.73 2 2 0 0 0-1.72 1.61c1 .4 2.5 0 3.8-.13a5.86 5.86 0 0 0 3.81-2.21z" transform="translate(-208.79 -497.61)"/><path id="path3768" class="cls-1" d="M260 540.82a18.32 18.32 0 0 1-.63 5c1.94-.54 1.66-2.28 1.69-4.1a3.41 3.41 0 0 1 .66-2.21c2.75-1.71 2.52-1.61 3.07-2.34-4.54 1.31-4.74 1.79-4.88 2.32z" transform="translate(-208.79 -497.61)"/><path id="path3770" class="cls-1" d="M267.88 542.58c-1.42.2-4.19.56-6.25.73a.78.78 0 0 0-.21 1.05 21.37 21.37 0 0 0 3.31-.07 4.85 4.85 0 0 0 3.15-1.71z" transform="translate(-208.79 -497.61)"/><path id="path3772" class="cls-1" d="M277.55 538.54a26.5 26.5 0 0 1-7.13 1.41 2 2 0 0 0-1.52 1.87 11 11 0 0 0 3.71-.46s2.31-.11 4.94-2.82z" transform="translate(-208.79 -497.61)"/><path id="path3774" class="cls-1" d="M269.17 539.89c-.23.63-6 1.68-7.31 1.95a.86.86 0 0 0-.3 1.12 26.82 26.82 0 0 0 4.94-.75 4.48 4.48 0 0 0 2.67-2.32z" transform="translate(-208.79 -497.61)"/><path id="path3776" class="cls-1" d="M279.75 534.27a20.76 20.76 0 0 1-7.72 2.79c-.72.07-2.36 2.43-1.84 2.39s2.48-.42 3.68-.61c3.01-.33 5.88-4.57 5.88-4.57z" transform="translate(-208.79 -497.61)"/><path id="path3778" class="cls-1" d="M271 537.27c-1.47.67-6.93 1.88-8.63 2.42a1.52 1.52 0 0 0-.76 1.58 44.07 44.07 0 0 0 5.54-1.38 5.7 5.7 0 0 0 3.85-2.62z" transform="translate(-208.79 -497.61)"/><path id="path3780" class="cls-1" d="M271.84 534.44a31.34 31.34 0 0 1-6.38 2.56 5.46 5.46 0 0 0-1.53 1.84 27.69 27.69 0 0 0 5.12-1.49 4.71 4.71 0 0 0 2.79-2.91z" transform="translate(-208.79 -497.61)"/><path id="path3782" class="cls-1" d="M274.71 535.8c4.27-1.76 5.88-4.33 6.4-6.28-1.56 1.9-4 3.43-8.3 4.6-.76.2-1.49 2.59-1.49 2.59z" transform="translate(-208.79 -497.61)"/><path id="path3784" class="cls-1" d="M243.38 553.55a22.79 22.79 0 0 0 3-1 2.71 2.71 0 0 1 1.68.28c-1.53.95-4.64.71-4.68.72z" transform="translate(-208.79 -497.61)"/><path id="path3786" class="cls-1" d="M240.71 552.09a19 19 0 0 0 4-.67 2.52 2.52 0 0 1 1.24.5 6.17 6.17 0 0 1-3.13.69 10.11 10.11 0 0 1-2.11-.52z" transform="translate(-208.79 -497.61)"/><path id="path3788" class="cls-1" d="M242.6 551.12c-2.36.09-2.94-.27-3.7-.78a26.36 26.36 0 0 0 3.75-.44 2.92 2.92 0 0 1 1.73 1 16.64 16.64 0 0 1-1.78.22z" transform="translate(-208.79 -497.61)"/><path id="path3790" class="cls-1" d="M247.54 552.23c.76-.17 2.39-.44 2.87-.63s2.08 0 1.5.37a4 4 0 0 1-2.69.51z" transform="translate(-208.79 -497.61)"/><path id="path3792" class="cls-1" d="M245.93 551.36c.76-.1 2.55-.43 2.84-.43a4 4 0 0 1 1.59.43 4.87 4.87 0 0 1-1.92.42 7.47 7.47 0 0 1-2.51-.42z" transform="translate(-208.79 -497.61)"/><path id="path3794" class="cls-1" d="M237.11 549a33.24 33.24 0 0 0 4.09-.66 2.14 2.14 0 0 1 1.45 1 9.42 9.42 0 0 1-5.54-.34z" transform="translate(-208.79 -497.61)"/><path id="path3796" class="cls-1" d="M244.62 550.32a7.46 7.46 0 0 0 2.06-.21 2.8 2.8 0 0 1 1.82.69 8.24 8.24 0 0 1-2.55.07 6.35 6.35 0 0 1-1.33-.55z" transform="translate(-208.79 -497.61)"/><path id="path3798" class="cls-1" d="M244.15 549.76a2.78 2.78 0 0 1-1-.7 10.72 10.72 0 0 0 2.77 0 .91.91 0 0 1 .88.74 5 5 0 0 1-2.65-.04z" transform="translate(-208.79 -497.61)"/><path id="path3800" class="cls-1" d="M238.23 548.09a4.19 4.19 0 0 1-3.16-1.21 18.87 18.87 0 0 0 4.25-.2 2.26 2.26 0 0 1 1.44 1.18 9.29 9.29 0 0 1-2.53.23z" transform="translate(-208.79 -497.61)"/><path id="path3802" class="cls-1" d="M251.62 551.37a18 18 0 0 1-4.19-2.18c-1.15-.93-2.49-2.3-2.57-3.61a4.07 4.07 0 0 1 2 1.62 5.7 5.7 0 0 0 1.32 1.63 18.34 18.34 0 0 0 2.07 1.59s1.37.92 1.37.95z" transform="translate(-208.79 -497.61)"/><path id="path3804" class="cls-1" d="M243.33 548.51a3.56 3.56 0 0 1-1.71-.92 8 8 0 0 0 3.24.16 1.23 1.23 0 0 1 .88.79 5 5 0 0 1-2.41-.03z" transform="translate(-208.79 -497.61)"/><path id="path3806" class="cls-1" d="M232.37 544.32a11.45 11.45 0 0 0 5.45.26c.5-.1 1.36 1.06 1.52 1.54a9.32 9.32 0 0 1-3.75 0c-1.1-.26-2.89-1.01-3.22-1.8z" transform="translate(-208.79 -497.61)"/><path id="path3808" class="cls-1" d="M240.44 546.35a13.68 13.68 0 0 0 3.8.05.89.89 0 0 1 .62.85 7.86 7.86 0 0 1-2.61.06 3.41 3.41 0 0 1-1.81-.96z" transform="translate(-208.79 -497.61)"/><path id="path3810" class="cls-1" d="M239.11 544.62a20.31 20.31 0 0 0 4.74.36c.3 0 .36.86.3 1a12.3 12.3 0 0 1-2.6-.11 4.28 4.28 0 0 1-2.44-1.25z" transform="translate(-208.79 -497.61)"/><path id="path3812" class="cls-1" d="M230.32 541.69a14.55 14.55 0 0 0 5.89.73 2 2 0 0 1 1.72 1.61c-1 .4-2.5 0-3.8-.13a5.86 5.86 0 0 1-3.81-2.21z" transform="translate(-208.79 -497.61)"/><path id="path3814" class="cls-1" d="M245.41 540.82a18.32 18.32 0 0 0 .63 5c-1.94-.54-1.66-2.28-1.69-4.1a3.4 3.4 0 0 0-.66-2.21c-2.75-1.71-2.52-1.61-3.07-2.34 4.54 1.31 4.74 1.79 4.88 2.32z" transform="translate(-208.79 -497.61)"/><path id="path3816" class="cls-1" d="M237.56 542.58c1.42.2 4.19.56 6.25.73a.78.78 0 0 1 .21 1.05 21.37 21.37 0 0 1-3.31-.07 4.85 4.85 0 0 1-3.15-1.71z" transform="translate(-208.79 -497.61)"/><path id="path3818" class="cls-1" d="M227.89 538.54a26.5 26.5 0 0 0 7.13 1.41 2 2 0 0 1 1.52 1.87 11 11 0 0 1-3.71-.46s-2.3-.11-4.94-2.82z" transform="translate(-208.79 -497.61)"/><path id="path3820" class="cls-1" d="M236.28 539.89c.23.63 6 1.68 7.31 1.95a.86.86 0 0 1 .3 1.12 26.82 26.82 0 0 1-4.94-.75 4.48 4.48 0 0 1-2.67-2.32z" transform="translate(-208.79 -497.61)"/><path id="path3822" class="cls-1" d="M225.7 534.27a20.76 20.76 0 0 0 7.72 2.79c.72.07 2.36 2.43 1.84 2.39s-2.48-.42-3.68-.61c-3.01-.33-5.88-4.57-5.88-4.57z" transform="translate(-208.79 -497.61)"/><path id="path3824" class="cls-1" d="M234.41 537.27c1.47.67 6.93 1.88 8.63 2.42a1.52 1.52 0 0 1 .76 1.58 44.07 44.07 0 0 1-5.54-1.38 5.7 5.7 0 0 1-3.85-2.62z" transform="translate(-208.79 -497.61)"/><path id="path3826" class="cls-1" d="M233.61 534.44A31.33 31.33 0 0 0 240 537a5.46 5.46 0 0 1 1.53 1.84 27.7 27.7 0 0 1-5.12-1.49 4.71 4.71 0 0 1-2.8-2.91z" transform="translate(-208.79 -497.61)"/><path id="path3828" class="cls-1" d="M230.73 535.8c-4.27-1.76-5.88-4.33-6.4-6.28 1.56 1.9 4 3.43 8.3 4.6.76.2 1.49 2.59 1.49 2.59z" transform="translate(-208.79 -497.61)"/><path id="path3830" class="cls-1" d="M251.79 517.11a14 14 0 0 1 0 2.9c-.25 1.67-1.52 3.32-1.74 5.72-.08.84.49 1.38 1.85 1.38h1.88c1.5.08 1.88-.71 1.88-1.11 0-2-.92-4-1.41-6a18.11 18.11 0 0 1-.23-3c0-.65.9-.78 1-2.21 0-.64-.62-1.44-2.06-1.49-2.15.07-2.32 1.14-2.29 1.58.06.97 1.1 1.71 1.12 2.23zm-2.22 45.13c0 1.26 2.12 5.18 3 7.55.73-2.19 2-4.06 3.1-7.55 0-10.83-.56-21.36 0-32.18h-2.45l-.36 26.94h-.47v-26.93h-2.82v32.18zm12.11-33.62a1.55 1.55 0 1 1-2 1.48 1.11 1.11 0 0 1 0-.28 55.91 55.91 0 0 0-13.94 0 1.11 1.11 0 0 1 0 .3 2.12 2.12 0 1 1-2-1.48 2.59 2.59 0 0 1 1 .21 29 29 0 0 1 15.75 0 2.57 2.57 0 0 1 1.19-.22z" transform="translate(-208.79 -497.61)"/><path id="path3832" class="cls-1" d="M214.88 539.63a1.93 1.93 0 1 1-1.93 1.93 1.93 1.93 0 0 1 1.93-1.93z" transform="translate(-208.79 -497.61)"/><path id="path3834" class="cls-1" d="M290.53 539.55a1.93 1.93 0 1 1-1.93 1.93 1.93 1.93 0 0 1 1.93-1.93z" transform="translate(-208.79 -497.61)"/><path id="path3836" class="cls-1" d="M249.14 576l-.19 2h-.17a2 2 0 0 0-.46-1.24 1.53 1.53 0 0 0-1-.57 1 1 0 0 0-.71.15.71.71 0 0 0-.32.5.66.66 0 0 0 0 .35 1.45 1.45 0 0 0 .35.44 9 9 0 0 0 .86.61 4.12 4.12 0 0 1 1.25 1.11 1.59 1.59 0 0 1 .22 1.05 1.64 1.64 0 0 1-.72 1.17 2 2 0 0 1-1.49.34 2.32 2.32 0 0 1-.51-.12 4 4 0 0 1-.58-.28.93.93 0 0 0-.32-.13.42.42 0 0 0-.24.06.6.6 0 0 0-.23.23h-.16l.27-2.17h.16a2.51 2.51 0 0 0 .55 1.49 1.69 1.69 0 0 0 1.09.62 1.09 1.09 0 0 0 .79-.16.79.79 0 0 0 .3-1 1.27 1.27 0 0 0-.28-.4 5 5 0 0 0-.73-.54 6.77 6.77 0 0 1-1-.8 2 2 0 0 1-.45-.67 1.52 1.52 0 0 1-.09-.76 1.57 1.57 0 0 1 .65-1.11 1.78 1.78 0 0 1 1.33-.32 2.18 2.18 0 0 1 .53.14 2.74 2.74 0 0 1 .46.25 1.15 1.15 0 0 0 .38.19.23.23 0 0 0 .18 0 .79.79 0 0 0 .14-.43z" transform="translate(-208.79 -497.61)"/><path id="path3838" class="cls-1" d="M253.27 580.42h-2l-.27.58a1.26 1.26 0 0 0-.12.47.39.39 0 0 0 .2.36 1.66 1.66 0 0 0 .57.1v.16h-1.95v-.16a.86.86 0 0 0 .51-.26 3.43 3.43 0 0 0 .49-.88l2-4.64h.08l2.12 4.74a2.89 2.89 0 0 0 .5.85.67.67 0 0 0 .41.15v.16H253v-.16h.12a.88.88 0 0 0 .47-.1.23.23 0 0 0 .09-.2.54.54 0 0 0 0-.16s0-.13-.13-.32zm-.15-.32l-.88-2-.88 2h1.75z" transform="translate(-208.79 -497.61)"/><path id="path3840" class="cls-1" d="M259.7 575.54l.31 1.91h-.17a2 2 0 0 0-.76-1.08 1.53 1.53 0 0 0-1.1-.3 1 1 0 0 0-.65.32.71.71 0 0 0-.18.57.64.64 0 0 0 .13.33 1.44 1.44 0 0 0 .45.34 8.81 8.81 0 0 0 1 .37 4.13 4.13 0 0 1 1.49.75 1.6 1.6 0 0 1 .48 1 1.65 1.65 0 0 1-.39 1.32 2 2 0 0 1-1.36.71 2.35 2.35 0 0 1-.52 0 3.94 3.94 0 0 1-.63-.13.93.93 0 0 0-.35 0 .42.42 0 0 0-.22.12.6.6 0 0 0-.16.28h-.16l-.29-2.17h.16a2.51 2.51 0 0 0 .91 1.3 1.7 1.7 0 0 0 1.21.33 1.09 1.09 0 0 0 .72-.36.79.79 0 0 0 0-1 1.26 1.26 0 0 0-.38-.32 5 5 0 0 0-.84-.34 6.86 6.86 0 0 1-1.22-.5 2 2 0 0 1-.61-.54 1.51 1.51 0 0 1-.28-.71 1.57 1.57 0 0 1 .35-1.24 1.78 1.78 0 0 1 1.21-.66 2.19 2.19 0 0 1 .55 0 2.72 2.72 0 0 1 .51.12 1.15 1.15 0 0 0 .42.08.23.23 0 0 0 .16-.09.79.79 0 0 0 .07-.34z" transform="translate(-208.79 -497.61)"/><path id="path3842" class="cls-1" d="M216.88 523l1.61.69-.07.14a1.78 1.78 0 0 0-1.19.06 1.39 1.39 0 0 0-.76.7.89.89 0 0 0-.07.66.64.64 0 0 0 .34.41.6.6 0 0 0 .32.05 1.3 1.3 0 0 0 .48-.18 8.13 8.13 0 0 0 .76-.57 3.73 3.73 0 0 1 1.3-.77 1.44 1.44 0 0 1 1 .09 1.49 1.49 0 0 1 .81.94 1.84 1.84 0 0 1-.11 1.38 2.14 2.14 0 0 1-.24.41 3.46 3.46 0 0 1-.4.42.83.83 0 0 0-.2.25.38.38 0 0 0 0 .23.55.55 0 0 0 .14.27l-.06.12-1.8-.83.06-.12a2.27 2.27 0 0 0 1.43-.06 1.54 1.54 0 0 0 .84-.77 1 1 0 0 0 .07-.73.71.71 0 0 0-.76-.52 1.16 1.16 0 0 0-.43.13 4.6 4.6 0 0 0-.67.48 6.11 6.11 0 0 1-1 .68 1.85 1.85 0 0 1-.7.2 1.37 1.37 0 0 1-.68-.13 1.42 1.42 0 0 1-.78-.86 1.61 1.61 0 0 1 .08-1.24 2 2 0 0 1 .26-.42 2.67 2.67 0 0 1 .34-.33 1 1 0 0 0 .27-.28.2.2 0 0 0 0-.17.7.7 0 0 0-.22-.22zm2.12-2.8l1.81 1.14.06-.09a.83.83 0 0 0 .12-.78 1.92 1.92 0 0 0-.63-.73l.08-.13 2.33 1.46-.08.13a2 2 0 0 0-.69-.2.84.84 0 0 0-.51.09 1.32 1.32 0 0 0-.39.43l1.25.79a2.1 2.1 0 0 0 .47.25.31.31 0 0 0 .21 0 .64.64 0 0 0 .23-.24l.17-.27a1.69 1.69 0 0 0-.2-2.27l.08-.12 1.29 1.09-2.41 3.83-.11-.07.09-.15a.72.72 0 0 0 .13-.35.35.35 0 0 0-.08-.23 1.63 1.63 0 0 0-.39-.3l-2.93-1.84a2.64 2.64 0 0 0-.38-.22.36.36 0 0 0-.25 0 .66.66 0 0 0-.31.28l-.09.15-.11-.07 2.34-3.71 1.31.83-.08.13a1.89 1.89 0 0 0-.86-.17 1.17 1.17 0 0 0-.61.29 3.08 3.08 0 0 0-.49.65zm5.32-7.46l1.38 1.19-.1.11a2 2 0 0 0-1.24-.24 1.6 1.6 0 0 0-1 .55 1.55 1.55 0 0 0-.37.87 1.65 1.65 0 0 0 .17.94 3.36 3.36 0 0 0 .83 1 4.39 4.39 0 0 0 1.09.7 1.71 1.71 0 0 0 1 .15 1.55 1.55 0 0 0 .87-.55 1.92 1.92 0 0 0 .43-.83 3.15 3.15 0 0 0 0-1.14l.34.29a2.85 2.85 0 0 1-.09 1.13 2.77 2.77 0 0 1-.57 1 3.18 3.18 0 0 1-1.23.91 2.37 2.37 0 0 1-1.39.13 2.7 2.7 0 0 1-1.25-.61 2.87 2.87 0 0 1-.92-2.71 2.86 2.86 0 0 1 .64-1.31 3.2 3.2 0 0 1 .94-.73 1.81 1.81 0 0 0 .4-.25.29.29 0 0 0 .07-.22.5.5 0 0 0-.14-.28zm1.31-1l2.13-1.67.08.11-.11.08a.94.94 0 0 0-.29.31.36.36 0 0 0 0 .24 1.88 1.88 0 0 0 .31.48l1.58 2a2.64 2.64 0 0 0 .66.67.89.89 0 0 0 .51.08 1.15 1.15 0 0 0 .58-.26 1.32 1.32 0 0 0 .45-.6 1.18 1.18 0 0 0 0-.69 3.22 3.22 0 0 0-.61-1l-1.32-1.68a1.25 1.25 0 0 0-.37-.35.44.44 0 0 0-.28-.05 1.1 1.1 0 0 0-.44.23l-.08-.11 1.43-1.12.08.11-.09.07a.69.69 0 0 0-.23.3.5.5 0 0 0 0 .34 1.38 1.38 0 0 0 .24.38l1.23 1.57a5.18 5.18 0 0 1 .73 1.13 1.49 1.49 0 0 1 0 1 2.14 2.14 0 0 1-.8 1.06 2.45 2.45 0 0 1-.94.5 1.54 1.54 0 0 1-1-.06 2.21 2.21 0 0 1-.81-.69l-1.58-2a1.88 1.88 0 0 0-.39-.42.39.39 0 0 0-.25 0 1.07 1.07 0 0 0-.4.23zm8.27-2.4l.73 1.29a1.58 1.58 0 0 0 .31.44.37.37 0 0 0 .25.06 1.25 1.25 0 0 0 .46-.18l.07.12-2.34 1.32-.07-.12a1.22 1.22 0 0 0 .4-.3.39.39 0 0 0 .07-.24 1.57 1.57 0 0 0-.22-.49l-1.68-3a1.56 1.56 0 0 0-.31-.44.38.38 0 0 0-.25-.06 1.26 1.26 0 0 0-.46.18l-.07-.12 2.13-1.2a5.3 5.3 0 0 1 1.28-.57 1.4 1.4 0 0 1 .87.07 1.3 1.3 0 0 1 .65.59 1.24 1.24 0 0 1 .11 1 1.72 1.72 0 0 1-.48.68l2 .93a2.65 2.65 0 0 0 .52.2.66.66 0 0 0 .39-.07l.07.12-1.44.81-2.65-1.25zm-1.26-2.24l1.12 2 .19-.11a2.51 2.51 0 0 0 .65-.48.81.81 0 0 0 .19-.52 1.3 1.3 0 0 0-.19-.66 1.21 1.21 0 0 0-.68-.63 1.22 1.22 0 0 0-.93.19zm8.24 1.4l.05.12-2.53 1-.05-.12.16-.07a.72.72 0 0 0 .31-.21.35.35 0 0 0 .07-.23 1.63 1.63 0 0 0-.15-.47l-1.31-3.21a1.79 1.79 0 0 0-.23-.45.39.39 0 0 0-.23-.1.68.68 0 0 0-.35.06l-.16.06-.05-.12 2.53-1 .05.12-.16.06a.71.71 0 0 0-.31.21.37.37 0 0 0-.07.23 1.64 1.64 0 0 0 .15.47L240 508a1.71 1.71 0 0 0 .23.45.4.4 0 0 0 .23.1.67.67 0 0 0 .35-.06zm3.56-6.38l.4 1.36h-.13a2.24 2.24 0 0 0-.46-.6 1 1 0 0 0-.49-.21 1.35 1.35 0 0 0-.51.08l-.38.11 1.13 3.89a1.7 1.7 0 0 0 .18.47.39.39 0 0 0 .21.12.68.68 0 0 0 .36 0h.16v.13l-2.62.76v-.13h.17a.71.71 0 0 0 .33-.18.38.38 0 0 0 .1-.22 1.64 1.64 0 0 0-.1-.48l-1.13-3.89-.36.11a1.1 1.1 0 0 0-.67.43 1.48 1.48 0 0 0-.16 1h-.14l-.33-1.47zm6.64-.88v.13a.77.77 0 0 0-.37.2 4.08 4.08 0 0 0-.48 1l-.87 2 .17 1.26a1.73 1.73 0 0 0 .11.5.38.38 0 0 0 .19.15.63.63 0 0 0 .34 0h.29v.13l-2.91.4v-.13h.27a.71.71 0 0 0 .35-.13.37.37 0 0 0 .13-.21 1.65 1.65 0 0 0 0-.49l-.14-1-1.53-2.07a3.33 3.33 0 0 0-.62-.71.65.65 0 0 0-.42-.07v-.13l2.49-.34v.13h-.11a.56.56 0 0 0-.31.11.18.18 0 0 0-.07.15 2.36 2.36 0 0 0 .4.66l1.18 1.59.72-1.69a2.15 2.15 0 0 0 .24-.82.21.21 0 0 0-.12-.16 1 1 0 0 0-.49-.05v-.13zm8.49.61l-.25 1.8h-.15a2 2 0 0 0-.48-1.18 1.61 1.61 0 0 0-1-.52 1.55 1.55 0 0 0-.93.16 1.66 1.66 0 0 0-.69.65 3.35 3.35 0 0 0-.42 1.26 4.39 4.39 0 0 0 0 1.3 1.71 1.71 0 0 0 .43.94 1.55 1.55 0 0 0 .93.43 1.92 1.92 0 0 0 .93-.09 3.15 3.15 0 0 0 1-.62l-.06.45a2.85 2.85 0 0 1-1 .54 2.76 2.76 0 0 1-1.13.05 3.19 3.19 0 0 1-1.43-.54 2.38 2.38 0 0 1-.86-1.1 2.7 2.7 0 0 1-.17-1.38 2.87 2.87 0 0 1 1.77-2.25 2.86 2.86 0 0 1 1.45-.17 3.21 3.21 0 0 1 1.12.4 1.82 1.82 0 0 0 .43.2.3.3 0 0 0 .23-.06.5.5 0 0 0 .16-.27zm4.17 1a2.6 2.6 0 0 1 1.95 3.36 2.8 2.8 0 0 1-1.06 1.52 2.6 2.6 0 0 1-2.38.34 2.65 2.65 0 0 1-1.83-1.54 2.77 2.77 0 0 1-.08-1.9 2.61 2.61 0 0 1 1.32-1.64 2.53 2.53 0 0 1 2.14-.15zm0 .25a1.19 1.19 0 0 0-1.26.39 3.89 3.89 0 0 0-.78 1.57 3.35 3.35 0 0 0-.11 2 1.08 1.08 0 0 0 .76.69 1.12 1.12 0 0 0 .7 0 1.59 1.59 0 0 0 .73-.61 4.37 4.37 0 0 0 .58-1.3 4.65 4.65 0 0 0 .25-1.55 1.5 1.5 0 0 0-.27-.84 1.17 1.17 0 0 0-.56-.36zm5.73 5.8l2.88-2.4 1.88 1-.06.12-.15-.08a.72.72 0 0 0-.37-.1.37.37 0 0 0-.22.09 1.67 1.67 0 0 0-.27.42l-1.57 3.05a1.76 1.76 0 0 0-.2.47.39.39 0 0 0 .07.24.68.68 0 0 0 .27.23l.15.08-.06.12-2.42-1.27.06-.12.15.08a.73.73 0 0 0 .37.1.38.38 0 0 0 .22-.09 1.62 1.62 0 0 0 .27-.42l1.8-3.44-4 3.3h-.08l.39-5.15-1.71 3.27a3.22 3.22 0 0 0-.2.43.56.56 0 0 0 0 .38.91.91 0 0 0 .41.35l-.06.12-1.59-.83.06-.12a.8.8 0 0 0 .31.1.52.52 0 0 0 .28 0 .72.72 0 0 0 .24-.2s.08-.14.19-.35l1.54-2.94a1.74 1.74 0 0 0 .2-.47.39.39 0 0 0-.07-.24.7.7 0 0 0-.28-.23l-.15-.08.06-.12 1.9 1zm5.5 2.71l-.84 1.19a1.62 1.62 0 0 0-.27.47.38.38 0 0 0 0 .25 1.25 1.25 0 0 0 .36.34l-.08.11-2.18-1.54.08-.11a1.19 1.19 0 0 0 .44.23.39.39 0 0 0 .25 0 1.6 1.6 0 0 0 .35-.41l2-2.79a1.63 1.63 0 0 0 .27-.47.38.38 0 0 0 0-.25 1.25 1.25 0 0 0-.36-.34l.08-.11 1.87 1.32a2.57 2.57 0 0 1 1.09 1.27 1.25 1.25 0 0 1-.18 1.11 1.28 1.28 0 0 1-.77.53 1.61 1.61 0 0 1-1-.1 6 6 0 0 1-1.08-.72zm1.49-2.1l-1.31 1.86.15.12a.94.94 0 0 0 .76.19 1.26 1.26 0 0 0 .71-.56 1.22 1.22 0 0 0 .29-.85 1 1 0 0 0-.47-.66zm2.23 6.5l-1.33-1.26-.52.21a1.16 1.16 0 0 0-.37.24.36.36 0 0 0-.1.36 1.5 1.5 0 0 0 .31.42l-.09.1-1.27-1.2.09-.1a.79.79 0 0 0 .5.15 3.16 3.16 0 0 0 .88-.27l4.24-1.75.05.05-1.58 4.42a2.67 2.67 0 0 0-.21.87.6.6 0 0 0 .17.36l-.09.1-1.84-1.74.09-.1.08.07a.77.77 0 0 0 .37.23.21.21 0 0 0 .18-.07.5.5 0 0 0 .08-.12l.12-.29zm.11-.29l.66-1.84-1.81.75zm6 1.7l-1.18 4 1.85-1.29a1.08 1.08 0 0 0 .45-.48.75.75 0 0 0-.18-.64l.11-.08 1 1.42-.11.08a1.35 1.35 0 0 0-.35-.3.46.46 0 0 0-.28 0 1.55 1.55 0 0 0-.47.25l-3.58 2.51-.07-.11 1.55-5.41-2.74 1.92a.75.75 0 0 0-.39.52.76.76 0 0 0 .14.48l.07.1-.11.08-1.07-1.53.11-.08a.65.65 0 0 0 1.08.19l3-2.13v-.17a1 1 0 0 0 .06-.4.86.86 0 0 0-.15-.34l.11-.08zM290 526l-.12.06a.78.78 0 0 0-.32-.28 4.1 4.1 0 0 0-1.07-.12l-2.22-.11-1.12.6a1.73 1.73 0 0 0-.43.28.39.39 0 0 0-.08.23.63.63 0 0 0 .09.33l.14.26-.12.06-1.38-2.59.12-.06.13.24a.71.71 0 0 0 .24.28.38.38 0 0 0 .24.05 1.63 1.63 0 0 0 .45-.19l.93-.5 1.41-2.15a3.34 3.34 0 0 0 .45-.83.65.65 0 0 0-.08-.41l.12-.06 1.18 2.22-.12.06-.05-.1a.56.56 0 0 0-.21-.25.18.18 0 0 0-.17 0 2.37 2.37 0 0 0-.48.61l-1.08 1.66 1.84.09a2.14 2.14 0 0 0 .85-.06.21.21 0 0 0 .11-.17 1 1 0 0 0-.12-.48l.12-.06z" transform="translate(-208.79 -497.61)"/></g></svg>