<?xml version="1.0" encoding="UTF-8" standalone="no"?>
<!-- Created with Inkscape (http://www.inkscape.org/) -->

<svg
   xmlns:dc="http://purl.org/dc/elements/1.1/"
   xmlns:cc="http://creativecommons.org/ns#"
   xmlns:rdf="http://www.w3.org/1999/02/22-rdf-syntax-ns#"
   xmlns:svg="http://www.w3.org/2000/svg"
   xmlns="http://www.w3.org/2000/svg"
   xmlns:sodipodi="http://sodipodi.sourceforge.net/DTD/sodipodi-0.dtd"
   xmlns:inkscape="http://www.inkscape.org/namespaces/inkscape"
   width="65"
   height="96"
   viewBox="0 0 17.197916 25.400001"
   version="1.1"
   id="svg8"
   sodipodi:docname="logo-mini.svg"
   inkscape:version="0.92.0 r15299">
  <defs
     id="defs2" />
  <sodipodi:namedview
     id="base"
     pagecolor="#ffffff"
     bordercolor="#666666"
     borderopacity="1.0"
     inkscape:pageopacity="0.0"
     inkscape:pageshadow="2"
     inkscape:zoom="3.959798"
     inkscape:cx="50.026079"
     inkscape:cy="67.043032"
     inkscape:document-units="mm"
     inkscape:current-layer="layer1"
     showgrid="false"
     inkscape:window-width="1366"
     inkscape:window-height="705"
     inkscape:window-x="-8"
     inkscape:window-y="-8"
     inkscape:window-maximized="1"
     units="px" />
  <metadata
     id="metadata5">
    <rdf:RDF>
      <cc:Work
         rdf:about="">
        <dc:format>image/svg+xml</dc:format>
        <dc:type
           rdf:resource="http://purl.org/dc/dcmitype/StillImage" />
        <dc:title></dc:title>
      </cc:Work>
    </rdf:RDF>
  </metadata>
  <g
     inkscape:label="Layer 1"
     inkscape:groupmode="layer"
     id="layer1"
     transform="translate(0,-271.59998)">
    <g
       id="Layer1000"
       transform="matrix(0.10619907,0,0,0.10619907,-23.056282,239.6676)">
      <path
         inkscape:connector-curvature="0"
         id="path41"
         style="fill:#000000;fill-rule:evenodd"
         d="m 233.7061,324.36653 16.07253,172.72181 92.7038,12.62946 30,-187.90324 z"
         sodipodi:nodetypes="ccccc" />
      <g
         id="Layer1001">
        <path
           inkscape:connector-curvature="0"
           id="path43"
           style="fill:#ffec00;fill-rule:evenodd"
           d="m 221.2061,321.5094 v 51.2239 l 7.104,-3.9546 c 19.4252,-10.3236 44.8164,-15.9384 67.0564,-15.9384 25.8355,0 52.2606,5.0294 74.9582,17.8381 1.1363,0.6412 2.6137,1.5685 3.7447,2.0221 v -51.2241 c -1.131,-0.4536 -2.6084,-1.3809 -3.7447,-2.0221 -21.9227,-12.3709 -48.1317,-17.8381 -73.2323,-17.8381 -23.5479,0 -47.9353,4.8593 -68.7823,15.9384 z" />
        <path
           inkscape:connector-curvature="0"
           id="path45"
           style="fill:#ffec00;fill-rule:evenodd"
           d="m 221.2061,371.2873 v 76.3311 c 0.0318,0.0612 0.0579,0.14 0.074,0.1918 l 0.5371,4.5058 c 1.0894,9.7584 3.7351,19.8327 7.5763,28.7295 4.284,9.9229 10.1996,18.7676 16.3058,25.5223 1.5262,1.6884 3.4993,4.0739 5.1115,5.4717 2.0411,1.7693 3.5261,3.4492 5.5347,5.072 10.4982,8.4835 20.0279,14.9005 33.1825,20.2574 1.5344,0.6249 6.7935,2.3286 7.6903,2.9048 h 0.8615 c 0.9419,-0.6239 6.044,-2.3062 7.6124,-2.9529 2.5416,-1.0486 5.0208,-2.2772 7.3423,-3.3893 9.5214,-4.5618 17.6696,-10.5133 25.4247,-16.8117 2.778,-2.2564 8.1288,-7.6142 10.6794,-10.5196 10.1992,-11.6184 17.8324,-24.9966 21.7916,-40.6665 0.7237,-2.8651 1.2589,-5.5793 1.8203,-8.5422 0.3403,-1.7953 0.782,-8.0641 1.3189,-9.0612 v -77.0734 c -1.131,-0.4225 -2.6083,-1.2861 -3.7448,-1.8833 -15.7516,-8.278 -36.5687,-13.7856 -54.587,-15.675 -0.9405,-0.0988 -9.4871,-0.6673 -10.0813,-0.9371 h -15.5201 l -2.6443,0.3216 c -20.1392,1.0737 -41.4842,5.7623 -59.1817,14.5214 z m 6.1145,3.7174 v 71.8217 l 0.5681,4.7658 c 1.0904,9.1478 3.4655,18.5689 7.1185,27.0297 3.6983,8.5663 8.9655,16.9177 15.2281,23.8455 1.4348,1.5873 2.9826,3.5664 4.5808,4.9519 1.8331,1.5892 3.4991,3.4223 5.3724,4.9363 10.1116,8.1708 19.5229,14.4136 31.6457,19.3504 1.6581,0.6751 3.8385,1.2982 5.7827,2.0394 1.9298,-0.7586 4.0911,-1.3955 5.7436,-2.0771 2.3871,-0.9846 4.7043,-2.136 7.0321,-3.2511 8.8266,-4.2288 16.6424,-9.8959 24.2118,-16.0437 3.2998,-2.6802 7.1238,-6.6002 9.9391,-9.8073 9.7633,-11.1217 16.8162,-23.7144 20.4584,-38.1304 0.6838,-2.7067 1.2213,-5.4407 1.741,-8.1829 0.4739,-2.501 0.4859,-6.1163 1.2119,-8.8772 v -72.3372 c -0.1577,-0.0846 -0.3159,-0.1689 -0.4747,-0.2523 -15.3156,-8.0488 -35.1966,-13.2043 -52.3748,-15.0059 -2.266,-0.2262 -6.9871,-0.3467 -10.0078,-0.9043 h -14.5907 l -2.4823,0.3018 -0.2071,0.0111 c -19.0767,1.0172 -39.5743,5.3838 -56.7445,13.8708 z" />
        <path
           inkscape:connector-curvature="0"
           id="path47"
           style="fill:#000000;fill-rule:evenodd"
           d="m 227.3206,375.0047 v 71.8217 l 0.5681,4.7658 c 1.0904,9.1478 3.4655,18.5689 7.1185,27.0297 3.6983,8.5663 8.9655,16.9177 15.2281,23.8455 1.4348,1.5873 2.9826,3.5664 4.5808,4.9519 1.8331,1.5892 3.4991,3.4223 5.3724,4.9363 10.1116,8.1708 19.5229,14.4136 31.6457,19.3504 1.6581,0.6751 3.8385,1.2982 5.7827,2.0394 1.9298,-0.7586 4.0911,-1.3955 5.7436,-2.0771 2.3871,-0.9846 4.7043,-2.136 7.0321,-3.2511 8.8266,-4.2288 16.6424,-9.8959 24.2118,-16.0437 3.2998,-2.6802 7.1238,-6.6002 9.9391,-9.8073 9.7633,-11.1217 16.8162,-23.7144 20.4584,-38.1304 0.6838,-2.7067 1.2213,-5.4407 1.741,-8.1829 0.4739,-2.501 0.4859,-6.1163 1.2119,-8.8772 v -72.3372 c -0.1577,-0.0846 -0.3159,-0.1689 -0.4747,-0.2523 -15.3156,-8.0488 -35.1966,-13.2043 -52.3748,-15.0059 -2.266,-0.2262 -6.9871,-0.3467 -10.0078,-0.9043 h -14.5907 l -2.4823,0.3018 -0.2071,0.0111 c -19.0767,1.0172 -39.5743,5.3838 -56.7445,13.8708 z" />
        <path
           inkscape:connector-curvature="0"
           id="path49"
           style="fill:#ffec00;fill-rule:evenodd"
           d="m 334.7084,369.4149 h 2.3803 l 2.1709,2.6763 2.171,-2.6763 h 2.38 l -3.4276,4.2248 v 3.228 h -2.247 v -3.228 z" />
        <path
           inkscape:connector-curvature="0"
           id="path51"
           style="fill:#ffec00;fill-rule:evenodd"
           d="m 324.3158,369.4149 h 6.4643 v 1.4012 h -2.1328 v 6.0516 h -2.2635 v -6.0516 h -2.068 z" />
        <path
           inkscape:connector-curvature="0"
           id="path53"
           style="fill:#ffec00;fill-rule:evenodd"
           d="m 317.4836,369.4149 h 2.2147 v 7.4528 h -2.2147 z" />
        <path
           inkscape:connector-curvature="0"
           id="path55"
           style="fill:#ffec00;fill-rule:evenodd"
           d="m 307.6066,372.3318 h 0.7055 c 0.7165,0 1.2076,-0.0591 1.4791,-0.1783 0.2688,-0.1194 0.4042,-0.3166 0.4042,-0.5934 0,-0.1626 -0.0677,-0.3046 -0.2008,-0.4255 -0.1327,-0.1212 -0.3119,-0.2076 -0.5373,-0.2596 -0.2223,-0.0535 -0.6351,-0.0796 -1.2348,-0.0796 h -0.6159 z m -2.2144,-2.9169 h 2.3635 c 1.2918,0 2.2144,0.0727 2.7629,0.2197 0.5506,0.1469 0.9905,0.3926 1.3241,0.7336 0.3338,0.3409 0.5021,0.7439 0.5021,1.2111 0,0.4894 -0.1846,0.8995 -0.5509,1.228 -0.369,0.3306 -0.9229,0.5796 -1.6636,0.7475 l 2.76,3.3129 h -2.4315 l -2.6269,-3.1556 h -0.2253 v 3.1556 h -2.2144 z" />
        <path
           inkscape:connector-curvature="0"
           id="path57"
           style="fill:#ffec00;fill-rule:evenodd"
           d="m 291.7834,369.4149 h 2.2307 v 4.8215 c 0,0.4151 0.057,0.7093 0.1709,0.8805 0.1141,0.173 0.3013,0.3096 0.5644,0.4134 0.2635,0.102 0.5811,0.1541 0.9501,0.1541 0.3933,0 0.73,-0.0571 1.0148,-0.173 0.285,-0.1141 0.4802,-0.2596 0.589,-0.4376 0.1085,-0.1766 0.1626,-0.5157 0.1626,-1.0154 v -4.6435 h 2.231 v 4.4427 c 0,0.7508 -0.065,1.2697 -0.1981,1.5604 -0.1331,0.2906 -0.3856,0.5709 -0.7599,0.8409 -0.372,0.2697 -0.8034,0.4704 -1.2919,0.6003 -0.4855,0.1295 -1.0529,0.1954 -1.6987,0.1954 -0.8466,0 -1.5849,-0.1248 -2.2118,-0.372 -0.6298,-0.2492 -1.0775,-0.5588 -1.3486,-0.9326 -0.2688,-0.3734 -0.4045,-1.0033 -0.4045,-1.8924 z" />
        <path
           inkscape:connector-curvature="0"
           id="path59"
           style="fill:#ffec00;fill-rule:evenodd"
           d="m 286.9568,370.7227 -1.5606,0.9447 c -1.0613,-0.7129 -2.2526,-1.0692 -3.5796,-1.0692 -1.118,0 -2.0625,0.244 -2.8277,0.7301 -0.7679,0.4861 -1.1506,1.0846 -1.1506,1.7975 0,0.4964 0.171,0.9376 0.5101,1.3217 0.3392,0.3856 0.8197,0.6884 1.4382,0.9084 0.6216,0.2194 1.3108,0.3285 2.0708,0.3285 0.6457,0 1.2374,-0.0763 1.772,-0.2301 0.5373,-0.154 1.1263,-0.4343 1.7668,-0.8391 l 1.5115,1.0068 c -0.8628,0.5381 -1.6798,0.9119 -2.4477,1.1195 -0.7682,0.2093 -1.6473,0.3131 -2.6325,0.3131 -1.8182,0 -3.3082,-0.3669 -4.467,-1.102 -1.1588,-0.7336 -1.7366,-1.6763 -1.7366,-2.8233 0,-0.7439 0.2629,-1.403 0.7922,-1.9808 0.5266,-0.5781 1.2809,-1.0414 2.2661,-1.3927 0.9823,-0.3513 2.0409,-0.5278 3.1778,-0.5278 0.9634,0 1.8916,0.1298 2.7872,0.3894 0.893,0.2593 1.6635,0.6281 2.3096,1.1053 z" />
        <path
           inkscape:connector-curvature="0"
           id="path61"
           style="fill:#ffec00;fill-rule:evenodd"
           d="m 264.2106,369.4149 h 6.383 v 1.3909 h -4.1686 v 1.3392 h 4.1686 v 1.3699 h -4.1686 v 1.9619 h 4.1686 v 1.3909 h -6.383 z" />
        <path
           inkscape:connector-curvature="0"
           id="path63"
           style="fill:#ffec00;fill-rule:evenodd"
           d="m 258.6132,370.4288 -1.65,0.9273 c -0.578,-0.5122 -1.1668,-0.7682 -1.7667,-0.7682 -0.293,0 -0.5317,0.0499 -0.7165,0.1487 -0.1871,0.1005 -0.2794,0.2129 -0.2794,0.3374 0,0.1245 0.0651,0.2439 0.1981,0.3548 0.1819,0.1484 0.7274,0.4669 1.6367,0.9566 0.8492,0.4533 1.3649,0.7386 1.5467,0.8563 0.4503,0.2906 0.7706,0.5674 0.9604,0.8321 0.1875,0.2664 0.2824,0.5553 0.2824,0.8684 0,0.6124 -0.3309,1.1159 -0.9959,1.5154 -0.662,0.398 -1.5278,0.597 -2.597,0.597 -0.8333,0 -1.5577,-0.1298 -2.1766,-0.3894 -0.6189,-0.2611 -1.1505,-0.6695 -1.5902,-1.2265 l 1.8749,-0.7198 c 0.5648,0.6577 1.2133,0.9862 1.946,0.9862 0.3826,0 0.7058,-0.071 0.9663,-0.2126 0.2602,-0.142 0.3906,-0.3064 0.3906,-0.4915 0,-0.1679 -0.0976,-0.3373 -0.2957,-0.5068 -0.1954,-0.1679 -0.6295,-0.4275 -1.2998,-0.775 -1.2756,-0.6608 -2.098,-1.1712 -2.4696,-1.5311 -0.3717,-0.3598 -0.5592,-0.7179 -0.5592,-1.076 0,-0.5174 0.3093,-0.9601 0.9255,-1.3288 0.6186,-0.3702 1.3812,-0.5553 2.2878,-0.5553 0.5834,0 1.1396,0.0866 1.6662,0.2578 0.529,0.173 1.0991,0.4861 1.715,0.943 z" />
        <path
           inkscape:connector-curvature="0"
           id="path65"
           style="fill:#ffec00;fill-rule:evenodd"
           d="m 297.6377,381.2694 c 32.9382,0 59.6399,26.7018 59.6399,59.6399 0,32.9382 -26.7017,59.6399 -59.6399,59.6399 -32.9381,0 -59.6399,-26.7017 -59.6399,-59.6399 0,-32.9381 26.7018,-59.6399 59.6399,-59.6399 z" />
        <path
           inkscape:connector-curvature="0"
           id="path67"
           style="fill:#000000;fill-rule:evenodd"
           d="m 297.6377,384.1552 c 31.3445,0 56.7541,25.4097 56.7541,56.7541 0,31.3445 -25.4096,56.7541 -56.7541,56.7541 -31.3444,0 -56.7541,-25.4096 -56.7541,-56.7541 0,-31.3444 25.4097,-56.7541 56.7541,-56.7541 z" />
        <path
           inkscape:connector-curvature="0"
           id="path69"
           style="fill:#ffec00;fill-rule:evenodd"
           d="m 297.6377,394.7365 c 25.5005,0 46.1729,20.6724 46.1729,46.1728 0,25.5005 -20.6724,46.1729 -46.1729,46.1729 -25.5004,0 -46.1728,-20.6724 -46.1728,-46.1729 0,-25.5004 20.6724,-46.1728 46.1728,-46.1728 z m 0,1.9238 c 24.4382,0 44.2491,19.8109 44.2491,44.249 0,24.4382 -19.8109,44.2491 -44.2491,44.2491 -24.4381,0 -44.249,-19.8109 -44.249,-44.2491 0,-24.4381 19.8109,-44.249 44.249,-44.249 z" />
        <path
           inkscape:connector-curvature="0"
           id="path71"
           style="fill:#ffec00;fill-rule:evenodd"
           d="m 348.843,443.1711 0.4886,2.5228 2.551,0.3051 -2.2481,1.2438 0.498,2.5208 -1.8779,-1.7537 -2.243,1.2525 1.0877,-2.328 -1.885,-1.7463 2.5503,0.3152 z" />
        <path
           inkscape:connector-curvature="0"
           id="path73"
           style="fill:#ffec00;fill-rule:evenodd"
           d="m 279.0386,463.4563 c -0.6254,1.121 -1.107,2.1875 -1.3304,3.3332 -0.3093,1.5838 0.625,2.438 1.6617,0.9015 1.4581,-2.1601 2.884,-6.5577 5.3361,-7.6242 -0.303,-0.2296 -0.6064,-0.4596 -0.9093,-0.6892 -2.2477,0.092 -2.0543,-0.9397 -4.0549,-1.8218 l -10.2961,-4.5376 c -0.7671,-0.338 -1.5689,-0.5701 -2.9323,-0.477 -0.2665,0.5374 -1.42,4.8781 -1.5393,4.9406 -0.0224,0.0118 1.4463,1.1113 2.9408,-0.3095 0.1667,-0.1587 9.7028,5.5843 11.1237,6.284 z m 36.6241,-53.991 c 17.6763,6.3889 14.0907,11.2889 12.9156,23.6588 -7.8833,0.4978 -15.7667,0.996 -23.65,1.4938 -0.0935,0.3828 -0.1866,0.766 -0.2801,1.1488 8.21,-0.4978 16.42,-0.9956 24.63,-1.4934 -0.4197,1.2256 -0.8399,2.4508 -1.2597,3.6764 -6.8103,0.4214 -13.621,0.8425 -20.4313,1.2638 -4.2448,-0.2296 -8.4901,-0.4596 -12.735,-0.6892 -0.4663,-0.0768 -0.933,-0.1532 -1.3993,-0.23 1.2597,-0.6128 2.5189,-1.2252 3.7786,-1.838 8.4766,-3.6921 15.8628,-8.7338 23.51,-13.4427 -14.3204,5.5479 -29.6336,14.4685 -43.4175,18.9155 -13.9578,4.5032 -17.9327,-1.4007 -15.2327,-8.9697 1.8719,-5.2477 6.2496,-10.5266 11.0691,-14.785 10.6367,-9.3973 25.9164,-14.704 42.5023,-8.7091 z m -15.3516,44.9143 c 4.1729,-2.3831 0.9262,-8.2943 -2.0768,-7.7353 -2.2155,0.412 -3.8644,2.7975 -4.2829,4.9294 -0.3592,1.8287 0.1671,3.5028 2.2231,3.2412 1.954,-0.2487 1.5263,-1.9235 2.037,-4.1982 2.309,1.1839 1.8761,1.4958 2.0996,3.7629 z m -28.1988,-10.1681 c 6.1079,-0.667 10.013,7.9104 22.1112,0.6319 1.5952,0.7288 0.4328,2.0274 1.9591,0.4596 -0.5484,-2.7872 1.2364,-2.8365 3.7066,-2.7475 2.4004,0.0865 1.4526,1.5552 2.1711,3.5229 0.2331,-0.7278 1.0963,-1.3115 1.3295,-2.0392 4.2854,2.3459 10.2372,5.306 14.6839,2.8215 3.6131,-2.0191 3.7752,-2.3571 8.2667,-2.9938 -0.5729,4.7214 -7.6426,8.5461 -13.0845,8.732 -0.2843,-1.3972 -0.388,-1.169 0.2797,-2.4703 -0.9614,-0.3596 -0.7058,-0.3116 -1.6794,0.0573 -0.388,1.9537 -0.7756,3.9078 -1.1632,5.8612 -0.5975,3.0216 -1.7276,2.7851 -5.2743,3.0432 0.0465,-0.6319 0.0935,-1.2638 0.14,-1.8958 -0.7696,-0.0191 -1.5393,-0.0382 -2.309,-0.0573 -0.2331,0.5937 -0.4667,1.1871 -0.6999,1.7808 -0.8395,0.0767 -1.6794,0.1532 -2.5189,0.2299 -0.093,-0.4978 -0.1866,-0.9959 -0.2796,-1.4938 -0.793,-0.0382 -1.5864,-0.0767 -2.3793,-0.1149 -0.0466,0.5169 -0.0935,1.0341 -0.1401,1.5511 -1.1196,-0.0191 -2.2388,-0.0383 -3.3584,-0.0574 0.0931,-0.6319 0.1866,-1.2638 0.2797,-1.8957 -0.8864,-0.0959 -1.7725,-0.1914 -2.6589,-0.2873 0,0.5746 0,1.1489 0,1.7234 -6.1697,-1.4646 -4.459,-4.4428 -6.5074,-8.502 -0.3266,0.8424 -0.6529,1.6852 -0.9795,2.5276 -4.9071,-1.5608 -11.3784,-3.2822 -11.8951,-8.3874 z m 46.5043,-1.3212 c 2.2899,6.1006 -22.1658,1.8996 0,0 z m -39.0174,0 c -2.29,6.1006 22.1657,1.8996 0,0 z m 35.2646,16.5446 c 3.8915,-2.1306 10.8241,-5.5673 15.1138,-7.0087 l 2.2392,4.3661 c -0.443,1.7067 -0.7519,1.8213 -2.4495,0.6895 l -11.5447,6.0318 c 0.639,1.6595 1.525,2.8458 2.0992,4.5957 -0.4786,0.8153 -1.668,1.0202 -1.9422,0.2132 -1.1255,-3.3127 -5.3496,-7.7586 -5.4922,-8.271 -0.3182,-1.1433 0.8898,-0.7358 1.9764,-0.6166 z m 0.2099,6.0317 -9.446,5.0556 c 3.113,1.5716 6.8124,2.947 10.2157,4.653 -3.8044,3.2592 -12.9453,-0.0841 -17.3531,-1.5796 -7.8233,2.694 -7.4094,3.9888 -17.1427,2.2119 l 10.6358,-4.9983 -9.5162,-5.2849 c -0.5814,-2.4394 1.3963,-3.8748 3.0787,-4.5383 l 12.5949,6.0894 10.8457,-5.1129 2.5887,-1.2638 c 1.905,1.3037 3.5425,2.6346 3.4985,4.7679 z m -2.6522,-1.8731 -0.5251,-0.8042 -17.9129,8.4159 c 3.837,-0.2109 12.292,-5.0743 18.438,-7.6117 z m -27.5882,0.1998 0.5251,-0.8043 10.9507,5.5437 c -3.9301,-1.2065 -7.8957,-2.7287 -11.4758,-4.7394 z" />
        <path
           inkscape:connector-curvature="0"
           id="path75"
           style="fill:#ffec00;fill-rule:evenodd"
           d="m 246.2058,443.1711 -0.4886,2.5228 -2.5509,0.3051 2.2481,1.2438 -0.4981,2.5208 1.878,-1.7537 2.243,1.2525 -1.0877,-2.328 1.8849,-1.7463 -2.5502,0.3152 z" />
        <path
           inkscape:connector-curvature="0"
           id="path77"
           style="fill:#000000;fill-rule:evenodd"
           d="m 227.3206,325.1036 v 43.1233 c 20.1845,-10.2475 45.6112,-15.677 68.046,-15.677 24.9026,0 50.2331,4.5331 72.5882,15.7639 v -43.1709 c -0.2109,-0.122 -0.4225,-0.2435 -0.6351,-0.3636 -21.0291,-11.8664 -46.217,-17.0485 -70.2272,-17.0485 -22.498,0 -45.8889,4.5951 -65.8608,15.1956 z" />
        <path
           inkscape:connector-curvature="0"
           id="path79"
           style="fill:#ffec00;fill-rule:evenodd"
           d="m 344.8656,329.5595 c -3.7417,-0.9229 -7.4747,-1.7366 -11.2076,-2.485 0,-0.7268 0,-1.4571 0,-2.1871 0,-1.021 -0.1418,-1.6956 -0.4292,-2.0311 -0.2821,-0.3292 -0.7535,-0.5534 -1.4196,-0.6724 -0.7185,-0.128 -1.2708,-0.0471 -1.6387,0.2691 -0.3679,0.3124 -0.5609,0.8501 -0.5609,1.6168 0,0.9847 0.2193,1.7549 0.6398,2.3252 0.4119,0.5668 1.5421,1.3735 3.4086,2.4234 5.3453,3.1318 8.7189,5.5879 10.1122,7.2337 1.3935,1.6495 2.0945,3.9165 2.0945,6.8087 0,2.1036 -0.3944,3.5605 -1.1657,4.3746 -0.771,0.8101 -2.2605,1.2824 -4.4776,1.4204 -2.2084,0.2036 -4.7826,-0.0257 -7.72,-0.574 -3.2312,-0.6031 -5.9762,-1.4061 -8.2632,-2.5359 -2.2783,-1.0645 -3.768,-2.2344 -4.4777,-3.5169 -0.7011,-1.2828 -1.0602,-3.0267 -1.0602,-5.2212 0,-0.6393 0,-1.2824 0,-1.9254 3.7329,0.4396 7.4658,0.9481 11.2075,1.526 0,1.1951 0,2.3905 0,3.5896 0,1.1043 0.1543,1.8452 0.4643,2.2198 0.312,0.377 0.8762,0.6296 1.6737,0.7775 0.8059,0.1496 1.4019,0.0581 1.7875,-0.2761 0.3944,-0.3233 0.5872,-0.8866 0.5872,-1.6713 0,-1.7404 -0.3681,-2.9464 -1.1128,-3.6115 -0.7711,-0.6759 -2.6464,-1.9183 -5.6433,-3.6587 -2.988,-1.7039 -4.9597,-2.8667 -5.9411,-3.5568 -0.9639,-0.683 -1.7749,-1.5684 -2.4098,-2.6379 -0.6355,-1.0704 -0.9638,-2.3795 -0.9638,-3.9349 0,-2.245 0.449,-3.8576 1.3582,-4.8029 0.9046,-0.9402 2.3623,-1.6055 4.3901,-1.9438 2.0206,-0.3371 4.4648,-0.2856 7.3256,0.2034 3.1329,0.5356 5.7835,1.4277 7.9915,2.5434 2.1996,1.1481 3.6628,2.3217 4.3727,3.4843 0.7097,1.1516 1.0778,2.9101 1.0778,5.2573 0,0.3923 0,0.781 0,1.1697 z" />
        <path
           inkscape:connector-curvature="0"
           id="path81"
           style="fill:#ffec00;fill-rule:evenodd"
           d="m 299.5569,334.0612 c -0.2892,-1.6566 -0.5956,-3.51 -0.894,-5.5589 -0.2973,-2.0419 -0.6135,-4.2873 -0.9288,-6.7213 -0.5959,2.801 -1.0863,5.2283 -1.4634,7.2734 -0.3762,2.0421 -0.6485,3.7132 -0.8063,5.0029 1.3585,-0.0145 2.7253,-0.0216 4.0925,0.004 z m 6.4056,-18.5839 c 1.1479,4.9301 2.2988,9.8633 3.4435,14.8124 1.1511,4.9769 2.3047,9.9696 3.4614,14.958 -4.1098,-0.3703 -8.2196,-0.6212 -12.3293,-0.7773 -0.2189,-1.7439 -0.438,-3.4953 -0.6571,-5.2465 -1.4547,-0.0326 -2.9004,-0.0361 -4.3463,-0.0216 -0.2193,1.7438 -0.4382,3.4842 -0.6573,5.2281 -4.1623,0.087 -8.3245,0.2725 -12.4869,0.6068 1.0165,-4.9049 2.0423,-9.8242 3.0583,-14.7291 1.0167,-4.9083 2.0417,-9.8134 3.0671,-14.7002 5.8096,-0.2398 11.628,-0.2835 17.4466,-0.1306 z" />
        <path
           inkscape:connector-curvature="0"
           id="path83"
           style="fill:#ffec00;fill-rule:evenodd"
           d="m 275.9093,325.058 c -3.7416,0.4141 -7.4746,0.9336 -11.2075,1.5186 0,-0.7156 0,-1.4351 0,-2.1509 0,-1.0026 -0.1418,-1.6185 -0.4294,-1.8492 -0.2819,-0.2267 -0.745,-0.2835 -1.4106,-0.1672 -0.7275,0.127 -1.2706,0.3997 -1.6475,0.843 -0.3681,0.4287 -0.5519,1.0281 -0.5519,1.7838 0,0.9737 0.2101,1.6605 0.6308,2.0747 0.4117,0.4142 1.5423,0.8102 3.4086,1.1844 5.3541,1.177 8.7277,2.3869 10.1122,3.5061 1.4021,1.1189 2.0943,3.1027 2.0943,5.9368 0,2.0599 -0.3944,3.6185 -1.1655,4.6939 -0.771,1.0609 -2.2607,2.0528 -4.4776,2.9723 -2.2082,1.0062 -4.7783,1.7163 -7.72,2.2705 -3.2271,0.6082 -5.9762,0.8793 -8.2632,0.6286 -2.2785,-0.1745 -3.7594,-0.7664 -4.4779,-1.7765 -0.7011,-1.0209 -1.0515,-2.6415 -1.0515,-4.8505 0,-0.643 0,-1.2899 0,-1.9366 3.7329,-0.9519 7.4659,-1.8201 11.1988,-2.623 0,1.1842 0,2.3651 0,3.5458 0,1.0937 0.1587,1.761 0.4732,2.0201 0.3076,0.2531 0.8671,0.299 1.665,0.149 0.8053,-0.1515 1.4021,-0.4576 1.7963,-0.9264 0.3856,-0.4651 0.587,-1.0971 0.587,-1.8639 0,-1.711 -0.3767,-2.7611 -1.1216,-3.1429 -0.7711,-0.385 -2.6464,-0.9263 -5.6344,-1.5659 -2.9969,-0.6029 -4.9684,-1.0499 -5.95,-1.3805 -0.9637,-0.3342 -1.7767,-0.9243 -2.4098,-1.773 -0.6373,-0.855 -0.9549,-2.0673 -0.9549,-3.6369 0,-2.2634 0.4499,-4.0236 1.3581,-5.2791 0.9053,-1.2514 2.3543,-2.4252 4.3815,-3.4443 2.0124,-1.0115 4.457,-1.7844 7.3256,-2.2815 3.1249,-0.5418 5.7833,-0.5923 8.0004,-0.2691 2.1994,0.3453 3.6541,0.981 4.3638,1.8711 0.7186,0.8758 1.0777,2.4707 1.0777,4.7705 0,0.3853 0,0.7668 0,1.1482 z" />
        <path
           inkscape:connector-curvature="0"
           id="path85"
           style="fill:#ffec00;fill-rule:evenodd;stroke:#ffec00;stroke-width:0.21600001;stroke-linecap:butt;stroke-linejoin:miter;stroke-dasharray:none"
           d="m 249.0562,435.777 c 0.1379,-0.049 0.2791,-0.106 0.4222,-0.1712 0.1416,-0.0648 0.2587,-0.1463 0.3504,-0.244 l 0.05,-0.6615 1.7762,0.1347 -0.0315,0.4157 c -0.281,0.006 -0.5499,0.0366 -0.8045,0.0949 -0.2565,0.0579 -0.4352,0.1315 -0.5356,0.2204 -0.0935,0.0847 -0.1491,0.2129 -0.1676,0.3842 l -0.0324,0.4277 -0.1981,-0.0153 c -0.2792,0.0894 -0.524,0.1634 -0.7333,0.2241 l -0.8365,0.2388 c -0.2814,0.0824 -0.486,0.1597 -0.6133,0.2343 -0.1264,0.0731 -0.2231,0.1643 -0.2879,0.2712 -0.0649,0.107 -0.1051,0.256 -0.1199,0.4472 l -0.0371,0.4907 1.6651,0.1264 c 0.3217,0.0245 0.5259,0.0111 0.6138,-0.0408 0.0871,-0.0514 0.1625,-0.1726 0.2255,-0.3657 l 0.1981,0.0153 -0.1292,1.7007 -0.1981,-0.0148 c -0.0287,-0.1861 -0.0768,-0.3157 -0.1444,-0.3888 -0.0667,-0.0727 -0.2759,-0.1218 -0.6235,-0.1481 l -3.4848,-0.2653 c -0.3551,-0.0268 -0.5703,-0.008 -0.6486,0.0565 -0.0768,0.0639 -0.1439,0.1833 -0.2,0.3578 l -0.1981,-0.0148 0.1292,-1.7012 0.1981,0.0153 c 0.0315,0.1837 0.0815,0.3106 0.1504,0.3823 0.0695,0.0718 0.2769,0.1204 0.6264,0.1468 l 1.4748,0.112 0.0366,-0.4837 c 0.0166,-0.2171 -0.0357,-0.3926 -0.1556,-0.5278 -0.1213,-0.1347 -0.443,-0.3198 -0.9665,-0.5531 -0.4935,-0.2157 -0.8319,-0.4199 -1.0166,-0.6106 -0.1833,-0.1898 -0.2601,-0.4847 -0.23,-0.8819 0.01,-0.1268 0.0523,-0.2907 0.1268,-0.4925 l 0.9258,0.0704 -0.0305,0.399 c -0.2676,0.0111 -0.4102,0.1176 -0.4255,0.3199 -0.009,0.1222 0.0403,0.2342 0.1491,0.331 0.1083,0.0981 0.3551,0.2383 0.7379,0.4254 0.3124,0.1481 0.5416,0.2731 0.6865,0.3754 0.1444,0.1023 0.2611,0.237 0.3481,0.4041 l 0.0315,0.002 c 0.168,-0.4314 0.5281,-0.7453 1.0813,-0.9439 z m 1.9706,-6.0807 -0.1935,-0.045 c 0.005,-0.1374 -0.002,-0.2411 -0.018,-0.3129 -0.0162,-0.0717 -0.0496,-0.1301 -0.0986,-0.1736 -0.0491,-0.0458 -0.1209,-0.0777 -0.2167,-0.1 -0.0884,-0.0203 -0.1875,-0.0333 -0.2958,-0.0351 -0.1083,-0.003 -0.2319,0 -0.3685,0.009 l -0.5416,0.0296 -0.4231,1.8336 0.3546,0.2232 c 0.1778,0.112 0.3153,0.1916 0.4097,0.2347 0.0949,0.0449 0.1833,0.0763 0.2643,0.0953 0.1574,0.0361 0.2819,0.0222 0.3741,-0.0412 0.0925,-0.0625 0.1689,-0.175 0.2305,-0.3351 l 0.1935,0.0449 -0.3879,1.6803 -0.1935,-0.0444 c 0.0106,-0.1514 -0.0454,-0.299 -0.1671,-0.4416 -0.1209,-0.1426 -0.3074,-0.2972 -0.5569,-0.4625 l -3.9778,-2.6464 0.1435,-0.6222 4.6976,-0.3254 c 0.219,-0.0162 0.387,-0.0352 0.5055,-0.0593 0.119,-0.0231 0.2171,-0.0629 0.2935,-0.1175 0.0759,-0.0533 0.1421,-0.1366 0.1972,-0.2486 l 0.1935,0.0449 z m -2.4738,1.0207 0.3791,-1.6457 -2.7112,0.163 z m 0.194,-11.2761 c -0.0107,0.1426 0.0185,0.2833 0.0893,0.4194 0.0708,0.1361 0.2727,0.3801 0.6069,0.731 l 1.8711,1.9706 c 0.5661,0.5971 0.9202,1.0596 1.0619,1.385 0.1426,0.3273 0.1472,0.6573 0.0157,0.9906 -0.0796,0.2023 -0.1824,0.3796 -0.3092,0.5328 l -0.9582,-0.3777 0.1597,-0.4055 c 0.2986,0.0917 0.493,0.0273 0.5814,-0.1963 0.1176,-0.2986 -0.0171,-0.6703 -0.4041,-1.1147 l -3.1571,0.1662 c -0.4934,0.0264 -0.8091,0.0574 -0.9475,0.0931 -0.1398,0.037 -0.2579,0.1162 -0.3583,0.2397 l -0.1847,-0.0731 0.6355,-1.6118 0.1847,0.0726 c -0.068,0.2505 -0.0152,0.4102 0.1579,0.4782 0.1606,0.0634 0.4347,0.0861 0.824,0.0685 l 2.2391,-0.0976 -1.4388,-1.436 c -0.3078,-0.3064 -0.5559,-0.4962 -0.7434,-0.5703 -0.2203,-0.087 -0.3861,-0.0273 -0.4953,0.1787 l -0.1847,-0.0732 0.5689,-1.4428 z m 5.498,-1.7563 c 0.1592,0.0815 0.2796,0.1371 0.3606,0.1644 0.0787,0.0268 0.1472,0.0384 0.2032,0.0361 0.0555,-0.004 0.1116,-0.0218 0.1648,-0.0565 0.0546,-0.0338 0.1236,-0.0991 0.2083,-0.1953 l 0.1768,0.0907 -0.7777,1.5179 -0.1768,-0.0908 c 0.0389,-0.1694 0.0481,-0.2897 0.0259,-0.3647 -0.0208,-0.0741 -0.0703,-0.1417 -0.1486,-0.2 -0.0777,-0.0602 -0.2064,-0.1352 -0.3828,-0.2259 l -3.1103,-1.5938 c -0.1648,-0.0843 -0.2893,-0.1403 -0.3699,-0.1676 -0.0828,-0.0268 -0.1499,-0.0365 -0.2078,-0.0305 -0.0551,0.005 -0.1069,0.0259 -0.1565,0.0578 -0.0476,0.0324 -0.1162,0.0968 -0.2032,0.1917 l -0.1768,-0.0908 0.7781,-1.5178 0.1769,0.0907 c -0.0287,0.119 -0.0403,0.2083 -0.0389,0.268 0.002,0.0602 0.0153,0.1153 0.0421,0.1625 0.025,0.0486 0.0736,0.0986 0.1468,0.1528 0.0712,0.0537 0.1911,0.1231 0.3555,0.2073 z m 0.4911,-9.3188 0.162,0.1153 c -0.0578,0.1453 -0.0838,0.255 -0.0796,0.3309 0.004,0.075 0.038,0.1486 0.1023,0.2218 0.0639,0.0722 0.1861,0.1713 0.3662,0.299 l 2.8483,2.0252 c 0.1268,0.0899 0.2249,0.1547 0.2916,0.1935 0.069,0.0389 0.1278,0.0635 0.1782,0.0755 0.0486,0.013 0.0935,0.0162 0.1333,0.0102 0.0398,-0.003 0.0838,-0.0199 0.1324,-0.0458 0.0482,-0.0269 0.1144,-0.0746 0.1968,-0.1459 l 0.162,0.1148 -0.9832,1.3832 -0.1621,-0.1148 c 0.0551,-0.1416 0.082,-0.2513 0.0797,-0.3259 -0.004,-0.0754 -0.0371,-0.1481 -0.1009,-0.2222 -0.0625,-0.0736 -0.1861,-0.1745 -0.3681,-0.3036 l -3.3676,-2.3942 -1.2402,1.7452 3.3677,2.3941 c 0.1458,0.1037 0.2578,0.1745 0.3328,0.2144 0.0746,0.0375 0.1403,0.0592 0.1958,0.0648 0.0561,0.005 0.1139,-0.006 0.1718,-0.032 0.0588,-0.0259 0.1365,-0.0805 0.2342,-0.1634 l 0.162,0.1153 -0.986,1.3869 -0.162,-0.1153 c 0.063,-0.162 0.0894,-0.2801 0.0782,-0.3574 -0.0101,-0.0763 -0.049,-0.15 -0.118,-0.2189 -0.0685,-0.0708 -0.1847,-0.1639 -0.3467,-0.2787 l -2.8483,-2.0252 c -0.1509,-0.107 -0.2662,-0.1806 -0.3421,-0.219 -0.0778,-0.0384 -0.1426,-0.0579 -0.2009,-0.0602 -0.0555,-0.002 -0.1097,0.0102 -0.1629,0.0348 -0.0524,0.0254 -0.1292,0.0791 -0.2292,0.1606 l -0.1615,-0.1153 z m 4.7874,-5.4693 0.8092,0.7712 -0.2759,0.2898 c -0.2143,-0.1148 -0.406,-0.1833 -0.5745,-0.2069 -0.1689,-0.0246 -0.3208,-0.009 -0.455,0.0463 -0.1343,0.0546 -0.2648,0.1495 -0.393,0.2842 -0.1917,0.2004 -0.2949,0.443 -0.3102,0.7268 -0.0171,0.2833 0.0667,0.599 0.2486,0.9438 0.1829,0.3458 0.4634,0.699 0.8434,1.0615 0.3819,0.3643 0.7444,0.6374 1.0842,0.8207 0.3407,0.1838 0.648,0.2694 0.9239,0.256 0.2736,-0.0134 0.512,-0.125 0.7125,-0.3356 0.1523,-0.1597 0.2536,-0.3125 0.305,-0.4583 0.0505,-0.1444 0.0602,-0.2985 0.0259,-0.4624 -0.0337,-0.1644 -0.1171,-0.369 -0.2504,-0.6166 l 0.2759,-0.2893 0.836,0.7971 c -0.1259,0.2305 -0.268,0.4532 -0.4268,0.668 -0.1588,0.2162 -0.3472,0.4379 -0.567,0.6684 -0.4718,0.4949 -0.9962,0.7092 -1.5726,0.6421 -0.5767,-0.0662 -1.1975,-0.4162 -1.8622,-1.0499 -0.4171,-0.3972 -0.7194,-0.8119 -0.9092,-1.242 -0.1875,-0.4305 -0.2453,-0.8555 -0.1736,-1.2744 0.0722,-0.4189 0.2764,-0.805 0.6152,-1.1605 0.1694,-0.1773 0.3342,-0.3328 0.4958,-0.4643 0.162,-0.1333 0.3592,-0.2708 0.5948,-0.4157 z m 6.1155,0.2486 c 0.1176,0.1352 0.2084,0.2314 0.2727,0.287 0.0634,0.0546 0.1222,0.0907 0.175,0.1097 0.0532,0.0176 0.112,0.0213 0.1745,0.009 0.063,-0.0111 0.1514,-0.0454 0.2662,-0.1033 l 0.13,0.15 -1.2892,1.117 -0.13,-0.15 c 0.0995,-0.1425 0.1532,-0.2509 0.1601,-0.3291 0.009,-0.0764 -0.012,-0.1574 -0.0625,-0.2407 -0.05,-0.0847 -0.1407,-0.2028 -0.2708,-0.3527 l -2.2881,-2.6419 c -0.1213,-0.1393 -0.2157,-0.2384 -0.2806,-0.2935 -0.0662,-0.056 -0.1249,-0.0902 -0.181,-0.106 -0.0532,-0.0157 -0.1092,-0.0162 -0.1666,-0.005 -0.0565,0.0125 -0.144,0.0463 -0.2602,0.1019 l -0.13,-0.15 1.2892,-1.117 0.13,0.15 c -0.0712,0.0995 -0.1152,0.1787 -0.136,0.2347 -0.0209,0.0564 -0.0287,0.112 -0.0218,0.1662 0.005,0.0546 0.0315,0.1189 0.0787,0.1962 0.0463,0.0769 0.1315,0.1857 0.2523,0.3255 z m 2.9673,-1.4049 -0.6555,-0.9217 0.3194,-0.2273 c 0.3292,0.2347 0.6083,0.3592 0.8374,0.3727 0.2306,0.0138 0.4722,-0.0699 0.7259,-0.2505 0.2898,-0.206 0.4569,-0.4518 0.5008,-0.7351 0.0449,-0.2837 -0.0449,-0.5842 -0.2675,-0.8976 -0.1815,-0.255 -0.3703,-0.4166 -0.5666,-0.4851 -0.1958,-0.069 -0.3815,-0.0722 -0.5564,-0.012 -0.1741,0.0597 -0.3805,0.174 -0.6176,0.3425 l -0.5272,0.3745 -0.2787,-0.3916 0.5337,-0.3796 c 0.3463,-0.2463 0.5426,-0.5027 0.5875,-0.768 0.0467,-0.2652 -0.0431,-0.5559 -0.2676,-0.8716 -0.1768,-0.2486 -0.3898,-0.3884 -0.6402,-0.4199 -0.2495,-0.0319 -0.4934,0.0361 -0.7309,0.2051 -0.2435,0.1731 -0.399,0.3685 -0.4685,0.5851 -0.0685,0.218 -0.0546,0.5106 0.0417,0.8768 l -0.3204,0.2277 -0.6152,-0.8652 c 0.4217,-0.4944 0.843,-0.8915 1.2642,-1.191 0.9073,-0.6449 1.605,-0.6217 2.0947,0.0671 0.3666,0.5157 0.3435,1.0938 -0.0727,1.7364 l 0.0324,0.0463 c 0.7699,-0.2732 1.3564,-0.1264 1.7591,0.4397 0.2884,0.4055 0.375,0.8175 0.2574,1.2355 -0.1162,0.4199 -0.4449,0.8208 -0.9851,1.205 -0.4018,0.2856 -0.8633,0.5189 -1.3841,0.7018 z m 9.7711,-3.9181 c -0.1472,-0.2389 -0.3175,-0.4569 -0.5087,-0.6518 -0.1935,-0.1953 -0.3546,-0.3046 -0.4856,-0.3305 -0.1306,-0.025 -0.2759,0.003 -0.4328,0.0838 l -2.1493,1.1017 c -0.2458,0.1254 -0.3667,0.3254 -0.3643,0.6013 0.002,0.2764 0.0953,0.6333 0.2768,1.0726 l -0.3666,0.1879 -0.831,-1.6216 0.3532,-0.1809 c 0.1412,-0.674 0.1361,-1.4582 -0.0166,-2.3512 -0.1523,-0.8934 -0.3819,-1.6401 -0.6888,-2.2391 -0.0838,-0.1629 -0.1658,-0.2666 -0.2509,-0.3115 -0.0834,-0.0454 -0.2014,-0.0389 -0.3528,0.019 l -0.0907,-0.1769 2.9436,-1.5086 0.0908,0.1768 c -0.144,0.1246 -0.2296,0.2352 -0.2546,0.3287 -0.0255,0.0954 0.0412,0.2991 0.2023,0.6134 l 1.8826,3.6736 0.5782,-0.2962 0.8309,1.622 z m -3.8982,-5.4276 -1.0096,0.5175 c 0.7972,1.915 1.1082,3.5477 0.9347,4.898 l 2.2576,-1.1568 z m 6.7771,1.7016 c 0.0574,0.1699 0.105,0.2935 0.1439,0.3694 0.038,0.0741 0.0787,0.1301 0.1208,0.1671 0.0426,0.0366 0.0949,0.0621 0.1574,0.075 0.063,0.0134 0.1579,0.0148 0.2856,0.005 l 0.0639,0.1885 -1.616,0.5466 -0.0634,-0.1879 c 0.1458,-0.0944 0.2365,-0.1745 0.2726,-0.2439 0.0366,-0.0676 0.0487,-0.1505 0.0329,-0.2468 -0.0139,-0.0972 -0.0537,-0.2407 -0.1171,-0.4286 l -1.1207,-3.3108 c -0.0593,-0.175 -0.1097,-0.3023 -0.1486,-0.3777 -0.0403,-0.0768 -0.0815,-0.1305 -0.1273,-0.1667 -0.0435,-0.0347 -0.0949,-0.0564 -0.1528,-0.0675 -0.0569,-0.0102 -0.1509,-0.0116 -0.2791,-0.004 l -0.0639,-0.1879 1.6156,-0.5472 0.0639,0.1884 c -0.1037,0.0653 -0.1746,0.1213 -0.2148,0.1653 -0.0408,0.0449 -0.069,0.0935 -0.0829,0.1458 -0.0162,0.0527 -0.0157,0.1222 -10e-4,0.2115 0.0139,0.0889 0.0514,0.2218 0.1107,0.3967 z m 6.6612,-0.8406 -0.0449,-0.1935 c -0.1685,-0.2398 -0.312,-0.4514 -0.4319,-0.6333 l -0.4777,-0.7277 c -0.162,-0.2439 -0.2967,-0.4161 -0.4064,-0.5157 -0.1074,-0.0986 -0.2231,-0.1638 -0.3444,-0.1935 -0.1213,-0.0301 -0.2759,-0.0245 -0.4625,0.0186 l -0.4795,0.1106 0.3754,1.6271 c 0.0722,0.3143 0.1458,0.5055 0.2217,0.574 0.075,0.0676 0.2134,0.1037 0.4162,0.1065 l 0.0449,0.1935 -1.6623,0.3833 -0.0445,-0.1935 c 0.169,-0.0829 0.2782,-0.1671 0.3278,-0.2537 0.0495,-0.0852 0.0342,-0.2995 -0.044,-0.6393 l -0.7856,-3.4056 c -0.0801,-0.3467 -0.162,-0.5472 -0.2467,-0.6022 -0.0843,-0.0542 -0.2185,-0.0829 -0.4014,-0.0843 l -0.0449,-0.1935 1.6624,-0.3833 0.0444,0.1935 c -0.1662,0.0847 -0.2722,0.1699 -0.3199,0.2574 -0.0477,0.0875 -0.0324,0.3004 0.0463,0.6416 l 0.3324,1.4415 0.4726,-0.1093 c 0.2125,-0.049 0.3643,-0.1513 0.4574,-0.3059 0.0926,-0.156 0.1736,-0.5185 0.2402,-1.0874 0.0588,-0.5356 0.1528,-0.9194 0.2801,-1.1522 0.1268,-0.2319 0.3851,-0.393 0.7735,-0.4828 0.1236,-0.0283 0.2926,-0.0366 0.5074,-0.025 l 0.2087,0.904 -0.3897,0.0899 c -0.0903,-0.2523 -0.2347,-0.356 -0.4324,-0.3107 -0.1194,0.0278 -0.2115,0.1084 -0.2713,0.2408 -0.0615,0.1328 -0.1217,0.4101 -0.1865,0.8313 -0.0482,0.3421 -0.0991,0.5986 -0.1537,0.7671 -0.0546,0.1685 -0.1481,0.3199 -0.2819,0.4527 l 0.007,0.031 c 0.462,0.0315 0.8689,0.2819 1.223,0.7509 l 0.5379,0.7175 c 0.2,0.2652 0.3681,0.4471 0.5037,0.5448 0.1356,0.0972 0.3138,0.1343 0.5346,0.1097 l 0.0445,0.1935 z m 10.6729,-0.8092 -0.005,-0.1981 c -0.1166,-0.269 -0.2152,-0.5051 -0.2962,-0.7074 l -0.3227,-0.8082 c -0.1102,-0.2717 -0.2078,-0.4675 -0.2949,-0.5865 -0.0856,-0.118 -0.1861,-0.2051 -0.299,-0.2588 -0.113,-0.0532 -0.2653,-0.0787 -0.4569,-0.074 l -0.4921,0.0125 0.0426,1.6692 c 0.008,0.3227 0.0417,0.5245 0.1023,0.6069 0.0602,0.0815 0.1884,0.1444 0.387,0.1875 l 0.005,0.1986 -1.7049,0.043 -0.005,-0.1986 c 0.182,-0.0472 0.306,-0.1078 0.3718,-0.1828 0.0657,-0.0736 0.0935,-0.2866 0.0847,-0.6351 l -0.0884,-3.4941 c -0.009,-0.356 -0.0491,-0.568 -0.1213,-0.6397 -0.0718,-0.0699 -0.1972,-0.1246 -0.3768,-0.1625 l -0.005,-0.1986 1.7049,-0.0431 0.005,0.1982 c -0.1796,0.05 -0.3009,0.1125 -0.3652,0.1888 -0.0644,0.076 -0.0917,0.2875 -0.0829,0.6379 l 0.0375,1.4786 0.4852,-0.0125 c 0.218,-0.006 0.387,-0.0755 0.5092,-0.2083 0.1222,-0.1343 0.2735,-0.4731 0.4527,-1.0175 0.1648,-0.5129 0.3337,-0.8698 0.505,-1.073 0.1704,-0.2014 0.4555,-0.3079 0.8541,-0.3181 0.1268,-0.003 0.2944,0.0227 0.5027,0.0764 l 0.0236,0.9282 -0.3999,0.0101 c -0.0385,-0.2652 -0.1588,-0.3962 -0.3616,-0.3911 -0.1226,0.003 -0.2291,0.0639 -0.3138,0.1819 -0.087,0.1176 -0.2018,0.3773 -0.3491,0.7768 -0.1157,0.3259 -0.2171,0.567 -0.3036,0.7207 -0.0875,0.1542 -0.2097,0.2842 -0.3676,0.3875 l 0.001,0.0319 c 0.4462,0.1231 0.7948,0.45 1.0484,0.98 l 0.3833,0.811 c 0.1431,0.2995 0.2713,0.5115 0.3842,0.6342 0.1135,0.1227 0.281,0.1944 0.5018,0.2148 l 0.005,0.1981 z m 5.7318,0.4115 c -0.3199,-0.0407 -0.606,-0.1314 -0.855,-0.2703 -0.2505,-0.1384 -0.4555,-0.331 -0.6148,-0.5782 -0.1601,-0.2467 -0.2689,-0.5513 -0.3286,-0.9115 -0.0584,-0.3606 -0.057,-0.7814 0.005,-1.2656 0.0754,-0.5948 0.231,-1.0952 0.4671,-1.4998 0.236,-0.4036 0.5374,-0.6962 0.9036,-0.8763 0.3661,-0.18 0.7712,-0.2425 1.2188,-0.1856 0.475,0.0602 0.8619,0.2162 1.1596,0.4666 0.2977,0.2504 0.5032,0.5902 0.6157,1.0189 0.112,0.4286 0.1314,0.9341 0.0574,1.5192 -0.0796,0.6254 -0.2398,1.1416 -0.4815,1.5471 -0.2407,0.4074 -0.5457,0.6948 -0.9133,0.8652 -0.368,0.1717 -0.7795,0.2277 -1.2336,0.1703 z m -0.9546,-3.033 c -0.1041,0.8203 -0.0629,1.4596 0.1209,1.9169 0.1851,0.4583 0.5078,0.7162 0.9661,0.7745 0.2911,0.037 0.5508,-0.025 0.7767,-0.1852 0.2273,-0.1587 0.4139,-0.412 0.5601,-0.7573 0.1482,-0.3435 0.2523,-0.7559 0.313,-1.2346 0.074,-0.5828 0.075,-1.073 0.005,-1.4711 -0.0708,-0.3981 -0.1963,-0.6976 -0.381,-0.8976 -0.1833,-0.1995 -0.4115,-0.3162 -0.6832,-0.3509 -0.2412,-0.0305 -0.4546,-9e-4 -0.6416,0.0894 -0.1866,0.0907 -0.3491,0.2324 -0.4889,0.4245 -0.1393,0.1925 -0.255,0.4319 -0.3439,0.7193 -0.0893,0.2875 -0.1569,0.6111 -0.2028,0.9721 z m 10.2031,3.9463 c -0.0426,0.1496 -0.0709,0.2639 -0.0838,0.3398 -0.0135,0.0783 -0.0185,0.1412 -0.013,0.1926 0.006,0.0509 0.0162,0.094 0.0347,0.1296 0.0172,0.0361 0.0472,0.0718 0.088,0.1088 0.0412,0.0366 0.1097,0.0833 0.2032,0.137 l -0.0542,0.1907 -1.6285,-0.4624 0.0542,-0.1907 c 0.1537,0.005 0.2643,-0.007 0.3337,-0.0343 0.0699,-0.0287 0.1287,-0.0838 0.1755,-0.1699 0.0486,-0.0833 0.1023,-0.2328 0.1634,-0.4476 l 0.4624,-1.629 -2.1604,-0.6133 -0.4629,1.6289 c -0.0486,0.1722 -0.0782,0.3014 -0.0907,0.3856 -0.0102,0.0824 -0.009,0.1519 0.005,0.206 0.0144,0.0542 0.0435,0.1056 0.0875,0.1509 0.044,0.0468 0.1218,0.1023 0.2324,0.1662 l -0.0542,0.1912 -1.6368,-0.4648 0.0541,-0.1911 c 0.1736,0.005 0.294,-0.009 0.363,-0.0459 0.0685,-0.0351 0.1249,-0.0967 0.1671,-0.1847 0.0435,-0.0879 0.0921,-0.2286 0.1467,-0.4198 l 0.9545,-3.3621 c 0.0505,-0.1778 0.081,-0.3111 0.0922,-0.3954 0.01,-0.0861 0.006,-0.1541 -0.0112,-0.2097 -0.0162,-0.0532 -0.0458,-0.1 -0.087,-0.1421 -0.0412,-0.0407 -0.118,-0.0949 -0.2277,-0.162 l 0.0541,-0.1907 1.6369,0.4647 -0.0542,0.1912 c -0.1222,-0.005 -0.2125,10e-4 -0.2708,0.0144 -0.0588,0.0134 -0.1083,0.0379 -0.1509,0.0731 -0.0417,0.0343 -0.0824,0.0917 -0.1213,0.1736 -0.0389,0.0806 -0.0828,0.2116 -0.1333,0.3893 l -0.3912,1.3762 2.1609,0.6139 0.3907,-1.3767 c 0.0644,-0.2259 0.0972,-0.3824 0.0977,-0.4713 0.003,-0.0893 -0.0167,-0.1634 -0.0556,-0.2222 -0.0393,-0.0583 -0.1305,-0.13 -0.2717,-0.2143 l 0.0542,-0.1912 1.6285,0.4625 -0.0542,0.1912 c -0.156,-0.006 -0.268,0.006 -0.3384,0.0356 -0.0699,0.0287 -0.1273,0.0856 -0.1745,0.1708 -0.0453,0.0847 -0.099,0.2329 -0.1592,0.4453 z m 8.3161,-1.3507 -0.4606,1.0184 -0.3643,-0.1648 c 0.0375,-0.2398 0.0385,-0.4435 0.005,-0.6101 -0.0328,-0.1681 -0.0981,-0.306 -0.1944,-0.4143 -0.0954,-0.1084 -0.2282,-0.2005 -0.3976,-0.2773 -0.2528,-0.1139 -0.5157,-0.1315 -0.7888,-0.0519 -0.2731,0.0778 -0.5435,0.2607 -0.8087,0.5467 -0.2657,0.287 -0.506,0.6685 -0.7226,1.1471 -0.2171,0.481 -0.3556,0.9133 -0.4157,1.2943 -0.0607,0.3828 -0.0398,0.7009 0.0638,0.9569 0.1033,0.2536 0.2875,0.4416 0.5523,0.5615 0.2014,0.0907 0.3791,0.1361 0.5333,0.1361 0.1532,-5e-4 0.3018,-0.0417 0.4453,-0.1283 0.1435,-0.0865 0.3092,-0.2328 0.4985,-0.4407 l 0.3648,0.1648 -0.4759,1.0527 c -0.2592,-0.0426 -0.5161,-0.1032 -0.7712,-0.1819 -0.2569,-0.0783 -0.5286,-0.1829 -0.8188,-0.3139 -0.6231,-0.2814 -0.999,-0.7055 -1.1258,-1.2716 -0.1283,-0.5661 -0.004,-1.2679 0.3744,-2.1048 0.2375,-0.525 0.5282,-0.9476 0.8717,-1.2689 0.344,-0.3194 0.7259,-0.5147 1.1452,-0.5851 0.4194,-0.0708 0.8509,-0.006 1.2985,0.1967 0.2236,0.1009 0.4245,0.2051 0.6023,0.3144 0.1796,0.1087 0.3745,0.2495 0.5892,0.424 z m 1.8809,7.3112 c -0.2713,-0.1741 -0.4912,-0.3787 -0.6565,-0.6111 -0.1666,-0.2328 -0.2689,-0.4948 -0.3064,-0.786 -0.0389,-0.2916 -0.007,-0.6133 0.0944,-0.9647 0.1023,-0.3504 0.2843,-0.73 0.5477,-1.1406 0.324,-0.505 0.679,-0.8897 1.066,-1.154 0.3866,-0.263 0.7842,-0.3981 1.1925,-0.4032 0.4078,-0.006 0.8008,0.1125 1.1804,0.3555 0.4027,0.2583 0.6851,0.5657 0.8467,0.9198 0.1611,0.3537 0.2009,0.749 0.1185,1.1846 -0.0829,0.4351 -0.2824,0.8999 -0.6009,1.3966 -0.3402,0.5305 -0.7064,0.9277 -1.0994,1.1901 -0.3921,0.2648 -0.7911,0.3935 -1.1957,0.3893 -0.4064,-0.003 -0.8022,-0.1291 -1.1873,-0.3763 z m 0.4402,-3.1492 c -0.4463,0.6967 -0.6837,1.2911 -0.7138,1.7831 -0.0297,0.4935 0.1509,0.8652 0.5397,1.1147 0.2472,0.1583 0.5083,0.2139 0.781,0.1662 0.2735,-0.0458 0.5504,-0.1939 0.8313,-0.443 0.281,-0.2472 0.5523,-0.5749 0.8125,-0.9809 0.317,-0.4944 0.5286,-0.9369 0.636,-1.3262 0.1074,-0.3903 0.1222,-0.7148 0.0412,-0.9745 -0.0796,-0.2592 -0.2356,-0.4624 -0.4662,-0.6105 -0.2046,-0.1311 -0.4101,-0.1959 -0.6175,-0.1945 -0.2074,10e-4 -0.4152,0.0597 -0.624,0.1736 -0.2088,0.1134 -0.4157,0.2805 -0.6198,0.5014 -0.2037,0.2212 -0.4037,0.4846 -0.6004,0.7906 z m 5.3082,6.0739 c -0.1042,0.1198 -0.181,0.2212 -0.2287,0.3036 -0.0491,0.0838 -0.0773,0.157 -0.0861,0.2231 -0.009,0.0653 9e-4,0.1301 0.0268,0.1949 0.0274,0.0635 0.0806,0.1496 0.1611,0.2579 l -0.13,0.15 -1.3406,-1.1619 0.13,-0.15 c 0.1551,0.0782 0.2699,0.1157 0.3482,0.112 0.0768,-0.003 0.1541,-0.0343 0.2291,-0.0968 0.0773,-0.0611 0.181,-0.168 0.3111,-0.318 l 2.2881,-2.6413 c 0.1213,-0.1398 0.2056,-0.2477 0.2509,-0.3195 0.0459,-0.0736 0.0713,-0.1365 0.0792,-0.1944 0.008,-0.0551 5e-4,-0.1101 -0.019,-0.1657 -0.0199,-0.0542 -0.0662,-0.1356 -0.1375,-0.243 l 0.1301,-0.15 1.5151,1.3128 c 0.4759,0.4125 0.7518,0.8101 0.8272,1.1948 0.0746,0.3833 -0.049,0.7615 -0.3717,1.1336 -0.1838,0.2125 -0.3847,0.3704 -0.6036,0.4764 -0.2204,0.1046 -0.4435,0.1537 -0.6717,0.1458 -0.2278,-0.009 -0.4537,-0.0685 -0.6768,-0.1815 -0.224,-0.112 -0.4374,-0.2546 -0.6388,-0.4291 -0.2259,-0.1958 -0.3976,-0.3518 -0.5143,-0.4675 z m 1.0975,-1.267 0.3546,0.3069 c 0.2301,0.1995 0.4458,0.3337 0.6467,0.4032 0.2018,0.0699 0.4032,0.0689 0.6036,-0.002 0.1991,-0.0703 0.3995,-0.2212 0.5981,-0.4504 0.1514,-0.175 0.2551,-0.3407 0.3106,-0.499 0.0537,-0.1574 0.0704,-0.3069 0.0505,-0.4504 -0.0208,-0.1426 -0.0768,-0.2782 -0.1639,-0.4069 -0.0884,-0.1273 -0.1995,-0.2495 -0.3337,-0.3657 -0.2023,-0.1755 -0.3574,-0.3018 -0.4666,-0.3824 z m 3.8413,9.7229 c 0.2046,-0.2078 0.3768,-0.4281 0.5175,-0.6615 0.1398,-0.2323 0.2074,-0.4129 0.2014,-0.543 -0.007,-0.1282 -0.0685,-0.2596 -0.1829,-0.392 l -2.2664,-2.6173 0.15,-0.1296 c 0.1731,0.118 0.3106,0.1689 0.4115,0.1522 0.1014,-0.0166 0.269,-0.1268 0.5023,-0.3291 l 2.6423,-2.2877 c 0.2458,-0.2129 0.3823,-0.3698 0.4101,-0.4703 0.0264,-0.0995 -0.006,-0.2379 -0.0986,-0.4143 l 0.15,-0.1301 1.1114,1.2832 -0.1504,0.1301 c -0.1528,-0.1074 -0.2778,-0.1611 -0.3773,-0.1625 -0.0995,-10e-4 -0.2805,0.112 -0.5453,0.3412 l -3.1205,2.702 1.3726,1.5854 3.1204,-2.702 c 0.2546,-0.2203 0.3912,-0.3809 0.4106,-0.4819 0.0195,-0.1004 -0.0157,-0.2379 -0.1041,-0.4092 l 0.15,-0.13 1.1105,1.2822 -0.1505,0.1301 c -0.1467,-0.1046 -0.2698,-0.1588 -0.3675,-0.1616 -0.0995,-0.003 -0.2833,0.1107 -0.5527,0.3435 l -3.12,2.702 0.4231,0.4889 -1.3777,1.1929 z m 4.4888,4.0968 0.1671,-0.1074 c 0.1565,0.1444 0.2856,0.2153 0.3879,0.2134 0.1028,-0.002 0.2843,-0.087 0.544,-0.2537 l 1.4628,-0.9378 c 0.4781,-0.3065 0.7883,-0.499 0.9304,-0.5768 l -0.009,-0.0144 -3.625,-0.4059 c -0.2713,0.1745 -0.4264,0.3083 -0.4657,0.4022 -0.0384,0.0935 -0.025,0.237 0.0402,0.4278 l -0.1671,0.1074 -0.9119,-1.4221 0.1671,-0.1069 c 0.1579,0.1462 0.2875,0.2185 0.3907,0.218 0.1037,-10e-4 0.2861,-0.0852 0.5458,-0.2518 l 2.9422,-1.8864 c 0.2995,-0.1921 0.4606,-0.3365 0.4838,-0.4356 0.0227,-0.0972 0.005,-0.2328 -0.0556,-0.406 l 0.1671,-0.1074 0.9115,1.4221 -0.1671,0.1074 c -0.1356,-0.1278 -0.2514,-0.199 -0.35,-0.2143 -0.0986,-0.0158 -0.2939,0.0699 -0.5888,0.2592 l -1.4961,0.9592 c -0.3352,0.2152 -0.6226,0.3897 -0.8596,0.524 l 0.0125,0.0194 3.6246,0.406 c 0.2402,-0.1542 0.3819,-0.2778 0.424,-0.3703 0.0435,-0.0931 0.0324,-0.2384 -0.032,-0.438 l 0.1672,-0.1074 0.9073,1.4152 -0.1672,0.1069 c -0.1356,-0.1273 -0.2518,-0.1986 -0.3504,-0.2143 -0.0981,-0.0153 -0.2935,0.0703 -0.5888,0.2597 l -2.9418,1.8863 c -0.2717,0.1741 -0.4268,0.3083 -0.4657,0.4023 -0.0389,0.093 -0.0254,0.237 0.0398,0.4277 l -0.1671,0.1074 z m 8.8485,5.7632 c -0.0948,-0.1064 -0.2161,-0.1833 -0.3633,-0.2277 -0.1468,-0.044 -0.4625,-0.0695 -0.9472,-0.0736 l -2.7172,-0.0301 c -0.8226,-0.01 -1.4013,-0.0778 -1.7332,-0.2028 -0.3342,-0.1259 -0.5744,-0.3522 -0.7221,-0.6786 -0.0894,-0.1981 -0.1454,-0.3958 -0.1667,-0.5934 l 0.9388,-0.4241 0.1792,0.3967 c -0.2736,0.151 -0.363,0.3352 -0.2639,0.5537 0.1324,0.293 0.493,0.455 1.0814,0.487 l 2.0794,-2.3808 c 0.3249,-0.3726 0.5226,-0.6207 0.5934,-0.7453 0.0708,-0.1259 0.0963,-0.2657 0.0778,-0.4235 l 0.181,-0.082 0.7138,1.579 -0.181,0.082 c -0.1324,-0.2232 -0.2833,-0.2968 -0.4532,-0.2199 -0.1569,0.0708 -0.3643,0.2518 -0.6226,0.543 l -1.4901,1.6752 2.0331,-0.0324 c 0.4342,-0.007 0.7429,-0.0527 0.9267,-0.1361 0.2157,-0.0976 0.2884,-0.2578 0.2167,-0.4795 l 0.181,-0.082 0.6392,1.4138 z m 2.5067,8.4824 c -0.0597,-0.106 -0.1125,-0.1801 -0.1546,-0.2226 -0.0421,-0.0422 -0.0893,-0.0723 -0.1417,-0.0903 -0.0509,-0.0171 -0.1208,-0.0213 -0.211,-0.0116 -0.0889,0.0107 -0.2241,0.0403 -0.4014,0.0907 l -3.3621,0.9546 c -0.1727,0.049 -0.2981,0.0921 -0.3759,0.1259 -0.0759,0.0342 -0.1342,0.0717 -0.1731,0.112 -0.0384,0.0407 -0.0667,0.0921 -0.0824,0.1537 -0.0167,0.062 -0.0227,0.1569 -0.0195,0.2851 l -0.1907,0.0542 -0.4601,-1.6211 0.1907,-0.0542 c 0.0778,0.1389 0.1481,0.2292 0.2106,0.2727 0.0625,0.044 0.1426,0.0629 0.2398,0.0583 0.0963,-0.006 0.2495,-0.0375 0.4588,-0.0972 l 1.4882,-0.4226 c 0.3907,-0.1111 0.7897,-0.2167 1.1929,-0.3204 0.4028,-0.1014 0.681,-0.1657 0.8328,-0.1916 l -0.019,-0.0662 -4.287,-0.4453 -0.1268,-0.4472 3.5065,-2.5405 -0.0189,-0.0662 c -0.1537,0.0579 -0.437,0.151 -0.8476,0.2806 -0.4116,0.1296 -0.8356,0.256 -1.2735,0.3805 l -1.423,0.4036 c -0.1722,0.0491 -0.2981,0.0922 -0.3754,0.1269 -0.0764,0.0328 -0.1343,0.0713 -0.1731,0.1125 -0.0389,0.0393 -0.0672,0.0902 -0.0829,0.1523 -0.0167,0.062 -0.0231,0.1569 -0.0194,0.2846 l -0.1908,0.0542 -0.4027,-1.4174 0.1912,-0.0542 c 0.0866,0.1486 0.162,0.243 0.2296,0.2829 0.0657,0.0398 0.1477,0.0555 0.2449,0.0467 0.0976,-0.0106 0.243,-0.0421 0.4342,-0.0963 l 3.3621,-0.9545 c 0.1778,-0.0505 0.3074,-0.0944 0.3842,-0.131 0.0787,-0.0361 0.1347,-0.075 0.1731,-0.1176 0.0366,-0.0435 0.0607,-0.093 0.075,-0.1504 0.0125,-0.0565 0.0195,-0.1486 0.0186,-0.2773 l 0.1907,-0.0542 0.3939,1.3874 -3.394,2.4367 4.2069,0.4264 0.3731,1.3133 z m -4.356,8.5884 0.1981,-0.0148 c 0.0556,0.1717 0.1213,0.2898 0.1968,0.3546 0.074,0.0643 0.2898,0.0828 0.643,0.056 l 3.4848,-0.2648 c 0.3356,-0.0255 0.5411,-0.0731 0.617,-0.1426 0.075,-0.0694 0.1287,-0.1995 0.1597,-0.3911 l 0.1981,-0.0149 0.1287,1.6966 -0.1981,0.0153 c -0.0717,-0.2009 -0.1532,-0.3245 -0.2435,-0.3731 -0.0926,-0.0482 -0.2939,-0.0607 -0.6045,-0.0371 l -3.4848,0.2648 c -0.3407,0.026 -0.5458,0.075 -0.6166,0.1463 -0.0695,0.0704 -0.1204,0.2 -0.1519,0.3865 l -0.1981,0.0153 z m -0.3277,-4.3139 0.1981,-0.0152 c 0.056,0.1796 0.1236,0.3004 0.2014,0.3624 0.0768,0.062 0.2911,0.0792 0.6388,0.0528 l 3.4848,-0.2653 c 0.355,-0.0268 0.5652,-0.0777 0.6328,-0.1532 0.0662,-0.075 0.1143,-0.2032 0.1435,-0.3842 l 0.1981,-0.0148 0.1292,1.7007 -0.1982,0.0148 c -0.0694,-0.2074 -0.1527,-0.3356 -0.2513,-0.3805 -0.0977,-0.0449 -0.2972,-0.056 -0.5972,-0.0333 l -1.3771,0.1046 c 0.0597,0.374 0.1013,0.7018 0.1226,0.9832 0.0889,1.1689 -0.3754,1.7901 -1.3929,1.8674 -1.0873,0.0829 -1.6808,-0.5222 -1.7789,-1.8174 z m 2.8399,1.0161 -2.3687,0.1801 c -9e-4,0.1898 0.007,0.4064 0.0255,0.6508 0.0366,0.4824 0.1648,0.8185 0.3823,1.0055 0.2172,0.1875 0.5361,0.2662 0.9509,0.2347 0.7948,-0.0607 1.1628,-0.4953 1.1012,-1.3036 -0.0259,-0.3384 -0.0564,-0.5944 -0.0912,-0.7675 z" />
        <path
           inkscape:connector-curvature="0"
           id="path87"
           style="fill:#ffec00;fill-rule:evenodd;stroke:#ffec00;stroke-width:0.21600001;stroke-linecap:butt;stroke-linejoin:miter;stroke-dasharray:none"
           d="m 246.0487,456.028 0.1884,-0.0537 c 0.2277,-0.1782 0.4291,-0.331 0.6022,-0.4583 l 0.693,-0.5083 c 0.2324,-0.1722 0.3958,-0.3138 0.4879,-0.4263 0.0912,-0.1111 0.1495,-0.2282 0.1731,-0.35 0.0236,-0.1212 0.01,-0.2726 -0.0426,-0.4545 l -0.1333,-0.4671 -1.5845,0.4527 c -0.306,0.088 -0.4907,0.1699 -0.5546,0.2477 -0.0629,0.0773 -0.0912,0.2161 -0.0838,0.4161 l -0.1884,0.0537 -0.4624,-1.6183 0.1884,-0.0537 c 0.0903,0.1625 0.1791,0.2652 0.2671,0.3097 0.0865,0.0444 0.2967,0.0185 0.6277,-0.0759 l 3.3172,-0.9481 c 0.3375,-0.0967 0.531,-0.1875 0.5814,-0.274 0.0486,-0.0857 0.0699,-0.2194 0.0625,-0.4 l 0.188,-0.0537 0.4629,1.6184 -0.1884,0.0537 c -0.0922,-0.1588 -0.1815,-0.2588 -0.2704,-0.3019 -0.0889,-0.0426 -0.2976,-0.0166 -0.63,0.0783 l -1.404,0.4013 0.1315,0.4606 c 0.0592,0.2069 0.1685,0.3514 0.3254,0.4347 0.1583,0.0838 0.5194,0.1449 1.0837,0.1814 0.5309,0.0306 0.9142,0.1042 1.1508,0.2176 0.2342,0.1125 0.4069,0.3592 0.5147,0.7374 0.0347,0.1204 0.0509,0.287 0.0505,0.4995 l -0.88,0.2518 -0.1088,-0.3796 c 0.2439,-0.1023 0.3393,-0.2495 0.2842,-0.4425 -0.0333,-0.1162 -0.1176,-0.2028 -0.2513,-0.2551 -0.1343,-0.0532 -0.4106,-0.099 -0.8287,-0.1412 -0.3397,-0.0296 -0.5957,-0.0675 -0.7638,-0.1124 -0.1689,-0.0454 -0.3231,-0.1297 -0.461,-0.2546 l -0.0296,0.008 c -0.009,0.4573 -0.2343,0.8712 -0.6777,1.2438 l -0.6805,0.5666 c -0.2509,0.2107 -0.4222,0.3856 -0.5115,0.5241 -0.0889,0.1388 -0.1162,0.3166 -0.081,0.5332 l -0.1884,0.0537 z m 1.7234,5.1508 c -0.1162,-0.2967 -0.1731,-0.587 -0.1704,-0.8689 0.002,-0.2824 0.0722,-0.5513 0.2107,-0.8054 0.1379,-0.256 0.3504,-0.494 0.6346,-0.7166 0.2847,-0.2204 0.6504,-0.4176 1.099,-0.5935 0.5517,-0.2157 1.0582,-0.3175 1.5206,-0.3041 0.4611,0.0139 0.8573,0.137 1.186,0.3689 0.3291,0.2324 0.5754,0.5541 0.7374,0.9684 0.1722,0.4398 0.2194,0.849 0.1431,1.2254 -0.076,0.3763 -0.2741,0.7152 -0.5921,1.0151 -0.318,0.3 -0.7471,0.555 -1.2892,0.7675 -0.5796,0.2268 -1.1027,0.3319 -1.5684,0.3139 -0.4666,-0.0158 -0.86,-0.144 -1.1808,-0.3824 -0.3227,-0.2375 -0.5657,-0.5675 -0.7305,-0.9883 z m 2.1771,-2.2604 c -0.7606,0.2972 -1.2953,0.6347 -1.604,1.0101 -0.3097,0.3768 -0.3805,0.7791 -0.2144,1.2035 0.1056,0.2699 0.2815,0.4653 0.5273,0.5856 0.2449,0.1218 0.5522,0.1639 0.9207,0.1278 0.368,-0.0343 0.774,-0.1393 1.2179,-0.3129 0.5398,-0.2116 0.9652,-0.4421 1.2768,-0.6912 0.312,-0.249 0.5119,-0.4994 0.5985,-0.754 0.0861,-0.2533 0.0792,-0.5065 -0.0194,-0.7588 -0.0875,-0.2226 -0.2139,-0.3939 -0.3806,-0.5124 -0.1666,-0.1194 -0.3666,-0.193 -0.5985,-0.2236 -0.2328,-0.0305 -0.4949,-0.0166 -0.786,0.0417 -0.2912,0.0588 -0.6037,0.1532 -0.9383,0.2842 z m 2.7182,9.6207 c -0.1338,0.0764 -0.232,0.1375 -0.294,0.1824 -0.0634,0.0453 -0.1106,0.0865 -0.1426,0.1268 -0.0305,0.0393 -0.0527,0.0773 -0.0643,0.1153 -0.013,0.037 -0.0167,0.0828 -0.0134,0.1374 0.004,0.0542 0.0199,0.1343 0.049,0.2371 l -0.1698,0.0972 -0.8296,-1.4508 0.1699,-0.0972 c 0.1051,0.1092 0.1912,0.1778 0.2592,0.206 0.069,0.0278 0.1486,0.0296 0.2412,0.002 0.0917,-0.0254 0.2329,-0.0939 0.424,-0.2036 l 1.4508,-0.8291 -1.1003,-1.9248 -1.4508,0.8295 c -0.1537,0.088 -0.2634,0.1588 -0.3305,0.2093 -0.0644,0.0514 -0.1111,0.1014 -0.1389,0.1486 -0.0273,0.0481 -0.0421,0.1041 -0.0426,0.1671 -0.001,0.0634 0.0153,0.1555 0.0486,0.2773 l -0.1699,0.0972 -0.8332,-1.4573 0.1699,-0.0972 c 0.119,0.1227 0.2138,0.1954 0.2875,0.2176 0.0731,0.0231 0.155,0.018 0.2453,-0.0148 0.0917,-0.032 0.2236,-0.0977 0.3935,-0.1949 l 2.9945,-1.7123 c 0.1584,-0.0907 0.2722,-0.1634 0.3384,-0.2153 0.0667,-0.0537 0.1111,-0.1046 0.137,-0.155 0.025,-0.0491 0.0366,-0.1028 0.0366,-0.1607 -0.001,-0.0574 -0.0171,-0.1486 -0.0486,-0.2717 l 0.1699,-0.0972 0.8337,1.4577 -0.1703,0.0972 c -0.0829,-0.087 -0.1505,-0.1458 -0.201,-0.1764 -0.0504,-0.0305 -0.1027,-0.0476 -0.1573,-0.0527 -0.0524,-0.005 -0.1209,0.008 -0.2046,0.0389 -0.0834,0.0305 -0.2051,0.0921 -0.3634,0.1823 l -1.2263,0.7013 1.1008,1.9244 1.2258,-0.7009 c 0.2009,-0.1152 0.3328,-0.2027 0.3944,-0.2648 0.0639,-0.0615 0.1014,-0.1273 0.1143,-0.1953 0.0125,-0.0685 -0.002,-0.1819 -0.0435,-0.3389 l 0.1699,-0.0972 0.8296,1.4508 -0.1699,0.0972 c -0.106,-0.112 -0.194,-0.181 -0.2634,-0.2088 -0.069,-0.0277 -0.1491,-0.0273 -0.2412,5e-4 -0.0907,0.0282 -0.2305,0.0953 -0.4199,0.2037 z m 7.1959,2.8126 -0.9013,0.6379 -0.2277,-0.3217 c 0.1518,-0.1861 0.2546,-0.3588 0.3092,-0.5171 0.0555,-0.1597 0.0694,-0.3097 0.0417,-0.4499 -0.0283,-0.1408 -0.0949,-0.2852 -0.2009,-0.4347 -0.1584,-0.2231 -0.3736,-0.3699 -0.6458,-0.4384 -0.2713,-0.0699 -0.593,-0.0486 -0.9615,0.062 -0.3694,0.1116 -0.7647,0.3162 -1.1883,0.6157 -0.4254,0.3014 -0.7582,0.6004 -0.9999,0.8953 -0.243,0.2953 -0.3837,0.5768 -0.4231,0.8462 -0.0393,0.2676 0.0241,0.5194 0.1903,0.7541 0.1255,0.1777 0.2541,0.305 0.3856,0.3823 0.1306,0.076 0.2782,0.1148 0.4435,0.113 0.1652,-0.002 0.3796,-0.0435 0.6448,-0.1264 l 0.2278,0.3222 -0.9309,0.6587 c -0.1991,-0.1657 -0.388,-0.3453 -0.5657,-0.5397 -0.1796,-0.1945 -0.3588,-0.4194 -0.5407,-0.6763 -0.3898,-0.5509 -0.4981,-1.0995 -0.3236,-1.6448 0.1731,-0.5462 0.63,-1.0813 1.3698,-1.6049 0.4643,-0.3286 0.9226,-0.543 1.3753,-0.6453 0.4527,-0.1004 0.8749,-0.0754 1.2674,0.0732 0.3926,0.149 0.7277,0.4198 1.0078,0.8156 0.1398,0.1977 0.2588,0.387 0.3555,0.5685 0.0986,0.1819 0.1944,0.3995 0.2907,0.6545 z m -1.4114,6.4261 c -0.219,-0.2319 -0.3805,-0.4795 -0.4837,-0.742 -0.1042,-0.2625 -0.1394,-0.5379 -0.1065,-0.8258 0.0324,-0.2889 0.1402,-0.5889 0.3203,-0.9018 0.1815,-0.3111 0.4467,-0.6309 0.7967,-0.9619 0.4305,-0.4069 0.8619,-0.6907 1.2957,-0.8518 0.4333,-0.1597 0.8462,-0.1944 1.2383,-0.1023 0.392,0.0921 0.7406,0.2981 1.0461,0.6217 0.3245,0.343 0.5217,0.705 0.5916,1.0828 0.0709,0.3772 0.0139,0.7656 -0.1685,1.1628 -0.1823,0.3972 -0.4846,0.7948 -0.9082,1.1948 -0.4523,0.4272 -0.8976,0.7207 -1.3364,0.8781 -0.4384,0.1602 -0.8513,0.1889 -1.2383,0.088 -0.3879,-0.0996 -0.737,-0.3144 -1.0471,-0.6426 z m 1.1716,-2.9117 c -0.5934,0.5606 -0.9628,1.074 -1.1086,1.5378 -0.1463,0.4653 -0.0612,0.8647 0.2518,1.1962 0.199,0.2106 0.4356,0.3259 0.7082,0.3453 0.2727,0.0213 0.5736,-0.0546 0.9018,-0.2268 0.3282,-0.1694 0.6656,-0.4189 1.0119,-0.7462 0.4212,-0.3977 0.7295,-0.7712 0.9249,-1.1189 0.1963,-0.3476 0.2875,-0.655 0.2722,-0.9235 -0.0144,-0.2666 -0.1157,-0.499 -0.3018,-0.6957 -0.1644,-0.1741 -0.3458,-0.2852 -0.5449,-0.3329 -0.199,-0.0481 -0.4124,-0.0416 -0.6388,0.0167 -0.2268,0.0592 -0.4648,0.1699 -0.7133,0.3333 -0.2477,0.1634 -0.5023,0.368 -0.7634,0.6147 z m 3.7788,6.148 c -0.1023,0.1185 -0.1773,0.2189 -0.2246,0.3004 -0.0476,0.0828 -0.0759,0.1555 -0.0833,0.2203 -0.009,0.0648 10e-4,0.1287 0.0269,0.1926 0.0268,0.062 0.0796,0.1472 0.1601,0.2541 l -0.1277,0.1482 -1.3281,-1.1411 0.1273,-0.1486 c 0.1532,0.0764 0.2671,0.1129 0.3444,0.1092 0.0759,-0.003 0.1518,-0.0351 0.2259,-0.0962 0.0754,-0.0611 0.1778,-0.1672 0.3055,-0.3157 l 2.2474,-2.6169 c 0.119,-0.1384 0.2014,-0.2449 0.2468,-0.3161 0.0449,-0.0727 0.0694,-0.1357 0.0768,-0.1917 0.007,-0.0551 5e-4,-0.1092 -0.019,-0.1639 -0.0208,-0.0537 -0.0662,-0.1342 -0.137,-0.2393 l 0.1278,-0.1486 1.5007,1.2892 c 0.4722,0.4055 0.7458,0.7962 0.8222,1.1758 0.0745,0.3782 -0.0454,0.7522 -0.362,1.1212 -0.181,0.2106 -0.3787,0.3671 -0.5944,0.4722 -0.2171,0.1041 -0.437,0.1536 -0.6624,0.1467 -0.2245,-0.008 -0.4481,-0.0653 -0.6689,-0.1764 -0.2213,-0.1092 -0.4329,-0.2499 -0.6319,-0.4208 -0.2241,-0.1925 -0.3939,-0.3453 -0.5097,-0.4592 z m 1.0781,-1.2555 0.3513,0.3019 c 0.2278,0.1958 0.4416,0.3268 0.6398,0.3953 0.1999,0.0671 0.399,0.0662 0.5962,-0.005 0.1963,-0.0699 0.393,-0.2199 0.5884,-0.4472 0.149,-0.1731 0.2499,-0.337 0.3041,-0.4934 0.0528,-0.156 0.0685,-0.3037 0.0481,-0.4449 -0.0213,-0.1403 -0.0763,-0.274 -0.1638,-0.4009 -0.0871,-0.1254 -0.1977,-0.2453 -0.3306,-0.3597 -0.2009,-0.1722 -0.3541,-0.2967 -0.4619,-0.3754 z m 4.8953,8.5759 c 0.1351,-0.2546 0.236,-0.5115 0.3036,-0.7717 0.0667,-0.2592 0.0801,-0.4494 0.0375,-0.5703 -0.043,-0.1194 -0.1375,-0.2263 -0.2837,-0.3194 l -2.8807,-1.8382 0.105,-0.1652 c 0.1972,0.0629 0.3417,0.0726 0.4329,0.0291 0.0912,-0.0453 0.2185,-0.1967 0.3823,-0.4536 l 1.8558,-2.9085 c 0.1722,-0.2703 0.2574,-0.4569 0.2556,-0.5597 -0.003,-0.1023 -0.0722,-0.2235 -0.2102,-0.3647 l 0.1056,-0.1653 1.4123,0.9013 -0.1056,0.1648 c -0.174,-0.0579 -0.3073,-0.0736 -0.4022,-0.0468 -0.0949,0.0269 -0.2343,0.1852 -0.4199,0.4759 l -2.1914,3.4353 1.7447,1.1133 2.1914,-3.4353 c 0.1787,-0.2796 0.263,-0.4698 0.2532,-0.5712 -0.0101,-0.1 -0.0819,-0.2199 -0.2138,-0.3574 l 0.1051,-0.1652 1.4114,0.9003 -0.1056,0.1653 c -0.1685,-0.0579 -0.2999,-0.0736 -0.393,-0.0496 -0.0949,0.025 -0.2375,0.1847 -0.4263,0.4805 l -2.1914,3.4348 0.5383,0.3435 -0.9679,1.517 z m 5.7979,1.4175 0.081,-0.1783 c 0.2065,0.0352 0.3518,0.025 0.4356,-0.031 0.0838,-0.0574 0.1889,-0.2254 0.3148,-0.5027 l 0.7087,-1.5614 c 0.2319,-0.5106 0.3861,-0.8369 0.4615,-0.9772 l -0.0148,-0.007 -3.2214,1.6072 c -0.1314,0.2902 -0.1879,0.4842 -0.1703,0.5832 0.018,0.0982 0.1064,0.2102 0.2629,0.3333 l -0.081,0.1783 -1.5179,-0.6893 0.081,-0.1782 c 0.2093,0.0365 0.3555,0.0268 0.4403,-0.0287 0.0856,-0.057 0.1916,-0.2241 0.3175,-0.5014 l 1.4262,-3.1417 c 0.1454,-0.3194 0.2014,-0.5259 0.1681,-0.6203 -0.0338,-0.0926 -0.1218,-0.1954 -0.2643,-0.3065 l 0.081,-0.1782 1.5178,0.6893 -0.081,0.1782 c -0.1805,-0.0329 -0.3152,-0.0296 -0.405,0.0102 -0.0898,0.0402 -0.206,0.2161 -0.3486,0.5305 l -0.7254,1.5975 c -0.1624,0.3578 -0.3073,0.6573 -0.4319,0.8952 l 0.0209,0.009 3.2218,-1.6072 c 0.1162,-0.2565 0.1671,-0.4352 0.1528,-0.5342 -0.0144,-0.1005 -0.1014,-0.2148 -0.2611,-0.3458 l 0.0806,-0.1782 1.5104,0.6855 -0.081,0.1782 c -0.181,-0.0328 -0.3148,-0.0296 -0.405,0.0102 -0.0903,0.0403 -0.2056,0.2167 -0.3486,0.531 l -1.4262,3.1413 c -0.1319,0.2902 -0.1889,0.4837 -0.1708,0.5828 0.018,0.0981 0.1064,0.2102 0.2624,0.3333 l -0.081,0.1782 z m 9.573,-2.0109 c -0.1416,-0.003 -0.2782,0.0338 -0.4087,0.1106 -0.1306,0.0768 -0.3602,0.2884 -0.6889,0.6365 l -1.8437,1.9484 c -0.5588,0.5897 -0.9962,0.9629 -1.3091,1.1193 -0.3153,0.1574 -0.6398,0.1801 -0.9754,0.0681 -0.2037,-0.0681 -0.3842,-0.1602 -0.5416,-0.2773 l 0.3217,-0.9643 0.4078,0.1366 c -0.074,0.299 -4e-4,0.487 0.2246,0.562 0.3004,0.1004 0.6601,-0.0519 1.0776,-0.456 l -0.3305,-3.1033 c -0.0518,-0.4847 -0.0991,-0.7949 -0.1417,-0.9296 -0.0435,-0.1351 -0.1282,-0.2476 -0.2546,-0.3402 l 0.0621,-0.1861 1.622,0.5416 -0.0616,0.1856 c -0.2508,-0.0532 -0.4055,0.007 -0.4638,0.1815 -0.0537,0.1611 -0.0616,0.4328 -0.0241,0.8152 l 0.2153,2.202 1.3387,-1.4942 c 0.2861,-0.319 0.4602,-0.5736 0.5231,-0.762 0.0741,-0.2222 0.007,-0.3823 -0.2018,-0.4791 l 0.062,-0.1856 1.4526,0.4846 z m 6.7636,1.3392 c -0.1204,0.008 -0.2083,0.0227 -0.2643,0.0416 -0.056,0.0195 -0.1023,0.0486 -0.1408,0.0875 -0.037,0.0375 -0.0712,0.0977 -0.1013,0.1824 -0.0287,0.0838 -0.0597,0.2167 -0.0912,0.3963 l -0.5967,3.3973 c -0.0306,0.1745 -0.0468,0.3041 -0.05,0.3879 -0.002,0.0824 0.007,0.1504 0.025,0.2018 0.0204,0.0519 0.0532,0.0991 0.1018,0.1398 0.0477,0.0412 0.1292,0.0875 0.2444,0.1398 l -0.0338,0.1926 -1.6382,-0.2875 0.0338,-0.1926 c 0.1569,-0.0101 0.2676,-0.0338 0.3333,-0.0703 0.0657,-0.0371 0.1171,-0.1 0.1546,-0.1884 0.0361,-0.0875 0.0736,-0.237 0.1106,-0.4491 l 0.2639,-1.5035 c 0.0694,-0.3958 0.1467,-0.7953 0.2282,-1.1985 0.0833,-0.4008 0.1449,-0.6763 0.187,-0.8221 l -0.0671,-0.0116 -2.2377,3.6181 -0.4518,-0.0796 -0.7508,-4.2074 -0.0672,-0.0115 c -0.0138,0.1615 -0.0527,0.4527 -0.1148,0.8735 -0.0611,0.4217 -0.131,0.8527 -0.2087,1.2952 l -0.2523,1.4383 c -0.0306,0.174 -0.0468,0.3036 -0.0491,0.3879 -0.004,0.0819 0.005,0.15 0.0255,0.2018 0.0185,0.0519 0.0514,0.0991 0.1,0.1393 0.0476,0.0412 0.1291,0.0875 0.2448,0.1398 l -0.0338,0.1931 -1.4331,-0.2518 0.0338,-0.1926 c 0.1694,-0.013 0.286,-0.0398 0.3504,-0.0824 0.0639,-0.0417 0.1129,-0.1079 0.1467,-0.1981 0.0324,-0.0912 0.0676,-0.2343 0.1014,-0.4273 l 0.5962,-3.3978 c 0.0315,-0.1796 0.0482,-0.3134 0.0491,-0.3976 9e-4,-0.0857 -0.009,-0.1523 -0.0305,-0.2042 -0.0227,-0.0513 -0.0565,-0.0944 -0.1014,-0.1314 -0.0449,-0.0352 -0.1241,-0.081 -0.2389,-0.1357 l 0.0338,-0.193 1.4022,0.2463 0.7073,4.0629 2.1868,-3.5551 1.3267,0.2328 z m 5.086,5.4993 0.004,-0.1958 c 0.2069,-0.0486 0.3374,-0.1148 0.3925,-0.1995 0.0546,-0.0856 0.0852,-0.2814 0.0917,-0.586 l 0.0773,-3.4492 c 0.007,-0.3319 -0.0195,-0.5379 -0.0801,-0.6193 -0.0593,-0.0806 -0.1833,-0.1459 -0.368,-0.1949 l 0.004,-0.1958 3.6802,0.0824 -0.0269,1.204 -0.3948,-0.009 c -0.0949,-0.3166 -0.1921,-0.5393 -0.294,-0.6694 -0.1032,-0.1291 -0.2851,-0.1972 -0.5481,-0.2032 l -1.2123,-0.0268 -0.0449,2.0122 c 0.38,-0.0231 0.7179,-0.0319 1.0096,-0.0254 1.2063,0.0273 1.7975,0.5444 1.7752,1.5507 -0.024,1.0768 -0.7013,1.6003 -2.0317,1.5707 z m 1.273,-2.6913 -0.0528,2.3446 c 0.194,0.0195 0.4134,0.0324 0.6583,0.038 0.4828,0.0106 0.8304,-0.0824 1.0448,-0.2778 0.2124,-0.1948 0.324,-0.5004 0.3333,-0.9114 0.0176,-0.7861 -0.3833,-1.1897 -1.2018,-1.2082 -0.3457,-0.007 -0.6059,-0.003 -0.7818,0.0148 z m 8.3717,-3.0645 0.0912,1.2003 -0.3893,0.0297 c -0.0504,-0.1269 -0.1,-0.238 -0.1495,-0.3319 -0.05,-0.0963 -0.1009,-0.1741 -0.1504,-0.2375 -0.05,-0.063 -0.1037,-0.112 -0.1611,-0.1472 -0.0579,-0.0357 -0.1236,-0.0579 -0.1991,-0.0671 -0.0745,-0.009 -0.1643,-0.009 -0.2676,-0.001 l -1.2568,0.0953 0.1584,2.0831 0.8508,-0.0643 c 0.1166,-0.009 0.2064,-0.0324 0.2703,-0.0713 0.0639,-0.038 0.1158,-0.0986 0.1528,-0.181 0.0375,-0.0833 0.0699,-0.2115 0.0963,-0.3838 l 0.3749,-0.0287 0.1158,1.5267 -0.3745,0.0283 c -0.0486,-0.156 -0.1,-0.2718 -0.1509,-0.35 -0.0505,-0.0764 -0.1084,-0.131 -0.1732,-0.1602 -0.0648,-0.0305 -0.1597,-0.0398 -0.2851,-0.0301 l -0.8504,0.0644 0.1741,2.2937 1.2359,-0.094 c 0.131,-0.01 0.2357,-0.0291 0.3139,-0.0583 0.0801,-0.0278 0.1463,-0.0722 0.2004,-0.131 0.0537,-0.0583 0.1,-0.1328 0.1384,-0.2231 0.038,-0.0921 0.069,-0.1861 0.0931,-0.2815 0.0231,-0.0962 0.0546,-0.2379 0.094,-0.4207 l 0.3934,-0.0301 0.0297,1.4007 -3.6811,0.2796 -0.0148,-0.1953 c 0.162,-0.0546 0.2685,-0.1088 0.3203,-0.1662 0.0519,-0.056 0.0829,-0.1319 0.0917,-0.2282 0.0101,-0.0963 0.007,-0.2435 -0.007,-0.4389 l -0.2611,-3.4398 c -0.0139,-0.1815 -0.031,-0.3157 -0.0496,-0.3977 -0.0199,-0.0828 -0.0467,-0.1449 -0.081,-0.1902 -0.0338,-0.044 -0.0773,-0.0773 -0.1296,-0.1019 -0.0523,-0.0236 -0.1416,-0.0486 -0.2657,-0.0727 l -0.0153,-0.1953 z m 2.7604,4.9129 -0.2509,-1.0869 0.3763,-0.0871 c 0.212,0.338 0.4203,0.5565 0.6249,0.6546 0.2047,0.0995 0.4565,0.1143 0.756,0.0449 0.3421,-0.0792 0.5869,-0.2402 0.7337,-0.4823 0.1477,-0.2422 0.1791,-0.5495 0.0935,-0.9194 -0.0694,-0.3009 -0.181,-0.5198 -0.3342,-0.6564 -0.1532,-0.1361 -0.3208,-0.2092 -0.5037,-0.2203 -0.1814,-0.0112 -0.4124,0.0152 -0.692,0.08 l -0.6222,0.1435 -0.1069,-0.4629 0.63,-0.1453 c 0.4083,-0.094 0.6847,-0.2537 0.8249,-0.4791 0.1426,-0.2245 0.1699,-0.524 0.0838,-0.8962 -0.0676,-0.2935 -0.2092,-0.5014 -0.4259,-0.624 -0.2157,-0.1236 -0.4643,-0.1528 -0.7439,-0.088 -0.2879,0.0662 -0.5031,0.1856 -0.648,0.3574 -0.1445,0.1731 -0.2421,0.4458 -0.2921,0.8161 l -0.3782,0.0875 -0.2357,-1.0212 c 0.5713,-0.2926 1.105,-0.4972 1.6022,-0.6115 1.0702,-0.2472 1.6984,0.037 1.8859,0.8494 0.1402,0.6088 -0.0986,1.1277 -0.7199,1.5573 l 0.0125,0.0546 c 0.8055,0.0403 1.2856,0.3949 1.4397,1.0633 0.1106,0.4782 0.0343,0.8869 -0.2301,1.2244 -0.2643,0.3388 -0.7152,0.5814 -1.3531,0.7286 -0.473,0.1093 -0.9823,0.1486 -1.5266,0.119 z m 7.6121,-1.8174 c -0.3018,0.1014 -0.5944,0.1444 -0.8759,0.1282 -0.2823,-0.0152 -0.5471,-0.0986 -0.7948,-0.249 -0.2486,-0.15 -0.4758,-0.3741 -0.6846,-0.6685 -0.2069,-0.2948 -0.3861,-0.6698 -0.5402,-1.1262 -0.1889,-0.5611 -0.2662,-1.0721 -0.2306,-1.5332 0.0361,-0.4601 0.1778,-0.8499 0.4254,-1.1674 0.2477,-0.3171 0.581,-0.5477 1.0027,-0.6898 0.4472,-0.1509 0.8587,-0.1782 1.2309,-0.0838 0.3722,0.094 0.7013,0.3079 0.9855,0.6402 0.2843,0.3319 0.5185,0.7726 0.7046,1.3244 0.1986,0.5898 0.2786,1.117 0.2379,1.5818 -0.0379,0.4652 -0.1852,0.8522 -0.4384,1.1614 -0.2532,0.3106 -0.5943,0.5375 -1.0225,0.6819 z m -2.153,-2.2831 c 0.2606,0.7735 0.5717,1.3239 0.9318,1.6503 0.3615,0.3277 0.7596,0.418 1.192,0.2722 0.2745,-0.0926 0.4782,-0.2588 0.6101,-0.4986 0.1333,-0.2388 0.1903,-0.5439 0.1718,-0.9137 -0.0162,-0.369 -0.1019,-0.7796 -0.2542,-1.2314 -0.1847,-0.549 -0.3948,-0.9855 -0.6286,-1.3086 -0.2338,-0.3231 -0.4745,-0.5352 -0.7245,-0.6338 -0.2485,-0.0986 -0.5018,-0.1037 -0.7587,-0.0171 -0.2268,0.0764 -0.4036,0.1949 -0.5305,0.3555 -0.1268,0.1607 -0.2101,0.3569 -0.2518,0.587 -0.0417,0.231 -0.0407,0.4935 0.004,0.7874 0.0449,0.2935 0.1241,0.6101 0.2389,0.9508 z m 8.0727,-6.2909 0.0902,0.1736 c -0.1162,0.1013 -0.1888,0.1865 -0.2194,0.2541 -0.031,0.0685 -0.0338,0.1481 -0.01,0.2416 0.0231,0.0922 0.0861,0.2343 0.1865,0.4278 l 1.5864,3.063 c 0.0704,0.1366 0.1269,0.2375 0.1681,0.3023 0.043,0.0648 0.0833,0.1134 0.1222,0.1468 0.0366,0.0328 0.075,0.0564 0.1125,0.0689 0.0365,0.0149 0.0819,0.0204 0.137,0.0195 0.0542,-0.002 0.1338,-0.0144 0.2389,-0.0394 l 0.0898,0.1741 -1.4874,0.7703 -0.0902,-0.1741 c 0.1125,-0.0995 0.1856,-0.1833 0.2171,-0.2504 0.0305,-0.0676 0.0342,-0.1463 0.0115,-0.2403 -0.0222,-0.093 -0.0842,-0.237 -0.1856,-0.4328 l -1.8757,-3.6218 -1.8766,0.9721 1.8752,3.6218 c 0.0815,0.157 0.1477,0.2699 0.1954,0.3389 0.0486,0.0666 0.0967,0.1152 0.143,0.1449 0.0468,0.0296 0.1023,0.0467 0.1648,0.0495 0.0634,0.004 0.1565,-0.009 0.2796,-0.037 l 0.0898,0.1736 -1.491,0.7721 -0.0898,-0.1736 c 0.1277,-0.1139 0.2041,-0.2055 0.2296,-0.2787 0.0259,-0.0717 0.0245,-0.1537 -0.005,-0.2458 -0.0282,-0.0926 -0.0888,-0.2273 -0.1787,-0.4009 l -1.5863,-3.0635 c -0.0838,-0.1616 -0.1519,-0.2782 -0.2009,-0.3467 -0.051,-0.0685 -0.1,-0.1153 -0.1496,-0.1431 -0.0476,-0.0273 -0.1009,-0.0412 -0.1587,-0.0435 -0.0574,-9e-4 -0.1491,0.0111 -0.2732,0.0375 l -0.0902,-0.174 z m 6.8515,2.2395 -0.1055,-0.1643 c 0.0976,-0.094 0.1638,-0.1722 0.2023,-0.2338 0.0379,-0.062 0.0546,-0.1263 0.05,-0.1912 -0.003,-0.0657 -0.032,-0.1379 -0.0843,-0.2189 -0.0486,-0.0755 -0.1097,-0.1528 -0.1847,-0.2292 -0.075,-0.0763 -0.1643,-0.1601 -0.2676,-0.2471 l -0.4027,-0.3528 -1.5623,1.005 0.0967,0.4023 c 0.0486,0.2013 0.0908,0.3522 0.1283,0.4481 0.0361,0.0962 0.0768,0.18 0.1212,0.249 0.0861,0.1338 0.1838,0.2097 0.2926,0.2291 0.1083,0.0195 0.2402,-0.007 0.3935,-0.0782 l 0.106,0.1648 -1.4318,0.9207 -0.106,-0.1643 c 0.112,-0.1 0.174,-0.243 0.1861,-0.4277 0.0125,-0.1843 -0.013,-0.4222 -0.075,-0.7106 l -0.9888,-4.6115 0.5296,-0.3407 3.5454,3.0061 c 0.1657,0.1398 0.2981,0.2421 0.3981,0.3069 0.1,0.0653 0.1968,0.1051 0.2884,0.119 0.0903,0.0148 0.1949,9e-4 0.3106,-0.0398 l 0.106,0.1648 z m -2.4525,-0.9823 1.4026,-0.9017 -2.0289,-1.7531 z m 4.7388,-7.5561 0.7277,0.83 -0.2967,0.2602 c -0.2004,-0.1319 -0.3833,-0.2162 -0.5462,-0.2541 -0.1644,-0.0389 -0.3153,-0.0371 -0.4518,0.005 -0.1371,0.0421 -0.2736,0.1236 -0.4116,0.2444 -0.2055,0.1805 -0.3291,0.4096 -0.3694,0.6879 -0.0416,0.2768 0.013,0.5948 0.1611,0.9498 0.1491,0.3556 0.3935,0.7282 0.7351,1.118 0.3435,0.3921 0.6759,0.6925 0.9939,0.9022 0.3189,0.2115 0.6133,0.3222 0.8855,0.3333 0.2704,0.0111 0.5143,-0.0778 0.7305,-0.2671 0.1634,-0.1435 0.2768,-0.2842 0.3403,-0.4231 0.062,-0.1375 0.0856,-0.2884 0.0666,-0.4527 -0.019,-0.1644 -0.0824,-0.3727 -0.1921,-0.6282 l 0.2963,-0.2597 0.7517,0.8578 c -0.1444,0.2152 -0.3032,0.4212 -0.4786,0.618 -0.175,0.199 -0.3801,0.4004 -0.6166,0.6078 -0.5078,0.4448 -1.042,0.6091 -1.6026,0.492 -0.5611,-0.1157 -1.1402,-0.5147 -1.7378,-1.1966 -0.3749,-0.4277 -0.6356,-0.8615 -0.7841,-1.3012 -0.1463,-0.4398 -0.1653,-0.8629 -0.0579,-1.2684 0.1074,-0.406 0.3425,-0.7671 0.7069,-1.0865 0.1819,-0.1597 0.3582,-0.2971 0.5286,-0.4124 0.1708,-0.1171 0.3773,-0.2347 0.6212,-0.3565 z m 7.4446,-1.3179 c 0.111,0.106 0.1981,0.1824 0.2592,0.2292 0.0615,0.0477 0.1148,0.081 0.162,0.1 0.0463,0.018 0.0893,0.0287 0.1292,0.0287 0.0393,10e-4 0.0842,-0.008 0.1356,-0.0269 0.0504,-0.0194 0.1227,-0.0578 0.2129,-0.1148 l 0.1417,0.1347 -1.1513,1.211 -0.1421,-0.1347 c 0.0745,-0.1319 0.1153,-0.2342 0.1231,-0.3074 0.007,-0.074 -0.0143,-0.1509 -0.0675,-0.2314 -0.051,-0.0806 -0.157,-0.1963 -0.3167,-0.3481 l -1.211,-1.1513 -1.5276,1.6063 1.211,1.1517 c 0.1278,0.1218 0.2273,0.2065 0.2949,0.2565 0.068,0.0472 0.1291,0.0773 0.1824,0.0902 0.0541,0.0125 0.112,0.0107 0.1722,-0.007 0.0611,-0.0171 0.1449,-0.0597 0.2518,-0.1264 l 0.1421,0.1347 -1.1573,1.217 -0.1416,-0.1351 c 0.0838,-0.1491 0.1259,-0.2607 0.1259,-0.338 9e-4,-0.0764 -0.0268,-0.1537 -0.0847,-0.231 -0.057,-0.0782 -0.1579,-0.1856 -0.3,-0.3208 l -2.4997,-2.377 c -0.1319,-0.1255 -0.2342,-0.2134 -0.3032,-0.262 -0.0704,-0.0486 -0.1319,-0.0764 -0.1879,-0.0866 -0.0542,-0.0102 -0.1088,-0.006 -0.1644,0.0107 -0.0546,0.018 -0.137,0.0592 -0.2458,0.1245 l -0.1421,-0.1347 1.1573,-1.217 0.1416,0.1352 c -0.0597,0.1041 -0.0963,0.186 -0.1111,0.243 -0.0148,0.0574 -0.0166,0.112 -0.006,0.1657 0.0106,0.0519 0.0421,0.1134 0.0958,0.1852 0.0532,0.0713 0.1472,0.1699 0.2791,0.2958 l 1.0235,0.973 1.5276,-1.6063 -1.023,-0.9735 c -0.168,-0.1592 -0.2898,-0.2606 -0.3666,-0.3018 -0.0773,-0.0435 -0.1514,-0.0606 -0.2199,-0.0532 -0.0694,0.007 -0.1741,0.0541 -0.3125,0.1388 l -0.1416,-0.1351 1.1512,-1.211 0.1422,0.1352 c -0.0769,0.1337 -0.1176,0.2374 -0.1246,0.312 -0.007,0.074 0.0167,0.1504 0.0699,0.231 0.0528,0.0786 0.1574,0.1934 0.3157,0.3439 z m 3.8416,-3.2538 c -0.1842,0.2597 -0.3957,0.4667 -0.6328,0.619 -0.2374,0.1536 -0.5008,0.2421 -0.7897,0.2657 -0.2893,0.025 -0.605,-0.0227 -0.9466,-0.1384 -0.3407,-0.1172 -0.7064,-0.3148 -1.099,-0.5935 -0.4828,-0.343 -0.8457,-0.711 -1.0878,-1.105 -0.2417,-0.3934 -0.356,-0.792 -0.3421,-1.1943 0.0139,-0.4022 0.1481,-0.7846 0.4055,-1.1475 0.2736,-0.3847 0.5902,-0.649 0.9467,-0.7916 0.3564,-0.1426 0.7485,-0.163 1.1734,-0.0611 0.4254,0.1014 0.874,0.3203 1.349,0.6573 0.5068,0.3606 0.8818,0.7402 1.122,1.1397 0.2426,0.3986 0.3514,0.7985 0.3278,1.1976 -0.0218,0.3999 -0.1648,0.7841 -0.4264,1.1521 z m -3.0839,-0.5809 c 0.6657,0.4726 1.2411,0.7346 1.7244,0.7874 0.4851,0.0523 0.8601,-0.1088 1.1239,-0.4805 0.1681,-0.2361 0.2352,-0.4907 0.2005,-0.762 -0.0324,-0.2717 -0.1653,-0.5517 -0.3977,-0.8401 -0.2305,-0.2889 -0.5411,-0.5713 -0.9295,-0.8467 -0.4726,-0.3356 -0.8985,-0.5652 -1.2781,-0.6893 -0.3787,-0.1245 -0.6981,-0.1541 -0.9582,-0.087 -0.2593,0.0667 -0.4671,0.2111 -0.624,0.4319 -0.1384,0.1953 -0.212,0.3949 -0.2199,0.5995 -0.009,0.2046 0.0393,0.4124 0.1407,0.623 0.1023,0.2111 0.2574,0.4231 0.4662,0.6347 0.2087,0.2111 0.4587,0.4208 0.7517,0.6291 z m 2.8131,-9.1369 0.9573,0.5494 -0.1962,0.3421 c -0.2324,-0.0597 -0.4329,-0.0801 -0.5995,-0.0629 -0.168,0.0166 -0.3102,0.0671 -0.4254,0.1509 -0.1157,0.0847 -0.2185,0.206 -0.3097,0.3652 -0.1366,0.2375 -0.1787,0.4944 -0.1268,0.7703 0.0504,0.2754 0.205,0.5583 0.4606,0.8462 0.2564,0.2884 0.6082,0.561 1.0582,0.8194 0.4518,0.2592 0.8633,0.4355 1.2327,0.5309 0.3699,0.0968 0.6842,0.106 0.9453,0.0282 0.2592,-0.0768 0.4615,-0.2402 0.6045,-0.4892 0.1083,-0.1889 0.1699,-0.3593 0.1847,-0.5106 0.0139,-0.1505 -0.0125,-0.3009 -0.0838,-0.45 -0.0712,-0.1495 -0.199,-0.3259 -0.3856,-0.5319 l 0.1963,-0.3421 0.9892,0.5676 c -0.0666,0.2504 -0.1499,0.4971 -0.2522,0.7402 -0.101,0.2448 -0.2296,0.5018 -0.3866,0.7749 -0.3356,0.5851 -0.7878,0.9138 -1.3563,0.985 -0.568,0.0723 -1.2457,-0.1171 -2.0317,-0.5684 -0.4935,-0.2828 -0.8809,-0.6087 -1.1638,-0.9768 -0.2814,-0.3684 -0.4365,-0.7624 -0.4661,-1.1808 -0.0296,-0.419 0.075,-0.837 0.3161,-1.2573 0.1209,-0.2097 0.2426,-0.3972 0.3667,-0.5615 0.1236,-0.1657 0.281,-0.344 0.4721,-0.5388 z m 0.5995,-1.2795 1.5716,-4.0181 1.2924,0.5055 -0.1421,0.3639 c -0.2342,-0.0287 -0.424,-0.0412 -0.5689,-0.0371 -0.1449,0.005 -0.2606,0.0255 -0.3486,0.0597 -0.0865,0.0338 -0.1587,0.0801 -0.2115,0.1361 -0.0537,0.0584 -0.1074,0.1556 -0.1606,0.2912 l -0.1843,0.4712 3.8024,1.4874 c 0.1458,0.0569 0.2648,0.0953 0.3578,0.1125 0.094,0.0176 0.1717,0.0199 0.2352,0.007 0.0643,-0.0139 0.1208,-0.043 0.1726,-0.0889 0.0496,-0.0463 0.113,-0.1254 0.1866,-0.2351 l 0.1824,0.0713 -0.6639,1.6975 -0.1823,-0.0718 c 0.0125,-0.0815 0.0194,-0.1546 0.0213,-0.2194 0.004,-0.0644 -0.003,-0.1194 -0.0172,-0.1676 -0.0143,-0.0467 -0.0393,-0.0898 -0.0745,-0.1315 -0.0356,-0.0402 -0.0889,-0.0828 -0.1606,-0.1273 -0.0709,-0.0435 -0.1806,-0.0939 -0.3292,-0.1523 l -3.8023,-1.4868 -0.1829,0.4675 c -0.0458,0.1167 -0.0717,0.2176 -0.0796,0.3009 -0.007,0.0847 0.0111,0.1727 0.057,0.2648 0.0458,0.0926 0.1231,0.1898 0.2319,0.2935 0.1092,0.1046 0.2537,0.2175 0.4337,0.3435 l -0.1439,0.368 z m 8.1421,-6.927 -0.1879,-0.0542 c 0.005,-0.2092 -0.0268,-0.3513 -0.0944,-0.4263 -0.069,-0.0745 -0.2505,-0.1537 -0.5435,-0.238 l -1.6479,-0.4731 c -0.5393,-0.155 -0.8842,-0.2596 -1.0342,-0.3138 l -0.005,0.0157 2.0609,2.952 c 0.3059,0.088 0.5059,0.1157 0.6013,0.0833 0.0944,-0.0324 0.1926,-0.1361 0.2916,-0.3083 l 0.188,0.0537 -0.4602,1.6022 -0.1879,-0.0537 c 0.005,-0.2125 -0.0255,-0.3555 -0.0931,-0.4315 -0.0685,-0.0763 -0.2495,-0.1569 -0.5425,-0.2411 l -3.3158,-0.9522 c -0.3375,-0.0968 -0.5495,-0.1222 -0.6384,-0.0755 -0.0865,0.0472 -0.1754,0.1491 -0.2643,0.306 l -0.1884,-0.0537 0.4601,-1.6026 0.1884,0.0542 c -0.006,0.1837 0.0162,0.3166 0.069,0.3994 0.0528,0.0829 0.244,0.1722 0.5759,0.2676 l 1.6864,0.4842 c 0.3777,0.1083 0.6948,0.2079 0.9485,0.2963 l 0.006,-0.0222 -2.0604,-2.952 c -0.2708,-0.0778 -0.4546,-0.1023 -0.5509,-0.0736 -0.0972,0.0291 -0.1977,0.1314 -0.3037,0.3092 l -0.1884,-0.0542 0.4578,-1.5942 0.188,0.0541 c -0.006,0.1838 0.0171,0.3162 0.0694,0.3995 0.0528,0.0829 0.244,0.1718 0.5759,0.2671 l 3.3163,0.9522 c 0.306,0.088 0.5059,0.1158 0.6013,0.0838 0.0944,-0.0324 0.1926,-0.1361 0.2916,-0.3087 l 0.188,0.0541 z" />
      </g>
    </g>
  </g>
</svg>
