<?xml version="1.0" encoding="UTF-8" standalone="no"?>
<!-- Created with Inkscape (http://www.inkscape.org/) -->

<svg
   xmlns:dc="http://purl.org/dc/elements/1.1/"
   xmlns:cc="http://creativecommons.org/ns#"
   xmlns:rdf="http://www.w3.org/1999/02/22-rdf-syntax-ns#"
   xmlns:svg="http://www.w3.org/2000/svg"
   xmlns="http://www.w3.org/2000/svg"
   xmlns:sodipodi="http://sodipodi.sourceforge.net/DTD/sodipodi-0.dtd"
   xmlns:inkscape="http://www.inkscape.org/namespaces/inkscape"
   width="100"
   height="150"
   viewBox="0 0 26.458333 39.687501"
   version="1.1"
   id="svg8"
   sodipodi:docname="logo.svg"
   inkscape:version="0.92.0 r15299">
  <defs
     id="defs2" />
  <sodipodi:namedview
     id="base"
     pagecolor="#ffffff"
     bordercolor="#666666"
     borderopacity="1.0"
     inkscape:pageopacity="0.0"
     inkscape:pageshadow="2"
     inkscape:zoom="1.979899"
     inkscape:cx="29.064191"
     inkscape:cy="62.146408"
     inkscape:document-units="mm"
     inkscape:current-layer="Layer1001"
     showgrid="false"
     inkscape:window-width="1366"
     inkscape:window-height="705"
     inkscape:window-x="-8"
     inkscape:window-y="-8"
     inkscape:window-maximized="1"
     units="px" />
  <metadata
     id="metadata5">
    <rdf:RDF>
      <cc:Work
         rdf:about="">
        <dc:format>image/svg+xml</dc:format>
        <dc:type
           rdf:resource="http://purl.org/dc/dcmitype/StillImage" />
        <dc:title></dc:title>
      </cc:Work>
    </rdf:RDF>
  </metadata>
  <g
     inkscape:label="Layer 1"
     inkscape:groupmode="layer"
     id="layer1"
     transform="translate(0,-257.31248)">
    <g
       id="Layer1000"
       transform="matrix(0.16715313,0,0,0.16715313,-36.521292,207.12709)">
      <path
         inkscape:connector-curvature="0"
         id="path41"
         style="fill:#000000;fill-rule:evenodd;stroke-width:0.99098361"
         d="m 234.53237,322.88886 15.92762,171.16448 91.86794,12.51558 29.72952,-186.20902 z"
         sodipodi:nodetypes="ccccc" />
      <g
         id="Layer1001">
        <path
           inkscape:connector-curvature="0"
           id="path43"
           style="fill:#ffec00;fill-rule:evenodd;stroke-width:0.99098361"
           d="m 222.14508,320.05749 v 50.76204 l 7.03995,-3.91893 c 19.25004,-10.23053 44.41232,-15.79469 66.45179,-15.79469 25.60256,0 51.78939,4.98404 74.28234,17.67725 1.12606,0.63541 2.59014,1.55436 3.71094,2.00387 v -50.76224 c -1.1208,-0.44952 -2.58488,-1.36845 -3.71094,-2.00387 -21.72503,-12.25936 -47.69772,-17.67727 -72.572,-17.67727 -23.33559,0 -47.5031,4.81549 -68.16213,15.7947 z" />
        <path
           inkscape:connector-curvature="0"
           id="path45"
           style="fill:#ffec00;fill-rule:evenodd;stroke-width:0.99098361"
           d="m 222.14508,369.38658 v 75.64286 c 0.0314,0.0607 0.0574,0.13874 0.0733,0.19007 l 0.53226,4.46518 c 1.07958,9.67041 3.70142,19.65387 7.50799,28.47046 4.24537,9.83343 10.10764,18.59839 16.15878,25.29218 1.51243,1.67317 3.46775,4.03717 5.06541,5.42237 2.0227,1.75334 3.49431,3.41809 5.4848,5.02626 10.40355,8.40702 19.84731,14.76616 32.88332,20.07475 1.52056,0.61927 6.73223,2.30761 7.62095,2.87862 h 0.85373 c 0.93342,-0.61828 5.98951,-2.28541 7.54377,-2.92629 2.51868,-1.03914 4.97553,-2.25666 7.2761,-3.35873 9.43554,-4.52067 17.51028,-10.4185 25.19546,-16.66013 2.75296,-2.23605 8.0555,-7.54554 10.58311,-10.42474 10.10723,-11.51365 17.67161,-24.77122 21.59512,-40.29983 0.71717,-2.83927 1.24755,-5.52899 1.80389,-8.46519 0.33723,-1.77911 0.77494,-7.99138 1.307,-8.9795 v -76.37848 c -1.1208,-0.41868 -2.58478,-1.2745 -3.71103,-1.86631 -15.60959,-8.20337 -36.23899,-13.6613 -54.09483,-15.53368 -0.93201,-0.0978 -9.40156,-0.66127 -9.99039,-0.92864 h -15.38017 l -2.62046,0.3187 c -19.95762,1.06402 -41.11016,5.71035 -58.6481,14.39047 z m 6.05937,3.68388 v 71.17413 l 0.56297,4.72282 c 1.08058,9.06532 3.43426,18.40148 7.05431,26.786 3.66497,8.48906 8.88468,16.76516 15.09082,23.63049 1.42186,1.57299 2.9557,3.53425 4.53949,4.90725 1.81657,1.57487 3.46755,3.39145 5.32396,4.89179 10.02043,8.09713 19.34687,14.28365 31.36036,19.17593 1.64316,0.66902 3.80391,1.2865 5.73057,2.02101 1.9124,-0.75175 4.0542,-1.38291 5.69181,-2.05837 2.36558,-0.97572 4.66189,-2.11673 6.9687,-3.22178 8.74701,-4.19068 16.49234,-9.80667 23.9935,-15.89904 3.27004,-2.65605 7.05957,-6.54069 9.84947,-9.71888 9.67527,-11.02142 16.66459,-23.50058 20.27395,-37.7866 0.67763,-2.6823 1.21029,-5.39165 1.72529,-8.10912 0.46964,-2.47845 0.48153,-6.06116 1.20098,-8.79716 v -71.68498 c -0.15628,-0.0838 -0.31305,-0.16738 -0.47041,-0.25003 -15.17752,-7.97623 -34.87926,-13.08524 -51.90257,-14.87059 -2.24557,-0.22417 -6.9241,-0.34358 -9.91757,-0.89615 h -14.45914 l -2.45992,0.29908 -0.20524,0.011 c -18.90469,1.00803 -39.21748,5.33527 -56.23287,13.74574 z" />
        <path
           inkscape:connector-curvature="0"
           id="path47"
           style="fill:#000000;fill-rule:evenodd;stroke-width:0.99098361"
           d="m 228.20445,373.07046 v 71.17413 l 0.56297,4.72282 c 1.08058,9.06532 3.43426,18.40148 7.05431,26.786 3.66497,8.48906 8.88468,16.76516 15.09082,23.63049 1.42186,1.57299 2.9557,3.53425 4.53949,4.90725 1.81657,1.57487 3.46755,3.39145 5.32396,4.89179 10.02043,8.09713 19.34687,14.28365 31.36036,19.17593 1.64316,0.66902 3.80391,1.2865 5.73057,2.02101 1.9124,-0.75175 4.0542,-1.38291 5.69181,-2.05837 2.36558,-0.97572 4.66189,-2.11673 6.9687,-3.22178 8.74701,-4.19068 16.49234,-9.80667 23.9935,-15.89904 3.27004,-2.65605 7.05957,-6.54069 9.84947,-9.71888 9.67527,-11.02142 16.66459,-23.50058 20.27395,-37.7866 0.67763,-2.6823 1.21029,-5.39165 1.72529,-8.10912 0.46964,-2.47845 0.48153,-6.06116 1.20098,-8.79716 v -71.68498 c -0.15628,-0.0838 -0.31305,-0.16738 -0.47041,-0.25003 -15.17752,-7.97623 -34.87926,-13.08524 -51.90257,-14.87059 -2.24557,-0.22417 -6.9241,-0.34358 -9.91757,-0.89615 h -14.45914 l -2.45992,0.29908 -0.20524,0.011 c -18.90469,1.00803 -39.21748,5.33527 -56.23287,13.74574 z" />
        <path
           inkscape:connector-curvature="0"
           id="path49"
           style="fill:#ffec00;fill-rule:evenodd;stroke-width:0.99098361"
           d="m 334.624,367.53106 h 2.35883 l 2.15133,2.65217 2.15142,-2.65217 h 2.35855 l -3.3967,4.18669 v 3.19891 h -2.22674 v -3.19891 z" />
        <path
           inkscape:connector-curvature="0"
           id="path51"
           style="fill:#ffec00;fill-rule:evenodd;stroke-width:0.99098361"
           d="m 324.3251,367.53106 h 6.40602 v 1.38856 h -2.11357 v 5.99704 h -2.24309 v -5.99704 h -2.04936 z" />
        <path
           inkscape:connector-curvature="0"
           id="path53"
           style="fill:#ffec00;fill-rule:evenodd;stroke-width:0.99098361"
           d="m 317.55451,367.53106 h 2.19472 v 7.3856 h -2.19472 z" />
        <path
           inkscape:connector-curvature="0"
           id="path55"
           style="fill:#ffec00;fill-rule:evenodd;stroke-width:0.99098361"
           d="m 307.76655,370.42166 h 0.69915 c 0.71003,0 1.19671,-0.0585 1.46576,-0.1767 0.26638,-0.11832 0.40055,-0.31374 0.40055,-0.58805 0,-0.16113 -0.067,-0.30185 -0.19898,-0.42165 -0.13151,-0.12011 -0.30909,-0.20574 -0.53246,-0.25726 -0.22029,-0.053 -0.62938,-0.0789 -1.22366,-0.0789 h -0.61036 z m -2.19443,-2.8906 h 2.3422 c 1.28015,0 2.19442,0.072 2.73798,0.21771 0.54563,0.14558 0.98158,0.38907 1.31215,0.72699 0.3308,0.33783 0.49758,0.7372 0.49758,1.20018 0,0.48498 -0.18294,0.89139 -0.54593,1.21693 -0.36567,0.32762 -0.91457,0.57437 -1.6486,0.74076 l 2.73511,3.28303 h -2.40956 l -2.60322,-3.12715 h -0.22328 v 3.12715 h -2.19443 z" />
        <path
           inkscape:connector-curvature="0"
           id="path57"
           style="fill:#ffec00;fill-rule:evenodd;stroke-width:0.99098361"
           d="m 292.08602,367.53106 h 2.2106 v 4.77803 c 0,0.41135 0.0564,0.70289 0.16935,0.87256 0.11308,0.17143 0.29858,0.3068 0.55931,0.40967 0.26114,0.10111 0.57585,0.15271 0.94154,0.15271 0.38974,0 0.72341,-0.0566 1.00564,-0.17145 0.28244,-0.11307 0.47588,-0.25725 0.5837,-0.43365 0.10752,-0.175 0.16113,-0.51104 0.16113,-1.00624 v -4.60163 h 2.21088 v 4.40264 c 0,0.74403 -0.0644,1.25825 -0.19632,1.54633 -0.13189,0.28799 -0.38212,0.56575 -0.75305,0.83332 -0.36864,0.26726 -0.79614,0.46616 -1.28023,0.59489 -0.48113,0.12832 -1.04342,0.19363 -1.6834,0.19363 -0.83897,0 -1.5706,-0.12367 -2.19184,-0.36864 -0.62413,-0.24695 -1.06779,-0.55376 -1.33645,-0.9242 -0.26638,-0.37002 -0.40086,-0.99425 -0.40086,-1.87533 z" />
        <path
           inkscape:connector-curvature="0"
           id="path59"
           style="fill:#ffec00;fill-rule:evenodd;stroke-width:0.99098361"
           d="m 287.30294,368.82707 -1.54652,0.93618 c -1.05174,-0.70648 -2.23229,-1.05956 -3.54734,-1.05956 -1.10791,0 -2.04389,0.2418 -2.80219,0.72352 -0.76098,0.48171 -1.14023,1.07482 -1.14023,1.78129 0,0.49192 0.16945,0.92914 0.5055,1.30978 0.33615,0.38212 0.8123,0.68219 1.42523,0.90021 0.61599,0.21742 1.29898,0.32554 2.05213,0.32554 0.63988,0 1.22625,-0.0757 1.75603,-0.22802 0.53245,-0.15261 1.11614,-0.4304 1.75087,-0.83155 l 1.49787,0.99774 c -0.85502,0.53324 -1.66466,0.90367 -2.42564,1.1094 -0.76127,0.2074 -1.63244,0.31027 -2.60876,0.31027 -1.80181,0 -3.27837,-0.36358 -4.42672,-1.09207 -1.14835,-0.72697 -1.72094,-1.66118 -1.72094,-2.79783 0,-0.73719 0.26052,-1.39035 0.78506,-1.96294 0.52184,-0.57289 1.26934,-1.03201 2.24567,-1.38015 0.97343,-0.34813 2.02249,-0.52304 3.14913,-0.52304 0.95473,0 1.87454,0.12862 2.76208,0.38588 0.88494,0.25697 1.6485,0.62244 2.28877,1.09535 z" />
        <path
           inkscape:connector-curvature="0"
           id="path61"
           style="fill:#ffec00;fill-rule:evenodd;stroke-width:0.99098361"
           d="m 264.76183,367.53106 h 6.32545 v 1.37835 h -4.13102 v 1.32713 h 4.13102 v 1.35754 h -4.13102 v 1.94421 h 4.13102 v 1.37837 h -6.32545 z" />
        <path
           inkscape:connector-curvature="0"
           id="path63"
           style="fill:#ffec00;fill-rule:evenodd;stroke-width:0.99098361"
           d="m 259.2149,368.53581 -1.63512,0.91894 c -0.5728,-0.50757 -1.15628,-0.76127 -1.75078,-0.76127 -0.29035,0 -0.52689,0.0494 -0.71004,0.14736 -0.1854,0.0996 -0.27688,0.21099 -0.27688,0.33436 0,0.12338 0.0645,0.2417 0.19632,0.35159 0.18026,0.14707 0.72084,0.4627 1.62193,0.94799 0.84156,0.44921 1.35261,0.73194 1.53276,0.84857 0.44625,0.28799 0.76366,0.56229 0.95175,0.82461 0.18582,0.26399 0.27986,0.55028 0.27986,0.86056 0,0.60688 -0.32793,1.10584 -0.98693,1.50174 -0.65603,0.39441 -1.51402,0.59161 -2.57358,0.59161 -0.82579,0 -1.54366,-0.12863 -2.15698,-0.38589 -0.61331,-0.25874 -1.14013,-0.66346 -1.57586,-1.21543 l 1.858,-0.71331 c 0.55971,0.65177 1.20235,0.9773 1.92844,0.9773 0.37915,0 0.69945,-0.0703 0.9576,-0.21068 0.25785,-0.14072 0.38707,-0.30364 0.38707,-0.48707 0,-0.16639 -0.0967,-0.33425 -0.29303,-0.50223 -0.19363,-0.16639 -0.62381,-0.42365 -1.28808,-0.76801 -1.2641,-0.65484 -2.07908,-1.16064 -2.44734,-1.5173 -0.36834,-0.35656 -0.55414,-0.71142 -0.55414,-1.06629 0,-0.51275 0.3065,-0.95145 0.91714,-1.31683 0.61303,-0.36686 1.36875,-0.55029 2.26718,-0.55029 0.57814,0 1.12932,0.0858 1.65118,0.25548 0.52423,0.17144 1.08919,0.48172 1.69953,0.93449 z" />
        <path
           inkscape:connector-curvature="0"
           id="path65"
           style="fill:#ffec00;fill-rule:evenodd;stroke-width:0.99098361"
           d="m 297.88754,379.27868 c 32.64121,0 59.10216,26.46104 59.10216,59.10215 0,32.64122 -26.46095,59.10217 -59.10216,59.10217 -32.64112,0 -59.10216,-26.46095 -59.10216,-59.10217 0,-32.64111 26.46104,-59.10215 59.10216,-59.10215 z" />
        <path
           inkscape:connector-curvature="0"
           id="path67"
           style="fill:#000000;fill-rule:evenodd;stroke-width:0.99098361"
           d="m 297.88754,382.13845 c 31.06188,0 56.24238,25.1806 56.24238,56.24238 0,31.06189 -25.1805,56.24239 -56.24238,56.24239 -31.06178,0 -56.24238,-25.1805 -56.24238,-56.24239 0,-31.06178 25.1806,-56.24238 56.24238,-56.24238 z" />
        <path
           inkscape:connector-curvature="0"
           id="path69"
           style="fill:#ffec00;fill-rule:evenodd;stroke-width:0.99098361"
           d="m 297.88754,392.62434 c 25.27058,0 45.75659,20.48601 45.75659,45.75649 0,25.27058 -20.48601,45.75659 -45.75659,45.75659 -25.27048,0 -45.75649,-20.48601 -45.75649,-45.75659 0,-25.27048 20.48601,-45.75649 45.75649,-45.75649 z m 0,1.90646 c 24.21785,0 43.85014,19.63228 43.85014,43.85003 0,24.21787 -19.63229,43.85013 -43.85014,43.85013 -24.21775,0 -43.85004,-19.63226 -43.85004,-43.85013 0,-24.21775 19.63229,-43.85003 43.85004,-43.85003 z" />
        <path
           inkscape:connector-curvature="0"
           id="path71"
           style="fill:#ffec00;fill-rule:evenodd;stroke-width:0.99098361"
           d="m 348.63115,440.62224 0.48419,2.50005 2.528,0.30235 -2.22781,1.23259 0.4935,2.49807 -1.86097,-1.73789 -2.22278,1.24121 1.07789,-2.30701 -1.868,-1.73056 2.52731,0.31236 z" />
        <path
           inkscape:connector-curvature="0"
           id="path73"
           style="fill:#ffec00;fill-rule:evenodd;stroke-width:0.99098361"
           d="m 279.45613,460.72454 c -0.61975,1.1109 -1.09701,2.16778 -1.3184,3.30315 -0.30651,1.56952 0.61937,2.41601 1.64671,0.89337 1.44497,-2.14063 2.85801,-6.49857 5.28799,-7.55546 -0.30026,-0.22753 -0.60093,-0.45545 -0.90109,-0.68299 -2.22744,0.0913 -2.03579,-0.93122 -4.01834,-1.80537 l -10.20327,-4.49669 c -0.76018,-0.33495 -1.55475,-0.56495 -2.90587,-0.47269 -0.26409,0.53255 -1.40719,4.83411 -1.52541,4.89605 -0.0223,0.0117 1.43326,1.10128 2.91428,-0.30671 0.1652,-0.15726 9.61532,5.53395 11.0234,6.22734 z m 36.29389,-53.5042 c 17.51693,6.3313 13.96366,11.18713 12.79915,23.44548 -7.81222,0.49331 -15.62455,0.98703 -23.43677,1.48034 -0.0927,0.37935 -0.18491,0.75909 -0.27757,1.13845 8.13598,-0.49332 16.27196,-0.98664 24.40792,-1.47995 -0.41591,1.21456 -0.83232,2.42871 -1.24833,3.64326 -6.74891,0.4176 -13.49819,0.8349 -20.24709,1.25241 -4.20653,-0.22754 -8.41356,-0.45546 -12.62018,-0.683 -0.46209,-0.0762 -0.92457,-0.15181 -1.38667,-0.22792 1.24833,-0.60727 2.49619,-1.21415 3.74453,-1.82142 8.40016,-3.65881 15.71977,-8.65506 23.29801,-13.3215 -14.19127,5.49787 -29.36641,14.33804 -43.02602,18.74495 -13.83195,4.46259 -17.77101,-1.38807 -15.09535,-8.88884 1.85501,-5.20037 6.19324,-10.43168 10.96929,-14.65168 10.5408,-9.31257 25.68272,-14.57143 42.11908,-8.63058 z m -15.21318,44.50933 c 4.13527,-2.3616 0.91784,-8.2195 -2.05808,-7.66555 -2.19552,0.40829 -3.82955,2.77228 -4.24428,4.88495 -0.35596,1.81222 0.16559,3.47122 2.20305,3.21198 1.93639,-0.24645 1.51255,-1.90615 2.01863,-4.16035 2.28818,1.17323 1.85919,1.48233 2.08068,3.72897 z m -27.94455,-10.07641 c 6.05283,-0.66099 9.92272,7.83908 21.91183,0.62621 1.58082,0.72222 0.4289,2.00911 1.94145,0.45544 -0.54347,-2.76206 1.22524,-2.81092 3.67317,-2.72272 2.37876,0.0856 1.43951,1.54117 2.15153,3.49114 0.23099,-0.72124 1.08641,-1.29968 1.3175,-2.02082 4.24677,2.32475 10.1449,5.25817 14.55151,2.79606 3.58052,-2.00088 3.74116,-2.33585 8.19216,-2.9668 -0.56772,4.67883 -7.57369,8.46904 -12.96652,8.65327 -0.28174,-1.38461 -0.38449,-1.15846 0.27718,-2.44803 -0.95274,-0.35636 -0.69943,-0.30879 -1.66426,0.0568 -0.38451,1.93608 -0.7686,3.87256 -1.15271,5.80835 -0.59212,2.99435 -1.71203,2.75999 -5.22674,3.01576 0.0461,-0.62621 0.0927,-1.25241 0.13873,-1.87871 -0.76266,-0.0189 -1.52542,-0.0378 -2.28817,-0.0568 -0.23101,0.58834 -0.4625,1.17639 -0.6936,1.76474 -0.83193,0.0761 -1.66426,0.15181 -2.49619,0.22783 -0.0922,-0.49331 -0.18491,-0.98692 -0.27708,-1.48033 -0.78584,-0.0378 -1.57209,-0.0761 -2.35785,-0.11387 -0.0462,0.51224 -0.0927,1.02477 -0.13883,1.53712 -1.1095,-0.019 -2.21862,-0.0379 -3.32812,-0.0569 0.0923,-0.62619 0.18492,-1.25241 0.27719,-1.8786 -0.87842,-0.095 -1.75652,-0.18969 -2.63494,-0.28471 0,0.56941 0,1.13853 0,1.70785 -6.11407,-1.45139 -4.4188,-4.40273 -6.44872,-8.42533 -0.32366,0.8348 -0.64702,1.67 -0.97067,2.50481 -4.86286,-1.54673 -11.27581,-3.25261 -11.78785,-8.31178 z m 46.085,-1.30929 c 2.26925,6.0456 -21.96595,1.88248 0,0 z m -38.66561,0 c -2.26935,6.0456 21.96585,1.88248 0,0 z m 34.94665,16.39542 c 3.85641,-2.11137 10.7265,-5.51709 14.97752,-6.9455 l 2.21901,4.32673 c -0.43901,1.69132 -0.74511,1.80489 -2.42742,0.68329 l -11.44061,5.97741 c 0.63325,1.64455 1.51126,2.82015 2.08028,4.55427 -0.47428,0.80794 -1.65296,1.011 -1.92469,0.21128 -1.11535,-3.28284 -5.30136,-7.68865 -5.44268,-8.19643 -0.31533,-1.13299 0.88178,-0.72917 1.95859,-0.61105 z m 0.208,5.97733 -9.36082,5.01001 c 3.08492,1.55742 6.75096,2.92043 10.12357,4.61106 -3.77009,3.22981 -12.82856,-0.0833 -17.19662,-1.56537 -7.75277,2.66971 -7.3426,3.95283 -16.98814,2.19196 l 10.5399,-4.95324 -9.4304,-5.23725 c -0.57616,-2.4174 1.38371,-3.83986 3.05094,-4.49738 l 12.48135,6.0345 10.7479,-5.0668 2.56536,-1.25241 c 1.88783,1.29195 3.51057,2.61085 3.46696,4.72492 z m -2.62828,-1.85622 -0.52038,-0.79695 -17.75139,8.34002 c 3.80241,-0.20899 12.18118,-5.02854 18.27177,-7.54307 z m -27.33947,0.19801 0.52038,-0.79706 10.85196,5.49372 c -3.89467,-1.19562 -7.82451,-2.7041 -11.37234,-4.69666 z" />
        <path
           inkscape:connector-curvature="0"
           id="path75"
           style="fill:#ffec00;fill-rule:evenodd;stroke-width:0.99098361"
           d="m 246.91936,440.62224 -0.48418,2.50005 -2.52791,0.30235 2.22784,1.23259 -0.49361,2.49807 1.86106,-1.73789 2.22278,1.24121 -1.07789,-2.30701 1.8679,-1.73056 -2.5272,0.31236 z" />
        <path
           inkscape:connector-curvature="0"
           id="path77"
           style="fill:#000000;fill-rule:evenodd;stroke-width:0.99098361"
           d="m 228.20445,323.61929 v 42.73447 c 20.00251,-10.1551 45.19995,-15.53564 67.43247,-15.53564 24.67806,0 49.78017,4.49223 71.93371,15.62176 v -42.78165 c -0.20899,-0.1209 -0.41869,-0.24131 -0.62937,-0.36032 -20.83949,-11.7594 -45.8003,-16.89478 -69.594,-16.89478 -22.29516,0 -45.47515,4.55366 -65.26697,15.05859 z" />
        <path
           inkscape:connector-curvature="0"
           id="path79"
           style="fill:#ffec00;fill-rule:evenodd;stroke-width:0.99098361"
           d="m 344.68961,328.03501 c -3.70795,-0.91458 -7.4073,-1.72094 -11.10654,-2.4626 0,-0.72024 0,-1.44395 0,-2.16737 0,-1.01181 -0.14053,-1.68031 -0.42534,-2.0128 -0.27955,-0.32622 -0.7467,-0.54841 -1.4068,-0.66633 -0.71201,-0.12684 -1.25934,-0.0466 -1.62393,0.26668 -0.36458,0.30958 -0.55584,0.84244 -0.55584,1.60222 0,0.97582 0.21733,1.73907 0.63405,2.30423 0.40818,0.56169 1.52819,1.36112 3.37786,2.40155 5.2971,3.10357 8.64028,5.53752 10.02102,7.16847 1.38094,1.63463 2.07561,3.88119 2.07561,6.74732 0,2.08463 -0.39083,3.5284 -1.15518,4.33516 -0.76405,0.80279 -2.24012,1.27083 -4.43724,1.40759 -2.18848,0.20176 -4.73946,-0.0254 -7.65038,-0.56883 -3.20207,-0.59766 -5.92232,-1.39342 -8.1887,-2.51303 -2.25777,-1.0549 -3.73402,-2.21426 -4.43733,-3.4852 -0.69478,-1.27123 -1.05063,-2.9994 -1.05063,-5.17412 0,-0.63354 0,-1.27083 0,-1.90804 3.69924,0.43563 7.39848,0.93956 11.10644,1.51225 0,1.18432 0,2.36894 0,3.55724 0,1.09434 0.15291,1.82856 0.46011,2.19978 0.30919,0.3736 0.8683,0.62391 1.6586,0.77049 0.79864,0.14824 1.38927,0.0576 1.77139,-0.27361 0.39085,-0.32039 0.58191,-0.87861 0.58191,-1.65624 0,-1.72471 -0.36479,-2.91983 -1.10276,-3.57894 -0.76415,-0.6698 -2.62254,-1.901 -5.59242,-3.62571 -2.96106,-1.68853 -4.91498,-2.84085 -5.88754,-3.52473 -0.9552,-0.67684 -1.75889,-1.55426 -2.38806,-2.61412 -0.62978,-1.06074 -0.95512,-2.35804 -0.95512,-3.89942 0,-2.22475 0.44495,-3.82281 1.34596,-4.75958 0.89644,-0.93173 2.341,-1.59103 4.35051,-1.92628 2.00238,-0.33406 4.42455,-0.28302 7.25955,0.20156 3.10465,0.53077 5.73135,1.41483 7.91945,2.52048 2.17977,1.13775 3.62978,2.30077 4.33327,3.45288 0.7033,1.14121 1.06808,2.88386 1.06808,5.20989 0,0.38877 0,0.77397 0,1.15916 z" />
        <path
           inkscape:connector-curvature="0"
           id="path81"
           style="fill:#ffec00;fill-rule:evenodd;stroke-width:0.99098361"
           d="m 299.78943,332.49612 c -0.28658,-1.64166 -0.59022,-3.47835 -0.88594,-5.50878 -0.29462,-2.02349 -0.60797,-4.24865 -0.92043,-6.6607 -0.59052,2.77575 -1.07649,5.18116 -1.4502,7.20783 -0.3728,2.02368 -0.64265,3.67971 -0.79903,4.95778 1.34625,-0.0143 2.70073,-0.0215 4.0556,0.004 z m 6.34784,-18.41633 c 1.13756,4.88563 2.27809,9.77436 3.41246,14.67883 1.14073,4.93203 2.28392,9.87971 3.43019,14.82313 -4.07274,-0.36696 -8.14549,-0.61559 -12.21813,-0.77028 -0.21693,-1.72818 -0.43406,-3.46379 -0.65118,-5.1992 -1.44158,-0.0323 -2.87425,-0.0358 -4.30712,-0.0215 -0.21732,1.72808 -0.43424,3.45279 -0.65136,5.18096 -4.12477,0.0862 -8.24944,0.27005 -12.37431,0.60134 1.00732,-4.86069 2.02387,-9.73562 3.03072,-14.59631 1.00754,-4.86404 2.02329,-9.7249 3.03944,-14.56766 5.75722,-0.23762 11.52317,-0.28092 17.28929,-0.1294 z" />
        <path
           inkscape:connector-curvature="0"
           id="path83"
           style="fill:#ffec00;fill-rule:evenodd;stroke-width:0.99098361"
           d="m 276.35505,323.5741 c -3.70787,0.41036 -7.4072,0.92518 -11.10645,1.5049 0,-0.70914 0,-1.42215 0,-2.1315 0,-0.99355 -0.14051,-1.60391 -0.42552,-1.83253 -0.27936,-0.22465 -0.73829,-0.28094 -1.39788,-0.16569 -0.72095,0.12585 -1.25915,0.39609 -1.63265,0.83539 -0.36478,0.42483 -0.54693,1.01884 -0.54693,1.76773 0,0.96492 0.20821,1.64552 0.62511,2.05598 0.408,0.41047 1.5284,0.8029 3.37787,1.17373 5.30583,1.16638 8.64902,2.36538 10.02103,3.47449 1.38946,1.10881 2.07541,3.07471 2.07541,5.88326 0,2.04134 -0.39084,3.58588 -1.15499,4.65158 -0.76405,1.05134 -2.24031,2.0343 -4.43723,2.94551 -2.18828,0.99712 -4.73521,1.70082 -7.65039,2.25003 -3.198,0.60271 -5.92231,0.87137 -8.18869,0.62293 -2.25796,-0.17293 -3.7255,-0.75949 -4.43753,-1.76049 -0.69477,-1.01169 -1.04201,-2.61768 -1.04201,-4.80676 0,-0.6372 0,-1.27828 0,-1.91914 3.69923,-0.94331 7.39858,-1.80368 11.09782,-2.59935 0,1.17352 0,2.34377 0,3.51383 0,1.08384 0.15727,1.74512 0.46894,2.00189 0.30482,0.25081 0.85927,0.2963 1.64998,0.14765 0.79805,-0.15013 1.38945,-0.45348 1.78011,-0.91804 0.38211,-0.46091 0.58171,-1.08721 0.58171,-1.8471 0,-1.69557 -0.37331,-2.7362 -1.1115,-3.11457 -0.76414,-0.38152 -2.62253,-0.91794 -5.58359,-1.55178 -2.96989,-0.59747 -4.92361,-1.04042 -5.89636,-1.36805 -0.95501,-0.33119 -1.76068,-0.91596 -2.38806,-1.75701 -0.63157,-0.8473 -0.9463,-2.04866 -0.9463,-3.6041 0,-2.243 0.44585,-3.98733 1.34586,-5.23151 0.89713,-1.24011 2.33306,-2.40334 4.342,-3.41324 1.99424,-1.00238 4.4168,-1.76831 7.25954,-2.26094 3.09673,-0.5369 5.73115,-0.58696 7.92826,-0.26667 2.17958,0.34219 3.62116,0.97216 4.32446,1.85423 0.71212,0.8679 1.06798,2.44843 1.06798,4.7275 0,0.38182 0,0.75988 0,1.13784 z" />
        <path
           inkscape:connector-curvature="0"
           id="path85"
           style="fill:#ffec00;fill-rule:evenodd;stroke:#ffec00;stroke-width:0.21405247;stroke-linecap:butt;stroke-linejoin:miter;stroke-dasharray:none"
           d="m 249.74407,433.29481 c 0.13666,-0.0486 0.27658,-0.10505 0.4184,-0.16966 0.14031,-0.0643 0.25636,-0.14498 0.34724,-0.2418 l 0.0495,-0.65554 1.7602,0.1335 -0.0312,0.41194 c -0.27847,0.006 -0.54493,0.0363 -0.79725,0.094 -0.25418,0.0574 -0.43128,0.13031 -0.53077,0.21841 -0.0927,0.0839 -0.14775,0.21099 -0.16609,0.38074 l -0.032,0.42385 -0.19632,-0.0152 c -0.27668,0.0886 -0.51927,0.16192 -0.72669,0.22208 l -0.82895,0.23665 c -0.27887,0.0817 -0.48162,0.15825 -0.60777,0.23218 -0.12527,0.0724 -0.22109,0.16283 -0.2853,0.26876 -0.0644,0.10603 -0.10416,0.25368 -0.11883,0.44316 l -0.0368,0.48628 1.65009,0.12526 c 0.31879,0.0243 0.52115,0.011 0.60826,-0.0405 0.0864,-0.051 0.16104,-0.17104 0.22346,-0.36241 l 0.19632,0.0152 -0.12803,1.68536 -0.19631,-0.0146 c -0.0284,-0.18441 -0.0762,-0.31285 -0.1431,-0.38528 -0.0661,-0.072 -0.27341,-0.1207 -0.61788,-0.14678 l -3.45338,-0.2629 c -0.3519,-0.0265 -0.56516,-0.008 -0.64275,0.0559 -0.0762,0.0634 -0.1426,0.18164 -0.19819,0.35457 l -0.19632,-0.0146 0.12803,-1.68587 0.19631,0.0152 c 0.0312,0.18203 0.0808,0.3078 0.14905,0.37885 0.0689,0.0711 0.2744,0.11931 0.62075,0.14548 l 1.4615,0.11099 0.0363,-0.47934 c 0.0165,-0.21515 -0.0354,-0.38906 -0.15421,-0.52304 -0.1202,-0.13349 -0.439,-0.31693 -0.95778,-0.54811 -0.48904,-0.21377 -0.8244,-0.41612 -1.00743,-0.6051 -0.18166,-0.18809 -0.25776,-0.48034 -0.22793,-0.87394 0.0103,-0.12567 0.0519,-0.28808 0.12566,-0.48807 l 0.91745,0.0698 -0.0302,0.39541 c -0.26519,0.011 -0.40651,0.11654 -0.42167,0.31701 -0.009,0.12111 0.04,0.23209 0.14775,0.32802 0.10733,0.0971 0.35191,0.23614 0.73125,0.42157 0.30958,0.14676 0.53671,0.27063 0.68032,0.37201 0.14309,0.10141 0.25874,0.23487 0.34495,0.40045 l 0.0312,0.002 c 0.16649,-0.42751 0.52334,-0.73858 1.07155,-0.93539 z m 1.95283,-6.02587 -0.19175,-0.0445 c 0.005,-0.13616 -0.002,-0.23894 -0.0178,-0.31008 -0.0161,-0.071 -0.0492,-0.12893 -0.0976,-0.17204 -0.0487,-0.0454 -0.11981,-0.077 -0.21475,-0.0991 -0.0877,-0.02 -0.1858,-0.0329 -0.29312,-0.0348 -0.10734,-0.003 -0.22982,0 -0.36519,0.009 l -0.53672,0.0293 -0.41928,1.81707 0.35141,0.22118 c 0.17619,0.11099 0.31246,0.18988 0.40601,0.23258 0.094,0.0445 0.18164,0.0757 0.26191,0.0944 0.15598,0.0358 0.27936,0.0221 0.37072,-0.0408 0.0916,-0.0619 0.16738,-0.17342 0.22842,-0.33207 l 0.19176,0.0444 -0.38439,1.66516 -0.19177,-0.0439 c 0.0106,-0.15003 -0.045,-0.29629 -0.16558,-0.43761 -0.11982,-0.14132 -0.30463,-0.29453 -0.55189,-0.45834 l -3.94193,-2.62254 0.14221,-0.61659 4.65524,-0.32246 c 0.21703,-0.0161 0.38351,-0.0349 0.50093,-0.0587 0.11793,-0.0229 0.21515,-0.0623 0.29087,-0.11644 0.0753,-0.0528 0.14082,-0.13537 0.19541,-0.24636 l 0.19176,0.0444 z m -2.45149,1.0115 0.37568,-1.63087 -2.68676,0.16153 z m 0.19225,-11.17443 c -0.0106,0.14131 0.0183,0.28073 0.0885,0.41561 0.0702,0.13487 0.27024,0.37667 0.60144,0.72441 l 1.85423,1.95283 c 0.56098,0.59172 0.91189,1.05005 1.05232,1.37251 0.1413,0.32434 0.14587,0.65138 0.0156,0.98167 -0.0789,0.20048 -0.18076,0.37618 -0.30642,0.528 l -0.94956,-0.3743 0.15825,-0.40184 c 0.29592,0.0909 0.48857,0.0271 0.57616,-0.19453 0.11654,-0.29591 -0.0169,-0.66426 -0.40046,-1.10465 l -3.12863,0.1647 c -0.48895,0.0261 -0.8018,0.0569 -0.93895,0.0923 -0.13854,0.0367 -0.25558,0.11516 -0.35507,0.23754 l -0.18303,-0.0724 0.62976,-1.59726 0.18305,0.0719 c -0.0673,0.24824 -0.0151,0.40649 0.15646,0.47388 0.15916,0.0629 0.43079,0.0852 0.81658,0.0678 l 2.21891,-0.0967 -1.42582,-1.42305 c -0.30503,-0.30363 -0.55089,-0.49172 -0.7367,-0.56515 -0.21831,-0.0862 -0.38263,-0.0271 -0.49083,0.17708 l -0.18304,-0.0725 0.56377,-1.42979 z m 5.44843,-1.74047 c 0.15776,0.0808 0.27708,0.13586 0.35735,0.16291 0.078,0.0265 0.14587,0.038 0.20136,0.0358 0.055,-0.004 0.1106,-0.0217 0.16332,-0.0559 0.0541,-0.0335 0.12249,-0.0981 0.20642,-0.19353 l 0.1752,0.0899 -0.77068,1.50422 -0.17521,-0.09 c 0.0386,-0.16787 0.0477,-0.28709 0.0256,-0.36142 -0.0206,-0.0733 -0.0697,-0.14042 -0.14726,-0.19819 -0.077,-0.0597 -0.20454,-0.13398 -0.37935,-0.22387 l -3.08225,-1.57942 c -0.16332,-0.0835 -0.2867,-0.13904 -0.36658,-0.16609 -0.082,-0.0265 -0.14855,-0.0362 -0.20593,-0.0302 -0.0546,0.005 -0.10593,0.0256 -0.15508,0.0573 -0.0472,0.032 -0.11514,0.0959 -0.20137,0.18998 l -0.17519,-0.09 0.77107,-1.50412 0.17531,0.0899 c -0.0284,0.11793 -0.04,0.20641 -0.0386,0.26557 0.002,0.0596 0.0152,0.11427 0.0417,0.16105 0.0248,0.0482 0.0729,0.0976 0.14548,0.15142 0.0705,0.0532 0.18937,0.12199 0.35229,0.20543 z m 0.48666,-9.23478 0.16055,0.11426 c -0.0573,0.14399 -0.083,0.2527 -0.0789,0.32791 0.004,0.0744 0.0376,0.14727 0.10142,0.21981 0.0634,0.0715 0.18442,0.16975 0.36289,0.29629 l 2.82263,2.00694 c 0.12564,0.0891 0.22286,0.15332 0.28896,0.19177 0.0684,0.0386 0.12665,0.063 0.1766,0.0749 0.0482,0.0129 0.0927,0.0161 0.1321,0.0103 0.0395,-0.003 0.083,-0.0196 0.13121,-0.0454 0.0477,-0.0267 0.11335,-0.074 0.19501,-0.14459 l 0.16055,0.11378 -0.97434,1.37072 -0.16064,-0.11377 c 0.0546,-0.14032 0.0813,-0.24903 0.079,-0.32296 -0.004,-0.0748 -0.0368,-0.14677 -0.1,-0.22019 -0.062,-0.0729 -0.18442,-0.17292 -0.36478,-0.30086 l -3.33723,-2.37263 -1.22903,1.72948 3.33734,2.37252 c 0.14449,0.10276 0.25547,0.17292 0.32981,0.21246 0.074,0.0371 0.13903,0.0586 0.19403,0.0642 0.0555,0.005 0.11287,-0.006 0.17025,-0.0316 0.0582,-0.0256 0.13527,-0.0798 0.23209,-0.16193 l 0.16054,0.11425 -0.97712,1.3744 -0.16053,-0.11426 c 0.0625,-0.16053 0.0886,-0.27758 0.0775,-0.35418 -0.0103,-0.0757 -0.0486,-0.14865 -0.11694,-0.21692 -0.0678,-0.0702 -0.18303,-0.16243 -0.34357,-0.27619 l -2.82262,-2.00694 c -0.14954,-0.10603 -0.2638,-0.17897 -0.33902,-0.21703 -0.0771,-0.038 -0.14131,-0.0574 -0.19907,-0.0596 -0.055,-0.002 -0.10873,0.0103 -0.16144,0.0345 -0.052,0.0252 -0.12805,0.0784 -0.22713,0.15915 l -0.16005,-0.11426 z m 4.74424,-5.41998 0.80191,0.76424 -0.27341,0.28719 c -0.21238,-0.11376 -0.40234,-0.18165 -0.56932,-0.20505 -0.16738,-0.0244 -0.3179,-0.009 -0.4509,0.046 -0.13309,0.0541 -0.26241,0.14815 -0.38946,0.28163 -0.18997,0.1986 -0.29223,0.43901 -0.3074,0.72026 -0.0169,0.28073 0.0661,0.5936 0.24635,0.93528 0.18126,0.34268 0.45922,0.6927 0.8358,1.05193 0.37846,0.36101 0.7377,0.63165 1.07443,0.8133 0.33763,0.18215 0.64215,0.26697 0.91556,0.25369 0.27115,-0.0132 0.50739,-0.12387 0.70608,-0.33257 0.15093,-0.15826 0.25132,-0.30968 0.30226,-0.45417 0.05,-0.1431 0.0596,-0.29581 0.0256,-0.45823 -0.0334,-0.16292 -0.11605,-0.36568 -0.24814,-0.61104 l 0.27341,-0.28669 0.82846,0.7899 c -0.12477,0.22843 -0.26558,0.44912 -0.42296,0.66198 -0.15736,0.21425 -0.34405,0.43396 -0.56188,0.66239 -0.46755,0.49043 -0.98722,0.70279 -1.55842,0.6363 -0.57151,-0.0656 -1.1867,-0.41245 -1.84541,-1.04043 -0.41334,-0.39363 -0.71292,-0.80458 -0.90101,-1.2308 -0.18581,-0.42663 -0.24307,-0.84779 -0.17202,-1.26291 0.0715,-0.41513 0.2739,-0.79775 0.60965,-1.15004 0.16787,-0.1757 0.33118,-0.32979 0.49133,-0.46012 0.16053,-0.13209 0.35595,-0.26835 0.58943,-0.41194 z m 6.06037,0.24635 c 0.11654,0.13399 0.20652,0.22932 0.27023,0.28441 0.0629,0.0541 0.1211,0.0899 0.17343,0.10872 0.0527,0.0174 0.11099,0.0212 0.17292,0.009 0.0625,-0.011 0.15004,-0.045 0.26381,-0.10239 l 0.12883,0.14864 -1.27759,1.10694 -0.12882,-0.14865 c 0.0986,-0.14122 0.15182,-0.24864 0.15866,-0.32614 0.009,-0.0758 -0.0119,-0.15598 -0.0619,-0.23852 -0.0495,-0.0839 -0.13943,-0.20098 -0.26835,-0.34953 l -2.26747,-2.61808 c -0.12021,-0.13804 -0.21376,-0.23624 -0.27807,-0.29085 -0.0656,-0.0554 -0.12377,-0.0894 -0.17937,-0.10504 -0.0527,-0.0156 -0.10821,-0.0161 -0.1651,-0.005 -0.0559,0.0124 -0.14269,0.0459 -0.25785,0.10091 l -0.12883,-0.14866 1.27758,-1.10691 0.12882,0.14864 c -0.0705,0.0986 -0.11416,0.17709 -0.13476,0.23259 -0.0207,0.0558 -0.0285,0.11099 -0.0217,0.1647 0.005,0.0541 0.0312,0.11782 0.078,0.19443 0.0459,0.0762 0.13031,0.18402 0.25002,0.32257 z m 2.94054,-1.39223 -0.64959,-0.91339 0.31652,-0.22525 c 0.32622,0.23258 0.60282,0.35595 0.82985,0.36933 0.22852,0.0137 0.46794,-0.0693 0.71935,-0.24824 0.28719,-0.20414 0.45279,-0.44772 0.49628,-0.72847 0.0444,-0.28113 -0.0444,-0.57893 -0.26508,-0.8895 -0.17987,-0.2527 -0.36696,-0.41285 -0.56149,-0.48073 -0.19403,-0.0683 -0.37807,-0.0715 -0.55139,-0.0119 -0.17252,0.0591 -0.37706,0.17242 -0.61203,0.33941 l -0.52244,0.37112 -0.27619,-0.38807 0.52889,-0.37617 c 0.34318,-0.24407 0.53771,-0.49817 0.5822,-0.76107 0.0463,-0.26281 -0.0427,-0.55089 -0.26519,-0.86375 -0.17519,-0.24636 -0.38628,-0.3849 -0.63443,-0.41611 -0.24724,-0.0315 -0.48894,0.0358 -0.72431,0.20324 -0.2413,0.17154 -0.3954,0.36518 -0.46426,0.57983 -0.0679,0.21603 -0.0541,0.506 0.0413,0.86889 l -0.3175,0.22565 -0.60966,-0.85739 c 0.41791,-0.48995 0.8354,-0.88346 1.25281,-1.18027 0.89911,-0.63908 1.59052,-0.61609 2.0758,0.0665 0.3633,0.51103 0.34041,1.08393 -0.072,1.72073 l 0.032,0.0459 c 0.76296,-0.27074 1.34417,-0.12526 1.74323,0.43573 0.28581,0.40184 0.37163,0.81013 0.25509,1.22435 -0.11515,0.41613 -0.44089,0.81341 -0.97622,1.19414 -0.39818,0.28303 -0.85552,0.51423 -1.37162,0.69548 z m 9.68299,-3.88277 c -0.14586,-0.23675 -0.31463,-0.45278 -0.50411,-0.64593 -0.19175,-0.19353 -0.3514,-0.30185 -0.48121,-0.32752 -0.12943,-0.0248 -0.27341,0.003 -0.4289,0.083 l -2.12992,1.09177 c -0.24359,0.12427 -0.36339,0.32246 -0.36101,0.59587 0.002,0.27391 0.0944,0.62759 0.27429,1.06294 l -0.36329,0.18619 -0.82351,-1.60697 0.35002,-0.17927 c 0.13992,-0.66793 0.13488,-1.44505 -0.0165,-2.33 -0.15093,-0.88534 -0.37846,-1.62531 -0.6826,-2.21891 -0.083,-0.16143 -0.1643,-0.26421 -0.24863,-0.3087 -0.0826,-0.045 -0.19958,-0.0385 -0.34962,0.0188 l -0.0899,-0.17531 2.91706,-1.49498 0.09,0.17519 c -0.14271,0.12348 -0.22753,0.23308 -0.2523,0.32573 -0.0253,0.0945 0.0408,0.29642 0.20047,0.60788 l 1.86563,3.64048 0.57298,-0.29353 0.82341,1.60737 z m -3.86304,-5.37867 -1.0005,0.51283 c 0.79001,1.89774 1.09821,3.51572 0.92627,4.85385 l 2.23725,-1.14637 z m 6.71599,1.68627 c 0.0569,0.16835 0.10405,0.29084 0.1426,0.36606 0.0376,0.0734 0.078,0.12892 0.11971,0.16559 0.0422,0.0363 0.094,0.0615 0.15599,0.0744 0.0625,0.0132 0.15647,0.0146 0.28302,0.005 l 0.0634,0.18679 -1.60142,0.54167 -0.0629,-0.18619 c 0.14448,-0.0936 0.23437,-0.17294 0.27014,-0.24171 0.0363,-0.067 0.0483,-0.14914 0.0326,-0.24457 -0.0137,-0.0963 -0.0532,-0.23853 -0.11604,-0.42474 l -1.11059,-3.28095 c -0.0587,-0.17342 -0.10872,-0.29957 -0.14727,-0.3743 -0.04,-0.0762 -0.0808,-0.12931 -0.12614,-0.16519 -0.0431,-0.0343 -0.0941,-0.0558 -0.15143,-0.0669 -0.0563,-0.0103 -0.14954,-0.0115 -0.27659,-0.004 l -0.0634,-0.18621 1.60103,-0.54226 0.0634,0.1867 c -0.10276,0.0647 -0.17302,0.12021 -0.21286,0.16381 -0.0404,0.0444 -0.0684,0.0927 -0.0822,0.14449 -0.0161,0.0523 -0.0156,0.12109 -9.9e-4,0.20959 0.0137,0.0881 0.051,0.21979 0.1097,0.39312 z m 6.60114,-0.83303 -0.0444,-0.19175 c -0.16697,-0.23765 -0.30918,-0.44733 -0.42799,-0.6276 l -0.4734,-0.72114 c -0.16054,-0.24169 -0.29402,-0.41235 -0.40274,-0.51105 -0.10642,-0.0976 -0.22109,-0.16231 -0.34129,-0.19175 -0.1202,-0.0298 -0.27341,-0.0243 -0.45834,0.0184 l -0.47517,0.10962 0.37202,1.61243 c 0.0715,0.31146 0.14448,0.50095 0.21969,0.56881 0.0744,0.067 0.21149,0.10277 0.41245,0.10555 l 0.0444,0.19175 -1.6473,0.37985 -0.044,-0.19175 c 0.16748,-0.0822 0.2757,-0.1656 0.32484,-0.25142 0.0491,-0.0844 0.034,-0.2968 -0.0435,-0.63354 l -0.77852,-3.37489 c -0.0793,-0.34357 -0.16053,-0.54227 -0.24447,-0.59677 -0.0835,-0.0537 -0.21653,-0.0822 -0.39778,-0.0835 l -0.0444,-0.19176 1.64741,-0.37983 0.0439,0.19175 c -0.16469,0.0839 -0.26974,0.16837 -0.31701,0.25507 -0.0472,0.0867 -0.032,0.29769 0.0459,0.63583 l 0.3294,1.42849 0.46835,-0.10831 c 0.21058,-0.0486 0.36101,-0.14994 0.45327,-0.30314 0.0917,-0.15461 0.17203,-0.51383 0.23804,-1.0776 0.0582,-0.53078 0.15142,-0.91111 0.27757,-1.14181 0.12565,-0.22981 0.38163,-0.38946 0.76653,-0.47845 0.12248,-0.0281 0.28996,-0.0363 0.50282,-0.0248 l 0.20681,0.89584 -0.38619,0.0891 c -0.0895,-0.25003 -0.23257,-0.35279 -0.4285,-0.30791 -0.11832,0.0276 -0.20958,0.10743 -0.26884,0.23864 -0.061,0.1316 -0.1206,0.4064 -0.18482,0.8238 -0.0478,0.33902 -0.0982,0.59321 -0.15232,0.76018 -0.0541,0.16699 -0.14676,0.31702 -0.27935,0.44862 l 0.007,0.0307 c 0.45784,0.0312 0.86106,0.27936 1.21197,0.74414 l 0.53304,0.71102 c 0.1982,0.26281 0.3648,0.44307 0.49917,0.53989 0.13437,0.0963 0.31096,0.1331 0.52977,0.10871 l 0.0441,0.19176 z m 10.57668,-0.80191 -0.005,-0.1963 c -0.11554,-0.26658 -0.21325,-0.50055 -0.29352,-0.70102 l -0.3198,-0.80092 c -0.1092,-0.26925 -0.20593,-0.46329 -0.29224,-0.58121 -0.0848,-0.11694 -0.18442,-0.20326 -0.2963,-0.25647 -0.11199,-0.0527 -0.26291,-0.078 -0.45279,-0.0734 l -0.48766,0.0124 0.0422,1.65415 c 0.008,0.31978 0.0413,0.51977 0.10142,0.60143 0.0597,0.0808 0.18669,0.14309 0.3835,0.1858 l 0.005,0.19681 -1.68953,0.0426 -0.005,-0.19682 c 0.18037,-0.0468 0.30326,-0.10682 0.36845,-0.18114 0.0651,-0.0729 0.0927,-0.28402 0.0839,-0.62937 l -0.0877,-3.4626 c -0.009,-0.35278 -0.0487,-0.56287 -0.1202,-0.63393 -0.0711,-0.0693 -0.19543,-0.12347 -0.37341,-0.16103 l -0.005,-0.19681 1.68953,-0.0427 0.005,0.1964 c -0.17799,0.0495 -0.29819,0.11149 -0.36191,0.1871 -0.0639,0.0754 -0.0909,0.28491 -0.0822,0.63215 l 0.0371,1.46527 0.48083,-0.0124 c 0.21603,-0.006 0.38351,-0.0749 0.50462,-0.20642 0.12109,-0.13309 0.27103,-0.46883 0.44861,-1.00832 0.16332,-0.50828 0.33069,-0.86196 0.50045,-1.06333 0.16886,-0.19959 0.45139,-0.30513 0.8464,-0.31523 0.12566,-0.003 0.29175,0.0226 0.49817,0.0758 l 0.0234,0.91984 -0.3963,0.0103 c -0.0381,-0.2628 -0.15736,-0.39263 -0.35833,-0.38757 -0.1215,0.003 -0.22704,0.0634 -0.31097,0.18027 -0.0862,0.11653 -0.19998,0.37389 -0.34595,0.76979 -0.11466,0.32295 -0.21514,0.56189 -0.30087,0.7142 -0.0867,0.15281 -0.2078,0.28164 -0.36429,0.38401 l 10e-4,0.0315 c 0.44217,0.12199 0.78763,0.44595 1.03894,0.97117 l 0.37985,0.80369 c 0.14181,0.29681 0.26885,0.50689 0.38073,0.62848 0.11248,0.1216 0.27847,0.19265 0.49728,0.21286 l 0.005,0.19632 z m 5.68011,0.4078 c -0.31702,-0.0403 -0.60053,-0.13021 -0.84729,-0.26787 -0.24825,-0.13715 -0.45139,-0.32802 -0.60926,-0.57299 -0.15866,-0.24447 -0.26647,-0.54633 -0.32563,-0.90327 -0.0579,-0.35736 -0.0565,-0.77436 0.005,-1.25419 0.0748,-0.58944 0.22892,-1.08532 0.46289,-1.48628 0.23388,-0.39996 0.53256,-0.68992 0.89546,-0.8684 0.36279,-0.17838 0.76424,-0.24032 1.20781,-0.18393 0.47071,0.0597 0.85412,0.21425 1.14914,0.46239 0.29502,0.24815 0.49867,0.58488 0.61015,1.00972 0.11099,0.42473 0.13021,0.92568 0.0569,1.50551 -0.0789,0.61975 -0.23764,1.1313 -0.47716,1.53314 -0.23853,0.40373 -0.54077,0.68854 -0.90506,0.8574 -0.36468,0.17015 -0.77247,0.22565 -1.22248,0.16877 z m -0.94599,-3.00566 c -0.10316,0.8129 -0.0624,1.44644 0.11981,1.89961 0.18343,0.45417 0.50322,0.70975 0.95739,0.76752 0.28846,0.0367 0.54582,-0.0248 0.76969,-0.18353 0.22525,-0.15727 0.41018,-0.40829 0.55506,-0.75047 0.14685,-0.34039 0.25001,-0.74908 0.31017,-1.22346 0.0732,-0.57755 0.0744,-1.06333 0.005,-1.45784 -0.0701,-0.39452 -0.19453,-0.6913 -0.37756,-0.8895 -0.18164,-0.19772 -0.4078,-0.31336 -0.67705,-0.34775 -0.23902,-0.0302 -0.45049,-8.9e-4 -0.63581,0.0886 -0.18492,0.0899 -0.34595,0.2303 -0.48449,0.42067 -0.13805,0.19077 -0.2527,0.42801 -0.3408,0.71281 -0.0885,0.28491 -0.15549,0.60559 -0.20098,0.96334 z m 10.11111,3.91071 c -0.0422,0.14826 -0.0703,0.26152 -0.083,0.33676 -0.0134,0.0776 -0.0183,0.13991 -0.0129,0.19085 0.006,0.0505 0.0161,0.0932 0.0344,0.12843 0.017,0.0358 0.0467,0.0711 0.0872,0.10781 0.0408,0.0363 0.10871,0.0825 0.20136,0.13578 l -0.0537,0.18898 -1.61383,-0.45823 0.0537,-0.18899 c 0.15231,0.005 0.26191,-0.007 0.33069,-0.0341 0.0693,-0.0284 0.12753,-0.083 0.17392,-0.16836 0.0482,-0.0825 0.10141,-0.23071 0.16192,-0.44356 l 0.45824,-1.61432 -2.14093,-0.60777 -0.45872,1.61421 c -0.0482,0.17065 -0.0775,0.29868 -0.0899,0.38212 -0.0103,0.0817 -0.009,0.15053 0.005,0.20414 0.0142,0.0537 0.0431,0.10466 0.0868,0.14955 0.0435,0.0465 0.1207,0.10141 0.2303,0.1647 l -0.0537,0.18946 -1.62205,-0.46059 0.0536,-0.18938 c 0.17204,0.005 0.29135,-0.009 0.35973,-0.0455 0.0678,-0.0348 0.12377,-0.0958 0.16559,-0.18303 0.0431,-0.0871 0.0912,-0.22654 0.14537,-0.41603 l 0.9459,-3.33177 c 0.05,-0.1762 0.0803,-0.3083 0.0913,-0.39184 0.0103,-0.0852 0.006,-0.15271 -0.0111,-0.2078 -0.0161,-0.0527 -0.0454,-0.0991 -0.0862,-0.14082 -0.0408,-0.0403 -0.11694,-0.094 -0.22564,-0.16055 l 0.0536,-0.18898 1.62214,0.46051 -0.0537,0.18947 c -0.1211,-0.005 -0.21059,0.001 -0.26836,0.0143 -0.0582,0.0132 -0.10733,0.0375 -0.14953,0.0724 -0.0413,0.0341 -0.0817,0.0909 -0.12021,0.17203 -0.0385,0.0798 -0.0821,0.2097 -0.1321,0.38579 l -0.38768,1.3638 2.14142,0.60836 0.38717,-1.36429 c 0.0639,-0.22386 0.0963,-0.37895 0.0968,-0.46705 0.003,-0.0885 -0.0165,-0.16193 -0.0551,-0.22019 -0.039,-0.0578 -0.12932,-0.12883 -0.26926,-0.21237 l 0.0537,-0.18948 1.61382,0.45833 -0.0537,0.18948 c -0.15458,-0.006 -0.26558,0.006 -0.33534,0.0353 -0.0693,0.0285 -0.12615,0.0848 -0.17293,0.16926 -0.0449,0.0839 -0.0981,0.23079 -0.15777,0.44129 z m 8.24111,-1.33851 -0.45645,1.00922 -0.36102,-0.16331 c 0.0372,-0.23765 0.0382,-0.4395 0.005,-0.60461 -0.0324,-0.16658 -0.0972,-0.30324 -0.19265,-0.41056 -0.0945,-0.10743 -0.22614,-0.19869 -0.39402,-0.2748 -0.25052,-0.11287 -0.51105,-0.13031 -0.78168,-0.0515 -0.27064,0.0771 -0.5386,0.25834 -0.80141,0.54177 -0.26331,0.28441 -0.50144,0.66247 -0.71609,1.13676 -0.21514,0.47666 -0.3524,0.90506 -0.41194,1.28263 -0.0601,0.37935 -0.0395,0.69457 0.0633,0.94826 0.10239,0.25132 0.28491,0.43763 0.54731,0.55645 0.19959,0.0899 0.37569,0.13487 0.5285,0.13487 0.15182,-5e-4 0.29908,-0.0413 0.44128,-0.12715 0.1422,-0.0856 0.30642,-0.2307 0.49401,-0.43672 l 0.36151,0.16331 -0.47161,1.04321 c -0.25686,-0.0422 -0.51145,-0.10229 -0.76425,-0.18027 -0.25458,-0.0776 -0.52383,-0.18124 -0.81141,-0.31107 -0.61748,-0.27885 -0.99,-0.69913 -1.11565,-1.26013 -0.12715,-0.56099 -0.004,-1.25646 0.37102,-2.08582 0.23536,-0.52026 0.52344,-0.93905 0.86384,-1.25746 0.3409,-0.31652 0.71936,-0.51005 1.13488,-0.57981 0.41562,-0.0702 0.84322,-0.006 1.28679,0.19491 0.22159,0.10009 0.42067,0.20326 0.59687,0.31158 0.17799,0.10771 0.37112,0.24724 0.58388,0.42017 z m 1.86394,7.24528 c -0.26885,-0.17254 -0.48678,-0.37528 -0.65057,-0.60559 -0.1651,-0.2307 -0.26649,-0.49034 -0.30365,-0.77891 -0.0385,-0.28898 -0.007,-0.60777 0.0936,-0.95601 0.10141,-0.34724 0.28173,-0.72342 0.54275,-1.13031 0.32109,-0.50045 0.67289,-0.88169 1.05639,-1.14359 0.38312,-0.26064 0.77714,-0.39452 1.18176,-0.39957 0.40411,-0.006 0.79357,0.11149 1.16975,0.3523 0.39907,0.25596 0.67892,0.56059 0.83906,0.9115 0.15965,0.35052 0.1991,0.74225 0.11743,1.17392 -0.0822,0.43117 -0.27985,0.89179 -0.59548,1.38401 -0.33713,0.52571 -0.70002,0.91933 -1.08948,1.17936 -0.38857,0.26242 -0.78397,0.38995 -1.18492,0.38579 -0.40274,-0.003 -0.79498,-0.12793 -1.1766,-0.3729 z m 0.43623,-3.12081 c -0.44227,0.69042 -0.67754,1.27947 -0.70736,1.76702 -0.0294,0.48905 0.14954,0.8574 0.53483,1.10466 0.24497,0.15687 0.50371,0.21196 0.77396,0.1647 0.27103,-0.0454 0.54544,-0.19216 0.8238,-0.43901 0.27847,-0.24498 0.54732,-0.56972 0.80518,-0.97205 0.31414,-0.48995 0.52384,-0.92845 0.63027,-1.31424 0.10643,-0.38679 0.12109,-0.70836 0.0408,-0.96572 -0.0789,-0.25686 -0.23348,-0.45823 -0.46199,-0.605 -0.20275,-0.12991 -0.4064,-0.19413 -0.61194,-0.19274 -0.20552,9.8e-4 -0.41145,0.0591 -0.61837,0.17203 -0.20692,0.11238 -0.41195,0.27798 -0.61421,0.49688 -0.20186,0.2192 -0.40006,0.48023 -0.59499,0.78347 z m 5.26033,6.01914 c -0.10325,0.11872 -0.17936,0.21921 -0.22663,0.30086 -0.0487,0.083 -0.0766,0.15559 -0.0852,0.22109 -0.009,0.0647 9e-4,0.12893 0.0265,0.19314 0.0272,0.063 0.0799,0.14825 0.15964,0.25558 l -0.12883,0.14864 -1.3285,-1.15142 0.12883,-0.14865 c 0.1537,0.0775 0.26747,0.11466 0.34505,0.111 0.0762,-0.003 0.15271,-0.034 0.22704,-0.0959 0.0766,-0.0606 0.17937,-0.16649 0.3083,-0.31514 l 2.26746,-2.61748 c 0.12021,-0.13854 0.20374,-0.24547 0.24864,-0.31662 0.0455,-0.0729 0.0706,-0.13528 0.0785,-0.19265 0.008,-0.0546 5e-4,-0.1091 -0.0189,-0.1642 -0.0196,-0.0537 -0.0656,-0.13438 -0.13625,-0.24081 l 0.12893,-0.14866 1.50144,1.30097 c 0.4716,0.40878 0.74502,0.80279 0.81973,1.18403 0.074,0.37984 -0.0486,0.75463 -0.36835,1.12337 -0.18213,0.2106 -0.38122,0.36707 -0.59815,0.47211 -0.21841,0.10366 -0.43951,0.15232 -0.66565,0.14449 -0.22573,-0.009 -0.4496,-0.0678 -0.67068,-0.17987 -0.222,-0.11098 -0.43347,-0.2523 -0.63305,-0.42522 -0.22387,-0.19404 -0.39401,-0.34864 -0.50966,-0.46329 z m 1.08762,-1.25558 0.3514,0.30413 c 0.22802,0.19771 0.44178,0.33069 0.64087,0.39957 0.19998,0.0693 0.39956,0.0683 0.59816,-0.002 0.19729,-0.0697 0.3959,-0.21921 0.5927,-0.44634 0.15003,-0.17342 0.2528,-0.33763 0.3078,-0.49451 0.0532,-0.15597 0.0698,-0.30413 0.05,-0.44633 -0.0207,-0.14132 -0.0762,-0.27569 -0.16242,-0.40324 -0.0876,-0.12615 -0.19769,-0.24725 -0.33069,-0.36239 -0.20047,-0.17392 -0.35418,-0.29908 -0.4624,-0.37896 z m 3.80666,9.63524 c 0.20276,-0.20592 0.37341,-0.42424 0.51283,-0.65554 0.13855,-0.2302 0.20553,-0.40918 0.19959,-0.53811 -0.007,-0.12703 -0.0678,-0.25726 -0.18125,-0.38845 l -2.24597,-2.59371 0.14865,-0.12843 c 0.17153,0.11693 0.3078,0.16738 0.4078,0.15082 0.10039,-0.0164 0.26657,-0.12565 0.49776,-0.32613 l 2.61848,-2.26707 c 0.24357,-0.21099 0.37885,-0.36647 0.40641,-0.46606 0.0261,-0.0986 -0.006,-0.23575 -0.0976,-0.41056 l 0.14864,-0.12894 1.10137,1.27164 -0.14904,0.12892 c -0.15141,-0.10643 -0.2753,-0.15963 -0.37389,-0.16103 -0.0986,-9.9e-4 -0.27797,0.11099 -0.54039,0.33813 l -3.09236,2.67762 1.36022,1.57112 3.09226,-2.67764 c 0.25231,-0.21831 0.38768,-0.37747 0.40691,-0.47756 0.0192,-0.0995 -0.0156,-0.23576 -0.10317,-0.40551 l 0.14865,-0.12882 1.10049,1.27063 -0.14914,0.12893 c -0.14538,-0.10365 -0.26736,-0.15737 -0.36419,-0.16014 -0.0986,-0.003 -0.28074,0.1097 -0.54773,0.3404 l -3.09186,2.67764 0.41929,0.4845 -1.36527,1.18214 z m 4.44833,4.05987 0.16559,-0.10644 c 0.15509,0.1431 0.28302,0.21335 0.38441,0.21147 0.10188,-0.002 0.28173,-0.0862 0.53909,-0.25142 l 1.44961,-0.92934 c 0.4738,-0.30373 0.78119,-0.49449 0.92201,-0.5716 l -0.009,-0.0142 -3.59231,-0.40224 c -0.26886,0.17293 -0.42255,0.30553 -0.4615,0.39858 -0.038,0.0927 -0.0248,0.23486 0.0399,0.42395 l -0.16559,0.10642 -0.90369,-1.40927 0.1656,-0.10593 c 0.15648,0.14487 0.28491,0.21652 0.38718,0.21603 0.10276,-10e-4 0.28352,-0.0844 0.54088,-0.24953 l 2.91567,-1.8694 c 0.29679,-0.19036 0.45644,-0.33346 0.47944,-0.43167 0.0226,-0.0963 0.005,-0.2307 -0.0551,-0.40233 l 0.1656,-0.10644 0.90328,1.40928 -0.16558,0.10644 c -0.13439,-0.12666 -0.24914,-0.19721 -0.34686,-0.21238 -0.0977,-0.0157 -0.29125,0.0693 -0.58349,0.25687 l -1.48261,0.95054 c -0.33217,0.21327 -0.61698,0.38619 -0.85184,0.51928 l 0.0124,0.0192 3.59192,0.40234 c 0.23804,-0.15281 0.37846,-0.2753 0.42018,-0.36697 0.0431,-0.0923 0.032,-0.23625 -0.0316,-0.43404 l 0.1657,-0.10644 0.89912,1.40244 -0.16569,0.10593 c -0.13438,-0.12614 -0.24953,-0.1968 -0.34724,-0.21236 -0.0971,-0.0152 -0.29086,0.0697 -0.5835,0.25736 l -2.91526,1.86929 c -0.26926,0.17253 -0.42296,0.30552 -0.46152,0.39867 -0.0386,0.0922 -0.0252,0.23487 0.0395,0.42385 l -0.1656,0.10643 z m 8.76872,5.71123 c -0.094,-0.10546 -0.21415,-0.18165 -0.36003,-0.22565 -0.14547,-0.0435 -0.45832,-0.0689 -0.93865,-0.073 l -2.6927,-0.0298 c -0.81519,-0.0103 -1.38867,-0.0771 -1.71758,-0.20097 -0.33118,-0.12476 -0.56922,-0.34902 -0.71559,-0.67248 -0.0886,-0.19632 -0.14409,-0.39224 -0.16519,-0.58806 l 0.93033,-0.42026 0.17758,0.39311 c -0.27113,0.14964 -0.35972,0.33219 -0.26153,0.54871 0.13121,0.29036 0.48857,0.4509 1.07166,0.48261 l 2.06066,-2.35933 c 0.32196,-0.36924 0.51788,-0.6151 0.58805,-0.73858 0.0702,-0.12477 0.0954,-0.26331 0.0771,-0.41969 l 0.17935,-0.0813 0.70737,1.56475 -0.17937,0.0813 c -0.13119,-0.22119 -0.28074,-0.29412 -0.44912,-0.21792 -0.15547,0.0701 -0.361,0.24953 -0.61697,0.53811 l -1.47666,1.66009 2.01475,-0.032 c 0.4303,-0.007 0.73621,-0.0523 0.91835,-0.13487 0.21375,-0.0967 0.2858,-0.25548 0.21475,-0.47518 l 0.17936,-0.0813 0.63345,1.40106 z m 2.48409,8.40591 c -0.0591,-0.10503 -0.11148,-0.17847 -0.1532,-0.2206 -0.0417,-0.0418 -0.0885,-0.0716 -0.14042,-0.0895 -0.0505,-0.0169 -0.11972,-0.0212 -0.20909,-0.0115 -0.0882,0.0107 -0.22209,0.04 -0.39779,0.0899 l -3.33179,0.94599 c -0.17114,0.0486 -0.2954,0.0913 -0.37251,0.12476 -0.0753,0.034 -0.13298,0.071 -0.17154,0.111 -0.038,0.0404 -0.0661,0.0912 -0.0817,0.15231 -0.0165,0.0615 -0.0226,0.15549 -0.0192,0.28254 l -0.18898,0.0537 -0.45596,-1.60649 0.18897,-0.0537 c 0.0771,0.13763 0.14677,0.22713 0.20871,0.27022 0.0619,0.0435 0.14132,0.0624 0.23765,0.0578 0.0954,-0.006 0.24724,-0.0372 0.45465,-0.0963 l 1.47479,-0.41879 c 0.38717,-0.1101 0.78258,-0.21475 1.18214,-0.31751 0.39916,-0.1004 0.67486,-0.16421 0.82529,-0.18987 l -0.0188,-0.0656 -4.24835,-0.44128 -0.12565,-0.44317 3.47488,-2.51759 -0.0187,-0.0656 c -0.15232,0.0574 -0.43307,0.14965 -0.83996,0.27808 -0.40789,0.12843 -0.82807,0.25369 -1.26202,0.37706 l -1.41018,0.39997 c -0.17064,0.0487 -0.2954,0.0914 -0.372,0.12576 -0.0758,0.0324 -0.1331,0.0706 -0.17154,0.11148 -0.0385,0.039 -0.0666,0.0894 -0.0822,0.15092 -0.0166,0.0614 -0.0229,0.15549 -0.0192,0.28204 l -0.18907,0.0537 -0.39908,-1.40462 0.18947,-0.0537 c 0.0858,0.14726 0.16055,0.2408 0.22754,0.28035 0.0651,0.0395 0.14636,0.055 0.24269,0.0462 0.0967,-0.0105 0.24081,-0.0417 0.4303,-0.0954 l 3.33177,-0.9459 c 0.17621,-0.05 0.30464,-0.0936 0.38073,-0.12983 0.078,-0.0358 0.1335,-0.0743 0.17154,-0.11653 0.0363,-0.0431 0.0601,-0.0922 0.0744,-0.14904 0.0124,-0.0559 0.0192,-0.14726 0.0184,-0.2748 l 0.18897,-0.0537 0.39035,1.37489 -3.3634,2.41474 4.16897,0.42256 0.36974,1.30145 z m -4.31672,8.51096 0.19632,-0.0146 c 0.055,0.17016 0.12019,0.2872 0.19502,0.35141 0.0733,0.0638 0.28719,0.0821 0.63721,0.0554 l 3.45337,-0.26241 c 0.33257,-0.0253 0.53622,-0.0724 0.61144,-0.14131 0.0743,-0.0688 0.12755,-0.19771 0.15827,-0.38758 l 0.1963,-0.0147 0.12754,1.6813 -0.19631,0.0152 c -0.071,-0.19909 -0.15182,-0.32157 -0.24131,-0.36974 -0.0918,-0.0478 -0.29125,-0.0601 -0.59904,-0.0368 l -3.45339,0.26241 c -0.33763,0.0257 -0.54087,0.0743 -0.61104,0.14498 -0.0689,0.0698 -0.11932,0.1982 -0.15052,0.38302 l -0.19632,0.0152 z m -0.32475,-4.27499 0.19631,-0.0151 c 0.0554,0.17799 0.1225,0.2977 0.1996,0.35914 0.0762,0.0614 0.28846,0.0785 0.63304,0.0523 l 3.45337,-0.26292 c 0.35181,-0.0266 0.5601,-0.077 0.62709,-0.15181 0.0656,-0.0744 0.11328,-0.20137 0.14221,-0.38074 l 0.19631,-0.0147 0.12804,1.68537 -0.19641,0.0146 c -0.0688,-0.20555 -0.15132,-0.33259 -0.24903,-0.37709 -0.0968,-0.0444 -0.29453,-0.0554 -0.59182,-0.0329 l -1.36468,0.10365 c 0.0591,0.37063 0.1004,0.69547 0.12148,0.97433 0.0882,1.15837 -0.372,1.77396 -1.38034,1.85056 -1.07749,0.0822 -1.66564,-0.51749 -1.76285,-1.80101 z m 2.8143,1.00693 -2.34734,0.17847 c -8.9e-4,0.1881 0.007,0.40274 0.0253,0.64494 0.0363,0.47804 0.16333,0.81112 0.37886,0.99642 0.21525,0.18583 0.53127,0.26381 0.94233,0.2326 0.78763,-0.0601 1.15231,-0.49083 1.09127,-1.29185 -0.0256,-0.33535 -0.0558,-0.58904 -0.0904,-0.76058 z" />
        <path
           inkscape:connector-curvature="0"
           id="path87"
           style="fill:#ffec00;fill-rule:evenodd;stroke:#ffec00;stroke-width:0.21405247;stroke-linecap:butt;stroke-linejoin:miter;stroke-dasharray:none"
           d="m 246.76368,453.36322 0.18671,-0.0532 c 0.22565,-0.17659 0.42524,-0.32801 0.59678,-0.45416 l 0.68674,-0.50372 c 0.23031,-0.17064 0.39223,-0.31097 0.4835,-0.42246 0.0904,-0.1101 0.14816,-0.22614 0.17154,-0.34684 0.0234,-0.12011 0.0103,-0.27015 -0.0422,-0.4504 l -0.1321,-0.4629 -1.57022,0.44863 c -0.30324,0.0873 -0.48627,0.16836 -0.54959,0.24545 -0.0624,0.0766 -0.0904,0.21416 -0.083,0.41236 l -0.1867,0.0532 -0.45822,-1.60371 0.18669,-0.0532 c 0.0895,0.16103 0.17748,0.26281 0.2647,0.30691 0.0856,0.0439 0.29401,0.0183 0.62204,-0.0753 l 3.28728,-0.93955 c 0.33446,-0.0958 0.52621,-0.18581 0.57616,-0.27153 0.0482,-0.0849 0.0693,-0.21742 0.0619,-0.3964 l 0.1863,-0.0532 0.45873,1.60381 -0.1867,0.0532 c -0.0913,-0.15736 -0.17987,-0.25646 -0.26796,-0.29918 -0.0882,-0.0422 -0.29491,-0.0165 -0.62432,0.0776 l -1.39135,0.39768 0.13032,0.45643 c 0.0586,0.20504 0.16698,0.34824 0.32247,0.43079 0.15687,0.083 0.51471,0.14359 1.07393,0.17976 0.5261,0.0303 0.90595,0.10327 1.14042,0.21565 0.23209,0.11148 0.40323,0.35596 0.51006,0.73074 0.0343,0.11931 0.0505,0.28442 0.05,0.495 l -0.87207,0.24953 -0.10781,-0.37618 c 0.24169,-0.10131 0.33624,-0.24725 0.28164,-0.43851 -0.0331,-0.11515 -0.11654,-0.20097 -0.24904,-0.2528 -0.13308,-0.0527 -0.4069,-0.0981 -0.82123,-0.13993 -0.33663,-0.0293 -0.59033,-0.0669 -0.75691,-0.11138 -0.16738,-0.045 -0.32019,-0.12853 -0.45685,-0.25231 l -0.0293,0.008 c -0.009,0.45318 -0.23218,0.86336 -0.67158,1.23259 l -0.67437,0.5615 c -0.24864,0.20879 -0.4184,0.38212 -0.50689,0.51937 -0.0882,0.13755 -0.11515,0.31374 -0.0802,0.5284 l -0.1867,0.0532 z m 1.70787,5.10435 c -0.11515,-0.29402 -0.17154,-0.58171 -0.16887,-0.86106 0.002,-0.27985 0.0715,-0.54632 0.2088,-0.79814 0.13665,-0.25369 0.34725,-0.48954 0.62888,-0.71013 0.28213,-0.21842 0.64454,-0.41385 1.0891,-0.58815 0.54672,-0.21377 1.04864,-0.31464 1.50688,-0.30137 0.45694,0.0137 0.84957,0.13577 1.17531,0.36558 0.32614,0.2303 0.57021,0.5491 0.73076,0.95966 0.17064,0.43584 0.21741,0.84135 0.1418,1.21436 -0.0754,0.37291 -0.27163,0.70875 -0.58675,1.00594 -0.31514,0.2973 -0.74038,0.55001 -1.27759,0.76058 -0.57437,0.22476 -1.09275,0.32891 -1.55426,0.31107 -0.46239,-0.0157 -0.85224,-0.14269 -1.17015,-0.37895 -0.31979,-0.23535 -0.56059,-0.56238 -0.72391,-0.97939 z m 2.15747,-2.24002 c -0.75375,0.29452 -1.28362,0.62898 -1.58953,1.001 -0.30692,0.3734 -0.37707,0.77207 -0.21247,1.19265 0.10465,0.26746 0.27895,0.4611 0.52254,0.58032 0.24269,0.1207 0.54722,0.16242 0.9124,0.12664 0.36468,-0.0341 0.76701,-0.13804 1.20692,-0.31007 0.53493,-0.2097 0.9565,-0.43812 1.26529,-0.68497 0.30918,-0.24675 0.50728,-0.4949 0.5931,-0.74721 0.0852,-0.25101 0.0785,-0.50193 -0.0192,-0.75195 -0.0867,-0.2206 -0.21197,-0.39036 -0.37716,-0.50778 -0.1651,-0.11833 -0.3633,-0.19126 -0.59311,-0.22159 -0.2307,-0.0302 -0.49043,-0.0164 -0.77891,0.0413 -0.28857,0.0582 -0.59826,0.15183 -0.92984,0.28164 z m 2.69368,9.53395 c -0.13259,0.0758 -0.22989,0.13628 -0.29134,0.18077 -0.0629,0.0449 -0.1096,0.0856 -0.14132,0.12565 -0.0302,0.039 -0.0523,0.0766 -0.0638,0.11426 -0.0129,0.0367 -0.0166,0.0821 -0.0133,0.13617 0.004,0.0537 0.0197,0.13309 0.0486,0.23496 l -0.16826,0.0963 -0.82212,-1.43771 0.16836,-0.0963 c 0.10416,0.10822 0.18948,0.1762 0.25687,0.20415 0.0684,0.0276 0.14726,0.0293 0.23903,0.002 0.0909,-0.0252 0.23079,-0.0931 0.42017,-0.20177 l 1.43772,-0.82161 -1.09038,-1.90744 -1.43771,0.82201 c -0.15233,0.0873 -0.26103,0.15738 -0.32753,0.20742 -0.0639,0.051 -0.1101,0.10039 -0.13765,0.14725 -0.0271,0.0477 -0.0417,0.10317 -0.0422,0.16559 -9.8e-4,0.0629 0.0152,0.1541 0.0482,0.27482 l -0.16837,0.0963 -0.82568,-1.44415 0.16836,-0.0963 c 0.11794,0.12158 0.21187,0.19363 0.28491,0.21564 0.0724,0.0229 0.1536,0.0178 0.2431,-0.0146 0.0909,-0.0316 0.22157,-0.0968 0.38995,-0.19316 l 2.96749,-1.69686 c 0.15698,-0.0899 0.26974,-0.16193 0.33535,-0.21335 0.0661,-0.0532 0.1101,-0.10367 0.13577,-0.15361 0.0248,-0.0487 0.0363,-0.10188 0.0363,-0.15925 -9.8e-4,-0.0569 -0.0169,-0.14726 -0.0482,-0.26925 l 0.16838,-0.0963 0.82618,1.44456 -0.16876,0.0963 c -0.0822,-0.0861 -0.14915,-0.14447 -0.19918,-0.1748 -0.0499,-0.0302 -0.10178,-0.0472 -0.15589,-0.0523 -0.052,-0.005 -0.11981,0.008 -0.20276,0.0386 -0.0826,0.0302 -0.20324,0.0912 -0.36011,0.18065 l -1.21525,0.69498 1.09088,1.90705 1.21474,-0.69459 c 0.19909,-0.11416 0.32979,-0.20087 0.39084,-0.26241 0.0634,-0.061 0.1004,-0.12615 0.11328,-0.19354 0.0124,-0.0678 -0.002,-0.18026 -0.0431,-0.33584 l 0.16837,-0.0963 0.82213,1.43772 -0.16838,0.0963 c -0.10503,-0.111 -0.19225,-0.17938 -0.26102,-0.20692 -0.0684,-0.0275 -0.14776,-0.0271 -0.23902,5e-4 -0.0899,0.028 -0.22843,0.0944 -0.41612,0.20186 z m 7.13103,2.78725 -0.89318,0.63215 -0.22564,-0.3188 c 0.15043,-0.18442 0.2523,-0.35556 0.30641,-0.51243 0.055,-0.15827 0.0688,-0.30691 0.0413,-0.44586 -0.0281,-0.13952 -0.0941,-0.28262 -0.19909,-0.43077 -0.15698,-0.22108 -0.37024,-0.36656 -0.63999,-0.43445 -0.26885,-0.0693 -0.58765,-0.0482 -0.95282,0.0614 -0.36607,0.1106 -0.75781,0.31335 -1.17758,0.61015 -0.42158,0.29869 -0.75137,0.59499 -0.99089,0.88723 -0.24081,0.29263 -0.38024,0.5716 -0.41929,0.83857 -0.039,0.26519 0.0239,0.51472 0.18859,0.7473 0.12436,0.1761 0.25181,0.30225 0.38212,0.37885 0.12943,0.0754 0.27569,0.11377 0.4395,0.11199 0.16371,-0.002 0.37617,-0.0431 0.63899,-0.12527 l 0.22574,0.31931 -0.92251,0.65275 c -0.19729,-0.16421 -0.3845,-0.34219 -0.56059,-0.53483 -0.17798,-0.19275 -0.35557,-0.41563 -0.53583,-0.67021 -0.38628,-0.54593 -0.4936,-1.08958 -0.32067,-1.62997 0.17154,-0.54127 0.62431,-1.07155 1.35744,-1.59042 0.46011,-0.32564 0.91429,-0.53811 1.3629,-0.63949 0.44862,-0.0995 0.86701,-0.0748 1.25597,0.0725 0.38906,0.14765 0.72114,0.41601 0.99872,0.80824 0.13854,0.19591 0.25646,0.38351 0.35229,0.56337 0.0977,0.18027 0.19265,0.3959 0.28808,0.6486 z m -1.39867,6.36816 c -0.21703,-0.22981 -0.37707,-0.47517 -0.47934,-0.7353 -0.10327,-0.26014 -0.13815,-0.53306 -0.10555,-0.81836 0.0321,-0.2863 0.13894,-0.5836 0.31742,-0.89367 0.17986,-0.3083 0.44267,-0.62521 0.78951,-0.95323 0.42662,-0.40323 0.85414,-0.68447 1.28403,-0.84413 0.42938,-0.15825 0.83857,-0.19263 1.22713,-0.10131 0.38847,0.0912 0.73392,0.2954 1.03666,0.6161 0.32157,0.33989 0.517,0.69863 0.58628,1.07302 0.0702,0.3738 0.0137,0.7587 -0.167,1.15232 -0.18064,0.39362 -0.48022,0.78763 -0.9,1.18403 -0.44822,0.42335 -0.8895,0.7142 -1.32435,0.87019 -0.43444,0.15875 -0.84362,0.18718 -1.22714,0.0872 -0.3844,-0.0987 -0.73036,-0.31157 -1.03765,-0.63681 z m 1.16102,-2.88544 c -0.58805,0.55555 -0.95411,1.06431 -1.0986,1.52393 -0.14498,0.4611 -0.0606,0.85691 0.24954,1.18541 0.19721,0.20871 0.43167,0.32296 0.7018,0.34218 0.27025,0.0212 0.56844,-0.0541 0.89368,-0.22474 0.32524,-0.16788 0.6596,-0.41513 1.00278,-0.73947 0.41739,-0.39411 0.72292,-0.76426 0.91656,-1.10882 0.19453,-0.34447 0.2849,-0.64909 0.26974,-0.91517 -0.0142,-0.2642 -0.11465,-0.4945 -0.29908,-0.68942 -0.16292,-0.17254 -0.34268,-0.28263 -0.53998,-0.32991 -0.19721,-0.0477 -0.40868,-0.0412 -0.63304,0.0166 -0.22475,0.0586 -0.46061,0.16836 -0.70687,0.33028 -0.24547,0.16193 -0.49777,0.36469 -0.75653,0.60917 z m 3.74474,6.09256 c -0.10132,0.11744 -0.1757,0.21693 -0.22258,0.29768 -0.0471,0.0821 -0.0753,0.15411 -0.0825,0.21832 -0.009,0.0643 9.9e-4,0.12754 0.0267,0.19087 0.0265,0.0614 0.0789,0.14588 0.15866,0.25182 l -0.12655,0.14685 -1.31612,-1.13081 0.12615,-0.14726 c 0.15183,0.0758 0.26469,0.11189 0.3413,0.10822 0.0753,-0.003 0.15042,-0.0348 0.22385,-0.0953 0.0748,-0.0606 0.17621,-0.16571 0.30275,-0.31285 l 2.22713,-2.59331 c 0.11794,-0.13715 0.1996,-0.2427 0.24459,-0.31326 0.0444,-0.072 0.0688,-0.13447 0.0762,-0.18997 0.007,-0.0546 5e-4,-0.10821 -0.0188,-0.16241 -0.0206,-0.0532 -0.0656,-0.13299 -0.13577,-0.23715 l 0.12665,-0.14726 1.48717,1.27758 c 0.46794,0.40184 0.73907,0.78902 0.81479,1.16519 0.0737,0.37479 -0.045,0.74542 -0.35874,1.1111 -0.17938,0.20869 -0.37529,0.36378 -0.58904,0.46793 -0.21515,0.10317 -0.43307,0.15223 -0.65643,0.14538 -0.22248,-0.008 -0.44406,-0.0647 -0.66287,-0.1748 -0.21931,-0.10822 -0.42899,-0.24765 -0.6262,-0.41701 -0.22208,-0.19077 -0.39035,-0.34219 -0.50511,-0.45506 z m 1.06838,-1.24418 0.34814,0.29918 c 0.22574,0.19404 0.43761,0.32386 0.63402,0.39173 0.1981,0.0665 0.39541,0.0656 0.59083,-0.005 0.19453,-0.0693 0.38945,-0.21792 0.5831,-0.44316 0.14765,-0.17154 0.24764,-0.33398 0.30135,-0.48896 0.0523,-0.1546 0.0678,-0.30096 0.0477,-0.44089 -0.0211,-0.13903 -0.0757,-0.27153 -0.16232,-0.39728 -0.0863,-0.12428 -0.19591,-0.24309 -0.32762,-0.35646 -0.19908,-0.17064 -0.3509,-0.29402 -0.45773,-0.37202 z m 4.85116,8.49859 c 0.13388,-0.25232 0.23387,-0.5069 0.30086,-0.76475 0.0661,-0.25687 0.0793,-0.44536 0.0372,-0.56516 -0.0426,-0.11832 -0.13626,-0.22426 -0.28114,-0.31652 l -2.85473,-1.82163 0.10406,-0.16371 c 0.19542,0.0624 0.33861,0.0719 0.42899,0.0288 0.0904,-0.0449 0.21653,-0.19492 0.37885,-0.4495 l 1.83907,-2.88227 c 0.17065,-0.26787 0.25508,-0.45279 0.2533,-0.55466 -0.003,-0.10141 -0.0715,-0.22149 -0.20831,-0.36142 l 0.10464,-0.1638 1.39958,0.89317 -0.10465,0.16331 c -0.17243,-0.0574 -0.30454,-0.0729 -0.39858,-0.0463 -0.0941,0.0267 -0.23218,0.18353 -0.41611,0.47161 l -2.17164,3.40433 1.72897,1.10326 2.17163,-3.40433 c 0.1771,-0.27709 0.26064,-0.46556 0.25093,-0.56605 -0.0103,-0.0991 -0.0812,-0.21791 -0.21188,-0.35418 l 0.10415,-0.16371 1.39868,0.89219 -0.10464,0.1638 c -0.16699,-0.0574 -0.29721,-0.0729 -0.38947,-0.0492 -0.094,0.0248 -0.23535,0.18304 -0.42245,0.47617 l -2.17164,3.40382 0.53344,0.34041 -0.95917,1.50332 z m 5.74563,1.40471 0.0802,-0.1767 c 0.20464,0.0349 0.34864,0.0248 0.43168,-0.0307 0.083,-0.0569 0.18719,-0.22337 0.31196,-0.49817 l 0.70231,-1.54732 c 0.22981,-0.50599 0.38261,-0.82936 0.45733,-0.96838 l -0.0146,-0.007 -3.19235,1.59271 c -0.13022,0.28759 -0.18621,0.47983 -0.16876,0.57794 0.0178,0.0972 0.10543,0.20831 0.26052,0.3303 l -0.0803,0.17669 -1.50422,-0.68309 0.0803,-0.17659 c 0.20741,0.0362 0.35229,0.0265 0.43633,-0.0284 0.0848,-0.0565 0.18987,-0.22207 0.31464,-0.49688 l 1.41334,-3.11337 c 0.14408,-0.31652 0.19958,-0.52115 0.16658,-0.6147 -0.0336,-0.0917 -0.1207,-0.19364 -0.26191,-0.30374 l 0.0802,-0.1766 1.50411,0.68309 -0.0803,0.17659 c -0.17887,-0.0326 -0.31236,-0.0293 -0.40135,0.0103 -0.089,0.0399 -0.20415,0.21416 -0.34545,0.52572 l -0.71886,1.5831 c -0.16094,0.35457 -0.30453,0.65138 -0.42801,0.88713 l 0.0208,0.009 3.19276,-1.5927 c 0.11515,-0.2542 0.16559,-0.43128 0.15143,-0.52939 -0.0143,-0.0996 -0.1004,-0.21286 -0.25876,-0.34268 l 0.0799,-0.1766 1.49678,0.67933 -0.0803,0.17659 c -0.17937,-0.0324 -0.31196,-0.0293 -0.40135,0.0103 -0.0895,0.04 -0.20374,0.21475 -0.34545,0.52622 l -1.41334,3.11298 c -0.13072,0.28758 -0.1872,0.47933 -0.16927,0.57754 0.0178,0.0971 0.10544,0.2083 0.26004,0.3303 l -0.0803,0.17659 z m 9.48668,-1.99277 c -0.14032,-0.003 -0.2757,0.0335 -0.40501,0.1096 -0.12943,0.0762 -0.35695,0.2858 -0.68269,0.63076 l -1.82707,1.93084 c -0.55377,0.58438 -0.98723,0.95421 -1.2973,1.1092 -0.31246,0.15599 -0.63404,0.17848 -0.96661,0.0674 -0.20187,-0.0674 -0.38073,-0.15876 -0.53672,-0.2748 l 0.3188,-0.95561 0.40413,0.13536 c -0.0734,0.29631 -4e-4,0.48261 0.22257,0.55695 0.29769,0.0995 0.65415,-0.0515 1.06788,-0.45189 l -0.32752,-3.07533 c -0.0514,-0.48033 -0.0981,-0.78773 -0.14042,-0.92121 -0.0431,-0.13388 -0.12705,-0.24537 -0.2523,-0.33714 l 0.0615,-0.18441 1.60736,0.53671 -0.061,0.18393 c -0.24854,-0.0527 -0.40184,0.007 -0.45962,0.17987 -0.0532,0.15963 -0.0611,0.42889 -0.0239,0.80784 l 0.21336,2.18214 1.32662,-1.48072 c 0.28353,-0.31613 0.45606,-0.56843 0.51839,-0.75514 0.0733,-0.22019 0.007,-0.37884 -0.19998,-0.47477 l 0.0614,-0.18393 1.4395,0.48023 z m 6.70262,1.32712 c -0.11931,0.008 -0.20642,0.0226 -0.26192,0.0412 -0.0554,0.0193 -0.10131,0.0482 -0.13953,0.0868 -0.0367,0.0372 -0.0705,0.0968 -0.10029,0.18076 -0.0284,0.083 -0.0591,0.21475 -0.0904,0.39272 l -0.59132,3.36667 c -0.0303,0.17293 -0.0464,0.30136 -0.0495,0.3844 -0.002,0.0817 0.007,0.14905 0.0248,0.19998 0.0201,0.0515 0.0527,0.0982 0.1008,0.13854 0.0473,0.0408 0.12804,0.0868 0.2422,0.13854 l -0.0335,0.19087 -1.62344,-0.28491 0.0335,-0.19086 c 0.1555,-0.0103 0.2652,-0.0335 0.33031,-0.0697 0.0651,-0.0368 0.11605,-0.0991 0.1532,-0.1867 0.0358,-0.0867 0.0729,-0.23487 0.10961,-0.44505 l 0.26151,-1.48995 c 0.0688,-0.39224 0.14539,-0.78813 0.22615,-1.18769 0.0825,-0.39719 0.14359,-0.6702 0.1853,-0.81468 l -0.0665,-0.0115 -2.21752,3.58549 -0.44773,-0.0789 -0.74403,-4.16947 -0.0666,-0.0114 c -0.0136,0.16004 -0.0523,0.44862 -0.11376,0.86563 -0.0606,0.41789 -0.12982,0.84501 -0.20683,1.28351 l -0.25001,1.42534 c -0.0303,0.17243 -0.0465,0.30086 -0.0487,0.3844 -0.004,0.0812 0.005,0.14865 0.0253,0.19998 0.0183,0.0515 0.051,0.0982 0.0991,0.13804 0.0471,0.0408 0.12795,0.0867 0.2426,0.13854 l -0.0336,0.19136 -1.42018,-0.24953 0.0335,-0.19086 c 0.16789,-0.0129 0.28343,-0.0395 0.34724,-0.0817 0.0634,-0.0413 0.11189,-0.10691 0.14539,-0.1963 0.032,-0.0904 0.067,-0.23219 0.10039,-0.42345 l 0.59083,-3.36716 c 0.0311,-0.17798 0.0477,-0.31058 0.0487,-0.39401 9e-4,-0.0849 -0.009,-0.15093 -0.0302,-0.20236 -0.0226,-0.0509 -0.0559,-0.0936 -0.10039,-0.13022 -0.0445,-0.0349 -0.12298,-0.0803 -0.23676,-0.13447 l 0.0336,-0.19127 1.38956,0.24409 0.70092,4.02626 2.16709,-3.52305 1.31473,0.2307 z m 5.04014,5.44973 0.004,-0.19404 c 0.20504,-0.0482 0.33435,-0.11376 0.38896,-0.19771 0.0541,-0.0848 0.0844,-0.27886 0.0909,-0.58071 l 0.0766,-3.4181 c 0.007,-0.32891 -0.0193,-0.53305 -0.0793,-0.61371 -0.0587,-0.0799 -0.18165,-0.14459 -0.36468,-0.19316 l 0.004,-0.19403 3.64702,0.0817 -0.0267,1.19314 -0.39123,-0.009 c -0.0941,-0.31374 -0.19037,-0.53443 -0.29136,-0.66336 -0.10229,-0.12793 -0.28253,-0.19542 -0.54315,-0.20136 l -1.20138,-0.0265 -0.0444,1.99405 c 0.37657,-0.0229 0.71143,-0.0315 1.0005,-0.0252 1.19542,0.027 1.78129,0.53949 1.75919,1.53671 -0.0238,1.0671 -0.69497,1.58587 -2.01338,1.55654 z m 1.26152,-2.66705 -0.0523,2.32346 c 0.19225,0.0193 0.40968,0.032 0.65236,0.0376 0.47845,0.0105 0.82292,-0.0817 1.03539,-0.27529 0.21048,-0.19304 0.32107,-0.49589 0.33028,-0.90318 0.0174,-0.77902 -0.37983,-1.17898 -1.19096,-1.19731 -0.34258,-0.007 -0.60044,-0.003 -0.77475,0.0146 z m 8.29622,-3.03687 0.0904,1.18949 -0.38579,0.0294 c -0.05,-0.12575 -0.0991,-0.23585 -0.14817,-0.3289 -0.0495,-0.0954 -0.0999,-0.17253 -0.14904,-0.23536 -0.0495,-0.0625 -0.10276,-0.11099 -0.15965,-0.14588 -0.0574,-0.0354 -0.12249,-0.0574 -0.1973,-0.0665 -0.0738,-0.009 -0.16281,-0.009 -0.26518,-0.001 l -1.24547,0.0944 0.15697,2.06433 0.84312,-0.0638 c 0.11556,-0.009 0.20455,-0.032 0.26787,-0.0706 0.0634,-0.0376 0.11476,-0.0976 0.15142,-0.17937 0.0372,-0.0825 0.0693,-0.20959 0.0954,-0.38034 l 0.37152,-0.0284 0.11474,1.51294 -0.37112,0.0281 c -0.0481,-0.15458 -0.0991,-0.26934 -0.14953,-0.34684 -0.05,-0.0758 -0.10743,-0.12982 -0.17164,-0.15876 -0.0642,-0.0302 -0.15826,-0.0395 -0.28253,-0.0298 l -0.84273,0.0639 0.17252,2.27301 1.22476,-0.0932 c 0.12982,-0.0103 0.23357,-0.0288 0.31107,-0.0578 0.0793,-0.0276 0.14498,-0.0715 0.19859,-0.12982 0.0532,-0.0578 0.0991,-0.1316 0.13716,-0.22108 0.0376,-0.0913 0.0683,-0.18443 0.0923,-0.27897 0.0229,-0.0953 0.0541,-0.23575 0.0932,-0.41692 l 0.38985,-0.0298 0.0294,1.38807 -3.64792,0.27708 -0.0147,-0.19354 c 0.16055,-0.0541 0.26609,-0.10782 0.31742,-0.16469 0.0515,-0.0554 0.0822,-0.13072 0.0909,-0.22615 0.0103,-0.0954 0.007,-0.2413 -0.007,-0.43494 l -0.25874,-3.40879 c -0.0137,-0.17986 -0.0307,-0.31285 -0.0491,-0.39411 -0.0197,-0.0821 -0.0463,-0.1436 -0.0803,-0.18849 -0.0335,-0.0436 -0.0766,-0.0766 -0.12843,-0.1009 -0.0519,-0.0234 -0.14032,-0.0482 -0.2633,-0.072 l -0.0152,-0.19354 z m 2.73551,4.86861 -0.24864,-1.07711 0.37291,-0.0863 c 0.21008,0.33495 0.4165,0.55149 0.61927,0.64869 0.20285,0.0986 0.45238,0.11328 0.74918,0.0444 0.33901,-0.0785 0.58161,-0.23802 0.72709,-0.47794 0.14637,-0.24002 0.17748,-0.54455 0.0927,-0.91111 -0.0688,-0.29819 -0.17937,-0.51512 -0.33119,-0.65049 -0.15183,-0.13487 -0.31791,-0.20731 -0.49917,-0.21831 -0.17975,-0.0111 -0.40867,0.0151 -0.68576,0.0793 l -0.61659,0.1422 -0.10593,-0.45872 0.62432,-0.14398 c 0.40462,-0.0932 0.67852,-0.25142 0.81746,-0.47479 0.14132,-0.22248 0.16838,-0.51927 0.083,-0.88812 -0.067,-0.29085 -0.20731,-0.49688 -0.42205,-0.61837 -0.21376,-0.12249 -0.46012,-0.15142 -0.73719,-0.0872 -0.28531,0.0656 -0.49857,0.18392 -0.64215,0.35416 -0.1432,0.17154 -0.23994,0.44179 -0.28949,0.80875 l -0.37478,0.0867 -0.23358,-1.012 c 0.56615,-0.28995 1.09505,-0.49271 1.58776,-0.60598 1.06055,-0.24497 1.68308,0.0367 1.86889,0.84175 0.13894,0.60331 -0.0976,1.11753 -0.7134,1.54325 l 0.0124,0.0541 c 0.79823,0.04 1.274,0.39134 1.42671,1.05372 0.1096,0.47388 0.034,0.8789 -0.22802,1.21335 -0.26192,0.33575 -0.70875,0.57616 -1.34091,0.72203 -0.46873,0.10832 -0.97344,0.14727 -1.51283,0.11793 z m 7.54347,-1.80101 c -0.29908,0.1004 -0.58904,0.1431 -0.86801,0.12705 -0.27976,-0.0151 -0.54215,-0.0977 -0.78763,-0.24676 -0.24637,-0.14865 -0.47151,-0.37073 -0.67843,-0.66248 -0.20503,-0.29214 -0.38262,-0.66376 -0.53533,-1.11604 -0.18719,-0.55604 -0.26379,-1.06244 -0.22852,-1.51938 0.0358,-0.45595 0.1762,-0.84223 0.42157,-1.15687 0.24546,-0.31425 0.57576,-0.54276 0.99366,-0.68358 0.44317,-0.14954 0.85095,-0.1766 1.21981,-0.083 0.36883,0.0932 0.69496,0.30511 0.9766,0.63442 0.28175,0.32891 0.51383,0.76564 0.69826,1.31246 0.19679,0.58448 0.27608,1.10693 0.23575,1.56754 -0.0375,0.46101 -0.18353,0.84451 -0.43445,1.15093 -0.25092,0.30779 -0.58894,0.53265 -1.01328,0.67575 z m -2.13359,-2.26252 c 0.25824,0.76652 0.56655,1.31197 0.9234,1.63542 0.35824,0.32474 0.75275,0.41423 1.18124,0.26975 0.27203,-0.0917 0.4739,-0.25647 0.60461,-0.4941 0.13209,-0.23665 0.18858,-0.539 0.17026,-0.90547 -0.0161,-0.36567 -0.10101,-0.77257 -0.25191,-1.22029 -0.18304,-0.54406 -0.39124,-0.97662 -0.62294,-1.29681 -0.23169,-0.32018 -0.47022,-0.53037 -0.71796,-0.62809 -0.24627,-0.0976 -0.49728,-0.10275 -0.75186,-0.0169 -0.22476,0.0758 -0.39997,0.19313 -0.52573,0.35229 -0.12565,0.15925 -0.2082,0.35368 -0.24952,0.58171 -0.0413,0.22891 -0.0404,0.48905 0.004,0.78029 0.0445,0.29086 0.12298,0.6046 0.23675,0.94223 z m 7.99991,-6.23418 0.0894,0.17204 c -0.11515,0.10039 -0.1871,0.18482 -0.21742,0.25181 -0.0307,0.0678 -0.0335,0.14675 -0.0103,0.23941 0.0229,0.0915 0.0853,0.23219 0.18482,0.42396 l 1.57209,3.03537 c 0.0698,0.13537 0.12576,0.23537 0.16659,0.29958 0.0426,0.0642 0.0825,0.11238 0.12109,0.14548 0.0363,0.0324 0.0744,0.0558 0.11149,0.0682 0.0362,0.0147 0.0812,0.0203 0.13577,0.0193 0.0537,-0.002 0.13259,-0.0142 0.23674,-0.0391 l 0.089,0.17254 -1.474,0.76334 -0.0894,-0.17252 c 0.11149,-0.0986 0.18393,-0.18165 0.21516,-0.24815 0.0302,-0.067 0.034,-0.14498 0.0114,-0.23813 -0.0221,-0.0922 -0.0834,-0.23487 -0.18392,-0.4289 l -1.85879,-3.58914 -1.85969,0.96333 1.8583,3.58915 c 0.0808,0.15559 0.14638,0.26747 0.19365,0.33584 0.0482,0.066 0.0958,0.11416 0.14171,0.14359 0.0463,0.0293 0.10131,0.0463 0.16331,0.0491 0.0629,0.004 0.15508,-0.009 0.27707,-0.0367 l 0.089,0.17203 -1.47756,0.76514 -0.089,-0.17204 c 0.12655,-0.11288 0.20226,-0.20364 0.22753,-0.27619 0.0256,-0.071 0.0243,-0.15231 -0.005,-0.24357 -0.028,-0.0917 -0.088,-0.22525 -0.17709,-0.3973 l -1.57199,-3.03588 c -0.083,-0.16014 -0.15054,-0.27568 -0.19909,-0.34357 -0.0505,-0.0678 -0.0991,-0.11425 -0.14825,-0.1418 -0.0472,-0.0271 -0.10009,-0.0408 -0.15727,-0.0431 -0.0569,-9e-4 -0.14776,0.011 -0.27075,0.0372 l -0.0894,-0.17244 z m 6.78973,2.21931 -0.10456,-0.16282 c 0.0967,-0.0932 0.16233,-0.17065 0.20049,-0.2317 0.0375,-0.0613 0.0541,-0.12515 0.0495,-0.18946 -0.003,-0.0651 -0.0316,-0.13666 -0.0835,-0.21694 -0.0482,-0.0749 -0.10871,-0.15142 -0.18302,-0.22712 -0.0744,-0.0757 -0.16283,-0.15867 -0.2652,-0.24487 l -0.39906,-0.34962 -1.54822,0.99593 0.0958,0.39868 c 0.0482,0.19948 0.09,0.34902 0.12714,0.44405 0.0358,0.0953 0.0762,0.17838 0.12011,0.24675 0.0852,0.1326 0.18214,0.20782 0.28996,0.22705 0.10732,0.0192 0.23803,-0.007 0.38995,-0.0775 l 0.10505,0.16331 -1.4189,0.9124 -0.10504,-0.16282 c 0.11099,-0.0991 0.17243,-0.2408 0.18442,-0.42384 0.0124,-0.18264 -0.0129,-0.41839 -0.0743,-0.7042 l -0.97988,-4.5699 0.52482,-0.33764 3.51343,2.97899 c 0.16421,0.13854 0.29542,0.23992 0.39451,0.30414 0.0991,0.0647 0.19504,0.10415 0.2858,0.11792 0.0895,0.0147 0.19316,9e-4 0.3078,-0.0395 l 0.10505,0.16332 z m -2.43039,-0.97344 1.38995,-0.89358 -2.0106,-1.73728 z m 4.69608,-7.48797 0.72112,0.82251 -0.29402,0.25786 c -0.19858,-0.13071 -0.37984,-0.21425 -0.54126,-0.25181 -0.16293,-0.0385 -0.31247,-0.0368 -0.44773,0.005 -0.13587,0.0417 -0.27114,0.12248 -0.4079,0.2422 -0.20365,0.17886 -0.32613,0.40589 -0.36606,0.68168 -0.0412,0.27432 0.0129,0.58945 0.15965,0.94125 0.14774,0.35239 0.38995,0.72163 0.72847,1.10792 0.3404,0.38856 0.66981,0.68626 0.98494,0.89406 0.31602,0.20959 0.60777,0.31929 0.87751,0.3303 0.26797,0.011 0.50966,-0.0771 0.72391,-0.26469 0.16193,-0.14221 0.27431,-0.28164 0.33723,-0.41929 0.0615,-0.13626 0.0848,-0.2858 0.066,-0.44862 -0.0188,-0.16292 -0.0817,-0.36933 -0.19037,-0.62253 l 0.29362,-0.25736 0.74492,0.85006 c -0.14309,0.21326 -0.30045,0.4174 -0.47428,0.61244 -0.17341,0.1972 -0.37667,0.39678 -0.61104,0.60232 -0.50322,0.44079 -1.03259,0.6036 -1.58814,0.48755 -0.55605,-0.11465 -1.12992,-0.51005 -1.72213,-1.18581 -0.37153,-0.42384 -0.62989,-0.85374 -0.77703,-1.28946 -0.14499,-0.43584 -0.16382,-0.85512 -0.0574,-1.25697 0.10643,-0.40234 0.3394,-0.76017 0.70053,-1.0767 0.18024,-0.15826 0.35497,-0.29442 0.52383,-0.40868 0.16925,-0.11604 0.3739,-0.23258 0.6156,-0.35328 z m 7.37747,-1.30602 c 0.11,0.10504 0.19632,0.18076 0.25686,0.22713 0.061,0.0473 0.11377,0.0803 0.16054,0.0991 0.0459,0.0178 0.0885,0.0285 0.12804,0.0285 0.039,9.8e-4 0.0834,-0.008 0.13438,-0.0267 0.0499,-0.0193 0.12158,-0.0573 0.21097,-0.11377 l 0.14043,0.13348 -1.14093,1.20008 -0.14082,-0.13348 c 0.0737,-0.13071 0.11428,-0.23208 0.122,-0.30463 0.007,-0.0732 -0.0141,-0.14954 -0.0669,-0.22931 -0.0505,-0.0799 -0.15559,-0.19452 -0.31384,-0.34497 l -1.20008,-1.14091 -1.51382,1.59181 1.20007,1.14132 c 0.12665,0.1207 0.22525,0.20464 0.29224,0.25419 0.0673,0.0467 0.12795,0.0766 0.18076,0.0894 0.0536,0.0124 0.11099,0.0106 0.17065,-0.007 0.0606,-0.0169 0.14359,-0.0591 0.24953,-0.12526 l 0.14082,0.13349 -1.14686,1.20602 -0.14034,-0.13388 c 0.083,-0.14775 0.12477,-0.25835 0.12477,-0.33495 9e-4,-0.0758 -0.0265,-0.1523 -0.0839,-0.22892 -0.0564,-0.0775 -0.15648,-0.18392 -0.2973,-0.3179 l -2.47716,-2.35557 c -0.13072,-0.12437 -0.23208,-0.21148 -0.30047,-0.25964 -0.0698,-0.0482 -0.13071,-0.0758 -0.18619,-0.0858 -0.0537,-0.0103 -0.10784,-0.006 -0.16293,0.0106 -0.0541,0.0178 -0.13576,0.0586 -0.24359,0.12337 l -0.14082,-0.13348 1.14687,-1.20603 0.14033,0.13398 c -0.0591,0.10316 -0.0954,0.18433 -0.1101,0.24082 -0.0146,0.0569 -0.0164,0.11098 -0.006,0.1642 0.0105,0.0515 0.0417,0.11238 0.0949,0.18353 0.0527,0.0706 0.14588,0.16836 0.2766,0.29313 l 1.01427,0.96422 1.51381,-1.59181 -1.01377,-0.96473 c -0.16648,-0.15776 -0.28719,-0.25824 -0.36329,-0.29907 -0.0766,-0.043 -0.15004,-0.0601 -0.21792,-0.0527 -0.0688,0.007 -0.17253,0.0536 -0.30969,0.13754 l -0.14032,-0.13388 1.14082,-1.20008 0.14092,0.13398 c -0.0763,0.1325 -0.11654,0.23527 -0.12347,0.30919 -0.007,0.0733 0.0165,0.14905 0.0693,0.22892 0.0524,0.0779 0.15598,0.19166 0.31286,0.3408 z m 3.80696,-3.22447 c -0.18254,0.25736 -0.39213,0.4625 -0.62709,0.61342 -0.23526,0.15222 -0.49629,0.23993 -0.78257,0.2633 -0.2867,0.0248 -0.59956,-0.0225 -0.93808,-0.13715 -0.33762,-0.11614 -0.70003,-0.31196 -1.08909,-0.58815 -0.47845,-0.3399 -0.83807,-0.70459 -1.07799,-1.09503 -0.23952,-0.38985 -0.35279,-0.78486 -0.33902,-1.18353 0.0137,-0.39858 0.14677,-0.77753 0.40185,-1.13715 0.27113,-0.38123 0.58487,-0.64315 0.93816,-0.78447 0.35319,-0.14131 0.74176,-0.16153 1.16283,-0.0606 0.42156,0.10039 0.86611,0.3174 1.33683,0.65137 0.50223,0.35735 0.87385,0.73352 1.11188,1.12942 0.24042,0.395 0.34824,0.7913 0.32484,1.18681 -0.0217,0.39629 -0.16331,0.77703 -0.42255,1.1417 z m -3.05609,-0.57566 c 0.65969,0.46834 1.22991,0.72798 1.70885,0.7803 0.48073,0.0519 0.85234,-0.10782 1.11377,-0.47617 0.16658,-0.23396 0.23308,-0.48626 0.1987,-0.75512 -0.0321,-0.26925 -0.16382,-0.54673 -0.39413,-0.83252 -0.22842,-0.2863 -0.53622,-0.56616 -0.92111,-0.83907 -0.46834,-0.33257 -0.89039,-0.56011 -1.26658,-0.6831 -0.37529,-0.12337 -0.69182,-0.15271 -0.94956,-0.0861 -0.25696,0.0661 -0.46289,0.20919 -0.61837,0.42801 -0.13716,0.19353 -0.21009,0.39133 -0.21792,0.59409 -0.009,0.20275 0.039,0.40868 0.13943,0.61739 0.10141,0.20919 0.25507,0.41928 0.462,0.62897 0.20681,0.20919 0.45456,0.417 0.74492,0.62342 z m 2.78773,-9.0545 0.94867,0.54444 -0.19444,0.33901 c -0.2303,-0.0591 -0.42899,-0.0793 -0.59409,-0.0624 -0.16648,0.0165 -0.3074,0.0665 -0.42156,0.14954 -0.11465,0.0839 -0.21652,0.20414 -0.30691,0.36191 -0.13537,0.23537 -0.17708,0.48995 -0.12565,0.76336 0.0499,0.27291 0.20315,0.55326 0.45644,0.83857 0.2541,0.28579 0.60272,0.55594 1.04867,0.81201 0.44772,0.25686 0.85551,0.43157 1.22158,0.52611 0.36656,0.0959 0.67803,0.10505 0.93678,0.028 0.25686,-0.0762 0.45734,-0.23802 0.59905,-0.48478 0.10732,-0.18719 0.16836,-0.35606 0.18303,-0.50599 0.0137,-0.14914 -0.0124,-0.29819 -0.083,-0.44595 -0.0705,-0.14815 -0.1972,-0.32296 -0.38212,-0.5271 l 0.19453,-0.33902 0.98028,0.56248 c -0.066,0.24815 -0.14855,0.49262 -0.24991,0.73353 -0.1001,0.2426 -0.22754,0.49727 -0.38312,0.76792 -0.33258,0.57982 -0.7807,0.90555 -1.34409,0.97611 -0.56287,0.0716 -1.23445,-0.11604 -2.01337,-0.56328 -0.48904,-0.28024 -0.87296,-0.6032 -1.15331,-0.96799 -0.27885,-0.36508 -0.43256,-0.75552 -0.4619,-1.17016 -0.0293,-0.41521 0.0744,-0.82944 0.31326,-1.24595 0.1198,-0.20782 0.2404,-0.39362 0.36339,-0.55644 0.12249,-0.1642 0.27847,-0.34089 0.46784,-0.53393 z m 0.5941,-1.26797 1.55742,-3.98188 1.28076,0.50094 -0.14082,0.36062 c -0.23209,-0.0284 -0.42018,-0.0408 -0.56378,-0.0368 -0.14359,0.005 -0.25825,0.0253 -0.34546,0.0591 -0.0856,0.0336 -0.15726,0.0793 -0.20958,0.13488 -0.0532,0.0579 -0.10643,0.1542 -0.15916,0.28857 l -0.18263,0.46696 3.76811,1.47399 c 0.14448,0.0563 0.26241,0.0944 0.35457,0.11148 0.0932,0.0174 0.17016,0.0196 0.23308,0.007 0.0638,-0.0137 0.11972,-0.0426 0.17105,-0.0882 0.0492,-0.0459 0.11198,-0.12426 0.18492,-0.23298 l 0.18074,0.0706 -0.65791,1.68221 -0.18064,-0.0711 c 0.0124,-0.0808 0.0192,-0.15321 0.0212,-0.21744 0.004,-0.0639 -0.003,-0.11832 -0.017,-0.16609 -0.0141,-0.0463 -0.039,-0.089 -0.0738,-0.13031 -0.0353,-0.0399 -0.0882,-0.0821 -0.15915,-0.12615 -0.0702,-0.0431 -0.17897,-0.0931 -0.32624,-0.15093 l -3.76801,-1.47339 -0.18125,0.46328 c -0.0454,0.11566 -0.071,0.21564 -0.0789,0.29819 -0.007,0.0839 0.011,0.17115 0.0564,0.26242 0.0454,0.0917 0.12199,0.18808 0.2298,0.29085 0.10822,0.10366 0.25142,0.21554 0.4298,0.3404 l -0.1426,0.36468 z m 8.06868,-6.86455 -0.1862,-0.0537 c 0.005,-0.20731 -0.0266,-0.34813 -0.0936,-0.42247 -0.0684,-0.0737 -0.24823,-0.1523 -0.53859,-0.23584 l -1.63304,-0.46884 c -0.53444,-0.15359 -0.87623,-0.25725 -1.02488,-0.31097 l -0.005,0.0156 2.04231,2.92538 c 0.30314,0.0873 0.50134,0.11466 0.59588,0.0825 0.0936,-0.032 0.19087,-0.13488 0.28897,-0.30553 l 0.18631,0.0532 -0.45605,1.58776 -0.18621,-0.0532 c 0.005,-0.21059 -0.0253,-0.35229 -0.0923,-0.42761 -0.0679,-0.0757 -0.24725,-0.15548 -0.53761,-0.23893 l -3.2859,-0.94361 c -0.33446,-0.0959 -0.54455,-0.1211 -0.63265,-0.0749 -0.0856,0.0468 -0.17381,0.14777 -0.26191,0.30325 l -0.18671,-0.0532 0.45596,-1.58816 0.1867,0.0537 c -0.006,0.18205 0.0161,0.31375 0.0684,0.3958 0.0524,0.0822 0.24181,0.17065 0.5707,0.26518 l 1.67119,0.47984 c 0.37431,0.10733 0.68854,0.20603 0.93996,0.29363 l 0.006,-0.0221 -2.04181,-2.92539 c -0.26837,-0.0771 -0.45051,-0.10131 -0.54594,-0.0729 -0.0963,0.0288 -0.19592,0.13022 -0.30096,0.30642 l -0.1867,-0.0537 0.45368,-1.57984 0.1863,0.0536 c -0.006,0.18214 0.0169,0.31335 0.0688,0.3959 0.0523,0.0822 0.24181,0.17025 0.57071,0.26469 l 3.2864,0.94363 c 0.30324,0.0873 0.50134,0.11475 0.59588,0.083 0.0936,-0.032 0.19086,-0.13488 0.28896,-0.30592 l 0.18631,0.0536 z" />
      </g>
    </g>
  </g>
</svg>
